%TF.GenerationSoftware,KiCad,Pcbnew,(5.1.6)-1*%
%TF.CreationDate,2021-03-30T00:51:02+09:00*%
%TF.ProjectId,CubBELMonitor,43756242-454c-44d6-9f6e-69746f722e6b,rev?*%
%TF.SameCoordinates,Original*%
%TF.FileFunction,Legend,Bot*%
%TF.FilePolarity,Positive*%
%FSLAX46Y46*%
G04 Gerber Fmt 4.6, Leading zero omitted, Abs format (unit mm)*
G04 Created by KiCad (PCBNEW (5.1.6)-1) date 2021-03-30 00:51:02*
%MOMM*%
%LPD*%
G01*
G04 APERTURE LIST*
%ADD10C,0.150000*%
%ADD11C,0.120000*%
%ADD12O,1.950000X1.700000*%
%ADD13O,2.000000X1.700000*%
%ADD14R,1.200000X4.000000*%
%ADD15R,0.800000X0.900000*%
%ADD16R,1.700000X1.700000*%
%ADD17O,1.700000X1.700000*%
%ADD18O,1.700000X1.950000*%
%ADD19O,1.700000X2.000000*%
%ADD20R,0.500000X1.600000*%
G04 APERTURE END LIST*
D10*
X113842976Y-79957142D02*
X113890595Y-80004761D01*
X114033452Y-80052380D01*
X114128690Y-80052380D01*
X114271547Y-80004761D01*
X114366785Y-79909523D01*
X114414404Y-79814285D01*
X114462023Y-79623809D01*
X114462023Y-79480952D01*
X114414404Y-79290476D01*
X114366785Y-79195238D01*
X114271547Y-79100000D01*
X114128690Y-79052380D01*
X114033452Y-79052380D01*
X113890595Y-79100000D01*
X113842976Y-79147619D01*
X112985833Y-79385714D02*
X112985833Y-80052380D01*
X113414404Y-79385714D02*
X113414404Y-79909523D01*
X113366785Y-80004761D01*
X113271547Y-80052380D01*
X113128690Y-80052380D01*
X113033452Y-80004761D01*
X112985833Y-79957142D01*
X112509642Y-80052380D02*
X112509642Y-79052380D01*
X112509642Y-79433333D02*
X112414404Y-79385714D01*
X112223928Y-79385714D01*
X112128690Y-79433333D01*
X112081071Y-79480952D01*
X112033452Y-79576190D01*
X112033452Y-79861904D01*
X112081071Y-79957142D01*
X112128690Y-80004761D01*
X112223928Y-80052380D01*
X112414404Y-80052380D01*
X112509642Y-80004761D01*
X111271547Y-79528571D02*
X111128690Y-79576190D01*
X111081071Y-79623809D01*
X111033452Y-79719047D01*
X111033452Y-79861904D01*
X111081071Y-79957142D01*
X111128690Y-80004761D01*
X111223928Y-80052380D01*
X111604880Y-80052380D01*
X111604880Y-79052380D01*
X111271547Y-79052380D01*
X111176309Y-79100000D01*
X111128690Y-79147619D01*
X111081071Y-79242857D01*
X111081071Y-79338095D01*
X111128690Y-79433333D01*
X111176309Y-79480952D01*
X111271547Y-79528571D01*
X111604880Y-79528571D01*
X110128690Y-80052380D02*
X110604880Y-80052380D01*
X110604880Y-79052380D01*
X109795357Y-79528571D02*
X109462023Y-79528571D01*
X109319166Y-80052380D02*
X109795357Y-80052380D01*
X109795357Y-79052380D01*
X109319166Y-79052380D01*
X108890595Y-80052380D02*
X108890595Y-79052380D01*
X108557261Y-79766666D01*
X108223928Y-79052380D01*
X108223928Y-80052380D01*
X107604880Y-80052380D02*
X107700119Y-80004761D01*
X107747738Y-79957142D01*
X107795357Y-79861904D01*
X107795357Y-79576190D01*
X107747738Y-79480952D01*
X107700119Y-79433333D01*
X107604880Y-79385714D01*
X107462023Y-79385714D01*
X107366785Y-79433333D01*
X107319166Y-79480952D01*
X107271547Y-79576190D01*
X107271547Y-79861904D01*
X107319166Y-79957142D01*
X107366785Y-80004761D01*
X107462023Y-80052380D01*
X107604880Y-80052380D01*
X106842976Y-79385714D02*
X106842976Y-80052380D01*
X106842976Y-79480952D02*
X106795357Y-79433333D01*
X106700119Y-79385714D01*
X106557261Y-79385714D01*
X106462023Y-79433333D01*
X106414404Y-79528571D01*
X106414404Y-80052380D01*
X105938214Y-80052380D02*
X105938214Y-79385714D01*
X105938214Y-79052380D02*
X105985833Y-79100000D01*
X105938214Y-79147619D01*
X105890595Y-79100000D01*
X105938214Y-79052380D01*
X105938214Y-79147619D01*
X105604880Y-79385714D02*
X105223928Y-79385714D01*
X105462023Y-79052380D02*
X105462023Y-79909523D01*
X105414404Y-80004761D01*
X105319166Y-80052380D01*
X105223928Y-80052380D01*
X104747738Y-80052380D02*
X104842976Y-80004761D01*
X104890595Y-79957142D01*
X104938214Y-79861904D01*
X104938214Y-79576190D01*
X104890595Y-79480952D01*
X104842976Y-79433333D01*
X104747738Y-79385714D01*
X104604880Y-79385714D01*
X104509642Y-79433333D01*
X104462023Y-79480952D01*
X104414404Y-79576190D01*
X104414404Y-79861904D01*
X104462023Y-79957142D01*
X104509642Y-80004761D01*
X104604880Y-80052380D01*
X104747738Y-80052380D01*
X103985833Y-80052380D02*
X103985833Y-79385714D01*
X103985833Y-79576190D02*
X103938214Y-79480952D01*
X103890595Y-79433333D01*
X103795357Y-79385714D01*
X103700119Y-79385714D01*
X114462023Y-80797619D02*
X114414404Y-80750000D01*
X114319166Y-80702380D01*
X114081071Y-80702380D01*
X113985833Y-80750000D01*
X113938214Y-80797619D01*
X113890595Y-80892857D01*
X113890595Y-80988095D01*
X113938214Y-81130952D01*
X114509642Y-81702380D01*
X113890595Y-81702380D01*
X113271547Y-80702380D02*
X113176309Y-80702380D01*
X113081071Y-80750000D01*
X113033452Y-80797619D01*
X112985833Y-80892857D01*
X112938214Y-81083333D01*
X112938214Y-81321428D01*
X112985833Y-81511904D01*
X113033452Y-81607142D01*
X113081071Y-81654761D01*
X113176309Y-81702380D01*
X113271547Y-81702380D01*
X113366785Y-81654761D01*
X113414404Y-81607142D01*
X113462023Y-81511904D01*
X113509642Y-81321428D01*
X113509642Y-81083333D01*
X113462023Y-80892857D01*
X113414404Y-80797619D01*
X113366785Y-80750000D01*
X113271547Y-80702380D01*
X112557261Y-80797619D02*
X112509642Y-80750000D01*
X112414404Y-80702380D01*
X112176309Y-80702380D01*
X112081071Y-80750000D01*
X112033452Y-80797619D01*
X111985833Y-80892857D01*
X111985833Y-80988095D01*
X112033452Y-81130952D01*
X112604880Y-81702380D01*
X111985833Y-81702380D01*
X111033452Y-81702380D02*
X111604880Y-81702380D01*
X111319166Y-81702380D02*
X111319166Y-80702380D01*
X111414404Y-80845238D01*
X111509642Y-80940476D01*
X111604880Y-80988095D01*
X110604880Y-81607142D02*
X110557261Y-81654761D01*
X110604880Y-81702380D01*
X110652500Y-81654761D01*
X110604880Y-81607142D01*
X110604880Y-81702380D01*
X110223928Y-80702380D02*
X109604880Y-80702380D01*
X109938214Y-81083333D01*
X109795357Y-81083333D01*
X109700119Y-81130952D01*
X109652500Y-81178571D01*
X109604880Y-81273809D01*
X109604880Y-81511904D01*
X109652500Y-81607142D01*
X109700119Y-81654761D01*
X109795357Y-81702380D01*
X110081071Y-81702380D01*
X110176309Y-81654761D01*
X110223928Y-81607142D01*
X109176309Y-81607142D02*
X109128690Y-81654761D01*
X109176309Y-81702380D01*
X109223928Y-81654761D01*
X109176309Y-81607142D01*
X109176309Y-81702380D01*
X108795357Y-80702380D02*
X108176309Y-80702380D01*
X108509642Y-81083333D01*
X108366785Y-81083333D01*
X108271547Y-81130952D01*
X108223928Y-81178571D01*
X108176309Y-81273809D01*
X108176309Y-81511904D01*
X108223928Y-81607142D01*
X108271547Y-81654761D01*
X108366785Y-81702380D01*
X108652500Y-81702380D01*
X108747738Y-81654761D01*
X108795357Y-81607142D01*
X107557261Y-80702380D02*
X107462023Y-80702380D01*
X107366785Y-80750000D01*
X107319166Y-80797619D01*
X107271547Y-80892857D01*
X107223928Y-81083333D01*
X107223928Y-81321428D01*
X107271547Y-81511904D01*
X107319166Y-81607142D01*
X107366785Y-81654761D01*
X107462023Y-81702380D01*
X107557261Y-81702380D01*
X107652500Y-81654761D01*
X107700119Y-81607142D01*
X107747738Y-81511904D01*
X107795357Y-81321428D01*
X107795357Y-81083333D01*
X107747738Y-80892857D01*
X107700119Y-80797619D01*
X107652500Y-80750000D01*
X107557261Y-80702380D01*
X113795357Y-82876190D02*
X113842976Y-82828571D01*
X113938214Y-82780952D01*
X114033452Y-82780952D01*
X114128690Y-82828571D01*
X114176309Y-82876190D01*
X114223928Y-82971428D01*
X114223928Y-83066666D01*
X114176309Y-83161904D01*
X114128690Y-83209523D01*
X114033452Y-83257142D01*
X113938214Y-83257142D01*
X113842976Y-83209523D01*
X113795357Y-83161904D01*
X113795357Y-82780952D02*
X113795357Y-83161904D01*
X113747738Y-83209523D01*
X113700119Y-83209523D01*
X113604880Y-83161904D01*
X113557261Y-83066666D01*
X113557261Y-82828571D01*
X113652500Y-82685714D01*
X113795357Y-82590476D01*
X113985833Y-82542857D01*
X114176309Y-82590476D01*
X114319166Y-82685714D01*
X114414404Y-82828571D01*
X114462023Y-83019047D01*
X114414404Y-83209523D01*
X114319166Y-83352380D01*
X114176309Y-83447619D01*
X113985833Y-83495238D01*
X113795357Y-83447619D01*
X113652500Y-83352380D01*
X113128690Y-82685714D02*
X113128690Y-83352380D01*
X113128690Y-82780952D02*
X113081071Y-82733333D01*
X112985833Y-82685714D01*
X112842976Y-82685714D01*
X112747738Y-82733333D01*
X112700119Y-82828571D01*
X112700119Y-83352380D01*
X112462023Y-83447619D02*
X111700119Y-83447619D01*
X111557261Y-82685714D02*
X111319166Y-83352380D01*
X111081071Y-82685714D02*
X111319166Y-83352380D01*
X111414404Y-83590476D01*
X111462023Y-83638095D01*
X111557261Y-83685714D01*
X110557261Y-83352380D02*
X110652500Y-83304761D01*
X110700119Y-83257142D01*
X110747738Y-83161904D01*
X110747738Y-82876190D01*
X110700119Y-82780952D01*
X110652500Y-82733333D01*
X110557261Y-82685714D01*
X110414404Y-82685714D01*
X110319166Y-82733333D01*
X110271547Y-82780952D01*
X110223928Y-82876190D01*
X110223928Y-83161904D01*
X110271547Y-83257142D01*
X110319166Y-83304761D01*
X110414404Y-83352380D01*
X110557261Y-83352380D01*
X109842976Y-83304761D02*
X109747738Y-83352380D01*
X109557261Y-83352380D01*
X109462023Y-83304761D01*
X109414404Y-83209523D01*
X109414404Y-83161904D01*
X109462023Y-83066666D01*
X109557261Y-83019047D01*
X109700119Y-83019047D01*
X109795357Y-82971428D01*
X109842976Y-82876190D01*
X109842976Y-82828571D01*
X109795357Y-82733333D01*
X109700119Y-82685714D01*
X109557261Y-82685714D01*
X109462023Y-82733333D01*
X108985833Y-83352380D02*
X108985833Y-82685714D01*
X108985833Y-82352380D02*
X109033452Y-82400000D01*
X108985833Y-82447619D01*
X108938214Y-82400000D01*
X108985833Y-82352380D01*
X108985833Y-82447619D01*
X108509642Y-83352380D02*
X108509642Y-82352380D01*
X108081071Y-83352380D02*
X108081071Y-82828571D01*
X108128690Y-82733333D01*
X108223928Y-82685714D01*
X108366785Y-82685714D01*
X108462023Y-82733333D01*
X108509642Y-82780952D01*
X107604880Y-83352380D02*
X107604880Y-82685714D01*
X107604880Y-82352380D02*
X107652500Y-82400000D01*
X107604880Y-82447619D01*
X107557261Y-82400000D01*
X107604880Y-82352380D01*
X107604880Y-82447619D01*
X107176309Y-83304761D02*
X107081071Y-83352380D01*
X106890595Y-83352380D01*
X106795357Y-83304761D01*
X106747738Y-83209523D01*
X106747738Y-83161904D01*
X106795357Y-83066666D01*
X106890595Y-83019047D01*
X107033452Y-83019047D01*
X107128690Y-82971428D01*
X107176309Y-82876190D01*
X107176309Y-82828571D01*
X107128690Y-82733333D01*
X107033452Y-82685714D01*
X106890595Y-82685714D01*
X106795357Y-82733333D01*
X105890595Y-83352380D02*
X105890595Y-82828571D01*
X105938214Y-82733333D01*
X106033452Y-82685714D01*
X106223928Y-82685714D01*
X106319166Y-82733333D01*
X105890595Y-83304761D02*
X105985833Y-83352380D01*
X106223928Y-83352380D01*
X106319166Y-83304761D01*
X106366785Y-83209523D01*
X106366785Y-83114285D01*
X106319166Y-83019047D01*
X106223928Y-82971428D01*
X105985833Y-82971428D01*
X105890595Y-82923809D01*
D11*
%TO.C,P6*%
X138460000Y-83560000D02*
X132490000Y-83560000D01*
X132490000Y-83560000D02*
X132490000Y-75940000D01*
X132490000Y-75940000D02*
X138460000Y-75940000D01*
X138460000Y-75940000D02*
X138460000Y-83560000D01*
X138450000Y-80250000D02*
X137700000Y-80250000D01*
X137700000Y-80250000D02*
X137700000Y-79250000D01*
X137700000Y-79250000D02*
X138450000Y-79250000D01*
X138450000Y-79250000D02*
X138450000Y-80250000D01*
X138450000Y-83550000D02*
X137700000Y-83550000D01*
X137700000Y-83550000D02*
X137700000Y-81750000D01*
X137700000Y-81750000D02*
X138450000Y-81750000D01*
X138450000Y-81750000D02*
X138450000Y-83550000D01*
X138450000Y-77750000D02*
X137700000Y-77750000D01*
X137700000Y-77750000D02*
X137700000Y-75950000D01*
X137700000Y-75950000D02*
X138450000Y-75950000D01*
X138450000Y-75950000D02*
X138450000Y-77750000D01*
X136200000Y-83550000D02*
X136200000Y-82800000D01*
X136200000Y-82800000D02*
X133250000Y-82800000D01*
X133250000Y-82800000D02*
X133250000Y-79750000D01*
X136200000Y-75950000D02*
X136200000Y-76700000D01*
X136200000Y-76700000D02*
X133250000Y-76700000D01*
X133250000Y-76700000D02*
X133250000Y-79750000D01*
X138750000Y-82600000D02*
X138750000Y-83850000D01*
X138750000Y-83850000D02*
X137500000Y-83850000D01*
%TO.C,R34*%
X151594000Y-95246267D02*
X151594000Y-94903733D01*
X152614000Y-95246267D02*
X152614000Y-94903733D01*
%TO.C,R33*%
X149510000Y-94928733D02*
X149510000Y-95271267D01*
X148490000Y-94928733D02*
X148490000Y-95271267D01*
%TO.C,R32*%
X149533733Y-85420000D02*
X149876267Y-85420000D01*
X149533733Y-86440000D02*
X149876267Y-86440000D01*
%TO.C,R31*%
X154166267Y-86440000D02*
X153823733Y-86440000D01*
X154166267Y-85420000D02*
X153823733Y-85420000D01*
%TO.C,R22*%
X124123000Y-38612733D02*
X124123000Y-38955267D01*
X123103000Y-38612733D02*
X123103000Y-38955267D01*
%TO.C,R21*%
X125520000Y-38612733D02*
X125520000Y-38955267D01*
X124500000Y-38612733D02*
X124500000Y-38955267D01*
%TO.C,R20*%
X126917000Y-38584733D02*
X126917000Y-38927267D01*
X125897000Y-38584733D02*
X125897000Y-38927267D01*
%TO.C,Q32*%
X151470000Y-89228000D02*
X152520000Y-89228000D01*
X151470000Y-91028000D02*
X151470000Y-89228000D01*
X154770000Y-89228000D02*
X153720000Y-89228000D01*
X154770000Y-91628000D02*
X154770000Y-89228000D01*
%TO.C,Q31*%
X146390000Y-89228000D02*
X147440000Y-89228000D01*
X146390000Y-91028000D02*
X146390000Y-89228000D01*
X149690000Y-89228000D02*
X148640000Y-89228000D01*
X149690000Y-91628000D02*
X149690000Y-89228000D01*
%TO.C,P30*%
X144170000Y-74110000D02*
X144170000Y-75440000D01*
X145500000Y-74110000D02*
X144170000Y-74110000D01*
X146770000Y-74110000D02*
X146770000Y-76770000D01*
X146770000Y-76770000D02*
X156990000Y-76770000D01*
X146770000Y-74110000D02*
X156990000Y-74110000D01*
X156990000Y-74110000D02*
X156990000Y-76770000D01*
%TO.C,J2*%
X156870000Y-107250000D02*
X158200000Y-107250000D01*
X156870000Y-105920000D02*
X156870000Y-107250000D01*
X156870000Y-104650000D02*
X159530000Y-104650000D01*
X159530000Y-104650000D02*
X159530000Y-76650000D01*
X156870000Y-104650000D02*
X156870000Y-76650000D01*
X156870000Y-76650000D02*
X159530000Y-76650000D01*
%TO.C,J1*%
X141630000Y-107250000D02*
X142960000Y-107250000D01*
X141630000Y-105920000D02*
X141630000Y-107250000D01*
X141630000Y-104650000D02*
X144290000Y-104650000D01*
X144290000Y-104650000D02*
X144290000Y-76650000D01*
X141630000Y-104650000D02*
X141630000Y-76650000D01*
X141630000Y-76650000D02*
X144290000Y-76650000D01*
%TO.C,D10*%
X123500000Y-35874000D02*
X123500000Y-32874000D01*
X126520000Y-36574000D02*
X126520000Y-32874000D01*
%TO.C,C31*%
X153883748Y-78794000D02*
X154406252Y-78794000D01*
X153883748Y-80214000D02*
X154406252Y-80214000D01*
%TO.C,P6*%
D10*
X131952380Y-76261904D02*
X130952380Y-76261904D01*
X130952380Y-76642857D01*
X131000000Y-76738095D01*
X131047619Y-76785714D01*
X131142857Y-76833333D01*
X131285714Y-76833333D01*
X131380952Y-76785714D01*
X131428571Y-76738095D01*
X131476190Y-76642857D01*
X131476190Y-76261904D01*
X130952380Y-77690476D02*
X130952380Y-77500000D01*
X131000000Y-77404761D01*
X131047619Y-77357142D01*
X131190476Y-77261904D01*
X131380952Y-77214285D01*
X131761904Y-77214285D01*
X131857142Y-77261904D01*
X131904761Y-77309523D01*
X131952380Y-77404761D01*
X131952380Y-77595238D01*
X131904761Y-77690476D01*
X131857142Y-77738095D01*
X131761904Y-77785714D01*
X131523809Y-77785714D01*
X131428571Y-77738095D01*
X131380952Y-77690476D01*
X131333333Y-77595238D01*
X131333333Y-77404761D01*
X131380952Y-77309523D01*
X131428571Y-77261904D01*
X131523809Y-77214285D01*
%TO.C,P21*%
X130714285Y-44952380D02*
X130714285Y-43952380D01*
X130333333Y-43952380D01*
X130238095Y-44000000D01*
X130190476Y-44047619D01*
X130142857Y-44142857D01*
X130142857Y-44285714D01*
X130190476Y-44380952D01*
X130238095Y-44428571D01*
X130333333Y-44476190D01*
X130714285Y-44476190D01*
X129761904Y-44047619D02*
X129714285Y-44000000D01*
X129619047Y-43952380D01*
X129380952Y-43952380D01*
X129285714Y-44000000D01*
X129238095Y-44047619D01*
X129190476Y-44142857D01*
X129190476Y-44238095D01*
X129238095Y-44380952D01*
X129809523Y-44952380D01*
X129190476Y-44952380D01*
X128238095Y-44952380D02*
X128809523Y-44952380D01*
X128523809Y-44952380D02*
X128523809Y-43952380D01*
X128619047Y-44095238D01*
X128714285Y-44190476D01*
X128809523Y-44238095D01*
%TO.C,R34*%
X152452380Y-97857142D02*
X151976190Y-97523809D01*
X152452380Y-97285714D02*
X151452380Y-97285714D01*
X151452380Y-97666666D01*
X151500000Y-97761904D01*
X151547619Y-97809523D01*
X151642857Y-97857142D01*
X151785714Y-97857142D01*
X151880952Y-97809523D01*
X151928571Y-97761904D01*
X151976190Y-97666666D01*
X151976190Y-97285714D01*
X151452380Y-98190476D02*
X151452380Y-98809523D01*
X151833333Y-98476190D01*
X151833333Y-98619047D01*
X151880952Y-98714285D01*
X151928571Y-98761904D01*
X152023809Y-98809523D01*
X152261904Y-98809523D01*
X152357142Y-98761904D01*
X152404761Y-98714285D01*
X152452380Y-98619047D01*
X152452380Y-98333333D01*
X152404761Y-98238095D01*
X152357142Y-98190476D01*
X151785714Y-99666666D02*
X152452380Y-99666666D01*
X151404761Y-99428571D02*
X152119047Y-99190476D01*
X152119047Y-99809523D01*
%TO.C,R33*%
X149452380Y-97857142D02*
X148976190Y-97523809D01*
X149452380Y-97285714D02*
X148452380Y-97285714D01*
X148452380Y-97666666D01*
X148500000Y-97761904D01*
X148547619Y-97809523D01*
X148642857Y-97857142D01*
X148785714Y-97857142D01*
X148880952Y-97809523D01*
X148928571Y-97761904D01*
X148976190Y-97666666D01*
X148976190Y-97285714D01*
X148452380Y-98190476D02*
X148452380Y-98809523D01*
X148833333Y-98476190D01*
X148833333Y-98619047D01*
X148880952Y-98714285D01*
X148928571Y-98761904D01*
X149023809Y-98809523D01*
X149261904Y-98809523D01*
X149357142Y-98761904D01*
X149404761Y-98714285D01*
X149452380Y-98619047D01*
X149452380Y-98333333D01*
X149404761Y-98238095D01*
X149357142Y-98190476D01*
X148452380Y-99142857D02*
X148452380Y-99761904D01*
X148833333Y-99428571D01*
X148833333Y-99571428D01*
X148880952Y-99666666D01*
X148928571Y-99714285D01*
X149023809Y-99761904D01*
X149261904Y-99761904D01*
X149357142Y-99714285D01*
X149404761Y-99666666D01*
X149452380Y-99571428D01*
X149452380Y-99285714D01*
X149404761Y-99190476D01*
X149357142Y-99142857D01*
%TO.C,R32*%
X150347857Y-84452380D02*
X150681190Y-83976190D01*
X150919285Y-84452380D02*
X150919285Y-83452380D01*
X150538333Y-83452380D01*
X150443095Y-83500000D01*
X150395476Y-83547619D01*
X150347857Y-83642857D01*
X150347857Y-83785714D01*
X150395476Y-83880952D01*
X150443095Y-83928571D01*
X150538333Y-83976190D01*
X150919285Y-83976190D01*
X150014523Y-83452380D02*
X149395476Y-83452380D01*
X149728809Y-83833333D01*
X149585952Y-83833333D01*
X149490714Y-83880952D01*
X149443095Y-83928571D01*
X149395476Y-84023809D01*
X149395476Y-84261904D01*
X149443095Y-84357142D01*
X149490714Y-84404761D01*
X149585952Y-84452380D01*
X149871666Y-84452380D01*
X149966904Y-84404761D01*
X150014523Y-84357142D01*
X149014523Y-83547619D02*
X148966904Y-83500000D01*
X148871666Y-83452380D01*
X148633571Y-83452380D01*
X148538333Y-83500000D01*
X148490714Y-83547619D01*
X148443095Y-83642857D01*
X148443095Y-83738095D01*
X148490714Y-83880952D01*
X149062142Y-84452380D01*
X148443095Y-84452380D01*
%TO.C,R31*%
X154637857Y-84452380D02*
X154971190Y-83976190D01*
X155209285Y-84452380D02*
X155209285Y-83452380D01*
X154828333Y-83452380D01*
X154733095Y-83500000D01*
X154685476Y-83547619D01*
X154637857Y-83642857D01*
X154637857Y-83785714D01*
X154685476Y-83880952D01*
X154733095Y-83928571D01*
X154828333Y-83976190D01*
X155209285Y-83976190D01*
X154304523Y-83452380D02*
X153685476Y-83452380D01*
X154018809Y-83833333D01*
X153875952Y-83833333D01*
X153780714Y-83880952D01*
X153733095Y-83928571D01*
X153685476Y-84023809D01*
X153685476Y-84261904D01*
X153733095Y-84357142D01*
X153780714Y-84404761D01*
X153875952Y-84452380D01*
X154161666Y-84452380D01*
X154256904Y-84404761D01*
X154304523Y-84357142D01*
X152733095Y-84452380D02*
X153304523Y-84452380D01*
X153018809Y-84452380D02*
X153018809Y-83452380D01*
X153114047Y-83595238D01*
X153209285Y-83690476D01*
X153304523Y-83738095D01*
%TO.C,R22*%
X129452380Y-38357142D02*
X128976190Y-38023809D01*
X129452380Y-37785714D02*
X128452380Y-37785714D01*
X128452380Y-38166666D01*
X128500000Y-38261904D01*
X128547619Y-38309523D01*
X128642857Y-38357142D01*
X128785714Y-38357142D01*
X128880952Y-38309523D01*
X128928571Y-38261904D01*
X128976190Y-38166666D01*
X128976190Y-37785714D01*
X128547619Y-38738095D02*
X128500000Y-38785714D01*
X128452380Y-38880952D01*
X128452380Y-39119047D01*
X128500000Y-39214285D01*
X128547619Y-39261904D01*
X128642857Y-39309523D01*
X128738095Y-39309523D01*
X128880952Y-39261904D01*
X129452380Y-38690476D01*
X129452380Y-39309523D01*
X128547619Y-39690476D02*
X128500000Y-39738095D01*
X128452380Y-39833333D01*
X128452380Y-40071428D01*
X128500000Y-40166666D01*
X128547619Y-40214285D01*
X128642857Y-40261904D01*
X128738095Y-40261904D01*
X128880952Y-40214285D01*
X129452380Y-39642857D01*
X129452380Y-40261904D01*
%TO.C,R21*%
X130952380Y-38357142D02*
X130476190Y-38023809D01*
X130952380Y-37785714D02*
X129952380Y-37785714D01*
X129952380Y-38166666D01*
X130000000Y-38261904D01*
X130047619Y-38309523D01*
X130142857Y-38357142D01*
X130285714Y-38357142D01*
X130380952Y-38309523D01*
X130428571Y-38261904D01*
X130476190Y-38166666D01*
X130476190Y-37785714D01*
X130047619Y-38738095D02*
X130000000Y-38785714D01*
X129952380Y-38880952D01*
X129952380Y-39119047D01*
X130000000Y-39214285D01*
X130047619Y-39261904D01*
X130142857Y-39309523D01*
X130238095Y-39309523D01*
X130380952Y-39261904D01*
X130952380Y-38690476D01*
X130952380Y-39309523D01*
X130952380Y-40261904D02*
X130952380Y-39690476D01*
X130952380Y-39976190D02*
X129952380Y-39976190D01*
X130095238Y-39880952D01*
X130190476Y-39785714D01*
X130238095Y-39690476D01*
%TO.C,R20*%
X132452380Y-38357142D02*
X131976190Y-38023809D01*
X132452380Y-37785714D02*
X131452380Y-37785714D01*
X131452380Y-38166666D01*
X131500000Y-38261904D01*
X131547619Y-38309523D01*
X131642857Y-38357142D01*
X131785714Y-38357142D01*
X131880952Y-38309523D01*
X131928571Y-38261904D01*
X131976190Y-38166666D01*
X131976190Y-37785714D01*
X131547619Y-38738095D02*
X131500000Y-38785714D01*
X131452380Y-38880952D01*
X131452380Y-39119047D01*
X131500000Y-39214285D01*
X131547619Y-39261904D01*
X131642857Y-39309523D01*
X131738095Y-39309523D01*
X131880952Y-39261904D01*
X132452380Y-38690476D01*
X132452380Y-39309523D01*
X131452380Y-39928571D02*
X131452380Y-40023809D01*
X131500000Y-40119047D01*
X131547619Y-40166666D01*
X131642857Y-40214285D01*
X131833333Y-40261904D01*
X132071428Y-40261904D01*
X132261904Y-40214285D01*
X132357142Y-40166666D01*
X132404761Y-40119047D01*
X132452380Y-40023809D01*
X132452380Y-39928571D01*
X132404761Y-39833333D01*
X132357142Y-39785714D01*
X132261904Y-39738095D01*
X132071428Y-39690476D01*
X131833333Y-39690476D01*
X131642857Y-39738095D01*
X131547619Y-39785714D01*
X131500000Y-39833333D01*
X131452380Y-39928571D01*
%TO.C,Q32*%
X155047619Y-92928571D02*
X155000000Y-92833333D01*
X154904761Y-92738095D01*
X154761904Y-92595238D01*
X154714285Y-92500000D01*
X154714285Y-92404761D01*
X154952380Y-92452380D02*
X154904761Y-92357142D01*
X154809523Y-92261904D01*
X154619047Y-92214285D01*
X154285714Y-92214285D01*
X154095238Y-92261904D01*
X154000000Y-92357142D01*
X153952380Y-92452380D01*
X153952380Y-92642857D01*
X154000000Y-92738095D01*
X154095238Y-92833333D01*
X154285714Y-92880952D01*
X154619047Y-92880952D01*
X154809523Y-92833333D01*
X154904761Y-92738095D01*
X154952380Y-92642857D01*
X154952380Y-92452380D01*
X153952380Y-93214285D02*
X153952380Y-93833333D01*
X154333333Y-93500000D01*
X154333333Y-93642857D01*
X154380952Y-93738095D01*
X154428571Y-93785714D01*
X154523809Y-93833333D01*
X154761904Y-93833333D01*
X154857142Y-93785714D01*
X154904761Y-93738095D01*
X154952380Y-93642857D01*
X154952380Y-93357142D01*
X154904761Y-93261904D01*
X154857142Y-93214285D01*
X154047619Y-94214285D02*
X154000000Y-94261904D01*
X153952380Y-94357142D01*
X153952380Y-94595238D01*
X154000000Y-94690476D01*
X154047619Y-94738095D01*
X154142857Y-94785714D01*
X154238095Y-94785714D01*
X154380952Y-94738095D01*
X154952380Y-94166666D01*
X154952380Y-94785714D01*
%TO.C,Q31*%
X147547619Y-92928571D02*
X147500000Y-92833333D01*
X147404761Y-92738095D01*
X147261904Y-92595238D01*
X147214285Y-92500000D01*
X147214285Y-92404761D01*
X147452380Y-92452380D02*
X147404761Y-92357142D01*
X147309523Y-92261904D01*
X147119047Y-92214285D01*
X146785714Y-92214285D01*
X146595238Y-92261904D01*
X146500000Y-92357142D01*
X146452380Y-92452380D01*
X146452380Y-92642857D01*
X146500000Y-92738095D01*
X146595238Y-92833333D01*
X146785714Y-92880952D01*
X147119047Y-92880952D01*
X147309523Y-92833333D01*
X147404761Y-92738095D01*
X147452380Y-92642857D01*
X147452380Y-92452380D01*
X146452380Y-93214285D02*
X146452380Y-93833333D01*
X146833333Y-93500000D01*
X146833333Y-93642857D01*
X146880952Y-93738095D01*
X146928571Y-93785714D01*
X147023809Y-93833333D01*
X147261904Y-93833333D01*
X147357142Y-93785714D01*
X147404761Y-93738095D01*
X147452380Y-93642857D01*
X147452380Y-93357142D01*
X147404761Y-93261904D01*
X147357142Y-93214285D01*
X147452380Y-94785714D02*
X147452380Y-94214285D01*
X147452380Y-94500000D02*
X146452380Y-94500000D01*
X146595238Y-94404761D01*
X146690476Y-94309523D01*
X146738095Y-94214285D01*
%TO.C,P30*%
X143452380Y-71285714D02*
X142452380Y-71285714D01*
X142452380Y-71666666D01*
X142500000Y-71761904D01*
X142547619Y-71809523D01*
X142642857Y-71857142D01*
X142785714Y-71857142D01*
X142880952Y-71809523D01*
X142928571Y-71761904D01*
X142976190Y-71666666D01*
X142976190Y-71285714D01*
X142452380Y-72190476D02*
X142452380Y-72809523D01*
X142833333Y-72476190D01*
X142833333Y-72619047D01*
X142880952Y-72714285D01*
X142928571Y-72761904D01*
X143023809Y-72809523D01*
X143261904Y-72809523D01*
X143357142Y-72761904D01*
X143404761Y-72714285D01*
X143452380Y-72619047D01*
X143452380Y-72333333D01*
X143404761Y-72238095D01*
X143357142Y-72190476D01*
X142452380Y-73428571D02*
X142452380Y-73523809D01*
X142500000Y-73619047D01*
X142547619Y-73666666D01*
X142642857Y-73714285D01*
X142833333Y-73761904D01*
X143071428Y-73761904D01*
X143261904Y-73714285D01*
X143357142Y-73666666D01*
X143404761Y-73619047D01*
X143452380Y-73523809D01*
X143452380Y-73428571D01*
X143404761Y-73333333D01*
X143357142Y-73285714D01*
X143261904Y-73238095D01*
X143071428Y-73190476D01*
X142833333Y-73190476D01*
X142642857Y-73238095D01*
X142547619Y-73285714D01*
X142500000Y-73333333D01*
X142452380Y-73428571D01*
%TO.C,J2*%
X158533333Y-108952380D02*
X158533333Y-109666666D01*
X158580952Y-109809523D01*
X158676190Y-109904761D01*
X158819047Y-109952380D01*
X158914285Y-109952380D01*
X158104761Y-109047619D02*
X158057142Y-109000000D01*
X157961904Y-108952380D01*
X157723809Y-108952380D01*
X157628571Y-109000000D01*
X157580952Y-109047619D01*
X157533333Y-109142857D01*
X157533333Y-109238095D01*
X157580952Y-109380952D01*
X158152380Y-109952380D01*
X157533333Y-109952380D01*
%TO.C,J1*%
X143333333Y-108952380D02*
X143333333Y-109666666D01*
X143380952Y-109809523D01*
X143476190Y-109904761D01*
X143619047Y-109952380D01*
X143714285Y-109952380D01*
X142333333Y-109952380D02*
X142904761Y-109952380D01*
X142619047Y-109952380D02*
X142619047Y-108952380D01*
X142714285Y-109095238D01*
X142809523Y-109190476D01*
X142904761Y-109238095D01*
%TO.C,D10*%
X129452380Y-33285714D02*
X128452380Y-33285714D01*
X128452380Y-33523809D01*
X128500000Y-33666666D01*
X128595238Y-33761904D01*
X128690476Y-33809523D01*
X128880952Y-33857142D01*
X129023809Y-33857142D01*
X129214285Y-33809523D01*
X129309523Y-33761904D01*
X129404761Y-33666666D01*
X129452380Y-33523809D01*
X129452380Y-33285714D01*
X129452380Y-34809523D02*
X129452380Y-34238095D01*
X129452380Y-34523809D02*
X128452380Y-34523809D01*
X128595238Y-34428571D01*
X128690476Y-34333333D01*
X128738095Y-34238095D01*
X128452380Y-35428571D02*
X128452380Y-35523809D01*
X128500000Y-35619047D01*
X128547619Y-35666666D01*
X128642857Y-35714285D01*
X128833333Y-35761904D01*
X129071428Y-35761904D01*
X129261904Y-35714285D01*
X129357142Y-35666666D01*
X129404761Y-35619047D01*
X129452380Y-35523809D01*
X129452380Y-35428571D01*
X129404761Y-35333333D01*
X129357142Y-35285714D01*
X129261904Y-35238095D01*
X129071428Y-35190476D01*
X128833333Y-35190476D01*
X128642857Y-35238095D01*
X128547619Y-35285714D01*
X128500000Y-35333333D01*
X128452380Y-35428571D01*
%TO.C,C31*%
X154787857Y-81857142D02*
X154835476Y-81904761D01*
X154978333Y-81952380D01*
X155073571Y-81952380D01*
X155216428Y-81904761D01*
X155311666Y-81809523D01*
X155359285Y-81714285D01*
X155406904Y-81523809D01*
X155406904Y-81380952D01*
X155359285Y-81190476D01*
X155311666Y-81095238D01*
X155216428Y-81000000D01*
X155073571Y-80952380D01*
X154978333Y-80952380D01*
X154835476Y-81000000D01*
X154787857Y-81047619D01*
X154454523Y-80952380D02*
X153835476Y-80952380D01*
X154168809Y-81333333D01*
X154025952Y-81333333D01*
X153930714Y-81380952D01*
X153883095Y-81428571D01*
X153835476Y-81523809D01*
X153835476Y-81761904D01*
X153883095Y-81857142D01*
X153930714Y-81904761D01*
X154025952Y-81952380D01*
X154311666Y-81952380D01*
X154406904Y-81904761D01*
X154454523Y-81857142D01*
X152883095Y-81952380D02*
X153454523Y-81952380D01*
X153168809Y-81952380D02*
X153168809Y-80952380D01*
X153264047Y-81095238D01*
X153359285Y-81190476D01*
X153454523Y-81238095D01*
%TD*%
%LPC*%
D12*
%TO.C,P2*%
X70000000Y-77500000D03*
X70000000Y-75000000D03*
X70000000Y-72500000D03*
G36*
G01*
X69275000Y-69150000D02*
X70725000Y-69150000D01*
G75*
G02*
X70975000Y-69400000I0J-250000D01*
G01*
X70975000Y-70600000D01*
G75*
G02*
X70725000Y-70850000I-250000J0D01*
G01*
X69275000Y-70850000D01*
G75*
G02*
X69025000Y-70600000I0J250000D01*
G01*
X69025000Y-69400000D01*
G75*
G02*
X69275000Y-69150000I250000J0D01*
G01*
G37*
%TD*%
D13*
%TO.C,P6*%
X136000000Y-78500000D03*
G36*
G01*
X136750000Y-81850000D02*
X135250000Y-81850000D01*
G75*
G02*
X135000000Y-81600000I0J250000D01*
G01*
X135000000Y-80400000D01*
G75*
G02*
X135250000Y-80150000I250000J0D01*
G01*
X136750000Y-80150000D01*
G75*
G02*
X137000000Y-80400000I0J-250000D01*
G01*
X137000000Y-81600000D01*
G75*
G02*
X136750000Y-81850000I-250000J0D01*
G01*
G37*
%TD*%
D14*
%TO.C,P21*%
X125645000Y-43088000D03*
X123105000Y-43088000D03*
%TD*%
%TO.C,R34*%
G36*
G01*
X152341500Y-96475000D02*
X151866500Y-96475000D01*
G75*
G02*
X151629000Y-96237500I0J237500D01*
G01*
X151629000Y-95662500D01*
G75*
G02*
X151866500Y-95425000I237500J0D01*
G01*
X152341500Y-95425000D01*
G75*
G02*
X152579000Y-95662500I0J-237500D01*
G01*
X152579000Y-96237500D01*
G75*
G02*
X152341500Y-96475000I-237500J0D01*
G01*
G37*
G36*
G01*
X152341500Y-94725000D02*
X151866500Y-94725000D01*
G75*
G02*
X151629000Y-94487500I0J237500D01*
G01*
X151629000Y-93912500D01*
G75*
G02*
X151866500Y-93675000I237500J0D01*
G01*
X152341500Y-93675000D01*
G75*
G02*
X152579000Y-93912500I0J-237500D01*
G01*
X152579000Y-94487500D01*
G75*
G02*
X152341500Y-94725000I-237500J0D01*
G01*
G37*
%TD*%
%TO.C,R33*%
G36*
G01*
X148762500Y-93700000D02*
X149237500Y-93700000D01*
G75*
G02*
X149475000Y-93937500I0J-237500D01*
G01*
X149475000Y-94512500D01*
G75*
G02*
X149237500Y-94750000I-237500J0D01*
G01*
X148762500Y-94750000D01*
G75*
G02*
X148525000Y-94512500I0J237500D01*
G01*
X148525000Y-93937500D01*
G75*
G02*
X148762500Y-93700000I237500J0D01*
G01*
G37*
G36*
G01*
X148762500Y-95450000D02*
X149237500Y-95450000D01*
G75*
G02*
X149475000Y-95687500I0J-237500D01*
G01*
X149475000Y-96262500D01*
G75*
G02*
X149237500Y-96500000I-237500J0D01*
G01*
X148762500Y-96500000D01*
G75*
G02*
X148525000Y-96262500I0J237500D01*
G01*
X148525000Y-95687500D01*
G75*
G02*
X148762500Y-95450000I237500J0D01*
G01*
G37*
%TD*%
%TO.C,R32*%
G36*
G01*
X148305000Y-86167500D02*
X148305000Y-85692500D01*
G75*
G02*
X148542500Y-85455000I237500J0D01*
G01*
X149117500Y-85455000D01*
G75*
G02*
X149355000Y-85692500I0J-237500D01*
G01*
X149355000Y-86167500D01*
G75*
G02*
X149117500Y-86405000I-237500J0D01*
G01*
X148542500Y-86405000D01*
G75*
G02*
X148305000Y-86167500I0J237500D01*
G01*
G37*
G36*
G01*
X150055000Y-86167500D02*
X150055000Y-85692500D01*
G75*
G02*
X150292500Y-85455000I237500J0D01*
G01*
X150867500Y-85455000D01*
G75*
G02*
X151105000Y-85692500I0J-237500D01*
G01*
X151105000Y-86167500D01*
G75*
G02*
X150867500Y-86405000I-237500J0D01*
G01*
X150292500Y-86405000D01*
G75*
G02*
X150055000Y-86167500I0J237500D01*
G01*
G37*
%TD*%
%TO.C,R31*%
G36*
G01*
X155395000Y-85692500D02*
X155395000Y-86167500D01*
G75*
G02*
X155157500Y-86405000I-237500J0D01*
G01*
X154582500Y-86405000D01*
G75*
G02*
X154345000Y-86167500I0J237500D01*
G01*
X154345000Y-85692500D01*
G75*
G02*
X154582500Y-85455000I237500J0D01*
G01*
X155157500Y-85455000D01*
G75*
G02*
X155395000Y-85692500I0J-237500D01*
G01*
G37*
G36*
G01*
X153645000Y-85692500D02*
X153645000Y-86167500D01*
G75*
G02*
X153407500Y-86405000I-237500J0D01*
G01*
X152832500Y-86405000D01*
G75*
G02*
X152595000Y-86167500I0J237500D01*
G01*
X152595000Y-85692500D01*
G75*
G02*
X152832500Y-85455000I237500J0D01*
G01*
X153407500Y-85455000D01*
G75*
G02*
X153645000Y-85692500I0J-237500D01*
G01*
G37*
%TD*%
%TO.C,R22*%
G36*
G01*
X123375500Y-37384000D02*
X123850500Y-37384000D01*
G75*
G02*
X124088000Y-37621500I0J-237500D01*
G01*
X124088000Y-38196500D01*
G75*
G02*
X123850500Y-38434000I-237500J0D01*
G01*
X123375500Y-38434000D01*
G75*
G02*
X123138000Y-38196500I0J237500D01*
G01*
X123138000Y-37621500D01*
G75*
G02*
X123375500Y-37384000I237500J0D01*
G01*
G37*
G36*
G01*
X123375500Y-39134000D02*
X123850500Y-39134000D01*
G75*
G02*
X124088000Y-39371500I0J-237500D01*
G01*
X124088000Y-39946500D01*
G75*
G02*
X123850500Y-40184000I-237500J0D01*
G01*
X123375500Y-40184000D01*
G75*
G02*
X123138000Y-39946500I0J237500D01*
G01*
X123138000Y-39371500D01*
G75*
G02*
X123375500Y-39134000I237500J0D01*
G01*
G37*
%TD*%
%TO.C,R21*%
G36*
G01*
X124772500Y-37384000D02*
X125247500Y-37384000D01*
G75*
G02*
X125485000Y-37621500I0J-237500D01*
G01*
X125485000Y-38196500D01*
G75*
G02*
X125247500Y-38434000I-237500J0D01*
G01*
X124772500Y-38434000D01*
G75*
G02*
X124535000Y-38196500I0J237500D01*
G01*
X124535000Y-37621500D01*
G75*
G02*
X124772500Y-37384000I237500J0D01*
G01*
G37*
G36*
G01*
X124772500Y-39134000D02*
X125247500Y-39134000D01*
G75*
G02*
X125485000Y-39371500I0J-237500D01*
G01*
X125485000Y-39946500D01*
G75*
G02*
X125247500Y-40184000I-237500J0D01*
G01*
X124772500Y-40184000D01*
G75*
G02*
X124535000Y-39946500I0J237500D01*
G01*
X124535000Y-39371500D01*
G75*
G02*
X124772500Y-39134000I237500J0D01*
G01*
G37*
%TD*%
%TO.C,R20*%
G36*
G01*
X126169500Y-37356000D02*
X126644500Y-37356000D01*
G75*
G02*
X126882000Y-37593500I0J-237500D01*
G01*
X126882000Y-38168500D01*
G75*
G02*
X126644500Y-38406000I-237500J0D01*
G01*
X126169500Y-38406000D01*
G75*
G02*
X125932000Y-38168500I0J237500D01*
G01*
X125932000Y-37593500D01*
G75*
G02*
X126169500Y-37356000I237500J0D01*
G01*
G37*
G36*
G01*
X126169500Y-39106000D02*
X126644500Y-39106000D01*
G75*
G02*
X126882000Y-39343500I0J-237500D01*
G01*
X126882000Y-39918500D01*
G75*
G02*
X126644500Y-40156000I-237500J0D01*
G01*
X126169500Y-40156000D01*
G75*
G02*
X125932000Y-39918500I0J237500D01*
G01*
X125932000Y-39343500D01*
G75*
G02*
X126169500Y-39106000I237500J0D01*
G01*
G37*
%TD*%
D15*
%TO.C,Q32*%
X154070000Y-91378000D03*
X152170000Y-91378000D03*
X153120000Y-88978000D03*
%TD*%
%TO.C,Q31*%
X148990000Y-91378000D03*
X147090000Y-91378000D03*
X148040000Y-88978000D03*
%TD*%
D16*
%TO.C,P30*%
X145500000Y-75440000D03*
D17*
X148040000Y-75440000D03*
X150580000Y-75440000D03*
X153120000Y-75440000D03*
X155660000Y-75440000D03*
%TD*%
%TO.C,P5*%
X138000000Y-71250000D03*
X135460000Y-71250000D03*
X132920000Y-71250000D03*
X130380000Y-71250000D03*
D16*
X127840000Y-71250000D03*
%TD*%
D18*
%TO.C,P4*%
X121500000Y-60000000D03*
X124000000Y-60000000D03*
X126500000Y-60000000D03*
G36*
G01*
X129850000Y-59275000D02*
X129850000Y-60725000D01*
G75*
G02*
X129600000Y-60975000I-250000J0D01*
G01*
X128400000Y-60975000D01*
G75*
G02*
X128150000Y-60725000I0J250000D01*
G01*
X128150000Y-59275000D01*
G75*
G02*
X128400000Y-59025000I250000J0D01*
G01*
X129600000Y-59025000D01*
G75*
G02*
X129850000Y-59275000I0J-250000D01*
G01*
G37*
%TD*%
%TO.C,P3*%
G36*
G01*
X71850000Y-59275000D02*
X71850000Y-60725000D01*
G75*
G02*
X71600000Y-60975000I-250000J0D01*
G01*
X70400000Y-60975000D01*
G75*
G02*
X70150000Y-60725000I0J250000D01*
G01*
X70150000Y-59275000D01*
G75*
G02*
X70400000Y-59025000I250000J0D01*
G01*
X71600000Y-59025000D01*
G75*
G02*
X71850000Y-59275000I0J-250000D01*
G01*
G37*
X68500000Y-60000000D03*
X66000000Y-60000000D03*
X63500000Y-60000000D03*
%TD*%
D19*
%TO.C,P1*%
X134500000Y-60000000D03*
G36*
G01*
X137850000Y-59250000D02*
X137850000Y-60750000D01*
G75*
G02*
X137600000Y-61000000I-250000J0D01*
G01*
X136400000Y-61000000D01*
G75*
G02*
X136150000Y-60750000I0J250000D01*
G01*
X136150000Y-59250000D01*
G75*
G02*
X136400000Y-59000000I250000J0D01*
G01*
X137600000Y-59000000D01*
G75*
G02*
X137850000Y-59250000I0J-250000D01*
G01*
G37*
%TD*%
D16*
%TO.C,J2*%
X158200000Y-105920000D03*
D17*
X158200000Y-103380000D03*
X158200000Y-100840000D03*
X158200000Y-98300000D03*
X158200000Y-95760000D03*
X158200000Y-93220000D03*
X158200000Y-90680000D03*
X158200000Y-88140000D03*
X158200000Y-85600000D03*
X158200000Y-83060000D03*
X158200000Y-80520000D03*
X158200000Y-77980000D03*
%TD*%
D16*
%TO.C,J1*%
X142960000Y-105920000D03*
D17*
X142960000Y-103380000D03*
X142960000Y-100840000D03*
X142960000Y-98300000D03*
X142960000Y-95760000D03*
X142960000Y-93220000D03*
X142960000Y-90680000D03*
X142960000Y-88140000D03*
X142960000Y-85600000D03*
X142960000Y-83060000D03*
X142960000Y-80520000D03*
X142960000Y-77980000D03*
%TD*%
D20*
%TO.C,D10*%
X125910000Y-32899000D03*
X125010000Y-32899000D03*
X124110000Y-32899000D03*
X124110000Y-35849000D03*
X125010000Y-35849000D03*
X125910000Y-35849000D03*
%TD*%
%TO.C,C31*%
G36*
G01*
X152545000Y-79954001D02*
X152545000Y-79053999D01*
G75*
G02*
X152794999Y-78804000I249999J0D01*
G01*
X153445001Y-78804000D01*
G75*
G02*
X153695000Y-79053999I0J-249999D01*
G01*
X153695000Y-79954001D01*
G75*
G02*
X153445001Y-80204000I-249999J0D01*
G01*
X152794999Y-80204000D01*
G75*
G02*
X152545000Y-79954001I0J249999D01*
G01*
G37*
G36*
G01*
X154595000Y-79954001D02*
X154595000Y-79053999D01*
G75*
G02*
X154844999Y-78804000I249999J0D01*
G01*
X155495001Y-78804000D01*
G75*
G02*
X155745000Y-79053999I0J-249999D01*
G01*
X155745000Y-79954001D01*
G75*
G02*
X155495001Y-80204000I-249999J0D01*
G01*
X154844999Y-80204000D01*
G75*
G02*
X154595000Y-79954001I0J249999D01*
G01*
G37*
%TD*%
M02*
