%TF.GenerationSoftware,KiCad,Pcbnew,(5.1.6)-1*%
%TF.CreationDate,2021-03-30T00:51:02+09:00*%
%TF.ProjectId,CubBELMonitor,43756242-454c-44d6-9f6e-69746f722e6b,rev?*%
%TF.SameCoordinates,Original*%
%TF.FileFunction,Copper,L1,Top*%
%TF.FilePolarity,Positive*%
%FSLAX46Y46*%
G04 Gerber Fmt 4.6, Leading zero omitted, Abs format (unit mm)*
G04 Created by KiCad (PCBNEW (5.1.6)-1) date 2021-03-30 00:51:02*
%MOMM*%
%LPD*%
G01*
G04 APERTURE LIST*
%TA.AperFunction,SMDPad,CuDef*%
%ADD10R,0.900000X2.000000*%
%TD*%
%TA.AperFunction,SMDPad,CuDef*%
%ADD11R,2.000000X0.900000*%
%TD*%
%TA.AperFunction,SMDPad,CuDef*%
%ADD12R,5.000000X5.000000*%
%TD*%
%TA.AperFunction,ComponentPad*%
%ADD13O,1.950000X1.700000*%
%TD*%
%TA.AperFunction,ComponentPad*%
%ADD14O,2.000000X1.700000*%
%TD*%
%TA.AperFunction,SMDPad,CuDef*%
%ADD15R,1.200000X4.000000*%
%TD*%
%TA.AperFunction,SMDPad,CuDef*%
%ADD16R,1.500000X2.000000*%
%TD*%
%TA.AperFunction,SMDPad,CuDef*%
%ADD17R,3.800000X2.000000*%
%TD*%
%TA.AperFunction,SMDPad,CuDef*%
%ADD18R,0.900000X0.800000*%
%TD*%
%TA.AperFunction,ComponentPad*%
%ADD19R,1.700000X1.700000*%
%TD*%
%TA.AperFunction,ComponentPad*%
%ADD20O,1.700000X1.700000*%
%TD*%
%TA.AperFunction,ComponentPad*%
%ADD21O,1.700000X1.950000*%
%TD*%
%TA.AperFunction,ComponentPad*%
%ADD22O,1.700000X2.000000*%
%TD*%
%TA.AperFunction,SMDPad,CuDef*%
%ADD23R,0.900000X1.200000*%
%TD*%
%TA.AperFunction,ViaPad*%
%ADD24C,4.000000*%
%TD*%
%TA.AperFunction,ViaPad*%
%ADD25C,0.800000*%
%TD*%
%TA.AperFunction,ViaPad*%
%ADD26C,1.000000*%
%TD*%
%TA.AperFunction,Conductor*%
%ADD27C,0.400000*%
%TD*%
%TA.AperFunction,Conductor*%
%ADD28C,0.750000*%
%TD*%
%TA.AperFunction,Conductor*%
%ADD29C,0.250000*%
%TD*%
%TA.AperFunction,Conductor*%
%ADD30C,1.000000*%
%TD*%
%TA.AperFunction,Conductor*%
%ADD31C,1.500000*%
%TD*%
%TA.AperFunction,Conductor*%
%ADD32C,0.200000*%
%TD*%
G04 APERTURE END LIST*
%TO.P,R18,1*%
%TO.N,/BATT*%
%TA.AperFunction,SMDPad,CuDef*%
G36*
G01*
X106987500Y-76400000D02*
X106512500Y-76400000D01*
G75*
G02*
X106275000Y-76162500I0J237500D01*
G01*
X106275000Y-75587500D01*
G75*
G02*
X106512500Y-75350000I237500J0D01*
G01*
X106987500Y-75350000D01*
G75*
G02*
X107225000Y-75587500I0J-237500D01*
G01*
X107225000Y-76162500D01*
G75*
G02*
X106987500Y-76400000I-237500J0D01*
G01*
G37*
%TD.AperFunction*%
%TO.P,R18,2*%
%TO.N,Net-(R18-Pad2)*%
%TA.AperFunction,SMDPad,CuDef*%
G36*
G01*
X106987500Y-74650000D02*
X106512500Y-74650000D01*
G75*
G02*
X106275000Y-74412500I0J237500D01*
G01*
X106275000Y-73837500D01*
G75*
G02*
X106512500Y-73600000I237500J0D01*
G01*
X106987500Y-73600000D01*
G75*
G02*
X107225000Y-73837500I0J-237500D01*
G01*
X107225000Y-74412500D01*
G75*
G02*
X106987500Y-74650000I-237500J0D01*
G01*
G37*
%TD.AperFunction*%
%TD*%
D10*
%TO.P,U1,38*%
%TO.N,GND*%
X84500000Y-62500000D03*
%TO.P,U1,37*%
%TO.N,/shift_4*%
X85770000Y-62500000D03*
%TO.P,U1,36*%
%TO.N,/shift_3*%
X87040000Y-62500000D03*
%TO.P,U1,35*%
%TO.N,/ESP32->PC*%
X88310000Y-62500000D03*
%TO.P,U1,34*%
%TO.N,/ESP32<-PC*%
X89580000Y-62500000D03*
%TO.P,U1,33*%
%TO.N,/shift_2*%
X90850000Y-62500000D03*
%TO.P,U1,32*%
%TO.N,N/C*%
X92120000Y-62500000D03*
%TO.P,U1,31*%
%TO.N,/shift_1*%
X93390000Y-62500000D03*
%TO.P,U1,30*%
%TO.N,/RPM*%
X94660000Y-62500000D03*
%TO.P,U1,29*%
%TO.N,N/C*%
X95930000Y-62500000D03*
%TO.P,U1,28*%
%TO.N,/ESP32->GNSS*%
X97200000Y-62500000D03*
%TO.P,U1,27*%
%TO.N,/ESP32<-GNSS*%
X98470000Y-62500000D03*
%TO.P,U1,26*%
%TO.N,N/C*%
X99740000Y-62500000D03*
%TO.P,U1,25*%
%TO.N,/IO0*%
X101010000Y-62500000D03*
D11*
%TO.P,U1,24*%
%TO.N,N/C*%
X102010000Y-65285000D03*
%TO.P,U1,23*%
X102010000Y-66555000D03*
%TO.P,U1,22*%
X102010000Y-67825000D03*
%TO.P,U1,21*%
X102010000Y-69095000D03*
%TO.P,U1,20*%
X102010000Y-70365000D03*
%TO.P,U1,19*%
X102010000Y-71635000D03*
%TO.P,U1,18*%
X102010000Y-72905000D03*
%TO.P,U1,17*%
X102010000Y-74175000D03*
%TO.P,U1,16*%
X102010000Y-75445000D03*
%TO.P,U1,15*%
%TO.N,GND*%
X102010000Y-76715000D03*
D10*
%TO.P,U1,14*%
%TO.N,N/C*%
X101010000Y-79500000D03*
%TO.P,U1,13*%
X99740000Y-79500000D03*
%TO.P,U1,12*%
%TO.N,/LED_B*%
X98470000Y-79500000D03*
%TO.P,U1,11*%
%TO.N,/LED_G*%
X97200000Y-79500000D03*
%TO.P,U1,10*%
%TO.N,/LED_R*%
X95930000Y-79500000D03*
%TO.P,U1,9*%
%TO.N,/BATT*%
X94660000Y-79500000D03*
%TO.P,U1,8*%
%TO.N,/TEMP*%
X93390000Y-79500000D03*
%TO.P,U1,7*%
%TO.N,N/C*%
X92120000Y-79500000D03*
%TO.P,U1,6*%
X90850000Y-79500000D03*
%TO.P,U1,5*%
X89580000Y-79500000D03*
%TO.P,U1,4*%
X88310000Y-79500000D03*
%TO.P,U1,3*%
%TO.N,/EN*%
X87040000Y-79500000D03*
%TO.P,U1,2*%
%TO.N,+3V3*%
X85770000Y-79500000D03*
%TO.P,U1,1*%
%TO.N,GND*%
X84500000Y-79500000D03*
D12*
%TO.P,U1,39*%
X92000000Y-72000000D03*
%TD*%
%TO.P,C3,2*%
%TO.N,GND*%
%TA.AperFunction,SMDPad,CuDef*%
G36*
G01*
X124225000Y-79237500D02*
X124225000Y-78762500D01*
G75*
G02*
X124462500Y-78525000I237500J0D01*
G01*
X125037500Y-78525000D01*
G75*
G02*
X125275000Y-78762500I0J-237500D01*
G01*
X125275000Y-79237500D01*
G75*
G02*
X125037500Y-79475000I-237500J0D01*
G01*
X124462500Y-79475000D01*
G75*
G02*
X124225000Y-79237500I0J237500D01*
G01*
G37*
%TD.AperFunction*%
%TO.P,C3,1*%
%TO.N,Net-(C3-Pad1)*%
%TA.AperFunction,SMDPad,CuDef*%
G36*
G01*
X122475000Y-79237500D02*
X122475000Y-78762500D01*
G75*
G02*
X122712500Y-78525000I237500J0D01*
G01*
X123287500Y-78525000D01*
G75*
G02*
X123525000Y-78762500I0J-237500D01*
G01*
X123525000Y-79237500D01*
G75*
G02*
X123287500Y-79475000I-237500J0D01*
G01*
X122712500Y-79475000D01*
G75*
G02*
X122475000Y-79237500I0J237500D01*
G01*
G37*
%TD.AperFunction*%
%TD*%
D13*
%TO.P,P2,4*%
%TO.N,/shift_4*%
X70000000Y-77500000D03*
%TO.P,P2,3*%
%TO.N,/shift_3*%
X70000000Y-75000000D03*
%TO.P,P2,2*%
%TO.N,/shift_2*%
X70000000Y-72500000D03*
%TO.P,P2,1*%
%TO.N,/shift_1*%
%TA.AperFunction,ComponentPad*%
G36*
G01*
X69275000Y-69150000D02*
X70725000Y-69150000D01*
G75*
G02*
X70975000Y-69400000I0J-250000D01*
G01*
X70975000Y-70600000D01*
G75*
G02*
X70725000Y-70850000I-250000J0D01*
G01*
X69275000Y-70850000D01*
G75*
G02*
X69025000Y-70600000I0J250000D01*
G01*
X69025000Y-69400000D01*
G75*
G02*
X69275000Y-69150000I250000J0D01*
G01*
G37*
%TD.AperFunction*%
%TD*%
D14*
%TO.P,P6,2*%
%TO.N,N/C*%
X136000000Y-78500000D03*
%TO.P,P6,1*%
%TO.N,Net-(P6-Pad1)*%
%TA.AperFunction,ComponentPad*%
G36*
G01*
X136750000Y-81850000D02*
X135250000Y-81850000D01*
G75*
G02*
X135000000Y-81600000I0J250000D01*
G01*
X135000000Y-80400000D01*
G75*
G02*
X135250000Y-80150000I250000J0D01*
G01*
X136750000Y-80150000D01*
G75*
G02*
X137000000Y-80400000I0J-250000D01*
G01*
X137000000Y-81600000D01*
G75*
G02*
X136750000Y-81850000I-250000J0D01*
G01*
G37*
%TD.AperFunction*%
%TD*%
D15*
%TO.P,P20,1*%
%TO.N,Net-(D10-Pad4)*%
X126915000Y-43088000D03*
%TO.P,P20,2*%
%TO.N,Net-(P20-Pad2)*%
X124375000Y-43088000D03*
%TD*%
D16*
%TO.P,U2,1*%
%TO.N,+12V*%
X115000000Y-70000000D03*
%TO.P,U2,3*%
%TO.N,+3V3*%
X110400000Y-70000000D03*
%TO.P,U2,2*%
%TO.N,GND*%
X112700000Y-70000000D03*
D17*
X112700000Y-76300000D03*
%TD*%
%TO.P,TH4,2*%
%TO.N,+3V3*%
%TA.AperFunction,SMDPad,CuDef*%
G36*
G01*
X81387500Y-54275000D02*
X81387500Y-52125000D01*
G75*
G02*
X81637500Y-51875000I250000J0D01*
G01*
X82562500Y-51875000D01*
G75*
G02*
X82812500Y-52125000I0J-250000D01*
G01*
X82812500Y-54275000D01*
G75*
G02*
X82562500Y-54525000I-250000J0D01*
G01*
X81637500Y-54525000D01*
G75*
G02*
X81387500Y-54275000I0J250000D01*
G01*
G37*
%TD.AperFunction*%
%TO.P,TH4,1*%
%TO.N,Net-(P3-Pad1)*%
%TA.AperFunction,SMDPad,CuDef*%
G36*
G01*
X78412500Y-54275000D02*
X78412500Y-52125000D01*
G75*
G02*
X78662500Y-51875000I250000J0D01*
G01*
X79587500Y-51875000D01*
G75*
G02*
X79837500Y-52125000I0J-250000D01*
G01*
X79837500Y-54275000D01*
G75*
G02*
X79587500Y-54525000I-250000J0D01*
G01*
X78662500Y-54525000D01*
G75*
G02*
X78412500Y-54275000I0J250000D01*
G01*
G37*
%TD.AperFunction*%
%TD*%
%TO.P,TH3,2*%
%TO.N,Net-(P1-Pad1)*%
%TA.AperFunction,SMDPad,CuDef*%
G36*
G01*
X136350000Y-67450000D02*
X136350000Y-64550000D01*
G75*
G02*
X136600000Y-64300000I250000J0D01*
G01*
X137400000Y-64300000D01*
G75*
G02*
X137650000Y-64550000I0J-250000D01*
G01*
X137650000Y-67450000D01*
G75*
G02*
X137400000Y-67700000I-250000J0D01*
G01*
X136600000Y-67700000D01*
G75*
G02*
X136350000Y-67450000I0J250000D01*
G01*
G37*
%TD.AperFunction*%
%TO.P,TH3,1*%
%TO.N,+12V*%
%TA.AperFunction,SMDPad,CuDef*%
G36*
G01*
X131900000Y-67450000D02*
X131900000Y-64550000D01*
G75*
G02*
X132150000Y-64300000I250000J0D01*
G01*
X132950000Y-64300000D01*
G75*
G02*
X133200000Y-64550000I0J-250000D01*
G01*
X133200000Y-67450000D01*
G75*
G02*
X132950000Y-67700000I-250000J0D01*
G01*
X132150000Y-67700000D01*
G75*
G02*
X131900000Y-67450000I0J250000D01*
G01*
G37*
%TD.AperFunction*%
%TD*%
%TO.P,TH2,2*%
%TO.N,+12V*%
%TA.AperFunction,SMDPad,CuDef*%
G36*
G01*
X126175000Y-66037500D02*
X128325000Y-66037500D01*
G75*
G02*
X128575000Y-66287500I0J-250000D01*
G01*
X128575000Y-67212500D01*
G75*
G02*
X128325000Y-67462500I-250000J0D01*
G01*
X126175000Y-67462500D01*
G75*
G02*
X125925000Y-67212500I0J250000D01*
G01*
X125925000Y-66287500D01*
G75*
G02*
X126175000Y-66037500I250000J0D01*
G01*
G37*
%TD.AperFunction*%
%TO.P,TH2,1*%
%TO.N,Net-(D10-Pad4)*%
%TA.AperFunction,SMDPad,CuDef*%
G36*
G01*
X126175000Y-63062500D02*
X128325000Y-63062500D01*
G75*
G02*
X128575000Y-63312500I0J-250000D01*
G01*
X128575000Y-64237500D01*
G75*
G02*
X128325000Y-64487500I-250000J0D01*
G01*
X126175000Y-64487500D01*
G75*
G02*
X125925000Y-64237500I0J250000D01*
G01*
X125925000Y-63312500D01*
G75*
G02*
X126175000Y-63062500I250000J0D01*
G01*
G37*
%TD.AperFunction*%
%TD*%
%TO.P,TH1,2*%
%TO.N,GND*%
%TA.AperFunction,SMDPad,CuDef*%
G36*
G01*
X93025000Y-83237500D02*
X93025000Y-82762500D01*
G75*
G02*
X93262500Y-82525000I237500J0D01*
G01*
X93837500Y-82525000D01*
G75*
G02*
X94075000Y-82762500I0J-237500D01*
G01*
X94075000Y-83237500D01*
G75*
G02*
X93837500Y-83475000I-237500J0D01*
G01*
X93262500Y-83475000D01*
G75*
G02*
X93025000Y-83237500I0J237500D01*
G01*
G37*
%TD.AperFunction*%
%TO.P,TH1,1*%
%TO.N,/TEMP*%
%TA.AperFunction,SMDPad,CuDef*%
G36*
G01*
X91275000Y-83237500D02*
X91275000Y-82762500D01*
G75*
G02*
X91512500Y-82525000I237500J0D01*
G01*
X92087500Y-82525000D01*
G75*
G02*
X92325000Y-82762500I0J-237500D01*
G01*
X92325000Y-83237500D01*
G75*
G02*
X92087500Y-83475000I-237500J0D01*
G01*
X91512500Y-83475000D01*
G75*
G02*
X91275000Y-83237500I0J237500D01*
G01*
G37*
%TD.AperFunction*%
%TD*%
%TO.P,R17,2*%
%TO.N,Net-(Q3-Pad3)*%
%TA.AperFunction,SMDPad,CuDef*%
G36*
G01*
X114525000Y-60762500D02*
X114525000Y-61237500D01*
G75*
G02*
X114287500Y-61475000I-237500J0D01*
G01*
X113712500Y-61475000D01*
G75*
G02*
X113475000Y-61237500I0J237500D01*
G01*
X113475000Y-60762500D01*
G75*
G02*
X113712500Y-60525000I237500J0D01*
G01*
X114287500Y-60525000D01*
G75*
G02*
X114525000Y-60762500I0J-237500D01*
G01*
G37*
%TD.AperFunction*%
%TO.P,R17,1*%
%TO.N,Net-(P21-Pad2)*%
%TA.AperFunction,SMDPad,CuDef*%
G36*
G01*
X116275000Y-60762500D02*
X116275000Y-61237500D01*
G75*
G02*
X116037500Y-61475000I-237500J0D01*
G01*
X115462500Y-61475000D01*
G75*
G02*
X115225000Y-61237500I0J237500D01*
G01*
X115225000Y-60762500D01*
G75*
G02*
X115462500Y-60525000I237500J0D01*
G01*
X116037500Y-60525000D01*
G75*
G02*
X116275000Y-60762500I0J-237500D01*
G01*
G37*
%TD.AperFunction*%
%TD*%
%TO.P,R16,2*%
%TO.N,Net-(Q2-Pad3)*%
%TA.AperFunction,SMDPad,CuDef*%
G36*
G01*
X114525000Y-56762500D02*
X114525000Y-57237500D01*
G75*
G02*
X114287500Y-57475000I-237500J0D01*
G01*
X113712500Y-57475000D01*
G75*
G02*
X113475000Y-57237500I0J237500D01*
G01*
X113475000Y-56762500D01*
G75*
G02*
X113712500Y-56525000I237500J0D01*
G01*
X114287500Y-56525000D01*
G75*
G02*
X114525000Y-56762500I0J-237500D01*
G01*
G37*
%TD.AperFunction*%
%TO.P,R16,1*%
%TO.N,Net-(P21-Pad1)*%
%TA.AperFunction,SMDPad,CuDef*%
G36*
G01*
X116275000Y-56762500D02*
X116275000Y-57237500D01*
G75*
G02*
X116037500Y-57475000I-237500J0D01*
G01*
X115462500Y-57475000D01*
G75*
G02*
X115225000Y-57237500I0J237500D01*
G01*
X115225000Y-56762500D01*
G75*
G02*
X115462500Y-56525000I237500J0D01*
G01*
X116037500Y-56525000D01*
G75*
G02*
X116275000Y-56762500I0J-237500D01*
G01*
G37*
%TD.AperFunction*%
%TD*%
%TO.P,R15,2*%
%TO.N,Net-(Q1-Pad3)*%
%TA.AperFunction,SMDPad,CuDef*%
G36*
G01*
X114525000Y-52762500D02*
X114525000Y-53237500D01*
G75*
G02*
X114287500Y-53475000I-237500J0D01*
G01*
X113712500Y-53475000D01*
G75*
G02*
X113475000Y-53237500I0J237500D01*
G01*
X113475000Y-52762500D01*
G75*
G02*
X113712500Y-52525000I237500J0D01*
G01*
X114287500Y-52525000D01*
G75*
G02*
X114525000Y-52762500I0J-237500D01*
G01*
G37*
%TD.AperFunction*%
%TO.P,R15,1*%
%TO.N,Net-(P20-Pad2)*%
%TA.AperFunction,SMDPad,CuDef*%
G36*
G01*
X116275000Y-52762500D02*
X116275000Y-53237500D01*
G75*
G02*
X116037500Y-53475000I-237500J0D01*
G01*
X115462500Y-53475000D01*
G75*
G02*
X115225000Y-53237500I0J237500D01*
G01*
X115225000Y-52762500D01*
G75*
G02*
X115462500Y-52525000I237500J0D01*
G01*
X116037500Y-52525000D01*
G75*
G02*
X116275000Y-52762500I0J-237500D01*
G01*
G37*
%TD.AperFunction*%
%TD*%
%TO.P,R14,2*%
%TO.N,/LED_B*%
%TA.AperFunction,SMDPad,CuDef*%
G36*
G01*
X107012500Y-61350000D02*
X107487500Y-61350000D01*
G75*
G02*
X107725000Y-61587500I0J-237500D01*
G01*
X107725000Y-62162500D01*
G75*
G02*
X107487500Y-62400000I-237500J0D01*
G01*
X107012500Y-62400000D01*
G75*
G02*
X106775000Y-62162500I0J237500D01*
G01*
X106775000Y-61587500D01*
G75*
G02*
X107012500Y-61350000I237500J0D01*
G01*
G37*
%TD.AperFunction*%
%TO.P,R14,1*%
%TO.N,Net-(Q3-Pad1)*%
%TA.AperFunction,SMDPad,CuDef*%
G36*
G01*
X107012500Y-59600000D02*
X107487500Y-59600000D01*
G75*
G02*
X107725000Y-59837500I0J-237500D01*
G01*
X107725000Y-60412500D01*
G75*
G02*
X107487500Y-60650000I-237500J0D01*
G01*
X107012500Y-60650000D01*
G75*
G02*
X106775000Y-60412500I0J237500D01*
G01*
X106775000Y-59837500D01*
G75*
G02*
X107012500Y-59600000I237500J0D01*
G01*
G37*
%TD.AperFunction*%
%TD*%
%TO.P,R13,2*%
%TO.N,/LED_G*%
%TA.AperFunction,SMDPad,CuDef*%
G36*
G01*
X107012500Y-57350000D02*
X107487500Y-57350000D01*
G75*
G02*
X107725000Y-57587500I0J-237500D01*
G01*
X107725000Y-58162500D01*
G75*
G02*
X107487500Y-58400000I-237500J0D01*
G01*
X107012500Y-58400000D01*
G75*
G02*
X106775000Y-58162500I0J237500D01*
G01*
X106775000Y-57587500D01*
G75*
G02*
X107012500Y-57350000I237500J0D01*
G01*
G37*
%TD.AperFunction*%
%TO.P,R13,1*%
%TO.N,Net-(Q2-Pad1)*%
%TA.AperFunction,SMDPad,CuDef*%
G36*
G01*
X107012500Y-55600000D02*
X107487500Y-55600000D01*
G75*
G02*
X107725000Y-55837500I0J-237500D01*
G01*
X107725000Y-56412500D01*
G75*
G02*
X107487500Y-56650000I-237500J0D01*
G01*
X107012500Y-56650000D01*
G75*
G02*
X106775000Y-56412500I0J237500D01*
G01*
X106775000Y-55837500D01*
G75*
G02*
X107012500Y-55600000I237500J0D01*
G01*
G37*
%TD.AperFunction*%
%TD*%
%TO.P,R12,2*%
%TO.N,/LED_R*%
%TA.AperFunction,SMDPad,CuDef*%
G36*
G01*
X107012500Y-53350000D02*
X107487500Y-53350000D01*
G75*
G02*
X107725000Y-53587500I0J-237500D01*
G01*
X107725000Y-54162500D01*
G75*
G02*
X107487500Y-54400000I-237500J0D01*
G01*
X107012500Y-54400000D01*
G75*
G02*
X106775000Y-54162500I0J237500D01*
G01*
X106775000Y-53587500D01*
G75*
G02*
X107012500Y-53350000I237500J0D01*
G01*
G37*
%TD.AperFunction*%
%TO.P,R12,1*%
%TO.N,Net-(Q1-Pad1)*%
%TA.AperFunction,SMDPad,CuDef*%
G36*
G01*
X107012500Y-51600000D02*
X107487500Y-51600000D01*
G75*
G02*
X107725000Y-51837500I0J-237500D01*
G01*
X107725000Y-52412500D01*
G75*
G02*
X107487500Y-52650000I-237500J0D01*
G01*
X107012500Y-52650000D01*
G75*
G02*
X106775000Y-52412500I0J237500D01*
G01*
X106775000Y-51837500D01*
G75*
G02*
X107012500Y-51600000I237500J0D01*
G01*
G37*
%TD.AperFunction*%
%TD*%
%TO.P,R11,2*%
%TO.N,/shift_4*%
%TA.AperFunction,SMDPad,CuDef*%
G36*
G01*
X69737500Y-81725000D02*
X69262500Y-81725000D01*
G75*
G02*
X69025000Y-81487500I0J237500D01*
G01*
X69025000Y-80912500D01*
G75*
G02*
X69262500Y-80675000I237500J0D01*
G01*
X69737500Y-80675000D01*
G75*
G02*
X69975000Y-80912500I0J-237500D01*
G01*
X69975000Y-81487500D01*
G75*
G02*
X69737500Y-81725000I-237500J0D01*
G01*
G37*
%TD.AperFunction*%
%TO.P,R11,1*%
%TO.N,+3V3*%
%TA.AperFunction,SMDPad,CuDef*%
G36*
G01*
X69737500Y-83475000D02*
X69262500Y-83475000D01*
G75*
G02*
X69025000Y-83237500I0J237500D01*
G01*
X69025000Y-82662500D01*
G75*
G02*
X69262500Y-82425000I237500J0D01*
G01*
X69737500Y-82425000D01*
G75*
G02*
X69975000Y-82662500I0J-237500D01*
G01*
X69975000Y-83237500D01*
G75*
G02*
X69737500Y-83475000I-237500J0D01*
G01*
G37*
%TD.AperFunction*%
%TD*%
%TO.P,R10,2*%
%TO.N,/shift_3*%
%TA.AperFunction,SMDPad,CuDef*%
G36*
G01*
X67737500Y-81725000D02*
X67262500Y-81725000D01*
G75*
G02*
X67025000Y-81487500I0J237500D01*
G01*
X67025000Y-80912500D01*
G75*
G02*
X67262500Y-80675000I237500J0D01*
G01*
X67737500Y-80675000D01*
G75*
G02*
X67975000Y-80912500I0J-237500D01*
G01*
X67975000Y-81487500D01*
G75*
G02*
X67737500Y-81725000I-237500J0D01*
G01*
G37*
%TD.AperFunction*%
%TO.P,R10,1*%
%TO.N,+3V3*%
%TA.AperFunction,SMDPad,CuDef*%
G36*
G01*
X67737500Y-83475000D02*
X67262500Y-83475000D01*
G75*
G02*
X67025000Y-83237500I0J237500D01*
G01*
X67025000Y-82662500D01*
G75*
G02*
X67262500Y-82425000I237500J0D01*
G01*
X67737500Y-82425000D01*
G75*
G02*
X67975000Y-82662500I0J-237500D01*
G01*
X67975000Y-83237500D01*
G75*
G02*
X67737500Y-83475000I-237500J0D01*
G01*
G37*
%TD.AperFunction*%
%TD*%
%TO.P,R9,2*%
%TO.N,/shift_2*%
%TA.AperFunction,SMDPad,CuDef*%
G36*
G01*
X65737500Y-81725000D02*
X65262500Y-81725000D01*
G75*
G02*
X65025000Y-81487500I0J237500D01*
G01*
X65025000Y-80912500D01*
G75*
G02*
X65262500Y-80675000I237500J0D01*
G01*
X65737500Y-80675000D01*
G75*
G02*
X65975000Y-80912500I0J-237500D01*
G01*
X65975000Y-81487500D01*
G75*
G02*
X65737500Y-81725000I-237500J0D01*
G01*
G37*
%TD.AperFunction*%
%TO.P,R9,1*%
%TO.N,+3V3*%
%TA.AperFunction,SMDPad,CuDef*%
G36*
G01*
X65737500Y-83475000D02*
X65262500Y-83475000D01*
G75*
G02*
X65025000Y-83237500I0J237500D01*
G01*
X65025000Y-82662500D01*
G75*
G02*
X65262500Y-82425000I237500J0D01*
G01*
X65737500Y-82425000D01*
G75*
G02*
X65975000Y-82662500I0J-237500D01*
G01*
X65975000Y-83237500D01*
G75*
G02*
X65737500Y-83475000I-237500J0D01*
G01*
G37*
%TD.AperFunction*%
%TD*%
%TO.P,R8,2*%
%TO.N,/shift_1*%
%TA.AperFunction,SMDPad,CuDef*%
G36*
G01*
X63737500Y-81725000D02*
X63262500Y-81725000D01*
G75*
G02*
X63025000Y-81487500I0J237500D01*
G01*
X63025000Y-80912500D01*
G75*
G02*
X63262500Y-80675000I237500J0D01*
G01*
X63737500Y-80675000D01*
G75*
G02*
X63975000Y-80912500I0J-237500D01*
G01*
X63975000Y-81487500D01*
G75*
G02*
X63737500Y-81725000I-237500J0D01*
G01*
G37*
%TD.AperFunction*%
%TO.P,R8,1*%
%TO.N,+3V3*%
%TA.AperFunction,SMDPad,CuDef*%
G36*
G01*
X63737500Y-83475000D02*
X63262500Y-83475000D01*
G75*
G02*
X63025000Y-83237500I0J237500D01*
G01*
X63025000Y-82662500D01*
G75*
G02*
X63262500Y-82425000I237500J0D01*
G01*
X63737500Y-82425000D01*
G75*
G02*
X63975000Y-82662500I0J-237500D01*
G01*
X63975000Y-83237500D01*
G75*
G02*
X63737500Y-83475000I-237500J0D01*
G01*
G37*
%TD.AperFunction*%
%TD*%
%TO.P,R7,2*%
%TO.N,/TEMP*%
%TA.AperFunction,SMDPad,CuDef*%
G36*
G01*
X89275000Y-83237500D02*
X89275000Y-82762500D01*
G75*
G02*
X89512500Y-82525000I237500J0D01*
G01*
X90087500Y-82525000D01*
G75*
G02*
X90325000Y-82762500I0J-237500D01*
G01*
X90325000Y-83237500D01*
G75*
G02*
X90087500Y-83475000I-237500J0D01*
G01*
X89512500Y-83475000D01*
G75*
G02*
X89275000Y-83237500I0J237500D01*
G01*
G37*
%TD.AperFunction*%
%TO.P,R7,1*%
%TO.N,+3V3*%
%TA.AperFunction,SMDPad,CuDef*%
G36*
G01*
X87525000Y-83237500D02*
X87525000Y-82762500D01*
G75*
G02*
X87762500Y-82525000I237500J0D01*
G01*
X88337500Y-82525000D01*
G75*
G02*
X88575000Y-82762500I0J-237500D01*
G01*
X88575000Y-83237500D01*
G75*
G02*
X88337500Y-83475000I-237500J0D01*
G01*
X87762500Y-83475000D01*
G75*
G02*
X87525000Y-83237500I0J237500D01*
G01*
G37*
%TD.AperFunction*%
%TD*%
%TO.P,R6,1*%
%TO.N,Net-(R18-Pad2)*%
%TA.AperFunction,SMDPad,CuDef*%
G36*
G01*
X119512500Y-71725000D02*
X119987500Y-71725000D01*
G75*
G02*
X120225000Y-71962500I0J-237500D01*
G01*
X120225000Y-72537500D01*
G75*
G02*
X119987500Y-72775000I-237500J0D01*
G01*
X119512500Y-72775000D01*
G75*
G02*
X119275000Y-72537500I0J237500D01*
G01*
X119275000Y-71962500D01*
G75*
G02*
X119512500Y-71725000I237500J0D01*
G01*
G37*
%TD.AperFunction*%
%TO.P,R6,2*%
%TO.N,GND*%
%TA.AperFunction,SMDPad,CuDef*%
G36*
G01*
X119512500Y-73475000D02*
X119987500Y-73475000D01*
G75*
G02*
X120225000Y-73712500I0J-237500D01*
G01*
X120225000Y-74287500D01*
G75*
G02*
X119987500Y-74525000I-237500J0D01*
G01*
X119512500Y-74525000D01*
G75*
G02*
X119275000Y-74287500I0J237500D01*
G01*
X119275000Y-73712500D01*
G75*
G02*
X119512500Y-73475000I237500J0D01*
G01*
G37*
%TD.AperFunction*%
%TD*%
%TO.P,R5,2*%
%TO.N,Net-(R18-Pad2)*%
%TA.AperFunction,SMDPad,CuDef*%
G36*
G01*
X119512500Y-69475000D02*
X119987500Y-69475000D01*
G75*
G02*
X120225000Y-69712500I0J-237500D01*
G01*
X120225000Y-70287500D01*
G75*
G02*
X119987500Y-70525000I-237500J0D01*
G01*
X119512500Y-70525000D01*
G75*
G02*
X119275000Y-70287500I0J237500D01*
G01*
X119275000Y-69712500D01*
G75*
G02*
X119512500Y-69475000I237500J0D01*
G01*
G37*
%TD.AperFunction*%
%TO.P,R5,1*%
%TO.N,+12V*%
%TA.AperFunction,SMDPad,CuDef*%
G36*
G01*
X119512500Y-67725000D02*
X119987500Y-67725000D01*
G75*
G02*
X120225000Y-67962500I0J-237500D01*
G01*
X120225000Y-68537500D01*
G75*
G02*
X119987500Y-68775000I-237500J0D01*
G01*
X119512500Y-68775000D01*
G75*
G02*
X119275000Y-68537500I0J237500D01*
G01*
X119275000Y-67962500D01*
G75*
G02*
X119512500Y-67725000I237500J0D01*
G01*
G37*
%TD.AperFunction*%
%TD*%
%TO.P,R4,2*%
%TO.N,/RPM*%
%TA.AperFunction,SMDPad,CuDef*%
G36*
G01*
X118775000Y-80762500D02*
X118775000Y-81237500D01*
G75*
G02*
X118537500Y-81475000I-237500J0D01*
G01*
X117962500Y-81475000D01*
G75*
G02*
X117725000Y-81237500I0J237500D01*
G01*
X117725000Y-80762500D01*
G75*
G02*
X117962500Y-80525000I237500J0D01*
G01*
X118537500Y-80525000D01*
G75*
G02*
X118775000Y-80762500I0J-237500D01*
G01*
G37*
%TD.AperFunction*%
%TO.P,R4,1*%
%TO.N,Net-(C3-Pad1)*%
%TA.AperFunction,SMDPad,CuDef*%
G36*
G01*
X120525000Y-80762500D02*
X120525000Y-81237500D01*
G75*
G02*
X120287500Y-81475000I-237500J0D01*
G01*
X119712500Y-81475000D01*
G75*
G02*
X119475000Y-81237500I0J237500D01*
G01*
X119475000Y-80762500D01*
G75*
G02*
X119712500Y-80525000I237500J0D01*
G01*
X120287500Y-80525000D01*
G75*
G02*
X120525000Y-80762500I0J-237500D01*
G01*
G37*
%TD.AperFunction*%
%TD*%
%TO.P,R3,2*%
%TO.N,GND*%
%TA.AperFunction,SMDPad,CuDef*%
G36*
G01*
X118775000Y-82762500D02*
X118775000Y-83237500D01*
G75*
G02*
X118537500Y-83475000I-237500J0D01*
G01*
X117962500Y-83475000D01*
G75*
G02*
X117725000Y-83237500I0J237500D01*
G01*
X117725000Y-82762500D01*
G75*
G02*
X117962500Y-82525000I237500J0D01*
G01*
X118537500Y-82525000D01*
G75*
G02*
X118775000Y-82762500I0J-237500D01*
G01*
G37*
%TD.AperFunction*%
%TO.P,R3,1*%
%TO.N,Net-(C3-Pad1)*%
%TA.AperFunction,SMDPad,CuDef*%
G36*
G01*
X120525000Y-82762500D02*
X120525000Y-83237500D01*
G75*
G02*
X120287500Y-83475000I-237500J0D01*
G01*
X119712500Y-83475000D01*
G75*
G02*
X119475000Y-83237500I0J237500D01*
G01*
X119475000Y-82762500D01*
G75*
G02*
X119712500Y-82525000I237500J0D01*
G01*
X120287500Y-82525000D01*
G75*
G02*
X120525000Y-82762500I0J-237500D01*
G01*
G37*
%TD.AperFunction*%
%TD*%
%TO.P,R2,2*%
%TO.N,Net-(C3-Pad1)*%
%TA.AperFunction,SMDPad,CuDef*%
G36*
G01*
X123525000Y-80762500D02*
X123525000Y-81237500D01*
G75*
G02*
X123287500Y-81475000I-237500J0D01*
G01*
X122712500Y-81475000D01*
G75*
G02*
X122475000Y-81237500I0J237500D01*
G01*
X122475000Y-80762500D01*
G75*
G02*
X122712500Y-80525000I237500J0D01*
G01*
X123287500Y-80525000D01*
G75*
G02*
X123525000Y-80762500I0J-237500D01*
G01*
G37*
%TD.AperFunction*%
%TO.P,R2,1*%
%TO.N,Net-(D1-Pad2)*%
%TA.AperFunction,SMDPad,CuDef*%
G36*
G01*
X125275000Y-80762500D02*
X125275000Y-81237500D01*
G75*
G02*
X125037500Y-81475000I-237500J0D01*
G01*
X124462500Y-81475000D01*
G75*
G02*
X124225000Y-81237500I0J237500D01*
G01*
X124225000Y-80762500D01*
G75*
G02*
X124462500Y-80525000I237500J0D01*
G01*
X125037500Y-80525000D01*
G75*
G02*
X125275000Y-80762500I0J-237500D01*
G01*
G37*
%TD.AperFunction*%
%TD*%
%TO.P,R1,2*%
%TO.N,Net-(D1-Pad2)*%
%TA.AperFunction,SMDPad,CuDef*%
G36*
G01*
X127525000Y-80762500D02*
X127525000Y-81237500D01*
G75*
G02*
X127287500Y-81475000I-237500J0D01*
G01*
X126712500Y-81475000D01*
G75*
G02*
X126475000Y-81237500I0J237500D01*
G01*
X126475000Y-80762500D01*
G75*
G02*
X126712500Y-80525000I237500J0D01*
G01*
X127287500Y-80525000D01*
G75*
G02*
X127525000Y-80762500I0J-237500D01*
G01*
G37*
%TD.AperFunction*%
%TO.P,R1,1*%
%TO.N,Net-(P6-Pad1)*%
%TA.AperFunction,SMDPad,CuDef*%
G36*
G01*
X129275000Y-80762500D02*
X129275000Y-81237500D01*
G75*
G02*
X129037500Y-81475000I-237500J0D01*
G01*
X128462500Y-81475000D01*
G75*
G02*
X128225000Y-81237500I0J237500D01*
G01*
X128225000Y-80762500D01*
G75*
G02*
X128462500Y-80525000I237500J0D01*
G01*
X129037500Y-80525000D01*
G75*
G02*
X129275000Y-80762500I0J-237500D01*
G01*
G37*
%TD.AperFunction*%
%TD*%
D18*
%TO.P,Q3,3*%
%TO.N,Net-(Q3-Pad3)*%
X112000000Y-61000000D03*
%TO.P,Q3,2*%
%TO.N,GND*%
X109600000Y-61950000D03*
%TO.P,Q3,1*%
%TO.N,Net-(Q3-Pad1)*%
X109600000Y-60050000D03*
%TD*%
%TO.P,Q2,3*%
%TO.N,Net-(Q2-Pad3)*%
X112000000Y-57000000D03*
%TO.P,Q2,2*%
%TO.N,GND*%
X109600000Y-57950000D03*
%TO.P,Q2,1*%
%TO.N,Net-(Q2-Pad1)*%
X109600000Y-56050000D03*
%TD*%
%TO.P,Q1,3*%
%TO.N,Net-(Q1-Pad3)*%
X112000000Y-53000000D03*
%TO.P,Q1,2*%
%TO.N,GND*%
X109600000Y-53950000D03*
%TO.P,Q1,1*%
%TO.N,Net-(Q1-Pad1)*%
X109600000Y-52050000D03*
%TD*%
D19*
%TO.P,P30,1*%
%TO.N,/ESP32->PC*%
X145500000Y-75440000D03*
D20*
%TO.P,P30,2*%
%TO.N,/ESP32<-PC*%
X148040000Y-75440000D03*
%TO.P,P30,3*%
%TO.N,/IO0*%
X150580000Y-75440000D03*
%TO.P,P30,4*%
%TO.N,/EN*%
X153120000Y-75440000D03*
%TO.P,P30,5*%
%TO.N,GND*%
X155660000Y-75440000D03*
%TD*%
%TO.P,P5,5*%
%TO.N,GND*%
X138000000Y-71250000D03*
%TO.P,P5,4*%
%TO.N,/EN*%
X135460000Y-71250000D03*
%TO.P,P5,3*%
%TO.N,/IO0*%
X132920000Y-71250000D03*
%TO.P,P5,2*%
%TO.N,/ESP32<-PC*%
X130380000Y-71250000D03*
D19*
%TO.P,P5,1*%
%TO.N,/ESP32->PC*%
X127840000Y-71250000D03*
%TD*%
D21*
%TO.P,P4,4*%
%TO.N,Net-(P21-Pad2)*%
X121500000Y-60000000D03*
%TO.P,P4,3*%
%TO.N,Net-(P21-Pad1)*%
X124000000Y-60000000D03*
%TO.P,P4,2*%
%TO.N,Net-(P20-Pad2)*%
X126500000Y-60000000D03*
%TO.P,P4,1*%
%TO.N,Net-(D10-Pad4)*%
%TA.AperFunction,ComponentPad*%
G36*
G01*
X129850000Y-59275000D02*
X129850000Y-60725000D01*
G75*
G02*
X129600000Y-60975000I-250000J0D01*
G01*
X128400000Y-60975000D01*
G75*
G02*
X128150000Y-60725000I0J250000D01*
G01*
X128150000Y-59275000D01*
G75*
G02*
X128400000Y-59025000I250000J0D01*
G01*
X129600000Y-59025000D01*
G75*
G02*
X129850000Y-59275000I0J-250000D01*
G01*
G37*
%TD.AperFunction*%
%TD*%
%TO.P,P3,1*%
%TO.N,Net-(P3-Pad1)*%
%TA.AperFunction,ComponentPad*%
G36*
G01*
X71850000Y-59275000D02*
X71850000Y-60725000D01*
G75*
G02*
X71600000Y-60975000I-250000J0D01*
G01*
X70400000Y-60975000D01*
G75*
G02*
X70150000Y-60725000I0J250000D01*
G01*
X70150000Y-59275000D01*
G75*
G02*
X70400000Y-59025000I250000J0D01*
G01*
X71600000Y-59025000D01*
G75*
G02*
X71850000Y-59275000I0J-250000D01*
G01*
G37*
%TD.AperFunction*%
%TO.P,P3,2*%
%TO.N,GND*%
X68500000Y-60000000D03*
%TO.P,P3,3*%
%TO.N,/ESP32->GNSS*%
X66000000Y-60000000D03*
%TO.P,P3,4*%
%TO.N,/ESP32<-GNSS*%
X63500000Y-60000000D03*
%TD*%
D22*
%TO.P,P1,2*%
%TO.N,GND*%
X134500000Y-60000000D03*
%TO.P,P1,1*%
%TO.N,Net-(P1-Pad1)*%
%TA.AperFunction,ComponentPad*%
G36*
G01*
X137850000Y-59250000D02*
X137850000Y-60750000D01*
G75*
G02*
X137600000Y-61000000I-250000J0D01*
G01*
X136400000Y-61000000D01*
G75*
G02*
X136150000Y-60750000I0J250000D01*
G01*
X136150000Y-59250000D01*
G75*
G02*
X136400000Y-59000000I250000J0D01*
G01*
X137600000Y-59000000D01*
G75*
G02*
X137850000Y-59250000I0J-250000D01*
G01*
G37*
%TD.AperFunction*%
%TD*%
D19*
%TO.P,J2,1*%
%TO.N,GND*%
X158200000Y-105920000D03*
D20*
%TO.P,J2,2*%
%TO.N,N/C*%
X158200000Y-103380000D03*
%TO.P,J2,3*%
X158200000Y-100840000D03*
%TO.P,J2,4*%
X158200000Y-98300000D03*
%TO.P,J2,5*%
X158200000Y-95760000D03*
%TO.P,J2,6*%
X158200000Y-93220000D03*
%TO.P,J2,7*%
X158200000Y-90680000D03*
%TO.P,J2,8*%
X158200000Y-88140000D03*
%TO.P,J2,9*%
X158200000Y-85600000D03*
%TO.P,J2,10*%
X158200000Y-83060000D03*
%TO.P,J2,11*%
X158200000Y-80520000D03*
%TO.P,J2,12*%
X158200000Y-77980000D03*
%TD*%
D19*
%TO.P,J1,1*%
%TO.N,/ESP32<-PC*%
X142960000Y-105920000D03*
D20*
%TO.P,J1,2*%
%TO.N,/DTR*%
X142960000Y-103380000D03*
%TO.P,J1,3*%
%TO.N,/RTS*%
X142960000Y-100840000D03*
%TO.P,J1,4*%
%TO.N,VCC*%
X142960000Y-98300000D03*
%TO.P,J1,5*%
%TO.N,/ESP32->PC*%
X142960000Y-95760000D03*
%TO.P,J1,6*%
%TO.N,N/C*%
X142960000Y-93220000D03*
%TO.P,J1,7*%
%TO.N,GND*%
X142960000Y-90680000D03*
%TO.P,J1,8*%
%TO.N,N/C*%
X142960000Y-88140000D03*
%TO.P,J1,9*%
X142960000Y-85600000D03*
%TO.P,J1,10*%
X142960000Y-83060000D03*
%TO.P,J1,11*%
X142960000Y-80520000D03*
%TO.P,J1,12*%
X142960000Y-77980000D03*
%TD*%
D23*
%TO.P,D3,2*%
%TO.N,Net-(C3-Pad1)*%
X120000000Y-79000000D03*
%TO.P,D3,1*%
%TO.N,+3V3*%
X116700000Y-79000000D03*
%TD*%
%TO.P,D2,2*%
%TO.N,GND*%
X130300000Y-83000000D03*
%TO.P,D2,1*%
%TO.N,Net-(D1-Pad2)*%
X127000000Y-83000000D03*
%TD*%
%TO.P,D1,2*%
%TO.N,Net-(D1-Pad2)*%
X127000000Y-79000000D03*
%TO.P,D1,1*%
%TO.N,+12V*%
X130300000Y-79000000D03*
%TD*%
%TO.P,C2,2*%
%TO.N,GND*%
%TA.AperFunction,SMDPad,CuDef*%
G36*
G01*
X110850001Y-65525000D02*
X109949999Y-65525000D01*
G75*
G02*
X109700000Y-65275001I0J249999D01*
G01*
X109700000Y-64624999D01*
G75*
G02*
X109949999Y-64375000I249999J0D01*
G01*
X110850001Y-64375000D01*
G75*
G02*
X111100000Y-64624999I0J-249999D01*
G01*
X111100000Y-65275001D01*
G75*
G02*
X110850001Y-65525000I-249999J0D01*
G01*
G37*
%TD.AperFunction*%
%TO.P,C2,1*%
%TO.N,+3V3*%
%TA.AperFunction,SMDPad,CuDef*%
G36*
G01*
X110850001Y-67575000D02*
X109949999Y-67575000D01*
G75*
G02*
X109700000Y-67325001I0J249999D01*
G01*
X109700000Y-66674999D01*
G75*
G02*
X109949999Y-66425000I249999J0D01*
G01*
X110850001Y-66425000D01*
G75*
G02*
X111100000Y-66674999I0J-249999D01*
G01*
X111100000Y-67325001D01*
G75*
G02*
X110850001Y-67575000I-249999J0D01*
G01*
G37*
%TD.AperFunction*%
%TD*%
%TO.P,C1,2*%
%TO.N,GND*%
%TA.AperFunction,SMDPad,CuDef*%
G36*
G01*
X115237500Y-65525000D02*
X114762500Y-65525000D01*
G75*
G02*
X114525000Y-65287500I0J237500D01*
G01*
X114525000Y-64712500D01*
G75*
G02*
X114762500Y-64475000I237500J0D01*
G01*
X115237500Y-64475000D01*
G75*
G02*
X115475000Y-64712500I0J-237500D01*
G01*
X115475000Y-65287500D01*
G75*
G02*
X115237500Y-65525000I-237500J0D01*
G01*
G37*
%TD.AperFunction*%
%TO.P,C1,1*%
%TO.N,+12V*%
%TA.AperFunction,SMDPad,CuDef*%
G36*
G01*
X115237500Y-67275000D02*
X114762500Y-67275000D01*
G75*
G02*
X114525000Y-67037500I0J237500D01*
G01*
X114525000Y-66462500D01*
G75*
G02*
X114762500Y-66225000I237500J0D01*
G01*
X115237500Y-66225000D01*
G75*
G02*
X115475000Y-66462500I0J-237500D01*
G01*
X115475000Y-67037500D01*
G75*
G02*
X115237500Y-67275000I-237500J0D01*
G01*
G37*
%TD.AperFunction*%
%TD*%
D24*
%TO.N,GND*%
X92000000Y-71900000D03*
D25*
X62000000Y-83000000D03*
X71000000Y-83000000D03*
X62500000Y-77500000D03*
X62500000Y-75000000D03*
X62500000Y-80000000D03*
X63000000Y-70000000D03*
X65500000Y-72500000D03*
X64500000Y-77500000D03*
X67000000Y-74000000D03*
X64500000Y-80000000D03*
X66500000Y-80000000D03*
X66500000Y-77500000D03*
X68500000Y-80000000D03*
X68500000Y-78500000D03*
X71000000Y-80000000D03*
X71500000Y-73500000D03*
X64000000Y-67500000D03*
X67000000Y-70000000D03*
X68500000Y-67500000D03*
X64500000Y-63500000D03*
X71500000Y-67000000D03*
X66500000Y-62000000D03*
X71500000Y-62000000D03*
X61500000Y-51500000D03*
X61500000Y-53000000D03*
X62500000Y-51500000D03*
X68500000Y-54000000D03*
X69500000Y-54000000D03*
X84000000Y-83500000D03*
X83500000Y-58500000D03*
X84500000Y-58500000D03*
X100000000Y-82000000D03*
X102500000Y-80500000D03*
X105500000Y-77500000D03*
X104000000Y-66000000D03*
X106500000Y-68000000D03*
X111000000Y-74000000D03*
X114000000Y-74000000D03*
X109000000Y-68500000D03*
X121500000Y-74000000D03*
X118000000Y-74000000D03*
X121500000Y-69000000D03*
X124000000Y-69000000D03*
X117000000Y-69000000D03*
X145500000Y-106500000D03*
X145500000Y-105000000D03*
X142500000Y-75500000D03*
X143500000Y-75500000D03*
X149500000Y-78000000D03*
X149500000Y-84000000D03*
X138000000Y-52000000D03*
X136000000Y-52000000D03*
X138000000Y-54000000D03*
X111000000Y-55000000D03*
X108500000Y-55000000D03*
X119500000Y-58500000D03*
X106500000Y-63500000D03*
X108000000Y-65000000D03*
X125000000Y-62000000D03*
X127000000Y-62000000D03*
X116500000Y-84000000D03*
X116500000Y-77000000D03*
X116500000Y-82500000D03*
X117500000Y-76000000D03*
X119000000Y-76000000D03*
X120500000Y-76000000D03*
X122000000Y-76000000D03*
X123500000Y-76000000D03*
X125000000Y-76000000D03*
X126500000Y-76000000D03*
X130500000Y-76000000D03*
X132000000Y-76000000D03*
X133500000Y-76000000D03*
X135000000Y-76000000D03*
X136500000Y-76000000D03*
X138000000Y-76000000D03*
X139000000Y-75000000D03*
D26*
X132000000Y-83000000D03*
D25*
X125000000Y-74000000D03*
X128500000Y-74000000D03*
X129500000Y-75000000D03*
X104500000Y-55000000D03*
X105500000Y-54000000D03*
X80500000Y-51000000D03*
X125200000Y-57000000D03*
X122800000Y-55200000D03*
X145000000Y-79000000D03*
X145000000Y-84000000D03*
X127000000Y-51400000D03*
X127000000Y-54400000D03*
X120200000Y-51400000D03*
X120200000Y-54400000D03*
X120200000Y-55600000D03*
X124000000Y-52200000D03*
X124000000Y-50800000D03*
X122800000Y-58400000D03*
%TO.N,Net-(D10-Pad4)*%
X126900000Y-44600000D03*
X126900000Y-43100000D03*
X125010000Y-31625000D03*
X126900000Y-41000000D03*
%TO.N,VCC*%
X154900000Y-87300000D03*
X148800000Y-87300000D03*
%TO.N,/DTR*%
X150600000Y-95900000D03*
X147100000Y-95900000D03*
%TO.N,/shift_4*%
X85700000Y-54900000D03*
%TO.N,/shift_3*%
X87000000Y-55700000D03*
%TO.N,/ESP32->GNSS*%
X93200000Y-57325010D03*
%TO.N,/ESP32<-GNSS*%
X94100000Y-56800000D03*
D26*
%TO.N,Net-(P3-Pad1)*%
X71000000Y-53900000D03*
X76500000Y-53200000D03*
D25*
%TO.N,/EN*%
X87100000Y-81900000D03*
%TO.N,/IO0*%
X101500000Y-58100000D03*
%TO.N,/ESP32<-PC*%
X89700000Y-59000000D03*
%TO.N,/ESP32->PC*%
X88300000Y-60200000D03*
%TO.N,Net-(P20-Pad2)*%
X124400000Y-44600000D03*
X124400000Y-41000000D03*
X124375000Y-43088000D03*
%TO.N,/RPM*%
X94700000Y-60700000D03*
X116400000Y-81000000D03*
%TO.N,/LED_R*%
X96000000Y-82000000D03*
X104500000Y-60750000D03*
%TO.N,/LED_G*%
X97250000Y-82000000D03*
X105750000Y-60750000D03*
%TO.N,/LED_B*%
X98500000Y-82000000D03*
X105750000Y-62000000D03*
%TO.N,Net-(P21-Pad1)*%
X125600000Y-44600000D03*
X125645000Y-43088000D03*
X125645000Y-41545000D03*
%TO.N,Net-(P21-Pad2)*%
X123100000Y-44600000D03*
X123105000Y-43088000D03*
X123105000Y-41605000D03*
%TO.N,Net-(R18-Pad2)*%
X106900000Y-72300000D03*
X118100000Y-72300000D03*
%TD*%
D27*
%TO.N,GND*%
X118250000Y-83000000D02*
X116500000Y-83000000D01*
X116500000Y-83000000D02*
X116500000Y-82500000D01*
D28*
X124750000Y-76250000D02*
X125000000Y-76000000D01*
X124750000Y-79000000D02*
X124750000Y-76250000D01*
X130300000Y-83000000D02*
X132000000Y-83000000D01*
D29*
X62080000Y-83080000D02*
X62000000Y-83000000D01*
X142000000Y-75000000D02*
X142500000Y-75500000D01*
X139000000Y-75000000D02*
X142000000Y-75000000D01*
%TO.N,+12V*%
X119750000Y-68250000D02*
X119750000Y-66750000D01*
D30*
X127250000Y-66750000D02*
X119750000Y-66750000D01*
X119750000Y-66750000D02*
X115000000Y-66750000D01*
D31*
X127250000Y-66750000D02*
X130000000Y-66750000D01*
X130750000Y-66000000D02*
X130000000Y-66750000D01*
X132550000Y-66000000D02*
X130750000Y-66000000D01*
X115000000Y-70000000D02*
X115000000Y-66750000D01*
D27*
X125250000Y-72250000D02*
X125250000Y-66750000D01*
D31*
X127250000Y-66750000D02*
X125250000Y-66750000D01*
X125250000Y-66750000D02*
X115000000Y-66750000D01*
D27*
X130300000Y-79000000D02*
X130300000Y-77550000D01*
X125250000Y-72500000D02*
X125250000Y-72250000D01*
X130300000Y-77550000D02*
X125250000Y-72500000D01*
D29*
%TO.N,+3V3*%
X85770000Y-79500000D02*
X85770000Y-82070000D01*
X86700000Y-83000000D02*
X88050000Y-83000000D01*
X85770000Y-82070000D02*
X86700000Y-83000000D01*
D30*
X110400000Y-70000000D02*
X110400000Y-67000000D01*
D28*
X85770000Y-78284998D02*
X86754998Y-77300000D01*
X85770000Y-79500000D02*
X85770000Y-78284998D01*
X86754998Y-77300000D02*
X98800000Y-77300000D01*
X98800000Y-77300000D02*
X99700000Y-76400000D01*
X99700000Y-65109998D02*
X100609998Y-64200000D01*
X99700000Y-76400000D02*
X99700000Y-65109998D01*
X107900000Y-67000000D02*
X110400000Y-67000000D01*
X105100000Y-64200000D02*
X107900000Y-67000000D01*
D27*
X116700000Y-79000000D02*
X109300000Y-79000000D01*
X107900000Y-77600000D02*
X107900000Y-67000000D01*
X109300000Y-79000000D02*
X107900000Y-77600000D01*
D28*
X86000000Y-52250000D02*
X88000000Y-52250000D01*
X88000000Y-52250000D02*
X90000000Y-52250000D01*
X92000000Y-52250000D02*
X90000000Y-52250000D01*
X92000000Y-52250000D02*
X99850000Y-52250000D01*
X103100000Y-55500000D02*
X103100000Y-64200000D01*
X99850000Y-52250000D02*
X103100000Y-55500000D01*
X100609998Y-64200000D02*
X103100000Y-64200000D01*
X103100000Y-64200000D02*
X105100000Y-64200000D01*
X86000000Y-52250000D02*
X83250000Y-52250000D01*
X82100000Y-52900000D02*
X82750000Y-52250000D01*
X82750000Y-52250000D02*
X83250000Y-52250000D01*
X82100000Y-53200000D02*
X82100000Y-52900000D01*
D27*
X69500000Y-82950000D02*
X67500000Y-82950000D01*
X67500000Y-82950000D02*
X66150000Y-82950000D01*
X66150000Y-82950000D02*
X65500000Y-82950000D01*
X65500000Y-82950000D02*
X63500000Y-82950000D01*
X61349969Y-80799969D02*
X63500000Y-82950000D01*
X61349969Y-58307555D02*
X61349969Y-80799969D01*
X67657524Y-52000000D02*
X61349969Y-58307555D01*
X82100000Y-54500000D02*
X81300000Y-55300000D01*
X82100000Y-53200000D02*
X82100000Y-54500000D01*
X75300000Y-55300000D02*
X72000000Y-52000000D01*
X81300000Y-55300000D02*
X75300000Y-55300000D01*
X72000000Y-52000000D02*
X67657524Y-52000000D01*
%TO.N,Net-(D1-Pad2)*%
X127000000Y-81000000D02*
X127000000Y-83000000D01*
X127000000Y-81000000D02*
X127000000Y-79000000D01*
X127000000Y-81000000D02*
X124750000Y-81000000D01*
D29*
%TO.N,Net-(D10-Pad4)*%
X126915000Y-41015000D02*
X126900000Y-41000000D01*
X126915000Y-43088000D02*
X126915000Y-41015000D01*
%TO.N,/ESP32->PC*%
X142960000Y-95760000D02*
X145500000Y-93220000D01*
%TO.N,VCC*%
X154900000Y-87300000D02*
X148800000Y-87300000D01*
%TO.N,/DTR*%
X150600000Y-95900000D02*
X147100000Y-95900000D01*
%TO.N,/ESP32<-PC*%
X142960000Y-105920000D02*
X145400000Y-103480000D01*
X148040000Y-75440000D02*
X148040000Y-85660000D01*
X148040000Y-85660000D02*
X146700000Y-87000000D01*
X146700000Y-87000000D02*
X146700000Y-94200000D01*
X145400000Y-95500000D02*
X145400000Y-103480000D01*
X146700000Y-94200000D02*
X145400000Y-95500000D01*
D31*
%TO.N,Net-(P1-Pad1)*%
X137000000Y-60000000D02*
X137000000Y-66000000D01*
D29*
%TO.N,/shift_4*%
X85770000Y-54970000D02*
X85700000Y-54900000D01*
X85770000Y-62500000D02*
X85770000Y-54970000D01*
X69500000Y-78000000D02*
X70000000Y-77500000D01*
X69500000Y-81200000D02*
X69500000Y-78000000D01*
%TO.N,/shift_3*%
X87040000Y-62500000D02*
X87040000Y-55740000D01*
X87040000Y-55740000D02*
X87000000Y-55700000D01*
X67500000Y-77500000D02*
X70000000Y-75000000D01*
X67500000Y-81200000D02*
X67500000Y-77500000D01*
%TO.N,/shift_2*%
X63700000Y-62400000D02*
X65300000Y-62400000D01*
X62324990Y-58775010D02*
X62324990Y-61024990D01*
X83026996Y-56500000D02*
X74821004Y-56500000D01*
X71600000Y-68700000D02*
X71600000Y-72125000D01*
X71225000Y-72500000D02*
X70000000Y-72500000D01*
X71600000Y-72125000D02*
X71225000Y-72500000D01*
X65300000Y-62400000D02*
X71600000Y-68700000D01*
X62324990Y-61024990D02*
X63700000Y-62400000D01*
X68025002Y-53074998D02*
X62324990Y-58775010D01*
X74821004Y-56500000D02*
X71396002Y-53074998D01*
X71396002Y-53074998D02*
X68025002Y-53074998D01*
X86548002Y-54174998D02*
X85351998Y-54174998D01*
X85351998Y-54174998D02*
X83026996Y-56500000D01*
X90850000Y-58476996D02*
X86548002Y-54174998D01*
X90850000Y-62500000D02*
X90850000Y-58476996D01*
X65500000Y-77000000D02*
X70000000Y-72500000D01*
X65500000Y-81200000D02*
X65500000Y-77000000D01*
%TO.N,/shift_1*%
X85165598Y-53724987D02*
X82890585Y-56000000D01*
X93390000Y-61250000D02*
X93400000Y-61240000D01*
X93400000Y-61240000D02*
X93400000Y-60200000D01*
X86924987Y-53724987D02*
X85165598Y-53724987D01*
X82890585Y-56000000D02*
X74957415Y-56000000D01*
X61874979Y-58525021D02*
X61874979Y-62849979D01*
X74957415Y-56000000D02*
X71582402Y-52624987D01*
X69025000Y-70000000D02*
X70000000Y-70000000D01*
X93390000Y-62500000D02*
X93390000Y-61250000D01*
X61874979Y-62849979D02*
X69025000Y-70000000D01*
X67775013Y-52624987D02*
X61874979Y-58525021D01*
X71582402Y-52624987D02*
X67775013Y-52624987D01*
X93400000Y-60200000D02*
X86924987Y-53724987D01*
X63500000Y-76500000D02*
X70000000Y-70000000D01*
X63500000Y-81200000D02*
X63500000Y-76500000D01*
%TO.N,/ESP32->GNSS*%
X93275010Y-57325010D02*
X93200000Y-57325010D01*
X97200000Y-61250000D02*
X93275010Y-57325010D01*
X97200000Y-62500000D02*
X97200000Y-61250000D01*
%TO.N,/ESP32<-GNSS*%
X98470000Y-62500000D02*
X98470000Y-61170000D01*
X98470000Y-61170000D02*
X94100000Y-56800000D01*
D28*
%TO.N,Net-(P3-Pad1)*%
X71000000Y-60000000D02*
X71000000Y-53900000D01*
X76500000Y-53200000D02*
X79125000Y-53200000D01*
D27*
%TO.N,Net-(P21-Pad2)*%
X116750000Y-60000000D02*
X115750000Y-61000000D01*
X121500000Y-60000000D02*
X116750000Y-60000000D01*
%TO.N,Net-(P21-Pad1)*%
X115750000Y-57000000D02*
X123000000Y-57000000D01*
X124000000Y-58000000D02*
X123000000Y-57000000D01*
X124000000Y-60000000D02*
X124000000Y-58000000D01*
%TO.N,Net-(P20-Pad2)*%
X126500000Y-56250000D02*
X126500000Y-60000000D01*
X123250000Y-53000000D02*
X126500000Y-56250000D01*
D28*
%TO.N,Net-(D10-Pad4)*%
X129000000Y-62025000D02*
X127250000Y-63775000D01*
X129000000Y-60000000D02*
X129000000Y-62025000D01*
X126900000Y-41000000D02*
X126900000Y-35700000D01*
X126900000Y-35700000D02*
X125010000Y-33810000D01*
X125010000Y-31625000D02*
X125010000Y-33810000D01*
D29*
%TO.N,/EN*%
X87040000Y-81840000D02*
X87100000Y-81900000D01*
X87040000Y-79500000D02*
X87040000Y-81840000D01*
X149979957Y-72299957D02*
X152270001Y-74590001D01*
X136635001Y-72425001D02*
X140170778Y-72425001D01*
X140170778Y-72425001D02*
X140295822Y-72299957D01*
X152270001Y-74590001D02*
X153120000Y-75440000D01*
X140295822Y-72299957D02*
X149979957Y-72299957D01*
X135460000Y-71250000D02*
X136635001Y-72425001D01*
%TO.N,/IO0*%
X101010000Y-62500000D02*
X101010000Y-58590000D01*
X101010000Y-58590000D02*
X101500000Y-58100000D01*
%TO.N,/ESP32<-PC*%
X89580000Y-59120000D02*
X89700000Y-59000000D01*
X89580000Y-62500000D02*
X89580000Y-59120000D01*
%TO.N,/ESP32->PC*%
X88310000Y-62500000D02*
X88310000Y-60210000D01*
X88310000Y-60210000D02*
X88300000Y-60200000D01*
D27*
%TO.N,Net-(P6-Pad1)*%
X128750000Y-81000000D02*
X136000000Y-81000000D01*
D29*
%TO.N,Net-(P20-Pad2)*%
X124375000Y-43088000D02*
X124375000Y-43088000D01*
X124375000Y-41025000D02*
X124400000Y-41000000D01*
X124375000Y-43088000D02*
X124375000Y-41025000D01*
%TO.N,/IO0*%
X140482222Y-72749968D02*
X140132212Y-73099978D01*
X134769978Y-73099978D02*
X132920000Y-71250000D01*
X140132212Y-73099978D02*
X134769978Y-73099978D01*
X147889968Y-72749968D02*
X140482222Y-72749968D01*
X150580000Y-75440000D02*
X147889968Y-72749968D01*
%TO.N,/ESP32<-PC*%
X148040000Y-75440000D02*
X145799979Y-73199979D01*
X145799979Y-73199979D02*
X140668622Y-73199979D01*
X140318613Y-73549989D02*
X132679989Y-73549989D01*
X140668622Y-73199979D02*
X140318613Y-73549989D01*
X131229999Y-72099999D02*
X130380000Y-71250000D01*
X132679989Y-73549989D02*
X131229999Y-72099999D01*
%TO.N,/ESP32->PC*%
X130590000Y-74000000D02*
X127840000Y-71250000D01*
X144513002Y-75440000D02*
X142722992Y-73649990D01*
X145500000Y-75440000D02*
X144513002Y-75440000D01*
X140505012Y-74000000D02*
X130590000Y-74000000D01*
X142722992Y-73649990D02*
X140855022Y-73649990D01*
X140855022Y-73649990D02*
X140505012Y-74000000D01*
X145500000Y-75440000D02*
X145500000Y-76500000D01*
X145500000Y-76500000D02*
X147000000Y-78000000D01*
X147000000Y-78000000D02*
X147000000Y-85000000D01*
X145500000Y-86500000D02*
X145500000Y-93220000D01*
X147000000Y-85000000D02*
X145500000Y-86500000D01*
%TO.N,Net-(P20-Pad2)*%
X124400000Y-44600000D02*
X124400000Y-47600000D01*
X124400000Y-47600000D02*
X123000000Y-49000000D01*
X123000000Y-49000000D02*
X123000000Y-53000000D01*
D27*
X115750000Y-53000000D02*
X123000000Y-53000000D01*
X123000000Y-53000000D02*
X123250000Y-53000000D01*
%TO.N,Net-(Q1-Pad3)*%
X114000000Y-53000000D02*
X112000000Y-53000000D01*
D29*
%TO.N,Net-(Q1-Pad1)*%
X107325000Y-52050000D02*
X107250000Y-52125000D01*
X109600000Y-52050000D02*
X107325000Y-52050000D01*
D27*
%TO.N,Net-(Q2-Pad3)*%
X112000000Y-57000000D02*
X114000000Y-57000000D01*
D29*
%TO.N,Net-(Q2-Pad1)*%
X107325000Y-56050000D02*
X107250000Y-56125000D01*
X109600000Y-56050000D02*
X107325000Y-56050000D01*
D27*
%TO.N,Net-(Q3-Pad3)*%
X112000000Y-61000000D02*
X114000000Y-61000000D01*
D29*
%TO.N,Net-(Q3-Pad1)*%
X107325000Y-60050000D02*
X107250000Y-60125000D01*
X109600000Y-60050000D02*
X107325000Y-60050000D01*
%TO.N,/RPM*%
X94660000Y-62500000D02*
X94660000Y-60740000D01*
X94660000Y-60740000D02*
X94700000Y-60700000D01*
X116400000Y-81000000D02*
X118250000Y-81000000D01*
%TO.N,/BATT*%
X94660000Y-82160000D02*
X94660000Y-79500000D01*
X95600000Y-83100000D02*
X94660000Y-82160000D01*
X106750000Y-75875000D02*
X106750000Y-78000000D01*
X101700000Y-83100000D02*
X101650000Y-83100000D01*
X106750000Y-78000000D02*
X101650000Y-83100000D01*
X101650000Y-83100000D02*
X95600000Y-83100000D01*
%TO.N,/TEMP*%
X89800000Y-83000000D02*
X91800000Y-83000000D01*
X93390000Y-81410000D02*
X91800000Y-83000000D01*
X93390000Y-79500000D02*
X93390000Y-81410000D01*
%TO.N,/LED_R*%
X95930000Y-79500000D02*
X95930000Y-81930000D01*
X95930000Y-81930000D02*
X96000000Y-82000000D01*
X107250000Y-53875000D02*
X104500000Y-56625000D01*
X104500000Y-56625000D02*
X104500000Y-60750000D01*
%TO.N,/LED_G*%
X97200000Y-79500000D02*
X97200000Y-81950000D01*
X97200000Y-81950000D02*
X97250000Y-82000000D01*
X105750000Y-59375000D02*
X107250000Y-57875000D01*
X105750000Y-60750000D02*
X105750000Y-59375000D01*
%TO.N,/LED_B*%
X98470000Y-79500000D02*
X98470000Y-81970000D01*
X98470000Y-81970000D02*
X98500000Y-82000000D01*
X107250000Y-61875000D02*
X105875000Y-61875000D01*
X105875000Y-61875000D02*
X105750000Y-62000000D01*
D27*
%TO.N,Net-(C3-Pad1)*%
X123000000Y-81000000D02*
X120000000Y-81000000D01*
X120000000Y-81000000D02*
X120000000Y-83000000D01*
X120000000Y-79000000D02*
X120000000Y-81000000D01*
X123000000Y-81000000D02*
X123000000Y-79000000D01*
D29*
%TO.N,Net-(R18-Pad2)*%
X119750000Y-70000000D02*
X119750000Y-72250000D01*
X118150000Y-72250000D02*
X118100000Y-72300000D01*
X119750000Y-72250000D02*
X118150000Y-72250000D01*
X106750000Y-72450000D02*
X106900000Y-72300000D01*
X106750000Y-74125000D02*
X106750000Y-72450000D01*
%TD*%
D32*
%TO.N,GND*%
G36*
X85045001Y-55659215D02*
G01*
X85045000Y-60966657D01*
X84985045Y-60998704D01*
X84982512Y-61000783D01*
X84950000Y-60997581D01*
X84725000Y-61000000D01*
X84600000Y-61125000D01*
X84600000Y-62400000D01*
X84620000Y-62400000D01*
X84620000Y-62600000D01*
X84600000Y-62600000D01*
X84600000Y-63875000D01*
X84725000Y-64000000D01*
X84950000Y-64002419D01*
X84982512Y-63999217D01*
X84985045Y-64001296D01*
X85089279Y-64057010D01*
X85202379Y-64091318D01*
X85320000Y-64102903D01*
X86220000Y-64102903D01*
X86337621Y-64091318D01*
X86405000Y-64070879D01*
X86472379Y-64091318D01*
X86590000Y-64102903D01*
X87490000Y-64102903D01*
X87607621Y-64091318D01*
X87675000Y-64070879D01*
X87742379Y-64091318D01*
X87860000Y-64102903D01*
X88760000Y-64102903D01*
X88877621Y-64091318D01*
X88945000Y-64070879D01*
X89012379Y-64091318D01*
X89130000Y-64102903D01*
X90030000Y-64102903D01*
X90147621Y-64091318D01*
X90215000Y-64070879D01*
X90282379Y-64091318D01*
X90400000Y-64102903D01*
X91300000Y-64102903D01*
X91417621Y-64091318D01*
X91485000Y-64070879D01*
X91552379Y-64091318D01*
X91670000Y-64102903D01*
X92570000Y-64102903D01*
X92687621Y-64091318D01*
X92755000Y-64070879D01*
X92822379Y-64091318D01*
X92940000Y-64102903D01*
X93840000Y-64102903D01*
X93957621Y-64091318D01*
X94025000Y-64070879D01*
X94092379Y-64091318D01*
X94210000Y-64102903D01*
X95110000Y-64102903D01*
X95227621Y-64091318D01*
X95295000Y-64070879D01*
X95362379Y-64091318D01*
X95480000Y-64102903D01*
X96380000Y-64102903D01*
X96497621Y-64091318D01*
X96565000Y-64070879D01*
X96632379Y-64091318D01*
X96750000Y-64102903D01*
X97650000Y-64102903D01*
X97767621Y-64091318D01*
X97835000Y-64070879D01*
X97902379Y-64091318D01*
X98020000Y-64102903D01*
X98920000Y-64102903D01*
X99037621Y-64091318D01*
X99105000Y-64070879D01*
X99172379Y-64091318D01*
X99290000Y-64102903D01*
X99328237Y-64102903D01*
X99044442Y-64386699D01*
X99007236Y-64417233D01*
X98885396Y-64565696D01*
X98843826Y-64643469D01*
X98794861Y-64735077D01*
X98739108Y-64918865D01*
X98720283Y-65109998D01*
X98725001Y-65157900D01*
X98725000Y-75996142D01*
X98396143Y-76325000D01*
X86802890Y-76325000D01*
X86754998Y-76320283D01*
X86563865Y-76339108D01*
X86380076Y-76394860D01*
X86254967Y-76461732D01*
X86210696Y-76485395D01*
X86062233Y-76607235D01*
X86031703Y-76644436D01*
X85114442Y-77561699D01*
X85077236Y-77592233D01*
X84955396Y-77740696D01*
X84900019Y-77844301D01*
X84864861Y-77910077D01*
X84837951Y-77998786D01*
X84725000Y-78000000D01*
X84600000Y-78125000D01*
X84600000Y-79400000D01*
X84620000Y-79400000D01*
X84620000Y-79600000D01*
X84600000Y-79600000D01*
X84600000Y-80875000D01*
X84725000Y-81000000D01*
X84950000Y-81002419D01*
X84982512Y-80999217D01*
X84985045Y-81001296D01*
X85045001Y-81033343D01*
X85045001Y-82034393D01*
X85041494Y-82070000D01*
X85045001Y-82105607D01*
X85055492Y-82212125D01*
X85060547Y-82228788D01*
X85096947Y-82348787D01*
X85164269Y-82474736D01*
X85232170Y-82557474D01*
X85232173Y-82557477D01*
X85254869Y-82585132D01*
X85282523Y-82607827D01*
X86162172Y-83487477D01*
X86184868Y-83515132D01*
X86212523Y-83537828D01*
X86212525Y-83537830D01*
X86249802Y-83568422D01*
X86295263Y-83605731D01*
X86421212Y-83673053D01*
X86557875Y-83714509D01*
X86664393Y-83725000D01*
X86664400Y-83725000D01*
X86700000Y-83728506D01*
X86735600Y-83725000D01*
X87080634Y-83725000D01*
X87168245Y-83831755D01*
X87295597Y-83936270D01*
X87440892Y-84013931D01*
X87598546Y-84061755D01*
X87762500Y-84077903D01*
X88337500Y-84077903D01*
X88501454Y-84061755D01*
X88659108Y-84013931D01*
X88804403Y-83936270D01*
X88925000Y-83837299D01*
X89045597Y-83936270D01*
X89190892Y-84013931D01*
X89348546Y-84061755D01*
X89512500Y-84077903D01*
X90087500Y-84077903D01*
X90251454Y-84061755D01*
X90409108Y-84013931D01*
X90554403Y-83936270D01*
X90681755Y-83831755D01*
X90769366Y-83725000D01*
X90830634Y-83725000D01*
X90918245Y-83831755D01*
X91045597Y-83936270D01*
X91190892Y-84013931D01*
X91348546Y-84061755D01*
X91512500Y-84077903D01*
X92087500Y-84077903D01*
X92251454Y-84061755D01*
X92409108Y-84013931D01*
X92554403Y-83936270D01*
X92676654Y-83835941D01*
X92745871Y-83892746D01*
X92832733Y-83939175D01*
X92926983Y-83967765D01*
X93025000Y-83977419D01*
X93325000Y-83975000D01*
X93450000Y-83850000D01*
X93450000Y-83100000D01*
X93430000Y-83100000D01*
X93430000Y-82900000D01*
X93450000Y-82900000D01*
X93450000Y-82880000D01*
X93650000Y-82880000D01*
X93650000Y-82900000D01*
X93670000Y-82900000D01*
X93670000Y-83100000D01*
X93650000Y-83100000D01*
X93650000Y-83850000D01*
X93775000Y-83975000D01*
X94075000Y-83977419D01*
X94173017Y-83967765D01*
X94267267Y-83939175D01*
X94354129Y-83892746D01*
X94430264Y-83830264D01*
X94492746Y-83754129D01*
X94539175Y-83667267D01*
X94567765Y-83573017D01*
X94577419Y-83475000D01*
X94575000Y-83225000D01*
X94450002Y-83100002D01*
X94574698Y-83100002D01*
X95062172Y-83587477D01*
X95084868Y-83615132D01*
X95112523Y-83637828D01*
X95112525Y-83637830D01*
X95155445Y-83673053D01*
X95195263Y-83705731D01*
X95321212Y-83773053D01*
X95457875Y-83814509D01*
X95564393Y-83825000D01*
X95564403Y-83825000D01*
X95600000Y-83828506D01*
X95635597Y-83825000D01*
X101614403Y-83825000D01*
X101650000Y-83828506D01*
X101685597Y-83825000D01*
X101735607Y-83825000D01*
X101842125Y-83814509D01*
X101978788Y-83773053D01*
X102104737Y-83705731D01*
X102215132Y-83615132D01*
X102305731Y-83504737D01*
X102346110Y-83429194D01*
X107237477Y-78537828D01*
X107265132Y-78515132D01*
X107297140Y-78476131D01*
X107355731Y-78404737D01*
X107423053Y-78278788D01*
X107424202Y-78275000D01*
X107428724Y-78260094D01*
X108706531Y-79537902D01*
X108731578Y-79568422D01*
X108762098Y-79593469D01*
X108853393Y-79668393D01*
X108920763Y-79704403D01*
X108992372Y-79742679D01*
X109143173Y-79788424D01*
X109260707Y-79800000D01*
X109260709Y-79800000D01*
X109300000Y-79803870D01*
X109339291Y-79800000D01*
X115683671Y-79800000D01*
X115692990Y-79830721D01*
X115748704Y-79934955D01*
X115823683Y-80026317D01*
X115915045Y-80101296D01*
X115933160Y-80110979D01*
X115926322Y-80113811D01*
X115762537Y-80223249D01*
X115623249Y-80362537D01*
X115513811Y-80526322D01*
X115438429Y-80708311D01*
X115400000Y-80901509D01*
X115400000Y-81098491D01*
X115438429Y-81291689D01*
X115513811Y-81473678D01*
X115623249Y-81637463D01*
X115762537Y-81776751D01*
X115926322Y-81886189D01*
X116108311Y-81961571D01*
X116301509Y-82000000D01*
X116498491Y-82000000D01*
X116691689Y-81961571D01*
X116873678Y-81886189D01*
X116900000Y-81868601D01*
X116900000Y-84375000D01*
X83100000Y-84375000D01*
X83100000Y-80500000D01*
X83547581Y-80500000D01*
X83557235Y-80598017D01*
X83585825Y-80692267D01*
X83632254Y-80779129D01*
X83694736Y-80855264D01*
X83770871Y-80917746D01*
X83857733Y-80964175D01*
X83951983Y-80992765D01*
X84050000Y-81002419D01*
X84275000Y-81000000D01*
X84400000Y-80875000D01*
X84400000Y-79600000D01*
X83675000Y-79600000D01*
X83550000Y-79725000D01*
X83547581Y-80500000D01*
X83100000Y-80500000D01*
X83100000Y-78500000D01*
X83547581Y-78500000D01*
X83550000Y-79275000D01*
X83675000Y-79400000D01*
X84400000Y-79400000D01*
X84400000Y-78125000D01*
X84275000Y-78000000D01*
X84050000Y-77997581D01*
X83951983Y-78007235D01*
X83857733Y-78035825D01*
X83770871Y-78082254D01*
X83694736Y-78144736D01*
X83632254Y-78220871D01*
X83585825Y-78307733D01*
X83557235Y-78401983D01*
X83547581Y-78500000D01*
X83100000Y-78500000D01*
X83100000Y-74500000D01*
X88997581Y-74500000D01*
X89007235Y-74598017D01*
X89035825Y-74692267D01*
X89082254Y-74779129D01*
X89144736Y-74855264D01*
X89220871Y-74917746D01*
X89307733Y-74964175D01*
X89401983Y-74992765D01*
X89500000Y-75002419D01*
X91775000Y-75000000D01*
X91900000Y-74875000D01*
X91900000Y-72100000D01*
X92100000Y-72100000D01*
X92100000Y-74875000D01*
X92225000Y-75000000D01*
X94500000Y-75002419D01*
X94598017Y-74992765D01*
X94692267Y-74964175D01*
X94779129Y-74917746D01*
X94855264Y-74855264D01*
X94917746Y-74779129D01*
X94964175Y-74692267D01*
X94992765Y-74598017D01*
X95002419Y-74500000D01*
X95000000Y-72225000D01*
X94875000Y-72100000D01*
X92100000Y-72100000D01*
X91900000Y-72100000D01*
X89125000Y-72100000D01*
X89000000Y-72225000D01*
X88997581Y-74500000D01*
X83100000Y-74500000D01*
X83100000Y-69500000D01*
X88997581Y-69500000D01*
X89000000Y-71775000D01*
X89125000Y-71900000D01*
X91900000Y-71900000D01*
X91900000Y-69125000D01*
X92100000Y-69125000D01*
X92100000Y-71900000D01*
X94875000Y-71900000D01*
X95000000Y-71775000D01*
X95002419Y-69500000D01*
X94992765Y-69401983D01*
X94964175Y-69307733D01*
X94917746Y-69220871D01*
X94855264Y-69144736D01*
X94779129Y-69082254D01*
X94692267Y-69035825D01*
X94598017Y-69007235D01*
X94500000Y-68997581D01*
X92225000Y-69000000D01*
X92100000Y-69125000D01*
X91900000Y-69125000D01*
X91775000Y-69000000D01*
X89500000Y-68997581D01*
X89401983Y-69007235D01*
X89307733Y-69035825D01*
X89220871Y-69082254D01*
X89144736Y-69144736D01*
X89082254Y-69220871D01*
X89035825Y-69307733D01*
X89007235Y-69401983D01*
X88997581Y-69500000D01*
X83100000Y-69500000D01*
X83100000Y-63500000D01*
X83547581Y-63500000D01*
X83557235Y-63598017D01*
X83585825Y-63692267D01*
X83632254Y-63779129D01*
X83694736Y-63855264D01*
X83770871Y-63917746D01*
X83857733Y-63964175D01*
X83951983Y-63992765D01*
X84050000Y-64002419D01*
X84275000Y-64000000D01*
X84400000Y-63875000D01*
X84400000Y-62600000D01*
X83675000Y-62600000D01*
X83550000Y-62725000D01*
X83547581Y-63500000D01*
X83100000Y-63500000D01*
X83100000Y-61500000D01*
X83547581Y-61500000D01*
X83550000Y-62275000D01*
X83675000Y-62400000D01*
X84400000Y-62400000D01*
X84400000Y-61125000D01*
X84275000Y-61000000D01*
X84050000Y-60997581D01*
X83951983Y-61007235D01*
X83857733Y-61035825D01*
X83770871Y-61082254D01*
X83694736Y-61144736D01*
X83632254Y-61220871D01*
X83585825Y-61307733D01*
X83557235Y-61401983D01*
X83547581Y-61500000D01*
X83100000Y-61500000D01*
X83100000Y-57221317D01*
X83169121Y-57214509D01*
X83305784Y-57173053D01*
X83431733Y-57105731D01*
X83542128Y-57015132D01*
X83564828Y-56987472D01*
X84969043Y-55583257D01*
X85045001Y-55659215D01*
G37*
X85045001Y-55659215D02*
X85045000Y-60966657D01*
X84985045Y-60998704D01*
X84982512Y-61000783D01*
X84950000Y-60997581D01*
X84725000Y-61000000D01*
X84600000Y-61125000D01*
X84600000Y-62400000D01*
X84620000Y-62400000D01*
X84620000Y-62600000D01*
X84600000Y-62600000D01*
X84600000Y-63875000D01*
X84725000Y-64000000D01*
X84950000Y-64002419D01*
X84982512Y-63999217D01*
X84985045Y-64001296D01*
X85089279Y-64057010D01*
X85202379Y-64091318D01*
X85320000Y-64102903D01*
X86220000Y-64102903D01*
X86337621Y-64091318D01*
X86405000Y-64070879D01*
X86472379Y-64091318D01*
X86590000Y-64102903D01*
X87490000Y-64102903D01*
X87607621Y-64091318D01*
X87675000Y-64070879D01*
X87742379Y-64091318D01*
X87860000Y-64102903D01*
X88760000Y-64102903D01*
X88877621Y-64091318D01*
X88945000Y-64070879D01*
X89012379Y-64091318D01*
X89130000Y-64102903D01*
X90030000Y-64102903D01*
X90147621Y-64091318D01*
X90215000Y-64070879D01*
X90282379Y-64091318D01*
X90400000Y-64102903D01*
X91300000Y-64102903D01*
X91417621Y-64091318D01*
X91485000Y-64070879D01*
X91552379Y-64091318D01*
X91670000Y-64102903D01*
X92570000Y-64102903D01*
X92687621Y-64091318D01*
X92755000Y-64070879D01*
X92822379Y-64091318D01*
X92940000Y-64102903D01*
X93840000Y-64102903D01*
X93957621Y-64091318D01*
X94025000Y-64070879D01*
X94092379Y-64091318D01*
X94210000Y-64102903D01*
X95110000Y-64102903D01*
X95227621Y-64091318D01*
X95295000Y-64070879D01*
X95362379Y-64091318D01*
X95480000Y-64102903D01*
X96380000Y-64102903D01*
X96497621Y-64091318D01*
X96565000Y-64070879D01*
X96632379Y-64091318D01*
X96750000Y-64102903D01*
X97650000Y-64102903D01*
X97767621Y-64091318D01*
X97835000Y-64070879D01*
X97902379Y-64091318D01*
X98020000Y-64102903D01*
X98920000Y-64102903D01*
X99037621Y-64091318D01*
X99105000Y-64070879D01*
X99172379Y-64091318D01*
X99290000Y-64102903D01*
X99328237Y-64102903D01*
X99044442Y-64386699D01*
X99007236Y-64417233D01*
X98885396Y-64565696D01*
X98843826Y-64643469D01*
X98794861Y-64735077D01*
X98739108Y-64918865D01*
X98720283Y-65109998D01*
X98725001Y-65157900D01*
X98725000Y-75996142D01*
X98396143Y-76325000D01*
X86802890Y-76325000D01*
X86754998Y-76320283D01*
X86563865Y-76339108D01*
X86380076Y-76394860D01*
X86254967Y-76461732D01*
X86210696Y-76485395D01*
X86062233Y-76607235D01*
X86031703Y-76644436D01*
X85114442Y-77561699D01*
X85077236Y-77592233D01*
X84955396Y-77740696D01*
X84900019Y-77844301D01*
X84864861Y-77910077D01*
X84837951Y-77998786D01*
X84725000Y-78000000D01*
X84600000Y-78125000D01*
X84600000Y-79400000D01*
X84620000Y-79400000D01*
X84620000Y-79600000D01*
X84600000Y-79600000D01*
X84600000Y-80875000D01*
X84725000Y-81000000D01*
X84950000Y-81002419D01*
X84982512Y-80999217D01*
X84985045Y-81001296D01*
X85045001Y-81033343D01*
X85045001Y-82034393D01*
X85041494Y-82070000D01*
X85045001Y-82105607D01*
X85055492Y-82212125D01*
X85060547Y-82228788D01*
X85096947Y-82348787D01*
X85164269Y-82474736D01*
X85232170Y-82557474D01*
X85232173Y-82557477D01*
X85254869Y-82585132D01*
X85282523Y-82607827D01*
X86162172Y-83487477D01*
X86184868Y-83515132D01*
X86212523Y-83537828D01*
X86212525Y-83537830D01*
X86249802Y-83568422D01*
X86295263Y-83605731D01*
X86421212Y-83673053D01*
X86557875Y-83714509D01*
X86664393Y-83725000D01*
X86664400Y-83725000D01*
X86700000Y-83728506D01*
X86735600Y-83725000D01*
X87080634Y-83725000D01*
X87168245Y-83831755D01*
X87295597Y-83936270D01*
X87440892Y-84013931D01*
X87598546Y-84061755D01*
X87762500Y-84077903D01*
X88337500Y-84077903D01*
X88501454Y-84061755D01*
X88659108Y-84013931D01*
X88804403Y-83936270D01*
X88925000Y-83837299D01*
X89045597Y-83936270D01*
X89190892Y-84013931D01*
X89348546Y-84061755D01*
X89512500Y-84077903D01*
X90087500Y-84077903D01*
X90251454Y-84061755D01*
X90409108Y-84013931D01*
X90554403Y-83936270D01*
X90681755Y-83831755D01*
X90769366Y-83725000D01*
X90830634Y-83725000D01*
X90918245Y-83831755D01*
X91045597Y-83936270D01*
X91190892Y-84013931D01*
X91348546Y-84061755D01*
X91512500Y-84077903D01*
X92087500Y-84077903D01*
X92251454Y-84061755D01*
X92409108Y-84013931D01*
X92554403Y-83936270D01*
X92676654Y-83835941D01*
X92745871Y-83892746D01*
X92832733Y-83939175D01*
X92926983Y-83967765D01*
X93025000Y-83977419D01*
X93325000Y-83975000D01*
X93450000Y-83850000D01*
X93450000Y-83100000D01*
X93430000Y-83100000D01*
X93430000Y-82900000D01*
X93450000Y-82900000D01*
X93450000Y-82880000D01*
X93650000Y-82880000D01*
X93650000Y-82900000D01*
X93670000Y-82900000D01*
X93670000Y-83100000D01*
X93650000Y-83100000D01*
X93650000Y-83850000D01*
X93775000Y-83975000D01*
X94075000Y-83977419D01*
X94173017Y-83967765D01*
X94267267Y-83939175D01*
X94354129Y-83892746D01*
X94430264Y-83830264D01*
X94492746Y-83754129D01*
X94539175Y-83667267D01*
X94567765Y-83573017D01*
X94577419Y-83475000D01*
X94575000Y-83225000D01*
X94450002Y-83100002D01*
X94574698Y-83100002D01*
X95062172Y-83587477D01*
X95084868Y-83615132D01*
X95112523Y-83637828D01*
X95112525Y-83637830D01*
X95155445Y-83673053D01*
X95195263Y-83705731D01*
X95321212Y-83773053D01*
X95457875Y-83814509D01*
X95564393Y-83825000D01*
X95564403Y-83825000D01*
X95600000Y-83828506D01*
X95635597Y-83825000D01*
X101614403Y-83825000D01*
X101650000Y-83828506D01*
X101685597Y-83825000D01*
X101735607Y-83825000D01*
X101842125Y-83814509D01*
X101978788Y-83773053D01*
X102104737Y-83705731D01*
X102215132Y-83615132D01*
X102305731Y-83504737D01*
X102346110Y-83429194D01*
X107237477Y-78537828D01*
X107265132Y-78515132D01*
X107297140Y-78476131D01*
X107355731Y-78404737D01*
X107423053Y-78278788D01*
X107424202Y-78275000D01*
X107428724Y-78260094D01*
X108706531Y-79537902D01*
X108731578Y-79568422D01*
X108762098Y-79593469D01*
X108853393Y-79668393D01*
X108920763Y-79704403D01*
X108992372Y-79742679D01*
X109143173Y-79788424D01*
X109260707Y-79800000D01*
X109260709Y-79800000D01*
X109300000Y-79803870D01*
X109339291Y-79800000D01*
X115683671Y-79800000D01*
X115692990Y-79830721D01*
X115748704Y-79934955D01*
X115823683Y-80026317D01*
X115915045Y-80101296D01*
X115933160Y-80110979D01*
X115926322Y-80113811D01*
X115762537Y-80223249D01*
X115623249Y-80362537D01*
X115513811Y-80526322D01*
X115438429Y-80708311D01*
X115400000Y-80901509D01*
X115400000Y-81098491D01*
X115438429Y-81291689D01*
X115513811Y-81473678D01*
X115623249Y-81637463D01*
X115762537Y-81776751D01*
X115926322Y-81886189D01*
X116108311Y-81961571D01*
X116301509Y-82000000D01*
X116498491Y-82000000D01*
X116691689Y-81961571D01*
X116873678Y-81886189D01*
X116900000Y-81868601D01*
X116900000Y-84375000D01*
X83100000Y-84375000D01*
X83100000Y-80500000D01*
X83547581Y-80500000D01*
X83557235Y-80598017D01*
X83585825Y-80692267D01*
X83632254Y-80779129D01*
X83694736Y-80855264D01*
X83770871Y-80917746D01*
X83857733Y-80964175D01*
X83951983Y-80992765D01*
X84050000Y-81002419D01*
X84275000Y-81000000D01*
X84400000Y-80875000D01*
X84400000Y-79600000D01*
X83675000Y-79600000D01*
X83550000Y-79725000D01*
X83547581Y-80500000D01*
X83100000Y-80500000D01*
X83100000Y-78500000D01*
X83547581Y-78500000D01*
X83550000Y-79275000D01*
X83675000Y-79400000D01*
X84400000Y-79400000D01*
X84400000Y-78125000D01*
X84275000Y-78000000D01*
X84050000Y-77997581D01*
X83951983Y-78007235D01*
X83857733Y-78035825D01*
X83770871Y-78082254D01*
X83694736Y-78144736D01*
X83632254Y-78220871D01*
X83585825Y-78307733D01*
X83557235Y-78401983D01*
X83547581Y-78500000D01*
X83100000Y-78500000D01*
X83100000Y-74500000D01*
X88997581Y-74500000D01*
X89007235Y-74598017D01*
X89035825Y-74692267D01*
X89082254Y-74779129D01*
X89144736Y-74855264D01*
X89220871Y-74917746D01*
X89307733Y-74964175D01*
X89401983Y-74992765D01*
X89500000Y-75002419D01*
X91775000Y-75000000D01*
X91900000Y-74875000D01*
X91900000Y-72100000D01*
X92100000Y-72100000D01*
X92100000Y-74875000D01*
X92225000Y-75000000D01*
X94500000Y-75002419D01*
X94598017Y-74992765D01*
X94692267Y-74964175D01*
X94779129Y-74917746D01*
X94855264Y-74855264D01*
X94917746Y-74779129D01*
X94964175Y-74692267D01*
X94992765Y-74598017D01*
X95002419Y-74500000D01*
X95000000Y-72225000D01*
X94875000Y-72100000D01*
X92100000Y-72100000D01*
X91900000Y-72100000D01*
X89125000Y-72100000D01*
X89000000Y-72225000D01*
X88997581Y-74500000D01*
X83100000Y-74500000D01*
X83100000Y-69500000D01*
X88997581Y-69500000D01*
X89000000Y-71775000D01*
X89125000Y-71900000D01*
X91900000Y-71900000D01*
X91900000Y-69125000D01*
X92100000Y-69125000D01*
X92100000Y-71900000D01*
X94875000Y-71900000D01*
X95000000Y-71775000D01*
X95002419Y-69500000D01*
X94992765Y-69401983D01*
X94964175Y-69307733D01*
X94917746Y-69220871D01*
X94855264Y-69144736D01*
X94779129Y-69082254D01*
X94692267Y-69035825D01*
X94598017Y-69007235D01*
X94500000Y-68997581D01*
X92225000Y-69000000D01*
X92100000Y-69125000D01*
X91900000Y-69125000D01*
X91775000Y-69000000D01*
X89500000Y-68997581D01*
X89401983Y-69007235D01*
X89307733Y-69035825D01*
X89220871Y-69082254D01*
X89144736Y-69144736D01*
X89082254Y-69220871D01*
X89035825Y-69307733D01*
X89007235Y-69401983D01*
X88997581Y-69500000D01*
X83100000Y-69500000D01*
X83100000Y-63500000D01*
X83547581Y-63500000D01*
X83557235Y-63598017D01*
X83585825Y-63692267D01*
X83632254Y-63779129D01*
X83694736Y-63855264D01*
X83770871Y-63917746D01*
X83857733Y-63964175D01*
X83951983Y-63992765D01*
X84050000Y-64002419D01*
X84275000Y-64000000D01*
X84400000Y-63875000D01*
X84400000Y-62600000D01*
X83675000Y-62600000D01*
X83550000Y-62725000D01*
X83547581Y-63500000D01*
X83100000Y-63500000D01*
X83100000Y-61500000D01*
X83547581Y-61500000D01*
X83550000Y-62275000D01*
X83675000Y-62400000D01*
X84400000Y-62400000D01*
X84400000Y-61125000D01*
X84275000Y-61000000D01*
X84050000Y-60997581D01*
X83951983Y-61007235D01*
X83857733Y-61035825D01*
X83770871Y-61082254D01*
X83694736Y-61144736D01*
X83632254Y-61220871D01*
X83585825Y-61307733D01*
X83557235Y-61401983D01*
X83547581Y-61500000D01*
X83100000Y-61500000D01*
X83100000Y-57221317D01*
X83169121Y-57214509D01*
X83305784Y-57173053D01*
X83431733Y-57105731D01*
X83542128Y-57015132D01*
X83564828Y-56987472D01*
X84969043Y-55583257D01*
X85045001Y-55659215D01*
G36*
X71900000Y-84375000D02*
G01*
X60625000Y-84375000D01*
X60625000Y-81140729D01*
X60681576Y-81246575D01*
X60731681Y-81307628D01*
X60781548Y-81368391D01*
X60812067Y-81393437D01*
X62422097Y-83003468D01*
X62422097Y-83237500D01*
X62438245Y-83401454D01*
X62486069Y-83559108D01*
X62563730Y-83704403D01*
X62668245Y-83831755D01*
X62795597Y-83936270D01*
X62940892Y-84013931D01*
X63098546Y-84061755D01*
X63262500Y-84077903D01*
X63737500Y-84077903D01*
X63901454Y-84061755D01*
X64059108Y-84013931D01*
X64204403Y-83936270D01*
X64331755Y-83831755D01*
X64398850Y-83750000D01*
X64601150Y-83750000D01*
X64668245Y-83831755D01*
X64795597Y-83936270D01*
X64940892Y-84013931D01*
X65098546Y-84061755D01*
X65262500Y-84077903D01*
X65737500Y-84077903D01*
X65901454Y-84061755D01*
X66059108Y-84013931D01*
X66204403Y-83936270D01*
X66331755Y-83831755D01*
X66398850Y-83750000D01*
X66601150Y-83750000D01*
X66668245Y-83831755D01*
X66795597Y-83936270D01*
X66940892Y-84013931D01*
X67098546Y-84061755D01*
X67262500Y-84077903D01*
X67737500Y-84077903D01*
X67901454Y-84061755D01*
X68059108Y-84013931D01*
X68204403Y-83936270D01*
X68331755Y-83831755D01*
X68398850Y-83750000D01*
X68601150Y-83750000D01*
X68668245Y-83831755D01*
X68795597Y-83936270D01*
X68940892Y-84013931D01*
X69098546Y-84061755D01*
X69262500Y-84077903D01*
X69737500Y-84077903D01*
X69901454Y-84061755D01*
X70059108Y-84013931D01*
X70204403Y-83936270D01*
X70331755Y-83831755D01*
X70436270Y-83704403D01*
X70513931Y-83559108D01*
X70561755Y-83401454D01*
X70577903Y-83237500D01*
X70577903Y-82662500D01*
X70561755Y-82498546D01*
X70513931Y-82340892D01*
X70436270Y-82195597D01*
X70337299Y-82075000D01*
X70436270Y-81954403D01*
X70513931Y-81809108D01*
X70561755Y-81651454D01*
X70577903Y-81487500D01*
X70577903Y-80912500D01*
X70561755Y-80748546D01*
X70513931Y-80590892D01*
X70436270Y-80445597D01*
X70331755Y-80318245D01*
X70225000Y-80230634D01*
X70225000Y-78947166D01*
X70409250Y-78929019D01*
X70682576Y-78846106D01*
X70934474Y-78711464D01*
X71155265Y-78530265D01*
X71336464Y-78309474D01*
X71471106Y-78057576D01*
X71554019Y-77784250D01*
X71582015Y-77500000D01*
X71554019Y-77215750D01*
X71471106Y-76942424D01*
X71336464Y-76690526D01*
X71155265Y-76469735D01*
X70934474Y-76288536D01*
X70862378Y-76250000D01*
X70934474Y-76211464D01*
X71155265Y-76030265D01*
X71336464Y-75809474D01*
X71471106Y-75557576D01*
X71554019Y-75284250D01*
X71582015Y-75000000D01*
X71554019Y-74715750D01*
X71471106Y-74442424D01*
X71336464Y-74190526D01*
X71155265Y-73969735D01*
X70934474Y-73788536D01*
X70862378Y-73750000D01*
X70934474Y-73711464D01*
X71155265Y-73530265D01*
X71336464Y-73309474D01*
X71391113Y-73207232D01*
X71503788Y-73173053D01*
X71629737Y-73105731D01*
X71740132Y-73015132D01*
X71762832Y-72987472D01*
X71900000Y-72850304D01*
X71900000Y-84375000D01*
G37*
X71900000Y-84375000D02*
X60625000Y-84375000D01*
X60625000Y-81140729D01*
X60681576Y-81246575D01*
X60731681Y-81307628D01*
X60781548Y-81368391D01*
X60812067Y-81393437D01*
X62422097Y-83003468D01*
X62422097Y-83237500D01*
X62438245Y-83401454D01*
X62486069Y-83559108D01*
X62563730Y-83704403D01*
X62668245Y-83831755D01*
X62795597Y-83936270D01*
X62940892Y-84013931D01*
X63098546Y-84061755D01*
X63262500Y-84077903D01*
X63737500Y-84077903D01*
X63901454Y-84061755D01*
X64059108Y-84013931D01*
X64204403Y-83936270D01*
X64331755Y-83831755D01*
X64398850Y-83750000D01*
X64601150Y-83750000D01*
X64668245Y-83831755D01*
X64795597Y-83936270D01*
X64940892Y-84013931D01*
X65098546Y-84061755D01*
X65262500Y-84077903D01*
X65737500Y-84077903D01*
X65901454Y-84061755D01*
X66059108Y-84013931D01*
X66204403Y-83936270D01*
X66331755Y-83831755D01*
X66398850Y-83750000D01*
X66601150Y-83750000D01*
X66668245Y-83831755D01*
X66795597Y-83936270D01*
X66940892Y-84013931D01*
X67098546Y-84061755D01*
X67262500Y-84077903D01*
X67737500Y-84077903D01*
X67901454Y-84061755D01*
X68059108Y-84013931D01*
X68204403Y-83936270D01*
X68331755Y-83831755D01*
X68398850Y-83750000D01*
X68601150Y-83750000D01*
X68668245Y-83831755D01*
X68795597Y-83936270D01*
X68940892Y-84013931D01*
X69098546Y-84061755D01*
X69262500Y-84077903D01*
X69737500Y-84077903D01*
X69901454Y-84061755D01*
X70059108Y-84013931D01*
X70204403Y-83936270D01*
X70331755Y-83831755D01*
X70436270Y-83704403D01*
X70513931Y-83559108D01*
X70561755Y-83401454D01*
X70577903Y-83237500D01*
X70577903Y-82662500D01*
X70561755Y-82498546D01*
X70513931Y-82340892D01*
X70436270Y-82195597D01*
X70337299Y-82075000D01*
X70436270Y-81954403D01*
X70513931Y-81809108D01*
X70561755Y-81651454D01*
X70577903Y-81487500D01*
X70577903Y-80912500D01*
X70561755Y-80748546D01*
X70513931Y-80590892D01*
X70436270Y-80445597D01*
X70331755Y-80318245D01*
X70225000Y-80230634D01*
X70225000Y-78947166D01*
X70409250Y-78929019D01*
X70682576Y-78846106D01*
X70934474Y-78711464D01*
X71155265Y-78530265D01*
X71336464Y-78309474D01*
X71471106Y-78057576D01*
X71554019Y-77784250D01*
X71582015Y-77500000D01*
X71554019Y-77215750D01*
X71471106Y-76942424D01*
X71336464Y-76690526D01*
X71155265Y-76469735D01*
X70934474Y-76288536D01*
X70862378Y-76250000D01*
X70934474Y-76211464D01*
X71155265Y-76030265D01*
X71336464Y-75809474D01*
X71471106Y-75557576D01*
X71554019Y-75284250D01*
X71582015Y-75000000D01*
X71554019Y-74715750D01*
X71471106Y-74442424D01*
X71336464Y-74190526D01*
X71155265Y-73969735D01*
X70934474Y-73788536D01*
X70862378Y-73750000D01*
X70934474Y-73711464D01*
X71155265Y-73530265D01*
X71336464Y-73309474D01*
X71391113Y-73207232D01*
X71503788Y-73173053D01*
X71629737Y-73105731D01*
X71740132Y-73015132D01*
X71762832Y-72987472D01*
X71900000Y-72850304D01*
X71900000Y-84375000D01*
G36*
X107100001Y-67578859D02*
G01*
X107100001Y-71320191D01*
X106998491Y-71300000D01*
X106801509Y-71300000D01*
X106608311Y-71338429D01*
X106426322Y-71413811D01*
X106262537Y-71523249D01*
X106123249Y-71662537D01*
X106013811Y-71826322D01*
X105938429Y-72008311D01*
X105900000Y-72201509D01*
X105900000Y-72398491D01*
X105938429Y-72591689D01*
X106013811Y-72773678D01*
X106025001Y-72790425D01*
X106025001Y-73155633D01*
X105918245Y-73243245D01*
X105813730Y-73370597D01*
X105736069Y-73515892D01*
X105688245Y-73673546D01*
X105672097Y-73837500D01*
X105672097Y-74412500D01*
X105688245Y-74576454D01*
X105736069Y-74734108D01*
X105813730Y-74879403D01*
X105912701Y-75000000D01*
X105813730Y-75120597D01*
X105736069Y-75265892D01*
X105688245Y-75423546D01*
X105672097Y-75587500D01*
X105672097Y-76162500D01*
X105688245Y-76326454D01*
X105736069Y-76484108D01*
X105813730Y-76629403D01*
X105918245Y-76756755D01*
X106025000Y-76844367D01*
X106025001Y-77699694D01*
X101349696Y-82375000D01*
X99427063Y-82375000D01*
X99461571Y-82291689D01*
X99500000Y-82098491D01*
X99500000Y-81901509D01*
X99461571Y-81708311D01*
X99386189Y-81526322D01*
X99276751Y-81362537D01*
X99195000Y-81280786D01*
X99195000Y-81093546D01*
X99290000Y-81102903D01*
X100190000Y-81102903D01*
X100307621Y-81091318D01*
X100375000Y-81070879D01*
X100442379Y-81091318D01*
X100560000Y-81102903D01*
X101460000Y-81102903D01*
X101577621Y-81091318D01*
X101690721Y-81057010D01*
X101794955Y-81001296D01*
X101886317Y-80926317D01*
X101961296Y-80834955D01*
X102017010Y-80730721D01*
X102051318Y-80617621D01*
X102062903Y-80500000D01*
X102062903Y-78500000D01*
X102051318Y-78382379D01*
X102017010Y-78269279D01*
X101961296Y-78165045D01*
X101886317Y-78073683D01*
X101794955Y-77998704D01*
X101690721Y-77942990D01*
X101577621Y-77908682D01*
X101460000Y-77897097D01*
X100560000Y-77897097D01*
X100442379Y-77908682D01*
X100375000Y-77929121D01*
X100307621Y-77908682D01*
X100190000Y-77897097D01*
X99581760Y-77897097D01*
X100355558Y-77123300D01*
X100392765Y-77092765D01*
X100509892Y-76950045D01*
X100507581Y-77165000D01*
X100517235Y-77263017D01*
X100545825Y-77357267D01*
X100592254Y-77444129D01*
X100654736Y-77520264D01*
X100730871Y-77582746D01*
X100817733Y-77629175D01*
X100911983Y-77657765D01*
X101010000Y-77667419D01*
X101785000Y-77665000D01*
X101910000Y-77540000D01*
X101910000Y-76815000D01*
X102110000Y-76815000D01*
X102110000Y-77540000D01*
X102235000Y-77665000D01*
X103010000Y-77667419D01*
X103108017Y-77657765D01*
X103202267Y-77629175D01*
X103289129Y-77582746D01*
X103365264Y-77520264D01*
X103427746Y-77444129D01*
X103474175Y-77357267D01*
X103502765Y-77263017D01*
X103512419Y-77165000D01*
X103510000Y-76940000D01*
X103385000Y-76815000D01*
X102110000Y-76815000D01*
X101910000Y-76815000D01*
X101890000Y-76815000D01*
X101890000Y-76615000D01*
X101910000Y-76615000D01*
X101910000Y-76595000D01*
X102110000Y-76595000D01*
X102110000Y-76615000D01*
X103385000Y-76615000D01*
X103510000Y-76490000D01*
X103512419Y-76265000D01*
X103509217Y-76232488D01*
X103511296Y-76229955D01*
X103567010Y-76125721D01*
X103601318Y-76012621D01*
X103612903Y-75895000D01*
X103612903Y-74995000D01*
X103601318Y-74877379D01*
X103580879Y-74810000D01*
X103601318Y-74742621D01*
X103612903Y-74625000D01*
X103612903Y-73725000D01*
X103601318Y-73607379D01*
X103580879Y-73540000D01*
X103601318Y-73472621D01*
X103612903Y-73355000D01*
X103612903Y-72455000D01*
X103601318Y-72337379D01*
X103580879Y-72270000D01*
X103601318Y-72202621D01*
X103612903Y-72085000D01*
X103612903Y-71185000D01*
X103601318Y-71067379D01*
X103580879Y-71000000D01*
X103601318Y-70932621D01*
X103612903Y-70815000D01*
X103612903Y-69915000D01*
X103601318Y-69797379D01*
X103580879Y-69730000D01*
X103601318Y-69662621D01*
X103612903Y-69545000D01*
X103612903Y-68645000D01*
X103601318Y-68527379D01*
X103580879Y-68460000D01*
X103601318Y-68392621D01*
X103612903Y-68275000D01*
X103612903Y-67375000D01*
X103601318Y-67257379D01*
X103580879Y-67190000D01*
X103601318Y-67122621D01*
X103612903Y-67005000D01*
X103612903Y-66105000D01*
X103601318Y-65987379D01*
X103580879Y-65920000D01*
X103601318Y-65852621D01*
X103612903Y-65735000D01*
X103612903Y-65175000D01*
X104696143Y-65175000D01*
X107100001Y-67578859D01*
G37*
X107100001Y-67578859D02*
X107100001Y-71320191D01*
X106998491Y-71300000D01*
X106801509Y-71300000D01*
X106608311Y-71338429D01*
X106426322Y-71413811D01*
X106262537Y-71523249D01*
X106123249Y-71662537D01*
X106013811Y-71826322D01*
X105938429Y-72008311D01*
X105900000Y-72201509D01*
X105900000Y-72398491D01*
X105938429Y-72591689D01*
X106013811Y-72773678D01*
X106025001Y-72790425D01*
X106025001Y-73155633D01*
X105918245Y-73243245D01*
X105813730Y-73370597D01*
X105736069Y-73515892D01*
X105688245Y-73673546D01*
X105672097Y-73837500D01*
X105672097Y-74412500D01*
X105688245Y-74576454D01*
X105736069Y-74734108D01*
X105813730Y-74879403D01*
X105912701Y-75000000D01*
X105813730Y-75120597D01*
X105736069Y-75265892D01*
X105688245Y-75423546D01*
X105672097Y-75587500D01*
X105672097Y-76162500D01*
X105688245Y-76326454D01*
X105736069Y-76484108D01*
X105813730Y-76629403D01*
X105918245Y-76756755D01*
X106025000Y-76844367D01*
X106025001Y-77699694D01*
X101349696Y-82375000D01*
X99427063Y-82375000D01*
X99461571Y-82291689D01*
X99500000Y-82098491D01*
X99500000Y-81901509D01*
X99461571Y-81708311D01*
X99386189Y-81526322D01*
X99276751Y-81362537D01*
X99195000Y-81280786D01*
X99195000Y-81093546D01*
X99290000Y-81102903D01*
X100190000Y-81102903D01*
X100307621Y-81091318D01*
X100375000Y-81070879D01*
X100442379Y-81091318D01*
X100560000Y-81102903D01*
X101460000Y-81102903D01*
X101577621Y-81091318D01*
X101690721Y-81057010D01*
X101794955Y-81001296D01*
X101886317Y-80926317D01*
X101961296Y-80834955D01*
X102017010Y-80730721D01*
X102051318Y-80617621D01*
X102062903Y-80500000D01*
X102062903Y-78500000D01*
X102051318Y-78382379D01*
X102017010Y-78269279D01*
X101961296Y-78165045D01*
X101886317Y-78073683D01*
X101794955Y-77998704D01*
X101690721Y-77942990D01*
X101577621Y-77908682D01*
X101460000Y-77897097D01*
X100560000Y-77897097D01*
X100442379Y-77908682D01*
X100375000Y-77929121D01*
X100307621Y-77908682D01*
X100190000Y-77897097D01*
X99581760Y-77897097D01*
X100355558Y-77123300D01*
X100392765Y-77092765D01*
X100509892Y-76950045D01*
X100507581Y-77165000D01*
X100517235Y-77263017D01*
X100545825Y-77357267D01*
X100592254Y-77444129D01*
X100654736Y-77520264D01*
X100730871Y-77582746D01*
X100817733Y-77629175D01*
X100911983Y-77657765D01*
X101010000Y-77667419D01*
X101785000Y-77665000D01*
X101910000Y-77540000D01*
X101910000Y-76815000D01*
X102110000Y-76815000D01*
X102110000Y-77540000D01*
X102235000Y-77665000D01*
X103010000Y-77667419D01*
X103108017Y-77657765D01*
X103202267Y-77629175D01*
X103289129Y-77582746D01*
X103365264Y-77520264D01*
X103427746Y-77444129D01*
X103474175Y-77357267D01*
X103502765Y-77263017D01*
X103512419Y-77165000D01*
X103510000Y-76940000D01*
X103385000Y-76815000D01*
X102110000Y-76815000D01*
X101910000Y-76815000D01*
X101890000Y-76815000D01*
X101890000Y-76615000D01*
X101910000Y-76615000D01*
X101910000Y-76595000D01*
X102110000Y-76595000D01*
X102110000Y-76615000D01*
X103385000Y-76615000D01*
X103510000Y-76490000D01*
X103512419Y-76265000D01*
X103509217Y-76232488D01*
X103511296Y-76229955D01*
X103567010Y-76125721D01*
X103601318Y-76012621D01*
X103612903Y-75895000D01*
X103612903Y-74995000D01*
X103601318Y-74877379D01*
X103580879Y-74810000D01*
X103601318Y-74742621D01*
X103612903Y-74625000D01*
X103612903Y-73725000D01*
X103601318Y-73607379D01*
X103580879Y-73540000D01*
X103601318Y-73472621D01*
X103612903Y-73355000D01*
X103612903Y-72455000D01*
X103601318Y-72337379D01*
X103580879Y-72270000D01*
X103601318Y-72202621D01*
X103612903Y-72085000D01*
X103612903Y-71185000D01*
X103601318Y-71067379D01*
X103580879Y-71000000D01*
X103601318Y-70932621D01*
X103612903Y-70815000D01*
X103612903Y-69915000D01*
X103601318Y-69797379D01*
X103580879Y-69730000D01*
X103601318Y-69662621D01*
X103612903Y-69545000D01*
X103612903Y-68645000D01*
X103601318Y-68527379D01*
X103580879Y-68460000D01*
X103601318Y-68392621D01*
X103612903Y-68275000D01*
X103612903Y-67375000D01*
X103601318Y-67257379D01*
X103580879Y-67190000D01*
X103601318Y-67122621D01*
X103612903Y-67005000D01*
X103612903Y-66105000D01*
X103601318Y-65987379D01*
X103580879Y-65920000D01*
X103601318Y-65852621D01*
X103612903Y-65735000D01*
X103612903Y-65175000D01*
X104696143Y-65175000D01*
X107100001Y-67578859D01*
G36*
X68422097Y-70422402D02*
G01*
X68422097Y-70552598D01*
X63012523Y-75962173D01*
X62984869Y-75984868D01*
X62962173Y-76012523D01*
X62962170Y-76012526D01*
X62894269Y-76095264D01*
X62826947Y-76221213D01*
X62798067Y-76316420D01*
X62795465Y-76325000D01*
X62785492Y-76357876D01*
X62771494Y-76500000D01*
X62775001Y-76535607D01*
X62775000Y-80230633D01*
X62668245Y-80318245D01*
X62563730Y-80445597D01*
X62486069Y-80590892D01*
X62438245Y-80748546D01*
X62437498Y-80756128D01*
X62149969Y-80468599D01*
X62149969Y-64150273D01*
X68422097Y-70422402D01*
G37*
X68422097Y-70422402D02*
X68422097Y-70552598D01*
X63012523Y-75962173D01*
X62984869Y-75984868D01*
X62962173Y-76012523D01*
X62962170Y-76012526D01*
X62894269Y-76095264D01*
X62826947Y-76221213D01*
X62798067Y-76316420D01*
X62795465Y-76325000D01*
X62785492Y-76357876D01*
X62771494Y-76500000D01*
X62775001Y-76535607D01*
X62775000Y-80230633D01*
X62668245Y-80318245D01*
X62563730Y-80445597D01*
X62486069Y-80590892D01*
X62438245Y-80748546D01*
X62437498Y-80756128D01*
X62149969Y-80468599D01*
X62149969Y-64150273D01*
X68422097Y-70422402D01*
G36*
X68445981Y-77784250D02*
G01*
X68528894Y-78057576D01*
X68663536Y-78309474D01*
X68775001Y-78445294D01*
X68775000Y-80230633D01*
X68668245Y-80318245D01*
X68563730Y-80445597D01*
X68500000Y-80564829D01*
X68436270Y-80445597D01*
X68331755Y-80318245D01*
X68225000Y-80230634D01*
X68225000Y-77800304D01*
X68427607Y-77597697D01*
X68445981Y-77784250D01*
G37*
X68445981Y-77784250D02*
X68528894Y-78057576D01*
X68663536Y-78309474D01*
X68775001Y-78445294D01*
X68775000Y-80230633D01*
X68668245Y-80318245D01*
X68563730Y-80445597D01*
X68500000Y-80564829D01*
X68436270Y-80445597D01*
X68331755Y-80318245D01*
X68225000Y-80230634D01*
X68225000Y-77800304D01*
X68427607Y-77597697D01*
X68445981Y-77784250D01*
G36*
X68445981Y-75284250D02*
G01*
X68502879Y-75471816D01*
X67012523Y-76962173D01*
X66984869Y-76984868D01*
X66962173Y-77012523D01*
X66962170Y-77012526D01*
X66894269Y-77095264D01*
X66826947Y-77221213D01*
X66805362Y-77292373D01*
X66785492Y-77357875D01*
X66781908Y-77394269D01*
X66771494Y-77500000D01*
X66775001Y-77535607D01*
X66775000Y-80230633D01*
X66668245Y-80318245D01*
X66563730Y-80445597D01*
X66500000Y-80564829D01*
X66436270Y-80445597D01*
X66331755Y-80318245D01*
X66225000Y-80230634D01*
X66225000Y-77300304D01*
X68427607Y-75097697D01*
X68445981Y-75284250D01*
G37*
X68445981Y-75284250D02*
X68502879Y-75471816D01*
X67012523Y-76962173D01*
X66984869Y-76984868D01*
X66962173Y-77012523D01*
X66962170Y-77012526D01*
X66894269Y-77095264D01*
X66826947Y-77221213D01*
X66805362Y-77292373D01*
X66785492Y-77357875D01*
X66781908Y-77394269D01*
X66771494Y-77500000D01*
X66775001Y-77535607D01*
X66775000Y-80230633D01*
X66668245Y-80318245D01*
X66563730Y-80445597D01*
X66500000Y-80564829D01*
X66436270Y-80445597D01*
X66331755Y-80318245D01*
X66225000Y-80230634D01*
X66225000Y-77300304D01*
X68427607Y-75097697D01*
X68445981Y-75284250D01*
G36*
X68445981Y-72784250D02*
G01*
X68502879Y-72971816D01*
X65012523Y-76462173D01*
X64984869Y-76484868D01*
X64962173Y-76512523D01*
X64962170Y-76512526D01*
X64894269Y-76595264D01*
X64826947Y-76721213D01*
X64785492Y-76857876D01*
X64771494Y-77000000D01*
X64775001Y-77035607D01*
X64775000Y-80230633D01*
X64668245Y-80318245D01*
X64563730Y-80445597D01*
X64500000Y-80564829D01*
X64436270Y-80445597D01*
X64331755Y-80318245D01*
X64225000Y-80230634D01*
X64225000Y-76800304D01*
X68427607Y-72597697D01*
X68445981Y-72784250D01*
G37*
X68445981Y-72784250D02*
X68502879Y-72971816D01*
X65012523Y-76462173D01*
X64984869Y-76484868D01*
X64962173Y-76512523D01*
X64962170Y-76512526D01*
X64894269Y-76595264D01*
X64826947Y-76721213D01*
X64785492Y-76857876D01*
X64771494Y-77000000D01*
X64775001Y-77035607D01*
X64775000Y-80230633D01*
X64668245Y-80318245D01*
X64563730Y-80445597D01*
X64500000Y-80564829D01*
X64436270Y-80445597D01*
X64331755Y-80318245D01*
X64225000Y-80230634D01*
X64225000Y-76800304D01*
X68427607Y-72597697D01*
X68445981Y-72784250D01*
G36*
X122275001Y-52200000D02*
G01*
X116657816Y-52200000D01*
X116631755Y-52168245D01*
X116504403Y-52063730D01*
X116359108Y-51986069D01*
X116201454Y-51938245D01*
X116037500Y-51922097D01*
X115462500Y-51922097D01*
X115298546Y-51938245D01*
X115140892Y-51986069D01*
X114995597Y-52063730D01*
X114875000Y-52162701D01*
X114754403Y-52063730D01*
X114609108Y-51986069D01*
X114451454Y-51938245D01*
X114287500Y-51922097D01*
X113712500Y-51922097D01*
X113548546Y-51938245D01*
X113390892Y-51986069D01*
X113245597Y-52063730D01*
X113118245Y-52168245D01*
X113092184Y-52200000D01*
X112897915Y-52200000D01*
X112876317Y-52173683D01*
X112784955Y-52098704D01*
X112680721Y-52042990D01*
X112567621Y-52008682D01*
X112450000Y-51997097D01*
X111550000Y-51997097D01*
X111432379Y-52008682D01*
X111319279Y-52042990D01*
X111215045Y-52098704D01*
X111123683Y-52173683D01*
X111048704Y-52265045D01*
X110992990Y-52369279D01*
X110958682Y-52482379D01*
X110947097Y-52600000D01*
X110947097Y-53400000D01*
X110958682Y-53517621D01*
X110992990Y-53630721D01*
X111048704Y-53734955D01*
X111123683Y-53826317D01*
X111215045Y-53901296D01*
X111319279Y-53957010D01*
X111432379Y-53991318D01*
X111550000Y-54002903D01*
X112450000Y-54002903D01*
X112567621Y-53991318D01*
X112680721Y-53957010D01*
X112784955Y-53901296D01*
X112876317Y-53826317D01*
X112897915Y-53800000D01*
X113092184Y-53800000D01*
X113118245Y-53831755D01*
X113245597Y-53936270D01*
X113390892Y-54013931D01*
X113548546Y-54061755D01*
X113712500Y-54077903D01*
X114287500Y-54077903D01*
X114451454Y-54061755D01*
X114609108Y-54013931D01*
X114754403Y-53936270D01*
X114875000Y-53837299D01*
X114995597Y-53936270D01*
X115140892Y-54013931D01*
X115298546Y-54061755D01*
X115462500Y-54077903D01*
X116037500Y-54077903D01*
X116201454Y-54061755D01*
X116359108Y-54013931D01*
X116504403Y-53936270D01*
X116631755Y-53831755D01*
X116657816Y-53800000D01*
X122918630Y-53800000D01*
X125700000Y-56581371D01*
X125700001Y-58658472D01*
X125690527Y-58663536D01*
X125469736Y-58844735D01*
X125288536Y-59065526D01*
X125250000Y-59137622D01*
X125211464Y-59065526D01*
X125030265Y-58844735D01*
X124809474Y-58663536D01*
X124800000Y-58658472D01*
X124800000Y-58039291D01*
X124803870Y-58000000D01*
X124797593Y-57936270D01*
X124788424Y-57843173D01*
X124742679Y-57692372D01*
X124729862Y-57668393D01*
X124668393Y-57553393D01*
X124593470Y-57462099D01*
X124593469Y-57462098D01*
X124568422Y-57431578D01*
X124537902Y-57406531D01*
X123593473Y-56462103D01*
X123568422Y-56431578D01*
X123446606Y-56331607D01*
X123307628Y-56257321D01*
X123156827Y-56211576D01*
X123039293Y-56200000D01*
X123039291Y-56200000D01*
X123000000Y-56196130D01*
X122960709Y-56200000D01*
X116657816Y-56200000D01*
X116631755Y-56168245D01*
X116504403Y-56063730D01*
X116359108Y-55986069D01*
X116201454Y-55938245D01*
X116037500Y-55922097D01*
X115462500Y-55922097D01*
X115298546Y-55938245D01*
X115140892Y-55986069D01*
X114995597Y-56063730D01*
X114875000Y-56162701D01*
X114754403Y-56063730D01*
X114609108Y-55986069D01*
X114451454Y-55938245D01*
X114287500Y-55922097D01*
X113712500Y-55922097D01*
X113548546Y-55938245D01*
X113390892Y-55986069D01*
X113245597Y-56063730D01*
X113118245Y-56168245D01*
X113092184Y-56200000D01*
X112897915Y-56200000D01*
X112876317Y-56173683D01*
X112784955Y-56098704D01*
X112680721Y-56042990D01*
X112567621Y-56008682D01*
X112450000Y-55997097D01*
X111550000Y-55997097D01*
X111432379Y-56008682D01*
X111319279Y-56042990D01*
X111215045Y-56098704D01*
X111123683Y-56173683D01*
X111048704Y-56265045D01*
X110992990Y-56369279D01*
X110958682Y-56482379D01*
X110947097Y-56600000D01*
X110947097Y-57400000D01*
X110958682Y-57517621D01*
X110992990Y-57630721D01*
X111048704Y-57734955D01*
X111123683Y-57826317D01*
X111215045Y-57901296D01*
X111319279Y-57957010D01*
X111432379Y-57991318D01*
X111550000Y-58002903D01*
X112450000Y-58002903D01*
X112567621Y-57991318D01*
X112680721Y-57957010D01*
X112784955Y-57901296D01*
X112876317Y-57826317D01*
X112897915Y-57800000D01*
X113092184Y-57800000D01*
X113118245Y-57831755D01*
X113245597Y-57936270D01*
X113390892Y-58013931D01*
X113548546Y-58061755D01*
X113712500Y-58077903D01*
X114287500Y-58077903D01*
X114451454Y-58061755D01*
X114609108Y-58013931D01*
X114754403Y-57936270D01*
X114875000Y-57837299D01*
X114995597Y-57936270D01*
X115140892Y-58013931D01*
X115298546Y-58061755D01*
X115462500Y-58077903D01*
X116037500Y-58077903D01*
X116201454Y-58061755D01*
X116359108Y-58013931D01*
X116504403Y-57936270D01*
X116631755Y-57831755D01*
X116657816Y-57800000D01*
X122668630Y-57800000D01*
X123200001Y-58331372D01*
X123200001Y-58658472D01*
X123190527Y-58663536D01*
X122969736Y-58844735D01*
X122788536Y-59065526D01*
X122750000Y-59137622D01*
X122711464Y-59065526D01*
X122530265Y-58844735D01*
X122309474Y-58663536D01*
X122057576Y-58528894D01*
X121784250Y-58445981D01*
X121500000Y-58417985D01*
X121215751Y-58445981D01*
X120942425Y-58528894D01*
X120690527Y-58663536D01*
X120469736Y-58844735D01*
X120288536Y-59065526D01*
X120216658Y-59200000D01*
X116789291Y-59200000D01*
X116750000Y-59196130D01*
X116710709Y-59200000D01*
X116710707Y-59200000D01*
X116593173Y-59211576D01*
X116454879Y-59253527D01*
X116442372Y-59257321D01*
X116303393Y-59331607D01*
X116221534Y-59398787D01*
X116181578Y-59431578D01*
X116156531Y-59462098D01*
X115696532Y-59922097D01*
X115462500Y-59922097D01*
X115298546Y-59938245D01*
X115140892Y-59986069D01*
X114995597Y-60063730D01*
X114875000Y-60162701D01*
X114754403Y-60063730D01*
X114609108Y-59986069D01*
X114451454Y-59938245D01*
X114287500Y-59922097D01*
X113712500Y-59922097D01*
X113548546Y-59938245D01*
X113390892Y-59986069D01*
X113245597Y-60063730D01*
X113118245Y-60168245D01*
X113092184Y-60200000D01*
X112897915Y-60200000D01*
X112876317Y-60173683D01*
X112784955Y-60098704D01*
X112680721Y-60042990D01*
X112567621Y-60008682D01*
X112450000Y-59997097D01*
X111550000Y-59997097D01*
X111432379Y-60008682D01*
X111319279Y-60042990D01*
X111215045Y-60098704D01*
X111123683Y-60173683D01*
X111048704Y-60265045D01*
X110992990Y-60369279D01*
X110958682Y-60482379D01*
X110947097Y-60600000D01*
X110947097Y-61400000D01*
X110958682Y-61517621D01*
X110992990Y-61630721D01*
X111048704Y-61734955D01*
X111123683Y-61826317D01*
X111215045Y-61901296D01*
X111319279Y-61957010D01*
X111432379Y-61991318D01*
X111550000Y-62002903D01*
X112450000Y-62002903D01*
X112567621Y-61991318D01*
X112680721Y-61957010D01*
X112784955Y-61901296D01*
X112876317Y-61826317D01*
X112897915Y-61800000D01*
X113092184Y-61800000D01*
X113118245Y-61831755D01*
X113245597Y-61936270D01*
X113390892Y-62013931D01*
X113548546Y-62061755D01*
X113712500Y-62077903D01*
X114287500Y-62077903D01*
X114451454Y-62061755D01*
X114609108Y-62013931D01*
X114754403Y-61936270D01*
X114875000Y-61837299D01*
X114995597Y-61936270D01*
X115140892Y-62013931D01*
X115298546Y-62061755D01*
X115462500Y-62077903D01*
X116037500Y-62077903D01*
X116201454Y-62061755D01*
X116359108Y-62013931D01*
X116504403Y-61936270D01*
X116631755Y-61831755D01*
X116736270Y-61704403D01*
X116813931Y-61559108D01*
X116861755Y-61401454D01*
X116877903Y-61237500D01*
X116877903Y-61003468D01*
X117081371Y-60800000D01*
X120216659Y-60800000D01*
X120288536Y-60934473D01*
X120469735Y-61155264D01*
X120690526Y-61336464D01*
X120942424Y-61471106D01*
X121215750Y-61554019D01*
X121500000Y-61582015D01*
X121784249Y-61554019D01*
X122057575Y-61471106D01*
X122309473Y-61336464D01*
X122530264Y-61155265D01*
X122711464Y-60934474D01*
X122750000Y-60862378D01*
X122788536Y-60934473D01*
X122969735Y-61155264D01*
X123190526Y-61336464D01*
X123442424Y-61471106D01*
X123715750Y-61554019D01*
X124000000Y-61582015D01*
X124284249Y-61554019D01*
X124557575Y-61471106D01*
X124809473Y-61336464D01*
X125030264Y-61155265D01*
X125211464Y-60934474D01*
X125250000Y-60862378D01*
X125288536Y-60934473D01*
X125469735Y-61155264D01*
X125690526Y-61336464D01*
X125942424Y-61471106D01*
X126215750Y-61554019D01*
X126500000Y-61582015D01*
X126784249Y-61554019D01*
X127057575Y-61471106D01*
X127309473Y-61336464D01*
X127530264Y-61155265D01*
X127613397Y-61053968D01*
X127690837Y-61198848D01*
X127796907Y-61328093D01*
X127926152Y-61434163D01*
X128025001Y-61486999D01*
X128025001Y-61621141D01*
X127186545Y-62459597D01*
X126175000Y-62459597D01*
X126008607Y-62475985D01*
X125848608Y-62524520D01*
X125701152Y-62603337D01*
X125571907Y-62709407D01*
X125465837Y-62838652D01*
X125387020Y-62986108D01*
X125338485Y-63146107D01*
X125322097Y-63312500D01*
X125322097Y-64237500D01*
X125338485Y-64403893D01*
X125387020Y-64563892D01*
X125465837Y-64711348D01*
X125571907Y-64840593D01*
X125701152Y-64946663D01*
X125848608Y-65025480D01*
X126008607Y-65074015D01*
X126175000Y-65090403D01*
X128325000Y-65090403D01*
X128491393Y-65074015D01*
X128651392Y-65025480D01*
X128798848Y-64946663D01*
X128928093Y-64840593D01*
X129034163Y-64711348D01*
X129112980Y-64563892D01*
X129161515Y-64403893D01*
X129177903Y-64237500D01*
X129177903Y-63312500D01*
X129170143Y-63233715D01*
X129655564Y-62748295D01*
X129692765Y-62717765D01*
X129814605Y-62569302D01*
X129873604Y-62458921D01*
X129905140Y-62399922D01*
X129960892Y-62216133D01*
X129979717Y-62025000D01*
X129975000Y-61977108D01*
X129975000Y-61486998D01*
X130073848Y-61434163D01*
X130203093Y-61328093D01*
X130309163Y-61198848D01*
X130387980Y-61051392D01*
X130436515Y-60891393D01*
X130452903Y-60725000D01*
X130452903Y-60312091D01*
X133156973Y-60312091D01*
X133214401Y-60570988D01*
X133321234Y-60813707D01*
X133473366Y-61030920D01*
X133664951Y-61214280D01*
X133888627Y-61356740D01*
X134135798Y-61452826D01*
X134190625Y-61464072D01*
X134400000Y-61370912D01*
X134400000Y-60100000D01*
X133273151Y-60100000D01*
X133156973Y-60312091D01*
X130452903Y-60312091D01*
X130452903Y-59687909D01*
X133156973Y-59687909D01*
X133273151Y-59900000D01*
X134400000Y-59900000D01*
X134400000Y-58629088D01*
X134600000Y-58629088D01*
X134600000Y-59900000D01*
X134620000Y-59900000D01*
X134620000Y-60100000D01*
X134600000Y-60100000D01*
X134600000Y-61370912D01*
X134809375Y-61464072D01*
X134864202Y-61452826D01*
X135111373Y-61356740D01*
X135335049Y-61214280D01*
X135526634Y-61030920D01*
X135576590Y-60959594D01*
X135612020Y-61076392D01*
X135650000Y-61147448D01*
X135650001Y-66066321D01*
X135669534Y-66264646D01*
X135746729Y-66519122D01*
X135747097Y-66519810D01*
X135747097Y-67450000D01*
X135763485Y-67616393D01*
X135812020Y-67776392D01*
X135890837Y-67923848D01*
X135996907Y-68053093D01*
X136126152Y-68159163D01*
X136273608Y-68237980D01*
X136433607Y-68286515D01*
X136600000Y-68302903D01*
X137400000Y-68302903D01*
X137566393Y-68286515D01*
X137726392Y-68237980D01*
X137873848Y-68159163D01*
X138003093Y-68053093D01*
X138109163Y-67923848D01*
X138187980Y-67776392D01*
X138236515Y-67616393D01*
X138252903Y-67450000D01*
X138252903Y-66519812D01*
X138253272Y-66519122D01*
X138330467Y-66264646D01*
X138350000Y-66066321D01*
X138350000Y-61147447D01*
X138387980Y-61076392D01*
X138436515Y-60916393D01*
X138452903Y-60750000D01*
X138452903Y-59250000D01*
X138436515Y-59083607D01*
X138387980Y-58923608D01*
X138309163Y-58776152D01*
X138203093Y-58646907D01*
X138073848Y-58540837D01*
X137926392Y-58462020D01*
X137766393Y-58413485D01*
X137600000Y-58397097D01*
X136400000Y-58397097D01*
X136233607Y-58413485D01*
X136073608Y-58462020D01*
X135926152Y-58540837D01*
X135796907Y-58646907D01*
X135690837Y-58776152D01*
X135612020Y-58923608D01*
X135576590Y-59040406D01*
X135526634Y-58969080D01*
X135335049Y-58785720D01*
X135111373Y-58643260D01*
X134864202Y-58547174D01*
X134809375Y-58535928D01*
X134600000Y-58629088D01*
X134400000Y-58629088D01*
X134190625Y-58535928D01*
X134135798Y-58547174D01*
X133888627Y-58643260D01*
X133664951Y-58785720D01*
X133473366Y-58969080D01*
X133321234Y-59186293D01*
X133214401Y-59429012D01*
X133156973Y-59687909D01*
X130452903Y-59687909D01*
X130452903Y-59275000D01*
X130436515Y-59108607D01*
X130387980Y-58948608D01*
X130309163Y-58801152D01*
X130203093Y-58671907D01*
X130073848Y-58565837D01*
X129926392Y-58487020D01*
X129766393Y-58438485D01*
X129600000Y-58422097D01*
X128400000Y-58422097D01*
X128233607Y-58438485D01*
X128073608Y-58487020D01*
X127926152Y-58565837D01*
X127796907Y-58671907D01*
X127690837Y-58801152D01*
X127613397Y-58946032D01*
X127530265Y-58844735D01*
X127309474Y-58663536D01*
X127300000Y-58658472D01*
X127300000Y-56289290D01*
X127303870Y-56249999D01*
X127298170Y-56192125D01*
X127288424Y-56093173D01*
X127242679Y-55942372D01*
X127224240Y-55907875D01*
X127168393Y-55803393D01*
X127093469Y-55712098D01*
X127068422Y-55681578D01*
X127037904Y-55656533D01*
X123843473Y-52462103D01*
X123818422Y-52431578D01*
X123725000Y-52354909D01*
X123725000Y-50100000D01*
X128381825Y-50100000D01*
X128384043Y-50122521D01*
X128419781Y-50240334D01*
X128477817Y-50348911D01*
X128555920Y-50444080D01*
X128651089Y-50522183D01*
X128759666Y-50580219D01*
X128877479Y-50615957D01*
X128969296Y-50625000D01*
X129000000Y-50628024D01*
X129030704Y-50625000D01*
X139375000Y-50625000D01*
X139375001Y-70969286D01*
X139371976Y-71000000D01*
X139384043Y-71122521D01*
X139419781Y-71240334D01*
X139477817Y-71348911D01*
X139555920Y-71444080D01*
X139651089Y-71522183D01*
X139759666Y-71580219D01*
X139877479Y-71615957D01*
X139900000Y-71618175D01*
X139900000Y-71689461D01*
X139891085Y-71694226D01*
X139884048Y-71700001D01*
X139266003Y-71700001D01*
X139314076Y-71559376D01*
X139221295Y-71350000D01*
X138100000Y-71350000D01*
X138100000Y-71370000D01*
X137900000Y-71370000D01*
X137900000Y-71350000D01*
X137880000Y-71350000D01*
X137880000Y-71150000D01*
X137900000Y-71150000D01*
X137900000Y-70029088D01*
X138100000Y-70029088D01*
X138100000Y-71150000D01*
X139221295Y-71150000D01*
X139314076Y-70940624D01*
X139228470Y-70690205D01*
X139095655Y-70461299D01*
X138920734Y-70262702D01*
X138710430Y-70102046D01*
X138472825Y-69985506D01*
X138309375Y-69935928D01*
X138100000Y-70029088D01*
X137900000Y-70029088D01*
X137690625Y-69935928D01*
X137527175Y-69985506D01*
X137289570Y-70102046D01*
X137079266Y-70262702D01*
X136904345Y-70461299D01*
X136786737Y-70663995D01*
X136744973Y-70563167D01*
X136586289Y-70325679D01*
X136384321Y-70123711D01*
X136146833Y-69965027D01*
X135882949Y-69855723D01*
X135602813Y-69800000D01*
X135317187Y-69800000D01*
X135037051Y-69855723D01*
X134773167Y-69965027D01*
X134535679Y-70123711D01*
X134333711Y-70325679D01*
X134190000Y-70540758D01*
X134046289Y-70325679D01*
X133844321Y-70123711D01*
X133606833Y-69965027D01*
X133342949Y-69855723D01*
X133062813Y-69800000D01*
X132777187Y-69800000D01*
X132497051Y-69855723D01*
X132233167Y-69965027D01*
X131995679Y-70123711D01*
X131793711Y-70325679D01*
X131650000Y-70540758D01*
X131506289Y-70325679D01*
X131304321Y-70123711D01*
X131066833Y-69965027D01*
X130802949Y-69855723D01*
X130522813Y-69800000D01*
X130237187Y-69800000D01*
X129957051Y-69855723D01*
X129693167Y-69965027D01*
X129455679Y-70123711D01*
X129282725Y-70296665D01*
X129281318Y-70282379D01*
X129247010Y-70169279D01*
X129191296Y-70065045D01*
X129116317Y-69973683D01*
X129024955Y-69898704D01*
X128920721Y-69842990D01*
X128807621Y-69808682D01*
X128690000Y-69797097D01*
X126990000Y-69797097D01*
X126872379Y-69808682D01*
X126759279Y-69842990D01*
X126655045Y-69898704D01*
X126563683Y-69973683D01*
X126488704Y-70065045D01*
X126432990Y-70169279D01*
X126398682Y-70282379D01*
X126387097Y-70400000D01*
X126387097Y-72100000D01*
X126398682Y-72217621D01*
X126432990Y-72330721D01*
X126488704Y-72434955D01*
X126563683Y-72526317D01*
X126655045Y-72601296D01*
X126759279Y-72657010D01*
X126872379Y-72691318D01*
X126990000Y-72702903D01*
X128267599Y-72702903D01*
X130052172Y-74487477D01*
X130074868Y-74515132D01*
X130102523Y-74537828D01*
X130102525Y-74537830D01*
X130140120Y-74568683D01*
X130185263Y-74605731D01*
X130311212Y-74673053D01*
X130447875Y-74714509D01*
X130554393Y-74725000D01*
X130554402Y-74725000D01*
X130589999Y-74728506D01*
X130625596Y-74725000D01*
X139900000Y-74725000D01*
X139900000Y-76381825D01*
X139877479Y-76384043D01*
X139759666Y-76419781D01*
X139651089Y-76477817D01*
X139600000Y-76519745D01*
X139600000Y-76500000D01*
X139598079Y-76480491D01*
X139592388Y-76461732D01*
X139583147Y-76444443D01*
X139570711Y-76429289D01*
X139555557Y-76416853D01*
X139538268Y-76407612D01*
X139519509Y-76401921D01*
X139500000Y-76400000D01*
X130281371Y-76400000D01*
X126050000Y-72168630D01*
X126050000Y-68100000D01*
X129933681Y-68100000D01*
X130000000Y-68106532D01*
X130066319Y-68100000D01*
X130066321Y-68100000D01*
X130264646Y-68080467D01*
X130519122Y-68003272D01*
X130753649Y-67877915D01*
X130959213Y-67709213D01*
X131001491Y-67657697D01*
X131297097Y-67362091D01*
X131297097Y-67450000D01*
X131313485Y-67616393D01*
X131362020Y-67776392D01*
X131440837Y-67923848D01*
X131546907Y-68053093D01*
X131676152Y-68159163D01*
X131823608Y-68237980D01*
X131983607Y-68286515D01*
X132150000Y-68302903D01*
X132950000Y-68302903D01*
X133116393Y-68286515D01*
X133276392Y-68237980D01*
X133423848Y-68159163D01*
X133553093Y-68053093D01*
X133659163Y-67923848D01*
X133737980Y-67776392D01*
X133786515Y-67616393D01*
X133802903Y-67450000D01*
X133802903Y-66519812D01*
X133803272Y-66519122D01*
X133880467Y-66264646D01*
X133906532Y-66000000D01*
X133880467Y-65735354D01*
X133803272Y-65480878D01*
X133802903Y-65480188D01*
X133802903Y-64550000D01*
X133786515Y-64383607D01*
X133737980Y-64223608D01*
X133659163Y-64076152D01*
X133553093Y-63946907D01*
X133423848Y-63840837D01*
X133276392Y-63762020D01*
X133116393Y-63713485D01*
X132950000Y-63697097D01*
X132150000Y-63697097D01*
X131983607Y-63713485D01*
X131823608Y-63762020D01*
X131676152Y-63840837D01*
X131546907Y-63946907D01*
X131440837Y-64076152D01*
X131362020Y-64223608D01*
X131313485Y-64383607D01*
X131297097Y-64550000D01*
X131297097Y-64650000D01*
X130816310Y-64650000D01*
X130749999Y-64643469D01*
X130683688Y-64650000D01*
X130683679Y-64650000D01*
X130485354Y-64669533D01*
X130230878Y-64746728D01*
X129996351Y-64872085D01*
X129790787Y-65040787D01*
X129748509Y-65092303D01*
X129440812Y-65400000D01*
X115976411Y-65400000D01*
X115975000Y-65225000D01*
X115850000Y-65100000D01*
X115100000Y-65100000D01*
X115100000Y-65120000D01*
X114900000Y-65120000D01*
X114900000Y-65100000D01*
X114150000Y-65100000D01*
X114025000Y-65225000D01*
X114022581Y-65525000D01*
X114032235Y-65623017D01*
X114060825Y-65717267D01*
X114082030Y-65756939D01*
X114040787Y-65790787D01*
X113872085Y-65996351D01*
X113746728Y-66230878D01*
X113669533Y-66485354D01*
X113643468Y-66750000D01*
X113650001Y-66816331D01*
X113650000Y-68539959D01*
X113642267Y-68535825D01*
X113548017Y-68507235D01*
X113450000Y-68497581D01*
X112925000Y-68500000D01*
X112800000Y-68625000D01*
X112800000Y-69900000D01*
X112820000Y-69900000D01*
X112820000Y-70100000D01*
X112800000Y-70100000D01*
X112800000Y-71375000D01*
X112925000Y-71500000D01*
X113450000Y-71502419D01*
X113548017Y-71492765D01*
X113642267Y-71464175D01*
X113729129Y-71417746D01*
X113781426Y-71374827D01*
X113823683Y-71426317D01*
X113915045Y-71501296D01*
X114019279Y-71557010D01*
X114132379Y-71591318D01*
X114250000Y-71602903D01*
X115750000Y-71602903D01*
X115867621Y-71591318D01*
X115980721Y-71557010D01*
X116084955Y-71501296D01*
X116176317Y-71426317D01*
X116251296Y-71334955D01*
X116307010Y-71230721D01*
X116341318Y-71117621D01*
X116352903Y-71000000D01*
X116352903Y-69000000D01*
X116350000Y-68970526D01*
X116350000Y-68100000D01*
X118672097Y-68100000D01*
X118672097Y-68537500D01*
X118688245Y-68701454D01*
X118736069Y-68859108D01*
X118813730Y-69004403D01*
X118912701Y-69125000D01*
X118813730Y-69245597D01*
X118736069Y-69390892D01*
X118688245Y-69548546D01*
X118672097Y-69712500D01*
X118672097Y-70287500D01*
X118688245Y-70451454D01*
X118736069Y-70609108D01*
X118813730Y-70754403D01*
X118918245Y-70881755D01*
X119025000Y-70969367D01*
X119025001Y-71280633D01*
X118918245Y-71368245D01*
X118813730Y-71495597D01*
X118798014Y-71525000D01*
X118739214Y-71525000D01*
X118737463Y-71523249D01*
X118573678Y-71413811D01*
X118391689Y-71338429D01*
X118198491Y-71300000D01*
X118001509Y-71300000D01*
X117808311Y-71338429D01*
X117626322Y-71413811D01*
X117462537Y-71523249D01*
X117323249Y-71662537D01*
X117213811Y-71826322D01*
X117138429Y-72008311D01*
X117100000Y-72201509D01*
X117100000Y-72398491D01*
X117138429Y-72591689D01*
X117213811Y-72773678D01*
X117323249Y-72937463D01*
X117462537Y-73076751D01*
X117626322Y-73186189D01*
X117808311Y-73261571D01*
X118001509Y-73300000D01*
X118198491Y-73300000D01*
X118391689Y-73261571D01*
X118573678Y-73186189D01*
X118737463Y-73076751D01*
X118812365Y-73001849D01*
X118813730Y-73004403D01*
X118914059Y-73126654D01*
X118857254Y-73195871D01*
X118810825Y-73282733D01*
X118782235Y-73376983D01*
X118772581Y-73475000D01*
X118775000Y-73775000D01*
X118900000Y-73900000D01*
X119650000Y-73900000D01*
X119650000Y-73880000D01*
X119850000Y-73880000D01*
X119850000Y-73900000D01*
X120600000Y-73900000D01*
X120725000Y-73775000D01*
X120727419Y-73475000D01*
X120717765Y-73376983D01*
X120689175Y-73282733D01*
X120642746Y-73195871D01*
X120585941Y-73126654D01*
X120686270Y-73004403D01*
X120763931Y-72859108D01*
X120811755Y-72701454D01*
X120827903Y-72537500D01*
X120827903Y-71962500D01*
X120811755Y-71798546D01*
X120763931Y-71640892D01*
X120686270Y-71495597D01*
X120581755Y-71368245D01*
X120475000Y-71280634D01*
X120475000Y-70969366D01*
X120581755Y-70881755D01*
X120686270Y-70754403D01*
X120763931Y-70609108D01*
X120811755Y-70451454D01*
X120827903Y-70287500D01*
X120827903Y-69712500D01*
X120811755Y-69548546D01*
X120763931Y-69390892D01*
X120686270Y-69245597D01*
X120587299Y-69125000D01*
X120686270Y-69004403D01*
X120763931Y-68859108D01*
X120811755Y-68701454D01*
X120827903Y-68537500D01*
X120827903Y-68100000D01*
X124450001Y-68100000D01*
X124450000Y-72210707D01*
X124450000Y-72460709D01*
X124446130Y-72500000D01*
X124450000Y-72539291D01*
X124450000Y-72539292D01*
X124461576Y-72656826D01*
X124498573Y-72778788D01*
X124507321Y-72807627D01*
X124581607Y-72946606D01*
X124615439Y-72987830D01*
X124681578Y-73068422D01*
X124712103Y-73093473D01*
X128018629Y-76400000D01*
X117000000Y-76400000D01*
X116980491Y-76401921D01*
X116961732Y-76407612D01*
X116944443Y-76416853D01*
X116929289Y-76429289D01*
X116916853Y-76444443D01*
X116907612Y-76461732D01*
X116901921Y-76480491D01*
X116900000Y-76500000D01*
X116900000Y-77797097D01*
X116250000Y-77797097D01*
X116132379Y-77808682D01*
X116019279Y-77842990D01*
X115915045Y-77898704D01*
X115823683Y-77973683D01*
X115748704Y-78065045D01*
X115692990Y-78169279D01*
X115683671Y-78200000D01*
X109631371Y-78200000D01*
X108731371Y-77300000D01*
X110297581Y-77300000D01*
X110307235Y-77398017D01*
X110335825Y-77492267D01*
X110382254Y-77579129D01*
X110444736Y-77655264D01*
X110520871Y-77717746D01*
X110607733Y-77764175D01*
X110701983Y-77792765D01*
X110800000Y-77802419D01*
X112475000Y-77800000D01*
X112600000Y-77675000D01*
X112600000Y-76400000D01*
X112800000Y-76400000D01*
X112800000Y-77675000D01*
X112925000Y-77800000D01*
X114600000Y-77802419D01*
X114698017Y-77792765D01*
X114792267Y-77764175D01*
X114879129Y-77717746D01*
X114955264Y-77655264D01*
X115017746Y-77579129D01*
X115064175Y-77492267D01*
X115092765Y-77398017D01*
X115102419Y-77300000D01*
X115100000Y-76525000D01*
X114975000Y-76400000D01*
X112800000Y-76400000D01*
X112600000Y-76400000D01*
X110425000Y-76400000D01*
X110300000Y-76525000D01*
X110297581Y-77300000D01*
X108731371Y-77300000D01*
X108700000Y-77268630D01*
X108700000Y-75300000D01*
X110297581Y-75300000D01*
X110300000Y-76075000D01*
X110425000Y-76200000D01*
X112600000Y-76200000D01*
X112600000Y-74925000D01*
X112800000Y-74925000D01*
X112800000Y-76200000D01*
X114975000Y-76200000D01*
X115100000Y-76075000D01*
X115102419Y-75300000D01*
X115092765Y-75201983D01*
X115064175Y-75107733D01*
X115017746Y-75020871D01*
X114955264Y-74944736D01*
X114879129Y-74882254D01*
X114792267Y-74835825D01*
X114698017Y-74807235D01*
X114600000Y-74797581D01*
X112925000Y-74800000D01*
X112800000Y-74925000D01*
X112600000Y-74925000D01*
X112475000Y-74800000D01*
X110800000Y-74797581D01*
X110701983Y-74807235D01*
X110607733Y-74835825D01*
X110520871Y-74882254D01*
X110444736Y-74944736D01*
X110382254Y-75020871D01*
X110335825Y-75107733D01*
X110307235Y-75201983D01*
X110297581Y-75300000D01*
X108700000Y-75300000D01*
X108700000Y-74525000D01*
X118772581Y-74525000D01*
X118782235Y-74623017D01*
X118810825Y-74717267D01*
X118857254Y-74804129D01*
X118919736Y-74880264D01*
X118995871Y-74942746D01*
X119082733Y-74989175D01*
X119176983Y-75017765D01*
X119275000Y-75027419D01*
X119525000Y-75025000D01*
X119650000Y-74900000D01*
X119650000Y-74100000D01*
X119850000Y-74100000D01*
X119850000Y-74900000D01*
X119975000Y-75025000D01*
X120225000Y-75027419D01*
X120323017Y-75017765D01*
X120417267Y-74989175D01*
X120504129Y-74942746D01*
X120580264Y-74880264D01*
X120642746Y-74804129D01*
X120689175Y-74717267D01*
X120717765Y-74623017D01*
X120727419Y-74525000D01*
X120725000Y-74225000D01*
X120600000Y-74100000D01*
X119850000Y-74100000D01*
X119650000Y-74100000D01*
X118900000Y-74100000D01*
X118775000Y-74225000D01*
X118772581Y-74525000D01*
X108700000Y-74525000D01*
X108700000Y-67975000D01*
X109300001Y-67975000D01*
X109300000Y-68511051D01*
X109223683Y-68573683D01*
X109148704Y-68665045D01*
X109092990Y-68769279D01*
X109058682Y-68882379D01*
X109047097Y-69000000D01*
X109047097Y-71000000D01*
X109058682Y-71117621D01*
X109092990Y-71230721D01*
X109148704Y-71334955D01*
X109223683Y-71426317D01*
X109315045Y-71501296D01*
X109419279Y-71557010D01*
X109532379Y-71591318D01*
X109650000Y-71602903D01*
X111150000Y-71602903D01*
X111267621Y-71591318D01*
X111380721Y-71557010D01*
X111484955Y-71501296D01*
X111576317Y-71426317D01*
X111618574Y-71374827D01*
X111670871Y-71417746D01*
X111757733Y-71464175D01*
X111851983Y-71492765D01*
X111950000Y-71502419D01*
X112475000Y-71500000D01*
X112600000Y-71375000D01*
X112600000Y-70100000D01*
X112580000Y-70100000D01*
X112580000Y-69900000D01*
X112600000Y-69900000D01*
X112600000Y-68625000D01*
X112475000Y-68500000D01*
X111950000Y-68497581D01*
X111851983Y-68507235D01*
X111757733Y-68535825D01*
X111670871Y-68582254D01*
X111618574Y-68625173D01*
X111576317Y-68573683D01*
X111500000Y-68511051D01*
X111500000Y-67870939D01*
X111559163Y-67798848D01*
X111637980Y-67651392D01*
X111686515Y-67491394D01*
X111702903Y-67325001D01*
X111702903Y-66674999D01*
X111686515Y-66508606D01*
X111637980Y-66348608D01*
X111559163Y-66201152D01*
X111453094Y-66071906D01*
X111328613Y-65969748D01*
X111379129Y-65942746D01*
X111455264Y-65880264D01*
X111517746Y-65804129D01*
X111564175Y-65717267D01*
X111592765Y-65623017D01*
X111602419Y-65525000D01*
X111600000Y-65175000D01*
X111475000Y-65050000D01*
X110500000Y-65050000D01*
X110500000Y-65070000D01*
X110300000Y-65070000D01*
X110300000Y-65050000D01*
X109325000Y-65050000D01*
X109200000Y-65175000D01*
X109197581Y-65525000D01*
X109207235Y-65623017D01*
X109235825Y-65717267D01*
X109282254Y-65804129D01*
X109344736Y-65880264D01*
X109420871Y-65942746D01*
X109471387Y-65969748D01*
X109404061Y-66025000D01*
X108303858Y-66025000D01*
X106653858Y-64375000D01*
X109197581Y-64375000D01*
X109200000Y-64725000D01*
X109325000Y-64850000D01*
X110300000Y-64850000D01*
X110300000Y-64000000D01*
X110500000Y-64000000D01*
X110500000Y-64850000D01*
X111475000Y-64850000D01*
X111600000Y-64725000D01*
X111601727Y-64475000D01*
X114022581Y-64475000D01*
X114025000Y-64775000D01*
X114150000Y-64900000D01*
X114900000Y-64900000D01*
X114900000Y-64100000D01*
X115100000Y-64100000D01*
X115100000Y-64900000D01*
X115850000Y-64900000D01*
X115975000Y-64775000D01*
X115977419Y-64475000D01*
X115967765Y-64376983D01*
X115939175Y-64282733D01*
X115892746Y-64195871D01*
X115830264Y-64119736D01*
X115754129Y-64057254D01*
X115667267Y-64010825D01*
X115573017Y-63982235D01*
X115475000Y-63972581D01*
X115225000Y-63975000D01*
X115100000Y-64100000D01*
X114900000Y-64100000D01*
X114775000Y-63975000D01*
X114525000Y-63972581D01*
X114426983Y-63982235D01*
X114332733Y-64010825D01*
X114245871Y-64057254D01*
X114169736Y-64119736D01*
X114107254Y-64195871D01*
X114060825Y-64282733D01*
X114032235Y-64376983D01*
X114022581Y-64475000D01*
X111601727Y-64475000D01*
X111602419Y-64375000D01*
X111592765Y-64276983D01*
X111564175Y-64182733D01*
X111517746Y-64095871D01*
X111455264Y-64019736D01*
X111379129Y-63957254D01*
X111292267Y-63910825D01*
X111198017Y-63882235D01*
X111100000Y-63872581D01*
X110625000Y-63875000D01*
X110500000Y-64000000D01*
X110300000Y-64000000D01*
X110175000Y-63875000D01*
X109700000Y-63872581D01*
X109601983Y-63882235D01*
X109507733Y-63910825D01*
X109420871Y-63957254D01*
X109344736Y-64019736D01*
X109282254Y-64095871D01*
X109235825Y-64182733D01*
X109207235Y-64276983D01*
X109197581Y-64375000D01*
X106653858Y-64375000D01*
X105823304Y-63544447D01*
X105792765Y-63507235D01*
X105644302Y-63385395D01*
X105474921Y-63294860D01*
X105291133Y-63239108D01*
X105147892Y-63225000D01*
X105100000Y-63220283D01*
X105052108Y-63225000D01*
X104075000Y-63225000D01*
X104075000Y-61656352D01*
X104208311Y-61711571D01*
X104401509Y-61750000D01*
X104598491Y-61750000D01*
X104787620Y-61712380D01*
X104750000Y-61901509D01*
X104750000Y-62098491D01*
X104788429Y-62291689D01*
X104863811Y-62473678D01*
X104973249Y-62637463D01*
X105112537Y-62776751D01*
X105276322Y-62886189D01*
X105458311Y-62961571D01*
X105651509Y-63000000D01*
X105848491Y-63000000D01*
X106041689Y-62961571D01*
X106223678Y-62886189D01*
X106387463Y-62776751D01*
X106413383Y-62750831D01*
X106418245Y-62756755D01*
X106545597Y-62861270D01*
X106690892Y-62938931D01*
X106848546Y-62986755D01*
X107012500Y-63002903D01*
X107487500Y-63002903D01*
X107651454Y-62986755D01*
X107809108Y-62938931D01*
X107954403Y-62861270D01*
X108081755Y-62756755D01*
X108186270Y-62629403D01*
X108263931Y-62484108D01*
X108304612Y-62350000D01*
X108647581Y-62350000D01*
X108657235Y-62448017D01*
X108685825Y-62542267D01*
X108732254Y-62629129D01*
X108794736Y-62705264D01*
X108870871Y-62767746D01*
X108957733Y-62814175D01*
X109051983Y-62842765D01*
X109150000Y-62852419D01*
X109375000Y-62850000D01*
X109500000Y-62725000D01*
X109500000Y-62050000D01*
X109700000Y-62050000D01*
X109700000Y-62725000D01*
X109825000Y-62850000D01*
X110050000Y-62852419D01*
X110148017Y-62842765D01*
X110242267Y-62814175D01*
X110329129Y-62767746D01*
X110405264Y-62705264D01*
X110467746Y-62629129D01*
X110514175Y-62542267D01*
X110542765Y-62448017D01*
X110552419Y-62350000D01*
X110550000Y-62175000D01*
X110425000Y-62050000D01*
X109700000Y-62050000D01*
X109500000Y-62050000D01*
X108775000Y-62050000D01*
X108650000Y-62175000D01*
X108647581Y-62350000D01*
X108304612Y-62350000D01*
X108311755Y-62326454D01*
X108327903Y-62162500D01*
X108327903Y-61587500D01*
X108311755Y-61423546D01*
X108263931Y-61265892D01*
X108186270Y-61120597D01*
X108087299Y-61000000D01*
X108186270Y-60879403D01*
X108242074Y-60775000D01*
X108643383Y-60775000D01*
X108648704Y-60784955D01*
X108723683Y-60876317D01*
X108815045Y-60951296D01*
X108919279Y-61007010D01*
X109032379Y-61041318D01*
X109122983Y-61050242D01*
X109051983Y-61057235D01*
X108957733Y-61085825D01*
X108870871Y-61132254D01*
X108794736Y-61194736D01*
X108732254Y-61270871D01*
X108685825Y-61357733D01*
X108657235Y-61451983D01*
X108647581Y-61550000D01*
X108650000Y-61725000D01*
X108775000Y-61850000D01*
X109500000Y-61850000D01*
X109500000Y-61830000D01*
X109700000Y-61830000D01*
X109700000Y-61850000D01*
X110425000Y-61850000D01*
X110550000Y-61725000D01*
X110552419Y-61550000D01*
X110542765Y-61451983D01*
X110514175Y-61357733D01*
X110467746Y-61270871D01*
X110405264Y-61194736D01*
X110329129Y-61132254D01*
X110242267Y-61085825D01*
X110148017Y-61057235D01*
X110077017Y-61050242D01*
X110167621Y-61041318D01*
X110280721Y-61007010D01*
X110384955Y-60951296D01*
X110476317Y-60876317D01*
X110551296Y-60784955D01*
X110607010Y-60680721D01*
X110641318Y-60567621D01*
X110652903Y-60450000D01*
X110652903Y-59650000D01*
X110641318Y-59532379D01*
X110607010Y-59419279D01*
X110551296Y-59315045D01*
X110476317Y-59223683D01*
X110384955Y-59148704D01*
X110280721Y-59092990D01*
X110167621Y-59058682D01*
X110050000Y-59047097D01*
X109150000Y-59047097D01*
X109032379Y-59058682D01*
X108919279Y-59092990D01*
X108815045Y-59148704D01*
X108723683Y-59223683D01*
X108648704Y-59315045D01*
X108643383Y-59325000D01*
X108148850Y-59325000D01*
X108081755Y-59243245D01*
X107954403Y-59138730D01*
X107809108Y-59061069D01*
X107651454Y-59013245D01*
X107516975Y-59000000D01*
X107651454Y-58986755D01*
X107809108Y-58938931D01*
X107954403Y-58861270D01*
X108081755Y-58756755D01*
X108186270Y-58629403D01*
X108263931Y-58484108D01*
X108304612Y-58350000D01*
X108647581Y-58350000D01*
X108657235Y-58448017D01*
X108685825Y-58542267D01*
X108732254Y-58629129D01*
X108794736Y-58705264D01*
X108870871Y-58767746D01*
X108957733Y-58814175D01*
X109051983Y-58842765D01*
X109150000Y-58852419D01*
X109375000Y-58850000D01*
X109500000Y-58725000D01*
X109500000Y-58050000D01*
X109700000Y-58050000D01*
X109700000Y-58725000D01*
X109825000Y-58850000D01*
X110050000Y-58852419D01*
X110148017Y-58842765D01*
X110242267Y-58814175D01*
X110329129Y-58767746D01*
X110405264Y-58705264D01*
X110467746Y-58629129D01*
X110514175Y-58542267D01*
X110542765Y-58448017D01*
X110552419Y-58350000D01*
X110550000Y-58175000D01*
X110425000Y-58050000D01*
X109700000Y-58050000D01*
X109500000Y-58050000D01*
X108775000Y-58050000D01*
X108650000Y-58175000D01*
X108647581Y-58350000D01*
X108304612Y-58350000D01*
X108311755Y-58326454D01*
X108327903Y-58162500D01*
X108327903Y-57587500D01*
X108311755Y-57423546D01*
X108263931Y-57265892D01*
X108186270Y-57120597D01*
X108087299Y-57000000D01*
X108186270Y-56879403D01*
X108242074Y-56775000D01*
X108643383Y-56775000D01*
X108648704Y-56784955D01*
X108723683Y-56876317D01*
X108815045Y-56951296D01*
X108919279Y-57007010D01*
X109032379Y-57041318D01*
X109122983Y-57050242D01*
X109051983Y-57057235D01*
X108957733Y-57085825D01*
X108870871Y-57132254D01*
X108794736Y-57194736D01*
X108732254Y-57270871D01*
X108685825Y-57357733D01*
X108657235Y-57451983D01*
X108647581Y-57550000D01*
X108650000Y-57725000D01*
X108775000Y-57850000D01*
X109500000Y-57850000D01*
X109500000Y-57830000D01*
X109700000Y-57830000D01*
X109700000Y-57850000D01*
X110425000Y-57850000D01*
X110550000Y-57725000D01*
X110552419Y-57550000D01*
X110542765Y-57451983D01*
X110514175Y-57357733D01*
X110467746Y-57270871D01*
X110405264Y-57194736D01*
X110329129Y-57132254D01*
X110242267Y-57085825D01*
X110148017Y-57057235D01*
X110077017Y-57050242D01*
X110167621Y-57041318D01*
X110280721Y-57007010D01*
X110384955Y-56951296D01*
X110476317Y-56876317D01*
X110551296Y-56784955D01*
X110607010Y-56680721D01*
X110641318Y-56567621D01*
X110652903Y-56450000D01*
X110652903Y-55650000D01*
X110641318Y-55532379D01*
X110607010Y-55419279D01*
X110551296Y-55315045D01*
X110476317Y-55223683D01*
X110384955Y-55148704D01*
X110280721Y-55092990D01*
X110167621Y-55058682D01*
X110050000Y-55047097D01*
X109150000Y-55047097D01*
X109032379Y-55058682D01*
X108919279Y-55092990D01*
X108815045Y-55148704D01*
X108723683Y-55223683D01*
X108648704Y-55315045D01*
X108643383Y-55325000D01*
X108148850Y-55325000D01*
X108081755Y-55243245D01*
X107954403Y-55138730D01*
X107809108Y-55061069D01*
X107651454Y-55013245D01*
X107516975Y-55000000D01*
X107651454Y-54986755D01*
X107809108Y-54938931D01*
X107954403Y-54861270D01*
X108081755Y-54756755D01*
X108186270Y-54629403D01*
X108263931Y-54484108D01*
X108304612Y-54350000D01*
X108647581Y-54350000D01*
X108657235Y-54448017D01*
X108685825Y-54542267D01*
X108732254Y-54629129D01*
X108794736Y-54705264D01*
X108870871Y-54767746D01*
X108957733Y-54814175D01*
X109051983Y-54842765D01*
X109150000Y-54852419D01*
X109375000Y-54850000D01*
X109500000Y-54725000D01*
X109500000Y-54050000D01*
X109700000Y-54050000D01*
X109700000Y-54725000D01*
X109825000Y-54850000D01*
X110050000Y-54852419D01*
X110148017Y-54842765D01*
X110242267Y-54814175D01*
X110329129Y-54767746D01*
X110405264Y-54705264D01*
X110467746Y-54629129D01*
X110514175Y-54542267D01*
X110542765Y-54448017D01*
X110552419Y-54350000D01*
X110550000Y-54175000D01*
X110425000Y-54050000D01*
X109700000Y-54050000D01*
X109500000Y-54050000D01*
X108775000Y-54050000D01*
X108650000Y-54175000D01*
X108647581Y-54350000D01*
X108304612Y-54350000D01*
X108311755Y-54326454D01*
X108327903Y-54162500D01*
X108327903Y-53587500D01*
X108311755Y-53423546D01*
X108263931Y-53265892D01*
X108186270Y-53120597D01*
X108087299Y-53000000D01*
X108186270Y-52879403D01*
X108242074Y-52775000D01*
X108643383Y-52775000D01*
X108648704Y-52784955D01*
X108723683Y-52876317D01*
X108815045Y-52951296D01*
X108919279Y-53007010D01*
X109032379Y-53041318D01*
X109122983Y-53050242D01*
X109051983Y-53057235D01*
X108957733Y-53085825D01*
X108870871Y-53132254D01*
X108794736Y-53194736D01*
X108732254Y-53270871D01*
X108685825Y-53357733D01*
X108657235Y-53451983D01*
X108647581Y-53550000D01*
X108650000Y-53725000D01*
X108775000Y-53850000D01*
X109500000Y-53850000D01*
X109500000Y-53830000D01*
X109700000Y-53830000D01*
X109700000Y-53850000D01*
X110425000Y-53850000D01*
X110550000Y-53725000D01*
X110552419Y-53550000D01*
X110542765Y-53451983D01*
X110514175Y-53357733D01*
X110467746Y-53270871D01*
X110405264Y-53194736D01*
X110329129Y-53132254D01*
X110242267Y-53085825D01*
X110148017Y-53057235D01*
X110077017Y-53050242D01*
X110167621Y-53041318D01*
X110280721Y-53007010D01*
X110384955Y-52951296D01*
X110476317Y-52876317D01*
X110551296Y-52784955D01*
X110607010Y-52680721D01*
X110641318Y-52567621D01*
X110652903Y-52450000D01*
X110652903Y-51650000D01*
X110641318Y-51532379D01*
X110607010Y-51419279D01*
X110551296Y-51315045D01*
X110476317Y-51223683D01*
X110384955Y-51148704D01*
X110280721Y-51092990D01*
X110167621Y-51058682D01*
X110050000Y-51047097D01*
X109150000Y-51047097D01*
X109032379Y-51058682D01*
X108919279Y-51092990D01*
X108815045Y-51148704D01*
X108723683Y-51223683D01*
X108648704Y-51315045D01*
X108643383Y-51325000D01*
X108148850Y-51325000D01*
X108081755Y-51243245D01*
X107954403Y-51138730D01*
X107809108Y-51061069D01*
X107651454Y-51013245D01*
X107487500Y-50997097D01*
X107012500Y-50997097D01*
X106848546Y-51013245D01*
X106690892Y-51061069D01*
X106545597Y-51138730D01*
X106418245Y-51243245D01*
X106313730Y-51370597D01*
X106236069Y-51515892D01*
X106188245Y-51673546D01*
X106172097Y-51837500D01*
X106172097Y-52412500D01*
X106188245Y-52576454D01*
X106236069Y-52734108D01*
X106313730Y-52879403D01*
X106412701Y-53000000D01*
X106313730Y-53120597D01*
X106236069Y-53265892D01*
X106188245Y-53423546D01*
X106172097Y-53587500D01*
X106172097Y-53927598D01*
X104075000Y-56024696D01*
X104075000Y-55547892D01*
X104079717Y-55499999D01*
X104060892Y-55308866D01*
X104018279Y-55168393D01*
X104005140Y-55125079D01*
X103914605Y-54955698D01*
X103792765Y-54807235D01*
X103755559Y-54776701D01*
X100573304Y-51594447D01*
X100542765Y-51557235D01*
X100394302Y-51435395D01*
X100224921Y-51344860D01*
X100041133Y-51289108D01*
X99897892Y-51275000D01*
X99850000Y-51270283D01*
X99802108Y-51275000D01*
X82797892Y-51275000D01*
X82750000Y-51270283D01*
X82702108Y-51275000D01*
X82647042Y-51280424D01*
X82562500Y-51272097D01*
X81637500Y-51272097D01*
X81471107Y-51288485D01*
X81311108Y-51337020D01*
X81163652Y-51415837D01*
X81034407Y-51521907D01*
X80928337Y-51651152D01*
X80849520Y-51798608D01*
X80800985Y-51958607D01*
X80784597Y-52125000D01*
X80784597Y-54275000D01*
X80800985Y-54441393D01*
X80818763Y-54500000D01*
X80406237Y-54500000D01*
X80424015Y-54441393D01*
X80440403Y-54275000D01*
X80440403Y-52125000D01*
X80424015Y-51958607D01*
X80375480Y-51798608D01*
X80296663Y-51651152D01*
X80190593Y-51521907D01*
X80061348Y-51415837D01*
X79913892Y-51337020D01*
X79753893Y-51288485D01*
X79587500Y-51272097D01*
X78662500Y-51272097D01*
X78496107Y-51288485D01*
X78336108Y-51337020D01*
X78188652Y-51415837D01*
X78059407Y-51521907D01*
X77953337Y-51651152D01*
X77874520Y-51798608D01*
X77825985Y-51958607D01*
X77809597Y-52125000D01*
X77809597Y-52225000D01*
X77020579Y-52225000D01*
X76820858Y-52142273D01*
X76608341Y-52100000D01*
X76391659Y-52100000D01*
X76179142Y-52142273D01*
X75978955Y-52225193D01*
X75798791Y-52345575D01*
X75645575Y-52498791D01*
X75525193Y-52678955D01*
X75442273Y-52879142D01*
X75400000Y-53091659D01*
X75400000Y-53308341D01*
X75442273Y-53520858D01*
X75525193Y-53721045D01*
X75645575Y-53901209D01*
X75798791Y-54054425D01*
X75978955Y-54174807D01*
X76179142Y-54257727D01*
X76391659Y-54300000D01*
X76608341Y-54300000D01*
X76820858Y-54257727D01*
X77020579Y-54175000D01*
X77809597Y-54175000D01*
X77809597Y-54275000D01*
X77825985Y-54441393D01*
X77843763Y-54500000D01*
X75631370Y-54500000D01*
X72593473Y-51462103D01*
X72568422Y-51431578D01*
X72446606Y-51331607D01*
X72307628Y-51257321D01*
X72156827Y-51211576D01*
X72039293Y-51200000D01*
X72039291Y-51200000D01*
X72000000Y-51196130D01*
X71960709Y-51200000D01*
X67696815Y-51200000D01*
X67657524Y-51196130D01*
X67618233Y-51200000D01*
X67618231Y-51200000D01*
X67500697Y-51211576D01*
X67349896Y-51257321D01*
X67210917Y-51331607D01*
X67163408Y-51370597D01*
X67089102Y-51431578D01*
X67064051Y-51462103D01*
X60812072Y-57714082D01*
X60781547Y-57739133D01*
X60732672Y-57798688D01*
X60681576Y-57860949D01*
X60641316Y-57936270D01*
X60625000Y-57966795D01*
X60625000Y-50625000D01*
X120969296Y-50625000D01*
X121000000Y-50628024D01*
X121122521Y-50615957D01*
X121240334Y-50580219D01*
X121348911Y-50522183D01*
X121444080Y-50444080D01*
X121522183Y-50348911D01*
X121580219Y-50240334D01*
X121615957Y-50122521D01*
X121618175Y-50100000D01*
X122275000Y-50100000D01*
X122275001Y-52200000D01*
G37*
X122275001Y-52200000D02*
X116657816Y-52200000D01*
X116631755Y-52168245D01*
X116504403Y-52063730D01*
X116359108Y-51986069D01*
X116201454Y-51938245D01*
X116037500Y-51922097D01*
X115462500Y-51922097D01*
X115298546Y-51938245D01*
X115140892Y-51986069D01*
X114995597Y-52063730D01*
X114875000Y-52162701D01*
X114754403Y-52063730D01*
X114609108Y-51986069D01*
X114451454Y-51938245D01*
X114287500Y-51922097D01*
X113712500Y-51922097D01*
X113548546Y-51938245D01*
X113390892Y-51986069D01*
X113245597Y-52063730D01*
X113118245Y-52168245D01*
X113092184Y-52200000D01*
X112897915Y-52200000D01*
X112876317Y-52173683D01*
X112784955Y-52098704D01*
X112680721Y-52042990D01*
X112567621Y-52008682D01*
X112450000Y-51997097D01*
X111550000Y-51997097D01*
X111432379Y-52008682D01*
X111319279Y-52042990D01*
X111215045Y-52098704D01*
X111123683Y-52173683D01*
X111048704Y-52265045D01*
X110992990Y-52369279D01*
X110958682Y-52482379D01*
X110947097Y-52600000D01*
X110947097Y-53400000D01*
X110958682Y-53517621D01*
X110992990Y-53630721D01*
X111048704Y-53734955D01*
X111123683Y-53826317D01*
X111215045Y-53901296D01*
X111319279Y-53957010D01*
X111432379Y-53991318D01*
X111550000Y-54002903D01*
X112450000Y-54002903D01*
X112567621Y-53991318D01*
X112680721Y-53957010D01*
X112784955Y-53901296D01*
X112876317Y-53826317D01*
X112897915Y-53800000D01*
X113092184Y-53800000D01*
X113118245Y-53831755D01*
X113245597Y-53936270D01*
X113390892Y-54013931D01*
X113548546Y-54061755D01*
X113712500Y-54077903D01*
X114287500Y-54077903D01*
X114451454Y-54061755D01*
X114609108Y-54013931D01*
X114754403Y-53936270D01*
X114875000Y-53837299D01*
X114995597Y-53936270D01*
X115140892Y-54013931D01*
X115298546Y-54061755D01*
X115462500Y-54077903D01*
X116037500Y-54077903D01*
X116201454Y-54061755D01*
X116359108Y-54013931D01*
X116504403Y-53936270D01*
X116631755Y-53831755D01*
X116657816Y-53800000D01*
X122918630Y-53800000D01*
X125700000Y-56581371D01*
X125700001Y-58658472D01*
X125690527Y-58663536D01*
X125469736Y-58844735D01*
X125288536Y-59065526D01*
X125250000Y-59137622D01*
X125211464Y-59065526D01*
X125030265Y-58844735D01*
X124809474Y-58663536D01*
X124800000Y-58658472D01*
X124800000Y-58039291D01*
X124803870Y-58000000D01*
X124797593Y-57936270D01*
X124788424Y-57843173D01*
X124742679Y-57692372D01*
X124729862Y-57668393D01*
X124668393Y-57553393D01*
X124593470Y-57462099D01*
X124593469Y-57462098D01*
X124568422Y-57431578D01*
X124537902Y-57406531D01*
X123593473Y-56462103D01*
X123568422Y-56431578D01*
X123446606Y-56331607D01*
X123307628Y-56257321D01*
X123156827Y-56211576D01*
X123039293Y-56200000D01*
X123039291Y-56200000D01*
X123000000Y-56196130D01*
X122960709Y-56200000D01*
X116657816Y-56200000D01*
X116631755Y-56168245D01*
X116504403Y-56063730D01*
X116359108Y-55986069D01*
X116201454Y-55938245D01*
X116037500Y-55922097D01*
X115462500Y-55922097D01*
X115298546Y-55938245D01*
X115140892Y-55986069D01*
X114995597Y-56063730D01*
X114875000Y-56162701D01*
X114754403Y-56063730D01*
X114609108Y-55986069D01*
X114451454Y-55938245D01*
X114287500Y-55922097D01*
X113712500Y-55922097D01*
X113548546Y-55938245D01*
X113390892Y-55986069D01*
X113245597Y-56063730D01*
X113118245Y-56168245D01*
X113092184Y-56200000D01*
X112897915Y-56200000D01*
X112876317Y-56173683D01*
X112784955Y-56098704D01*
X112680721Y-56042990D01*
X112567621Y-56008682D01*
X112450000Y-55997097D01*
X111550000Y-55997097D01*
X111432379Y-56008682D01*
X111319279Y-56042990D01*
X111215045Y-56098704D01*
X111123683Y-56173683D01*
X111048704Y-56265045D01*
X110992990Y-56369279D01*
X110958682Y-56482379D01*
X110947097Y-56600000D01*
X110947097Y-57400000D01*
X110958682Y-57517621D01*
X110992990Y-57630721D01*
X111048704Y-57734955D01*
X111123683Y-57826317D01*
X111215045Y-57901296D01*
X111319279Y-57957010D01*
X111432379Y-57991318D01*
X111550000Y-58002903D01*
X112450000Y-58002903D01*
X112567621Y-57991318D01*
X112680721Y-57957010D01*
X112784955Y-57901296D01*
X112876317Y-57826317D01*
X112897915Y-57800000D01*
X113092184Y-57800000D01*
X113118245Y-57831755D01*
X113245597Y-57936270D01*
X113390892Y-58013931D01*
X113548546Y-58061755D01*
X113712500Y-58077903D01*
X114287500Y-58077903D01*
X114451454Y-58061755D01*
X114609108Y-58013931D01*
X114754403Y-57936270D01*
X114875000Y-57837299D01*
X114995597Y-57936270D01*
X115140892Y-58013931D01*
X115298546Y-58061755D01*
X115462500Y-58077903D01*
X116037500Y-58077903D01*
X116201454Y-58061755D01*
X116359108Y-58013931D01*
X116504403Y-57936270D01*
X116631755Y-57831755D01*
X116657816Y-57800000D01*
X122668630Y-57800000D01*
X123200001Y-58331372D01*
X123200001Y-58658472D01*
X123190527Y-58663536D01*
X122969736Y-58844735D01*
X122788536Y-59065526D01*
X122750000Y-59137622D01*
X122711464Y-59065526D01*
X122530265Y-58844735D01*
X122309474Y-58663536D01*
X122057576Y-58528894D01*
X121784250Y-58445981D01*
X121500000Y-58417985D01*
X121215751Y-58445981D01*
X120942425Y-58528894D01*
X120690527Y-58663536D01*
X120469736Y-58844735D01*
X120288536Y-59065526D01*
X120216658Y-59200000D01*
X116789291Y-59200000D01*
X116750000Y-59196130D01*
X116710709Y-59200000D01*
X116710707Y-59200000D01*
X116593173Y-59211576D01*
X116454879Y-59253527D01*
X116442372Y-59257321D01*
X116303393Y-59331607D01*
X116221534Y-59398787D01*
X116181578Y-59431578D01*
X116156531Y-59462098D01*
X115696532Y-59922097D01*
X115462500Y-59922097D01*
X115298546Y-59938245D01*
X115140892Y-59986069D01*
X114995597Y-60063730D01*
X114875000Y-60162701D01*
X114754403Y-60063730D01*
X114609108Y-59986069D01*
X114451454Y-59938245D01*
X114287500Y-59922097D01*
X113712500Y-59922097D01*
X113548546Y-59938245D01*
X113390892Y-59986069D01*
X113245597Y-60063730D01*
X113118245Y-60168245D01*
X113092184Y-60200000D01*
X112897915Y-60200000D01*
X112876317Y-60173683D01*
X112784955Y-60098704D01*
X112680721Y-60042990D01*
X112567621Y-60008682D01*
X112450000Y-59997097D01*
X111550000Y-59997097D01*
X111432379Y-60008682D01*
X111319279Y-60042990D01*
X111215045Y-60098704D01*
X111123683Y-60173683D01*
X111048704Y-60265045D01*
X110992990Y-60369279D01*
X110958682Y-60482379D01*
X110947097Y-60600000D01*
X110947097Y-61400000D01*
X110958682Y-61517621D01*
X110992990Y-61630721D01*
X111048704Y-61734955D01*
X111123683Y-61826317D01*
X111215045Y-61901296D01*
X111319279Y-61957010D01*
X111432379Y-61991318D01*
X111550000Y-62002903D01*
X112450000Y-62002903D01*
X112567621Y-61991318D01*
X112680721Y-61957010D01*
X112784955Y-61901296D01*
X112876317Y-61826317D01*
X112897915Y-61800000D01*
X113092184Y-61800000D01*
X113118245Y-61831755D01*
X113245597Y-61936270D01*
X113390892Y-62013931D01*
X113548546Y-62061755D01*
X113712500Y-62077903D01*
X114287500Y-62077903D01*
X114451454Y-62061755D01*
X114609108Y-62013931D01*
X114754403Y-61936270D01*
X114875000Y-61837299D01*
X114995597Y-61936270D01*
X115140892Y-62013931D01*
X115298546Y-62061755D01*
X115462500Y-62077903D01*
X116037500Y-62077903D01*
X116201454Y-62061755D01*
X116359108Y-62013931D01*
X116504403Y-61936270D01*
X116631755Y-61831755D01*
X116736270Y-61704403D01*
X116813931Y-61559108D01*
X116861755Y-61401454D01*
X116877903Y-61237500D01*
X116877903Y-61003468D01*
X117081371Y-60800000D01*
X120216659Y-60800000D01*
X120288536Y-60934473D01*
X120469735Y-61155264D01*
X120690526Y-61336464D01*
X120942424Y-61471106D01*
X121215750Y-61554019D01*
X121500000Y-61582015D01*
X121784249Y-61554019D01*
X122057575Y-61471106D01*
X122309473Y-61336464D01*
X122530264Y-61155265D01*
X122711464Y-60934474D01*
X122750000Y-60862378D01*
X122788536Y-60934473D01*
X122969735Y-61155264D01*
X123190526Y-61336464D01*
X123442424Y-61471106D01*
X123715750Y-61554019D01*
X124000000Y-61582015D01*
X124284249Y-61554019D01*
X124557575Y-61471106D01*
X124809473Y-61336464D01*
X125030264Y-61155265D01*
X125211464Y-60934474D01*
X125250000Y-60862378D01*
X125288536Y-60934473D01*
X125469735Y-61155264D01*
X125690526Y-61336464D01*
X125942424Y-61471106D01*
X126215750Y-61554019D01*
X126500000Y-61582015D01*
X126784249Y-61554019D01*
X127057575Y-61471106D01*
X127309473Y-61336464D01*
X127530264Y-61155265D01*
X127613397Y-61053968D01*
X127690837Y-61198848D01*
X127796907Y-61328093D01*
X127926152Y-61434163D01*
X128025001Y-61486999D01*
X128025001Y-61621141D01*
X127186545Y-62459597D01*
X126175000Y-62459597D01*
X126008607Y-62475985D01*
X125848608Y-62524520D01*
X125701152Y-62603337D01*
X125571907Y-62709407D01*
X125465837Y-62838652D01*
X125387020Y-62986108D01*
X125338485Y-63146107D01*
X125322097Y-63312500D01*
X125322097Y-64237500D01*
X125338485Y-64403893D01*
X125387020Y-64563892D01*
X125465837Y-64711348D01*
X125571907Y-64840593D01*
X125701152Y-64946663D01*
X125848608Y-65025480D01*
X126008607Y-65074015D01*
X126175000Y-65090403D01*
X128325000Y-65090403D01*
X128491393Y-65074015D01*
X128651392Y-65025480D01*
X128798848Y-64946663D01*
X128928093Y-64840593D01*
X129034163Y-64711348D01*
X129112980Y-64563892D01*
X129161515Y-64403893D01*
X129177903Y-64237500D01*
X129177903Y-63312500D01*
X129170143Y-63233715D01*
X129655564Y-62748295D01*
X129692765Y-62717765D01*
X129814605Y-62569302D01*
X129873604Y-62458921D01*
X129905140Y-62399922D01*
X129960892Y-62216133D01*
X129979717Y-62025000D01*
X129975000Y-61977108D01*
X129975000Y-61486998D01*
X130073848Y-61434163D01*
X130203093Y-61328093D01*
X130309163Y-61198848D01*
X130387980Y-61051392D01*
X130436515Y-60891393D01*
X130452903Y-60725000D01*
X130452903Y-60312091D01*
X133156973Y-60312091D01*
X133214401Y-60570988D01*
X133321234Y-60813707D01*
X133473366Y-61030920D01*
X133664951Y-61214280D01*
X133888627Y-61356740D01*
X134135798Y-61452826D01*
X134190625Y-61464072D01*
X134400000Y-61370912D01*
X134400000Y-60100000D01*
X133273151Y-60100000D01*
X133156973Y-60312091D01*
X130452903Y-60312091D01*
X130452903Y-59687909D01*
X133156973Y-59687909D01*
X133273151Y-59900000D01*
X134400000Y-59900000D01*
X134400000Y-58629088D01*
X134600000Y-58629088D01*
X134600000Y-59900000D01*
X134620000Y-59900000D01*
X134620000Y-60100000D01*
X134600000Y-60100000D01*
X134600000Y-61370912D01*
X134809375Y-61464072D01*
X134864202Y-61452826D01*
X135111373Y-61356740D01*
X135335049Y-61214280D01*
X135526634Y-61030920D01*
X135576590Y-60959594D01*
X135612020Y-61076392D01*
X135650000Y-61147448D01*
X135650001Y-66066321D01*
X135669534Y-66264646D01*
X135746729Y-66519122D01*
X135747097Y-66519810D01*
X135747097Y-67450000D01*
X135763485Y-67616393D01*
X135812020Y-67776392D01*
X135890837Y-67923848D01*
X135996907Y-68053093D01*
X136126152Y-68159163D01*
X136273608Y-68237980D01*
X136433607Y-68286515D01*
X136600000Y-68302903D01*
X137400000Y-68302903D01*
X137566393Y-68286515D01*
X137726392Y-68237980D01*
X137873848Y-68159163D01*
X138003093Y-68053093D01*
X138109163Y-67923848D01*
X138187980Y-67776392D01*
X138236515Y-67616393D01*
X138252903Y-67450000D01*
X138252903Y-66519812D01*
X138253272Y-66519122D01*
X138330467Y-66264646D01*
X138350000Y-66066321D01*
X138350000Y-61147447D01*
X138387980Y-61076392D01*
X138436515Y-60916393D01*
X138452903Y-60750000D01*
X138452903Y-59250000D01*
X138436515Y-59083607D01*
X138387980Y-58923608D01*
X138309163Y-58776152D01*
X138203093Y-58646907D01*
X138073848Y-58540837D01*
X137926392Y-58462020D01*
X137766393Y-58413485D01*
X137600000Y-58397097D01*
X136400000Y-58397097D01*
X136233607Y-58413485D01*
X136073608Y-58462020D01*
X135926152Y-58540837D01*
X135796907Y-58646907D01*
X135690837Y-58776152D01*
X135612020Y-58923608D01*
X135576590Y-59040406D01*
X135526634Y-58969080D01*
X135335049Y-58785720D01*
X135111373Y-58643260D01*
X134864202Y-58547174D01*
X134809375Y-58535928D01*
X134600000Y-58629088D01*
X134400000Y-58629088D01*
X134190625Y-58535928D01*
X134135798Y-58547174D01*
X133888627Y-58643260D01*
X133664951Y-58785720D01*
X133473366Y-58969080D01*
X133321234Y-59186293D01*
X133214401Y-59429012D01*
X133156973Y-59687909D01*
X130452903Y-59687909D01*
X130452903Y-59275000D01*
X130436515Y-59108607D01*
X130387980Y-58948608D01*
X130309163Y-58801152D01*
X130203093Y-58671907D01*
X130073848Y-58565837D01*
X129926392Y-58487020D01*
X129766393Y-58438485D01*
X129600000Y-58422097D01*
X128400000Y-58422097D01*
X128233607Y-58438485D01*
X128073608Y-58487020D01*
X127926152Y-58565837D01*
X127796907Y-58671907D01*
X127690837Y-58801152D01*
X127613397Y-58946032D01*
X127530265Y-58844735D01*
X127309474Y-58663536D01*
X127300000Y-58658472D01*
X127300000Y-56289290D01*
X127303870Y-56249999D01*
X127298170Y-56192125D01*
X127288424Y-56093173D01*
X127242679Y-55942372D01*
X127224240Y-55907875D01*
X127168393Y-55803393D01*
X127093469Y-55712098D01*
X127068422Y-55681578D01*
X127037904Y-55656533D01*
X123843473Y-52462103D01*
X123818422Y-52431578D01*
X123725000Y-52354909D01*
X123725000Y-50100000D01*
X128381825Y-50100000D01*
X128384043Y-50122521D01*
X128419781Y-50240334D01*
X128477817Y-50348911D01*
X128555920Y-50444080D01*
X128651089Y-50522183D01*
X128759666Y-50580219D01*
X128877479Y-50615957D01*
X128969296Y-50625000D01*
X129000000Y-50628024D01*
X129030704Y-50625000D01*
X139375000Y-50625000D01*
X139375001Y-70969286D01*
X139371976Y-71000000D01*
X139384043Y-71122521D01*
X139419781Y-71240334D01*
X139477817Y-71348911D01*
X139555920Y-71444080D01*
X139651089Y-71522183D01*
X139759666Y-71580219D01*
X139877479Y-71615957D01*
X139900000Y-71618175D01*
X139900000Y-71689461D01*
X139891085Y-71694226D01*
X139884048Y-71700001D01*
X139266003Y-71700001D01*
X139314076Y-71559376D01*
X139221295Y-71350000D01*
X138100000Y-71350000D01*
X138100000Y-71370000D01*
X137900000Y-71370000D01*
X137900000Y-71350000D01*
X137880000Y-71350000D01*
X137880000Y-71150000D01*
X137900000Y-71150000D01*
X137900000Y-70029088D01*
X138100000Y-70029088D01*
X138100000Y-71150000D01*
X139221295Y-71150000D01*
X139314076Y-70940624D01*
X139228470Y-70690205D01*
X139095655Y-70461299D01*
X138920734Y-70262702D01*
X138710430Y-70102046D01*
X138472825Y-69985506D01*
X138309375Y-69935928D01*
X138100000Y-70029088D01*
X137900000Y-70029088D01*
X137690625Y-69935928D01*
X137527175Y-69985506D01*
X137289570Y-70102046D01*
X137079266Y-70262702D01*
X136904345Y-70461299D01*
X136786737Y-70663995D01*
X136744973Y-70563167D01*
X136586289Y-70325679D01*
X136384321Y-70123711D01*
X136146833Y-69965027D01*
X135882949Y-69855723D01*
X135602813Y-69800000D01*
X135317187Y-69800000D01*
X135037051Y-69855723D01*
X134773167Y-69965027D01*
X134535679Y-70123711D01*
X134333711Y-70325679D01*
X134190000Y-70540758D01*
X134046289Y-70325679D01*
X133844321Y-70123711D01*
X133606833Y-69965027D01*
X133342949Y-69855723D01*
X133062813Y-69800000D01*
X132777187Y-69800000D01*
X132497051Y-69855723D01*
X132233167Y-69965027D01*
X131995679Y-70123711D01*
X131793711Y-70325679D01*
X131650000Y-70540758D01*
X131506289Y-70325679D01*
X131304321Y-70123711D01*
X131066833Y-69965027D01*
X130802949Y-69855723D01*
X130522813Y-69800000D01*
X130237187Y-69800000D01*
X129957051Y-69855723D01*
X129693167Y-69965027D01*
X129455679Y-70123711D01*
X129282725Y-70296665D01*
X129281318Y-70282379D01*
X129247010Y-70169279D01*
X129191296Y-70065045D01*
X129116317Y-69973683D01*
X129024955Y-69898704D01*
X128920721Y-69842990D01*
X128807621Y-69808682D01*
X128690000Y-69797097D01*
X126990000Y-69797097D01*
X126872379Y-69808682D01*
X126759279Y-69842990D01*
X126655045Y-69898704D01*
X126563683Y-69973683D01*
X126488704Y-70065045D01*
X126432990Y-70169279D01*
X126398682Y-70282379D01*
X126387097Y-70400000D01*
X126387097Y-72100000D01*
X126398682Y-72217621D01*
X126432990Y-72330721D01*
X126488704Y-72434955D01*
X126563683Y-72526317D01*
X126655045Y-72601296D01*
X126759279Y-72657010D01*
X126872379Y-72691318D01*
X126990000Y-72702903D01*
X128267599Y-72702903D01*
X130052172Y-74487477D01*
X130074868Y-74515132D01*
X130102523Y-74537828D01*
X130102525Y-74537830D01*
X130140120Y-74568683D01*
X130185263Y-74605731D01*
X130311212Y-74673053D01*
X130447875Y-74714509D01*
X130554393Y-74725000D01*
X130554402Y-74725000D01*
X130589999Y-74728506D01*
X130625596Y-74725000D01*
X139900000Y-74725000D01*
X139900000Y-76381825D01*
X139877479Y-76384043D01*
X139759666Y-76419781D01*
X139651089Y-76477817D01*
X139600000Y-76519745D01*
X139600000Y-76500000D01*
X139598079Y-76480491D01*
X139592388Y-76461732D01*
X139583147Y-76444443D01*
X139570711Y-76429289D01*
X139555557Y-76416853D01*
X139538268Y-76407612D01*
X139519509Y-76401921D01*
X139500000Y-76400000D01*
X130281371Y-76400000D01*
X126050000Y-72168630D01*
X126050000Y-68100000D01*
X129933681Y-68100000D01*
X130000000Y-68106532D01*
X130066319Y-68100000D01*
X130066321Y-68100000D01*
X130264646Y-68080467D01*
X130519122Y-68003272D01*
X130753649Y-67877915D01*
X130959213Y-67709213D01*
X131001491Y-67657697D01*
X131297097Y-67362091D01*
X131297097Y-67450000D01*
X131313485Y-67616393D01*
X131362020Y-67776392D01*
X131440837Y-67923848D01*
X131546907Y-68053093D01*
X131676152Y-68159163D01*
X131823608Y-68237980D01*
X131983607Y-68286515D01*
X132150000Y-68302903D01*
X132950000Y-68302903D01*
X133116393Y-68286515D01*
X133276392Y-68237980D01*
X133423848Y-68159163D01*
X133553093Y-68053093D01*
X133659163Y-67923848D01*
X133737980Y-67776392D01*
X133786515Y-67616393D01*
X133802903Y-67450000D01*
X133802903Y-66519812D01*
X133803272Y-66519122D01*
X133880467Y-66264646D01*
X133906532Y-66000000D01*
X133880467Y-65735354D01*
X133803272Y-65480878D01*
X133802903Y-65480188D01*
X133802903Y-64550000D01*
X133786515Y-64383607D01*
X133737980Y-64223608D01*
X133659163Y-64076152D01*
X133553093Y-63946907D01*
X133423848Y-63840837D01*
X133276392Y-63762020D01*
X133116393Y-63713485D01*
X132950000Y-63697097D01*
X132150000Y-63697097D01*
X131983607Y-63713485D01*
X131823608Y-63762020D01*
X131676152Y-63840837D01*
X131546907Y-63946907D01*
X131440837Y-64076152D01*
X131362020Y-64223608D01*
X131313485Y-64383607D01*
X131297097Y-64550000D01*
X131297097Y-64650000D01*
X130816310Y-64650000D01*
X130749999Y-64643469D01*
X130683688Y-64650000D01*
X130683679Y-64650000D01*
X130485354Y-64669533D01*
X130230878Y-64746728D01*
X129996351Y-64872085D01*
X129790787Y-65040787D01*
X129748509Y-65092303D01*
X129440812Y-65400000D01*
X115976411Y-65400000D01*
X115975000Y-65225000D01*
X115850000Y-65100000D01*
X115100000Y-65100000D01*
X115100000Y-65120000D01*
X114900000Y-65120000D01*
X114900000Y-65100000D01*
X114150000Y-65100000D01*
X114025000Y-65225000D01*
X114022581Y-65525000D01*
X114032235Y-65623017D01*
X114060825Y-65717267D01*
X114082030Y-65756939D01*
X114040787Y-65790787D01*
X113872085Y-65996351D01*
X113746728Y-66230878D01*
X113669533Y-66485354D01*
X113643468Y-66750000D01*
X113650001Y-66816331D01*
X113650000Y-68539959D01*
X113642267Y-68535825D01*
X113548017Y-68507235D01*
X113450000Y-68497581D01*
X112925000Y-68500000D01*
X112800000Y-68625000D01*
X112800000Y-69900000D01*
X112820000Y-69900000D01*
X112820000Y-70100000D01*
X112800000Y-70100000D01*
X112800000Y-71375000D01*
X112925000Y-71500000D01*
X113450000Y-71502419D01*
X113548017Y-71492765D01*
X113642267Y-71464175D01*
X113729129Y-71417746D01*
X113781426Y-71374827D01*
X113823683Y-71426317D01*
X113915045Y-71501296D01*
X114019279Y-71557010D01*
X114132379Y-71591318D01*
X114250000Y-71602903D01*
X115750000Y-71602903D01*
X115867621Y-71591318D01*
X115980721Y-71557010D01*
X116084955Y-71501296D01*
X116176317Y-71426317D01*
X116251296Y-71334955D01*
X116307010Y-71230721D01*
X116341318Y-71117621D01*
X116352903Y-71000000D01*
X116352903Y-69000000D01*
X116350000Y-68970526D01*
X116350000Y-68100000D01*
X118672097Y-68100000D01*
X118672097Y-68537500D01*
X118688245Y-68701454D01*
X118736069Y-68859108D01*
X118813730Y-69004403D01*
X118912701Y-69125000D01*
X118813730Y-69245597D01*
X118736069Y-69390892D01*
X118688245Y-69548546D01*
X118672097Y-69712500D01*
X118672097Y-70287500D01*
X118688245Y-70451454D01*
X118736069Y-70609108D01*
X118813730Y-70754403D01*
X118918245Y-70881755D01*
X119025000Y-70969367D01*
X119025001Y-71280633D01*
X118918245Y-71368245D01*
X118813730Y-71495597D01*
X118798014Y-71525000D01*
X118739214Y-71525000D01*
X118737463Y-71523249D01*
X118573678Y-71413811D01*
X118391689Y-71338429D01*
X118198491Y-71300000D01*
X118001509Y-71300000D01*
X117808311Y-71338429D01*
X117626322Y-71413811D01*
X117462537Y-71523249D01*
X117323249Y-71662537D01*
X117213811Y-71826322D01*
X117138429Y-72008311D01*
X117100000Y-72201509D01*
X117100000Y-72398491D01*
X117138429Y-72591689D01*
X117213811Y-72773678D01*
X117323249Y-72937463D01*
X117462537Y-73076751D01*
X117626322Y-73186189D01*
X117808311Y-73261571D01*
X118001509Y-73300000D01*
X118198491Y-73300000D01*
X118391689Y-73261571D01*
X118573678Y-73186189D01*
X118737463Y-73076751D01*
X118812365Y-73001849D01*
X118813730Y-73004403D01*
X118914059Y-73126654D01*
X118857254Y-73195871D01*
X118810825Y-73282733D01*
X118782235Y-73376983D01*
X118772581Y-73475000D01*
X118775000Y-73775000D01*
X118900000Y-73900000D01*
X119650000Y-73900000D01*
X119650000Y-73880000D01*
X119850000Y-73880000D01*
X119850000Y-73900000D01*
X120600000Y-73900000D01*
X120725000Y-73775000D01*
X120727419Y-73475000D01*
X120717765Y-73376983D01*
X120689175Y-73282733D01*
X120642746Y-73195871D01*
X120585941Y-73126654D01*
X120686270Y-73004403D01*
X120763931Y-72859108D01*
X120811755Y-72701454D01*
X120827903Y-72537500D01*
X120827903Y-71962500D01*
X120811755Y-71798546D01*
X120763931Y-71640892D01*
X120686270Y-71495597D01*
X120581755Y-71368245D01*
X120475000Y-71280634D01*
X120475000Y-70969366D01*
X120581755Y-70881755D01*
X120686270Y-70754403D01*
X120763931Y-70609108D01*
X120811755Y-70451454D01*
X120827903Y-70287500D01*
X120827903Y-69712500D01*
X120811755Y-69548546D01*
X120763931Y-69390892D01*
X120686270Y-69245597D01*
X120587299Y-69125000D01*
X120686270Y-69004403D01*
X120763931Y-68859108D01*
X120811755Y-68701454D01*
X120827903Y-68537500D01*
X120827903Y-68100000D01*
X124450001Y-68100000D01*
X124450000Y-72210707D01*
X124450000Y-72460709D01*
X124446130Y-72500000D01*
X124450000Y-72539291D01*
X124450000Y-72539292D01*
X124461576Y-72656826D01*
X124498573Y-72778788D01*
X124507321Y-72807627D01*
X124581607Y-72946606D01*
X124615439Y-72987830D01*
X124681578Y-73068422D01*
X124712103Y-73093473D01*
X128018629Y-76400000D01*
X117000000Y-76400000D01*
X116980491Y-76401921D01*
X116961732Y-76407612D01*
X116944443Y-76416853D01*
X116929289Y-76429289D01*
X116916853Y-76444443D01*
X116907612Y-76461732D01*
X116901921Y-76480491D01*
X116900000Y-76500000D01*
X116900000Y-77797097D01*
X116250000Y-77797097D01*
X116132379Y-77808682D01*
X116019279Y-77842990D01*
X115915045Y-77898704D01*
X115823683Y-77973683D01*
X115748704Y-78065045D01*
X115692990Y-78169279D01*
X115683671Y-78200000D01*
X109631371Y-78200000D01*
X108731371Y-77300000D01*
X110297581Y-77300000D01*
X110307235Y-77398017D01*
X110335825Y-77492267D01*
X110382254Y-77579129D01*
X110444736Y-77655264D01*
X110520871Y-77717746D01*
X110607733Y-77764175D01*
X110701983Y-77792765D01*
X110800000Y-77802419D01*
X112475000Y-77800000D01*
X112600000Y-77675000D01*
X112600000Y-76400000D01*
X112800000Y-76400000D01*
X112800000Y-77675000D01*
X112925000Y-77800000D01*
X114600000Y-77802419D01*
X114698017Y-77792765D01*
X114792267Y-77764175D01*
X114879129Y-77717746D01*
X114955264Y-77655264D01*
X115017746Y-77579129D01*
X115064175Y-77492267D01*
X115092765Y-77398017D01*
X115102419Y-77300000D01*
X115100000Y-76525000D01*
X114975000Y-76400000D01*
X112800000Y-76400000D01*
X112600000Y-76400000D01*
X110425000Y-76400000D01*
X110300000Y-76525000D01*
X110297581Y-77300000D01*
X108731371Y-77300000D01*
X108700000Y-77268630D01*
X108700000Y-75300000D01*
X110297581Y-75300000D01*
X110300000Y-76075000D01*
X110425000Y-76200000D01*
X112600000Y-76200000D01*
X112600000Y-74925000D01*
X112800000Y-74925000D01*
X112800000Y-76200000D01*
X114975000Y-76200000D01*
X115100000Y-76075000D01*
X115102419Y-75300000D01*
X115092765Y-75201983D01*
X115064175Y-75107733D01*
X115017746Y-75020871D01*
X114955264Y-74944736D01*
X114879129Y-74882254D01*
X114792267Y-74835825D01*
X114698017Y-74807235D01*
X114600000Y-74797581D01*
X112925000Y-74800000D01*
X112800000Y-74925000D01*
X112600000Y-74925000D01*
X112475000Y-74800000D01*
X110800000Y-74797581D01*
X110701983Y-74807235D01*
X110607733Y-74835825D01*
X110520871Y-74882254D01*
X110444736Y-74944736D01*
X110382254Y-75020871D01*
X110335825Y-75107733D01*
X110307235Y-75201983D01*
X110297581Y-75300000D01*
X108700000Y-75300000D01*
X108700000Y-74525000D01*
X118772581Y-74525000D01*
X118782235Y-74623017D01*
X118810825Y-74717267D01*
X118857254Y-74804129D01*
X118919736Y-74880264D01*
X118995871Y-74942746D01*
X119082733Y-74989175D01*
X119176983Y-75017765D01*
X119275000Y-75027419D01*
X119525000Y-75025000D01*
X119650000Y-74900000D01*
X119650000Y-74100000D01*
X119850000Y-74100000D01*
X119850000Y-74900000D01*
X119975000Y-75025000D01*
X120225000Y-75027419D01*
X120323017Y-75017765D01*
X120417267Y-74989175D01*
X120504129Y-74942746D01*
X120580264Y-74880264D01*
X120642746Y-74804129D01*
X120689175Y-74717267D01*
X120717765Y-74623017D01*
X120727419Y-74525000D01*
X120725000Y-74225000D01*
X120600000Y-74100000D01*
X119850000Y-74100000D01*
X119650000Y-74100000D01*
X118900000Y-74100000D01*
X118775000Y-74225000D01*
X118772581Y-74525000D01*
X108700000Y-74525000D01*
X108700000Y-67975000D01*
X109300001Y-67975000D01*
X109300000Y-68511051D01*
X109223683Y-68573683D01*
X109148704Y-68665045D01*
X109092990Y-68769279D01*
X109058682Y-68882379D01*
X109047097Y-69000000D01*
X109047097Y-71000000D01*
X109058682Y-71117621D01*
X109092990Y-71230721D01*
X109148704Y-71334955D01*
X109223683Y-71426317D01*
X109315045Y-71501296D01*
X109419279Y-71557010D01*
X109532379Y-71591318D01*
X109650000Y-71602903D01*
X111150000Y-71602903D01*
X111267621Y-71591318D01*
X111380721Y-71557010D01*
X111484955Y-71501296D01*
X111576317Y-71426317D01*
X111618574Y-71374827D01*
X111670871Y-71417746D01*
X111757733Y-71464175D01*
X111851983Y-71492765D01*
X111950000Y-71502419D01*
X112475000Y-71500000D01*
X112600000Y-71375000D01*
X112600000Y-70100000D01*
X112580000Y-70100000D01*
X112580000Y-69900000D01*
X112600000Y-69900000D01*
X112600000Y-68625000D01*
X112475000Y-68500000D01*
X111950000Y-68497581D01*
X111851983Y-68507235D01*
X111757733Y-68535825D01*
X111670871Y-68582254D01*
X111618574Y-68625173D01*
X111576317Y-68573683D01*
X111500000Y-68511051D01*
X111500000Y-67870939D01*
X111559163Y-67798848D01*
X111637980Y-67651392D01*
X111686515Y-67491394D01*
X111702903Y-67325001D01*
X111702903Y-66674999D01*
X111686515Y-66508606D01*
X111637980Y-66348608D01*
X111559163Y-66201152D01*
X111453094Y-66071906D01*
X111328613Y-65969748D01*
X111379129Y-65942746D01*
X111455264Y-65880264D01*
X111517746Y-65804129D01*
X111564175Y-65717267D01*
X111592765Y-65623017D01*
X111602419Y-65525000D01*
X111600000Y-65175000D01*
X111475000Y-65050000D01*
X110500000Y-65050000D01*
X110500000Y-65070000D01*
X110300000Y-65070000D01*
X110300000Y-65050000D01*
X109325000Y-65050000D01*
X109200000Y-65175000D01*
X109197581Y-65525000D01*
X109207235Y-65623017D01*
X109235825Y-65717267D01*
X109282254Y-65804129D01*
X109344736Y-65880264D01*
X109420871Y-65942746D01*
X109471387Y-65969748D01*
X109404061Y-66025000D01*
X108303858Y-66025000D01*
X106653858Y-64375000D01*
X109197581Y-64375000D01*
X109200000Y-64725000D01*
X109325000Y-64850000D01*
X110300000Y-64850000D01*
X110300000Y-64000000D01*
X110500000Y-64000000D01*
X110500000Y-64850000D01*
X111475000Y-64850000D01*
X111600000Y-64725000D01*
X111601727Y-64475000D01*
X114022581Y-64475000D01*
X114025000Y-64775000D01*
X114150000Y-64900000D01*
X114900000Y-64900000D01*
X114900000Y-64100000D01*
X115100000Y-64100000D01*
X115100000Y-64900000D01*
X115850000Y-64900000D01*
X115975000Y-64775000D01*
X115977419Y-64475000D01*
X115967765Y-64376983D01*
X115939175Y-64282733D01*
X115892746Y-64195871D01*
X115830264Y-64119736D01*
X115754129Y-64057254D01*
X115667267Y-64010825D01*
X115573017Y-63982235D01*
X115475000Y-63972581D01*
X115225000Y-63975000D01*
X115100000Y-64100000D01*
X114900000Y-64100000D01*
X114775000Y-63975000D01*
X114525000Y-63972581D01*
X114426983Y-63982235D01*
X114332733Y-64010825D01*
X114245871Y-64057254D01*
X114169736Y-64119736D01*
X114107254Y-64195871D01*
X114060825Y-64282733D01*
X114032235Y-64376983D01*
X114022581Y-64475000D01*
X111601727Y-64475000D01*
X111602419Y-64375000D01*
X111592765Y-64276983D01*
X111564175Y-64182733D01*
X111517746Y-64095871D01*
X111455264Y-64019736D01*
X111379129Y-63957254D01*
X111292267Y-63910825D01*
X111198017Y-63882235D01*
X111100000Y-63872581D01*
X110625000Y-63875000D01*
X110500000Y-64000000D01*
X110300000Y-64000000D01*
X110175000Y-63875000D01*
X109700000Y-63872581D01*
X109601983Y-63882235D01*
X109507733Y-63910825D01*
X109420871Y-63957254D01*
X109344736Y-64019736D01*
X109282254Y-64095871D01*
X109235825Y-64182733D01*
X109207235Y-64276983D01*
X109197581Y-64375000D01*
X106653858Y-64375000D01*
X105823304Y-63544447D01*
X105792765Y-63507235D01*
X105644302Y-63385395D01*
X105474921Y-63294860D01*
X105291133Y-63239108D01*
X105147892Y-63225000D01*
X105100000Y-63220283D01*
X105052108Y-63225000D01*
X104075000Y-63225000D01*
X104075000Y-61656352D01*
X104208311Y-61711571D01*
X104401509Y-61750000D01*
X104598491Y-61750000D01*
X104787620Y-61712380D01*
X104750000Y-61901509D01*
X104750000Y-62098491D01*
X104788429Y-62291689D01*
X104863811Y-62473678D01*
X104973249Y-62637463D01*
X105112537Y-62776751D01*
X105276322Y-62886189D01*
X105458311Y-62961571D01*
X105651509Y-63000000D01*
X105848491Y-63000000D01*
X106041689Y-62961571D01*
X106223678Y-62886189D01*
X106387463Y-62776751D01*
X106413383Y-62750831D01*
X106418245Y-62756755D01*
X106545597Y-62861270D01*
X106690892Y-62938931D01*
X106848546Y-62986755D01*
X107012500Y-63002903D01*
X107487500Y-63002903D01*
X107651454Y-62986755D01*
X107809108Y-62938931D01*
X107954403Y-62861270D01*
X108081755Y-62756755D01*
X108186270Y-62629403D01*
X108263931Y-62484108D01*
X108304612Y-62350000D01*
X108647581Y-62350000D01*
X108657235Y-62448017D01*
X108685825Y-62542267D01*
X108732254Y-62629129D01*
X108794736Y-62705264D01*
X108870871Y-62767746D01*
X108957733Y-62814175D01*
X109051983Y-62842765D01*
X109150000Y-62852419D01*
X109375000Y-62850000D01*
X109500000Y-62725000D01*
X109500000Y-62050000D01*
X109700000Y-62050000D01*
X109700000Y-62725000D01*
X109825000Y-62850000D01*
X110050000Y-62852419D01*
X110148017Y-62842765D01*
X110242267Y-62814175D01*
X110329129Y-62767746D01*
X110405264Y-62705264D01*
X110467746Y-62629129D01*
X110514175Y-62542267D01*
X110542765Y-62448017D01*
X110552419Y-62350000D01*
X110550000Y-62175000D01*
X110425000Y-62050000D01*
X109700000Y-62050000D01*
X109500000Y-62050000D01*
X108775000Y-62050000D01*
X108650000Y-62175000D01*
X108647581Y-62350000D01*
X108304612Y-62350000D01*
X108311755Y-62326454D01*
X108327903Y-62162500D01*
X108327903Y-61587500D01*
X108311755Y-61423546D01*
X108263931Y-61265892D01*
X108186270Y-61120597D01*
X108087299Y-61000000D01*
X108186270Y-60879403D01*
X108242074Y-60775000D01*
X108643383Y-60775000D01*
X108648704Y-60784955D01*
X108723683Y-60876317D01*
X108815045Y-60951296D01*
X108919279Y-61007010D01*
X109032379Y-61041318D01*
X109122983Y-61050242D01*
X109051983Y-61057235D01*
X108957733Y-61085825D01*
X108870871Y-61132254D01*
X108794736Y-61194736D01*
X108732254Y-61270871D01*
X108685825Y-61357733D01*
X108657235Y-61451983D01*
X108647581Y-61550000D01*
X108650000Y-61725000D01*
X108775000Y-61850000D01*
X109500000Y-61850000D01*
X109500000Y-61830000D01*
X109700000Y-61830000D01*
X109700000Y-61850000D01*
X110425000Y-61850000D01*
X110550000Y-61725000D01*
X110552419Y-61550000D01*
X110542765Y-61451983D01*
X110514175Y-61357733D01*
X110467746Y-61270871D01*
X110405264Y-61194736D01*
X110329129Y-61132254D01*
X110242267Y-61085825D01*
X110148017Y-61057235D01*
X110077017Y-61050242D01*
X110167621Y-61041318D01*
X110280721Y-61007010D01*
X110384955Y-60951296D01*
X110476317Y-60876317D01*
X110551296Y-60784955D01*
X110607010Y-60680721D01*
X110641318Y-60567621D01*
X110652903Y-60450000D01*
X110652903Y-59650000D01*
X110641318Y-59532379D01*
X110607010Y-59419279D01*
X110551296Y-59315045D01*
X110476317Y-59223683D01*
X110384955Y-59148704D01*
X110280721Y-59092990D01*
X110167621Y-59058682D01*
X110050000Y-59047097D01*
X109150000Y-59047097D01*
X109032379Y-59058682D01*
X108919279Y-59092990D01*
X108815045Y-59148704D01*
X108723683Y-59223683D01*
X108648704Y-59315045D01*
X108643383Y-59325000D01*
X108148850Y-59325000D01*
X108081755Y-59243245D01*
X107954403Y-59138730D01*
X107809108Y-59061069D01*
X107651454Y-59013245D01*
X107516975Y-59000000D01*
X107651454Y-58986755D01*
X107809108Y-58938931D01*
X107954403Y-58861270D01*
X108081755Y-58756755D01*
X108186270Y-58629403D01*
X108263931Y-58484108D01*
X108304612Y-58350000D01*
X108647581Y-58350000D01*
X108657235Y-58448017D01*
X108685825Y-58542267D01*
X108732254Y-58629129D01*
X108794736Y-58705264D01*
X108870871Y-58767746D01*
X108957733Y-58814175D01*
X109051983Y-58842765D01*
X109150000Y-58852419D01*
X109375000Y-58850000D01*
X109500000Y-58725000D01*
X109500000Y-58050000D01*
X109700000Y-58050000D01*
X109700000Y-58725000D01*
X109825000Y-58850000D01*
X110050000Y-58852419D01*
X110148017Y-58842765D01*
X110242267Y-58814175D01*
X110329129Y-58767746D01*
X110405264Y-58705264D01*
X110467746Y-58629129D01*
X110514175Y-58542267D01*
X110542765Y-58448017D01*
X110552419Y-58350000D01*
X110550000Y-58175000D01*
X110425000Y-58050000D01*
X109700000Y-58050000D01*
X109500000Y-58050000D01*
X108775000Y-58050000D01*
X108650000Y-58175000D01*
X108647581Y-58350000D01*
X108304612Y-58350000D01*
X108311755Y-58326454D01*
X108327903Y-58162500D01*
X108327903Y-57587500D01*
X108311755Y-57423546D01*
X108263931Y-57265892D01*
X108186270Y-57120597D01*
X108087299Y-57000000D01*
X108186270Y-56879403D01*
X108242074Y-56775000D01*
X108643383Y-56775000D01*
X108648704Y-56784955D01*
X108723683Y-56876317D01*
X108815045Y-56951296D01*
X108919279Y-57007010D01*
X109032379Y-57041318D01*
X109122983Y-57050242D01*
X109051983Y-57057235D01*
X108957733Y-57085825D01*
X108870871Y-57132254D01*
X108794736Y-57194736D01*
X108732254Y-57270871D01*
X108685825Y-57357733D01*
X108657235Y-57451983D01*
X108647581Y-57550000D01*
X108650000Y-57725000D01*
X108775000Y-57850000D01*
X109500000Y-57850000D01*
X109500000Y-57830000D01*
X109700000Y-57830000D01*
X109700000Y-57850000D01*
X110425000Y-57850000D01*
X110550000Y-57725000D01*
X110552419Y-57550000D01*
X110542765Y-57451983D01*
X110514175Y-57357733D01*
X110467746Y-57270871D01*
X110405264Y-57194736D01*
X110329129Y-57132254D01*
X110242267Y-57085825D01*
X110148017Y-57057235D01*
X110077017Y-57050242D01*
X110167621Y-57041318D01*
X110280721Y-57007010D01*
X110384955Y-56951296D01*
X110476317Y-56876317D01*
X110551296Y-56784955D01*
X110607010Y-56680721D01*
X110641318Y-56567621D01*
X110652903Y-56450000D01*
X110652903Y-55650000D01*
X110641318Y-55532379D01*
X110607010Y-55419279D01*
X110551296Y-55315045D01*
X110476317Y-55223683D01*
X110384955Y-55148704D01*
X110280721Y-55092990D01*
X110167621Y-55058682D01*
X110050000Y-55047097D01*
X109150000Y-55047097D01*
X109032379Y-55058682D01*
X108919279Y-55092990D01*
X108815045Y-55148704D01*
X108723683Y-55223683D01*
X108648704Y-55315045D01*
X108643383Y-55325000D01*
X108148850Y-55325000D01*
X108081755Y-55243245D01*
X107954403Y-55138730D01*
X107809108Y-55061069D01*
X107651454Y-55013245D01*
X107516975Y-55000000D01*
X107651454Y-54986755D01*
X107809108Y-54938931D01*
X107954403Y-54861270D01*
X108081755Y-54756755D01*
X108186270Y-54629403D01*
X108263931Y-54484108D01*
X108304612Y-54350000D01*
X108647581Y-54350000D01*
X108657235Y-54448017D01*
X108685825Y-54542267D01*
X108732254Y-54629129D01*
X108794736Y-54705264D01*
X108870871Y-54767746D01*
X108957733Y-54814175D01*
X109051983Y-54842765D01*
X109150000Y-54852419D01*
X109375000Y-54850000D01*
X109500000Y-54725000D01*
X109500000Y-54050000D01*
X109700000Y-54050000D01*
X109700000Y-54725000D01*
X109825000Y-54850000D01*
X110050000Y-54852419D01*
X110148017Y-54842765D01*
X110242267Y-54814175D01*
X110329129Y-54767746D01*
X110405264Y-54705264D01*
X110467746Y-54629129D01*
X110514175Y-54542267D01*
X110542765Y-54448017D01*
X110552419Y-54350000D01*
X110550000Y-54175000D01*
X110425000Y-54050000D01*
X109700000Y-54050000D01*
X109500000Y-54050000D01*
X108775000Y-54050000D01*
X108650000Y-54175000D01*
X108647581Y-54350000D01*
X108304612Y-54350000D01*
X108311755Y-54326454D01*
X108327903Y-54162500D01*
X108327903Y-53587500D01*
X108311755Y-53423546D01*
X108263931Y-53265892D01*
X108186270Y-53120597D01*
X108087299Y-53000000D01*
X108186270Y-52879403D01*
X108242074Y-52775000D01*
X108643383Y-52775000D01*
X108648704Y-52784955D01*
X108723683Y-52876317D01*
X108815045Y-52951296D01*
X108919279Y-53007010D01*
X109032379Y-53041318D01*
X109122983Y-53050242D01*
X109051983Y-53057235D01*
X108957733Y-53085825D01*
X108870871Y-53132254D01*
X108794736Y-53194736D01*
X108732254Y-53270871D01*
X108685825Y-53357733D01*
X108657235Y-53451983D01*
X108647581Y-53550000D01*
X108650000Y-53725000D01*
X108775000Y-53850000D01*
X109500000Y-53850000D01*
X109500000Y-53830000D01*
X109700000Y-53830000D01*
X109700000Y-53850000D01*
X110425000Y-53850000D01*
X110550000Y-53725000D01*
X110552419Y-53550000D01*
X110542765Y-53451983D01*
X110514175Y-53357733D01*
X110467746Y-53270871D01*
X110405264Y-53194736D01*
X110329129Y-53132254D01*
X110242267Y-53085825D01*
X110148017Y-53057235D01*
X110077017Y-53050242D01*
X110167621Y-53041318D01*
X110280721Y-53007010D01*
X110384955Y-52951296D01*
X110476317Y-52876317D01*
X110551296Y-52784955D01*
X110607010Y-52680721D01*
X110641318Y-52567621D01*
X110652903Y-52450000D01*
X110652903Y-51650000D01*
X110641318Y-51532379D01*
X110607010Y-51419279D01*
X110551296Y-51315045D01*
X110476317Y-51223683D01*
X110384955Y-51148704D01*
X110280721Y-51092990D01*
X110167621Y-51058682D01*
X110050000Y-51047097D01*
X109150000Y-51047097D01*
X109032379Y-51058682D01*
X108919279Y-51092990D01*
X108815045Y-51148704D01*
X108723683Y-51223683D01*
X108648704Y-51315045D01*
X108643383Y-51325000D01*
X108148850Y-51325000D01*
X108081755Y-51243245D01*
X107954403Y-51138730D01*
X107809108Y-51061069D01*
X107651454Y-51013245D01*
X107487500Y-50997097D01*
X107012500Y-50997097D01*
X106848546Y-51013245D01*
X106690892Y-51061069D01*
X106545597Y-51138730D01*
X106418245Y-51243245D01*
X106313730Y-51370597D01*
X106236069Y-51515892D01*
X106188245Y-51673546D01*
X106172097Y-51837500D01*
X106172097Y-52412500D01*
X106188245Y-52576454D01*
X106236069Y-52734108D01*
X106313730Y-52879403D01*
X106412701Y-53000000D01*
X106313730Y-53120597D01*
X106236069Y-53265892D01*
X106188245Y-53423546D01*
X106172097Y-53587500D01*
X106172097Y-53927598D01*
X104075000Y-56024696D01*
X104075000Y-55547892D01*
X104079717Y-55499999D01*
X104060892Y-55308866D01*
X104018279Y-55168393D01*
X104005140Y-55125079D01*
X103914605Y-54955698D01*
X103792765Y-54807235D01*
X103755559Y-54776701D01*
X100573304Y-51594447D01*
X100542765Y-51557235D01*
X100394302Y-51435395D01*
X100224921Y-51344860D01*
X100041133Y-51289108D01*
X99897892Y-51275000D01*
X99850000Y-51270283D01*
X99802108Y-51275000D01*
X82797892Y-51275000D01*
X82750000Y-51270283D01*
X82702108Y-51275000D01*
X82647042Y-51280424D01*
X82562500Y-51272097D01*
X81637500Y-51272097D01*
X81471107Y-51288485D01*
X81311108Y-51337020D01*
X81163652Y-51415837D01*
X81034407Y-51521907D01*
X80928337Y-51651152D01*
X80849520Y-51798608D01*
X80800985Y-51958607D01*
X80784597Y-52125000D01*
X80784597Y-54275000D01*
X80800985Y-54441393D01*
X80818763Y-54500000D01*
X80406237Y-54500000D01*
X80424015Y-54441393D01*
X80440403Y-54275000D01*
X80440403Y-52125000D01*
X80424015Y-51958607D01*
X80375480Y-51798608D01*
X80296663Y-51651152D01*
X80190593Y-51521907D01*
X80061348Y-51415837D01*
X79913892Y-51337020D01*
X79753893Y-51288485D01*
X79587500Y-51272097D01*
X78662500Y-51272097D01*
X78496107Y-51288485D01*
X78336108Y-51337020D01*
X78188652Y-51415837D01*
X78059407Y-51521907D01*
X77953337Y-51651152D01*
X77874520Y-51798608D01*
X77825985Y-51958607D01*
X77809597Y-52125000D01*
X77809597Y-52225000D01*
X77020579Y-52225000D01*
X76820858Y-52142273D01*
X76608341Y-52100000D01*
X76391659Y-52100000D01*
X76179142Y-52142273D01*
X75978955Y-52225193D01*
X75798791Y-52345575D01*
X75645575Y-52498791D01*
X75525193Y-52678955D01*
X75442273Y-52879142D01*
X75400000Y-53091659D01*
X75400000Y-53308341D01*
X75442273Y-53520858D01*
X75525193Y-53721045D01*
X75645575Y-53901209D01*
X75798791Y-54054425D01*
X75978955Y-54174807D01*
X76179142Y-54257727D01*
X76391659Y-54300000D01*
X76608341Y-54300000D01*
X76820858Y-54257727D01*
X77020579Y-54175000D01*
X77809597Y-54175000D01*
X77809597Y-54275000D01*
X77825985Y-54441393D01*
X77843763Y-54500000D01*
X75631370Y-54500000D01*
X72593473Y-51462103D01*
X72568422Y-51431578D01*
X72446606Y-51331607D01*
X72307628Y-51257321D01*
X72156827Y-51211576D01*
X72039293Y-51200000D01*
X72039291Y-51200000D01*
X72000000Y-51196130D01*
X71960709Y-51200000D01*
X67696815Y-51200000D01*
X67657524Y-51196130D01*
X67618233Y-51200000D01*
X67618231Y-51200000D01*
X67500697Y-51211576D01*
X67349896Y-51257321D01*
X67210917Y-51331607D01*
X67163408Y-51370597D01*
X67089102Y-51431578D01*
X67064051Y-51462103D01*
X60812072Y-57714082D01*
X60781547Y-57739133D01*
X60732672Y-57798688D01*
X60681576Y-57860949D01*
X60641316Y-57936270D01*
X60625000Y-57966795D01*
X60625000Y-50625000D01*
X120969296Y-50625000D01*
X121000000Y-50628024D01*
X121122521Y-50615957D01*
X121240334Y-50580219D01*
X121348911Y-50522183D01*
X121444080Y-50444080D01*
X121522183Y-50348911D01*
X121580219Y-50240334D01*
X121615957Y-50122521D01*
X121618175Y-50100000D01*
X122275000Y-50100000D01*
X122275001Y-52200000D01*
G36*
X63162172Y-62887477D02*
G01*
X63184868Y-62915132D01*
X63212523Y-62937828D01*
X63212525Y-62937830D01*
X63213867Y-62938931D01*
X63295263Y-63005731D01*
X63421212Y-63073053D01*
X63557875Y-63114509D01*
X63664393Y-63125000D01*
X63664403Y-63125000D01*
X63700000Y-63128506D01*
X63735597Y-63125000D01*
X64999696Y-63125000D01*
X70421792Y-68547097D01*
X69275000Y-68547097D01*
X69108607Y-68563485D01*
X68948608Y-68612020D01*
X68801152Y-68690837D01*
X68768192Y-68717887D01*
X62599979Y-62549675D01*
X62599979Y-62325284D01*
X63162172Y-62887477D01*
G37*
X63162172Y-62887477D02*
X63184868Y-62915132D01*
X63212523Y-62937828D01*
X63212525Y-62937830D01*
X63213867Y-62938931D01*
X63295263Y-63005731D01*
X63421212Y-63073053D01*
X63557875Y-63114509D01*
X63664393Y-63125000D01*
X63664403Y-63125000D01*
X63700000Y-63128506D01*
X63735597Y-63125000D01*
X64999696Y-63125000D01*
X70421792Y-68547097D01*
X69275000Y-68547097D01*
X69108607Y-68563485D01*
X68948608Y-68612020D01*
X68801152Y-68690837D01*
X68768192Y-68717887D01*
X62599979Y-62549675D01*
X62599979Y-62325284D01*
X63162172Y-62887477D01*
G36*
X69900000Y-54008341D02*
G01*
X69942273Y-54220858D01*
X70025001Y-54420581D01*
X70025000Y-58513001D01*
X69926152Y-58565837D01*
X69796907Y-58671907D01*
X69690837Y-58801152D01*
X69612020Y-58948608D01*
X69575782Y-59068070D01*
X69508984Y-58976350D01*
X69314279Y-58796774D01*
X69088281Y-58658634D01*
X68839676Y-58567238D01*
X68809375Y-58560928D01*
X68600000Y-58654088D01*
X68600000Y-59900000D01*
X68620000Y-59900000D01*
X68620000Y-60100000D01*
X68600000Y-60100000D01*
X68600000Y-61345912D01*
X68809375Y-61439072D01*
X68839676Y-61432762D01*
X69088281Y-61341366D01*
X69314279Y-61203226D01*
X69508984Y-61023650D01*
X69575782Y-60931930D01*
X69612020Y-61051392D01*
X69690837Y-61198848D01*
X69796907Y-61328093D01*
X69926152Y-61434163D01*
X70073608Y-61512980D01*
X70233607Y-61561515D01*
X70400000Y-61577903D01*
X71600000Y-61577903D01*
X71766393Y-61561515D01*
X71900000Y-61520986D01*
X71900000Y-67974695D01*
X65837832Y-61912528D01*
X65815132Y-61884868D01*
X65704737Y-61794269D01*
X65578788Y-61726947D01*
X65442125Y-61685491D01*
X65335607Y-61675000D01*
X65335597Y-61675000D01*
X65300000Y-61671494D01*
X65264403Y-61675000D01*
X64000305Y-61675000D01*
X63857196Y-61531891D01*
X64057575Y-61471106D01*
X64309473Y-61336464D01*
X64530264Y-61155265D01*
X64711464Y-60934474D01*
X64750000Y-60862378D01*
X64788536Y-60934473D01*
X64969735Y-61155264D01*
X65190526Y-61336464D01*
X65442424Y-61471106D01*
X65715750Y-61554019D01*
X66000000Y-61582015D01*
X66284249Y-61554019D01*
X66557575Y-61471106D01*
X66809473Y-61336464D01*
X67030264Y-61155265D01*
X67211464Y-60934474D01*
X67308720Y-60752520D01*
X67335085Y-60809540D01*
X67491016Y-61023650D01*
X67685721Y-61203226D01*
X67911719Y-61341366D01*
X68160324Y-61432762D01*
X68190625Y-61439072D01*
X68400000Y-61345912D01*
X68400000Y-60100000D01*
X68380000Y-60100000D01*
X68380000Y-59900000D01*
X68400000Y-59900000D01*
X68400000Y-58654088D01*
X68190625Y-58560928D01*
X68160324Y-58567238D01*
X67911719Y-58658634D01*
X67685721Y-58796774D01*
X67491016Y-58976350D01*
X67335085Y-59190460D01*
X67308720Y-59247480D01*
X67211464Y-59065526D01*
X67030265Y-58844735D01*
X66809474Y-58663536D01*
X66557576Y-58528894D01*
X66284250Y-58445981D01*
X66000000Y-58417985D01*
X65715751Y-58445981D01*
X65442425Y-58528894D01*
X65190527Y-58663536D01*
X64969736Y-58844735D01*
X64788536Y-59065526D01*
X64750000Y-59137622D01*
X64711464Y-59065526D01*
X64530265Y-58844735D01*
X64309474Y-58663536D01*
X64057576Y-58528894D01*
X63784250Y-58445981D01*
X63688731Y-58436573D01*
X68325307Y-53799998D01*
X69900000Y-53799998D01*
X69900000Y-54008341D01*
G37*
X69900000Y-54008341D02*
X69942273Y-54220858D01*
X70025001Y-54420581D01*
X70025000Y-58513001D01*
X69926152Y-58565837D01*
X69796907Y-58671907D01*
X69690837Y-58801152D01*
X69612020Y-58948608D01*
X69575782Y-59068070D01*
X69508984Y-58976350D01*
X69314279Y-58796774D01*
X69088281Y-58658634D01*
X68839676Y-58567238D01*
X68809375Y-58560928D01*
X68600000Y-58654088D01*
X68600000Y-59900000D01*
X68620000Y-59900000D01*
X68620000Y-60100000D01*
X68600000Y-60100000D01*
X68600000Y-61345912D01*
X68809375Y-61439072D01*
X68839676Y-61432762D01*
X69088281Y-61341366D01*
X69314279Y-61203226D01*
X69508984Y-61023650D01*
X69575782Y-60931930D01*
X69612020Y-61051392D01*
X69690837Y-61198848D01*
X69796907Y-61328093D01*
X69926152Y-61434163D01*
X70073608Y-61512980D01*
X70233607Y-61561515D01*
X70400000Y-61577903D01*
X71600000Y-61577903D01*
X71766393Y-61561515D01*
X71900000Y-61520986D01*
X71900000Y-67974695D01*
X65837832Y-61912528D01*
X65815132Y-61884868D01*
X65704737Y-61794269D01*
X65578788Y-61726947D01*
X65442125Y-61685491D01*
X65335607Y-61675000D01*
X65335597Y-61675000D01*
X65300000Y-61671494D01*
X65264403Y-61675000D01*
X64000305Y-61675000D01*
X63857196Y-61531891D01*
X64057575Y-61471106D01*
X64309473Y-61336464D01*
X64530264Y-61155265D01*
X64711464Y-60934474D01*
X64750000Y-60862378D01*
X64788536Y-60934473D01*
X64969735Y-61155264D01*
X65190526Y-61336464D01*
X65442424Y-61471106D01*
X65715750Y-61554019D01*
X66000000Y-61582015D01*
X66284249Y-61554019D01*
X66557575Y-61471106D01*
X66809473Y-61336464D01*
X67030264Y-61155265D01*
X67211464Y-60934474D01*
X67308720Y-60752520D01*
X67335085Y-60809540D01*
X67491016Y-61023650D01*
X67685721Y-61203226D01*
X67911719Y-61341366D01*
X68160324Y-61432762D01*
X68190625Y-61439072D01*
X68400000Y-61345912D01*
X68400000Y-60100000D01*
X68380000Y-60100000D01*
X68380000Y-59900000D01*
X68400000Y-59900000D01*
X68400000Y-58654088D01*
X68190625Y-58560928D01*
X68160324Y-58567238D01*
X67911719Y-58658634D01*
X67685721Y-58796774D01*
X67491016Y-58976350D01*
X67335085Y-59190460D01*
X67308720Y-59247480D01*
X67211464Y-59065526D01*
X67030265Y-58844735D01*
X66809474Y-58663536D01*
X66557576Y-58528894D01*
X66284250Y-58445981D01*
X66000000Y-58417985D01*
X65715751Y-58445981D01*
X65442425Y-58528894D01*
X65190527Y-58663536D01*
X64969736Y-58844735D01*
X64788536Y-59065526D01*
X64750000Y-59137622D01*
X64711464Y-59065526D01*
X64530265Y-58844735D01*
X64309474Y-58663536D01*
X64057576Y-58528894D01*
X63784250Y-58445981D01*
X63688731Y-58436573D01*
X68325307Y-53799998D01*
X69900000Y-53799998D01*
X69900000Y-54008341D01*
G36*
X159375000Y-77128581D02*
G01*
X159326289Y-77055679D01*
X159124321Y-76853711D01*
X158886833Y-76695027D01*
X158622949Y-76585723D01*
X158342813Y-76530000D01*
X158057187Y-76530000D01*
X157777051Y-76585723D01*
X157513167Y-76695027D01*
X157275679Y-76853711D01*
X157073711Y-77055679D01*
X156915027Y-77293167D01*
X156805723Y-77557051D01*
X156750000Y-77837187D01*
X156750000Y-78122813D01*
X156805723Y-78402949D01*
X156915027Y-78666833D01*
X157073711Y-78904321D01*
X157275679Y-79106289D01*
X157490758Y-79250000D01*
X157275679Y-79393711D01*
X157073711Y-79595679D01*
X156915027Y-79833167D01*
X156805723Y-80097051D01*
X156750000Y-80377187D01*
X156750000Y-80662813D01*
X156805723Y-80942949D01*
X156915027Y-81206833D01*
X157073711Y-81444321D01*
X157275679Y-81646289D01*
X157490758Y-81790000D01*
X157275679Y-81933711D01*
X157073711Y-82135679D01*
X156915027Y-82373167D01*
X156805723Y-82637051D01*
X156750000Y-82917187D01*
X156750000Y-83202813D01*
X156805723Y-83482949D01*
X156915027Y-83746833D01*
X157073711Y-83984321D01*
X157275679Y-84186289D01*
X157490758Y-84330000D01*
X157275679Y-84473711D01*
X157073711Y-84675679D01*
X156915027Y-84913167D01*
X156805723Y-85177051D01*
X156750000Y-85457187D01*
X156750000Y-85742813D01*
X156805723Y-86022949D01*
X156915027Y-86286833D01*
X157073711Y-86524321D01*
X157275679Y-86726289D01*
X157490758Y-86870000D01*
X157275679Y-87013711D01*
X157073711Y-87215679D01*
X156915027Y-87453167D01*
X156805723Y-87717051D01*
X156750000Y-87997187D01*
X156750000Y-88282813D01*
X156805723Y-88562949D01*
X156915027Y-88826833D01*
X157073711Y-89064321D01*
X157275679Y-89266289D01*
X157490758Y-89410000D01*
X157275679Y-89553711D01*
X157073711Y-89755679D01*
X156915027Y-89993167D01*
X156805723Y-90257051D01*
X156750000Y-90537187D01*
X156750000Y-90822813D01*
X156805723Y-91102949D01*
X156915027Y-91366833D01*
X157073711Y-91604321D01*
X157275679Y-91806289D01*
X157490758Y-91950000D01*
X157275679Y-92093711D01*
X157073711Y-92295679D01*
X156915027Y-92533167D01*
X156805723Y-92797051D01*
X156750000Y-93077187D01*
X156750000Y-93362813D01*
X156805723Y-93642949D01*
X156915027Y-93906833D01*
X157073711Y-94144321D01*
X157275679Y-94346289D01*
X157490758Y-94490000D01*
X157275679Y-94633711D01*
X157073711Y-94835679D01*
X156915027Y-95073167D01*
X156805723Y-95337051D01*
X156750000Y-95617187D01*
X156750000Y-95902813D01*
X156805723Y-96182949D01*
X156915027Y-96446833D01*
X157073711Y-96684321D01*
X157275679Y-96886289D01*
X157490758Y-97030000D01*
X157275679Y-97173711D01*
X157073711Y-97375679D01*
X156915027Y-97613167D01*
X156805723Y-97877051D01*
X156750000Y-98157187D01*
X156750000Y-98442813D01*
X156805723Y-98722949D01*
X156915027Y-98986833D01*
X157073711Y-99224321D01*
X157275679Y-99426289D01*
X157490758Y-99570000D01*
X157275679Y-99713711D01*
X157073711Y-99915679D01*
X156915027Y-100153167D01*
X156805723Y-100417051D01*
X156750000Y-100697187D01*
X156750000Y-100982813D01*
X156805723Y-101262949D01*
X156915027Y-101526833D01*
X157073711Y-101764321D01*
X157275679Y-101966289D01*
X157490758Y-102110000D01*
X157275679Y-102253711D01*
X157073711Y-102455679D01*
X156915027Y-102693167D01*
X156805723Y-102957051D01*
X156750000Y-103237187D01*
X156750000Y-103522813D01*
X156805723Y-103802949D01*
X156915027Y-104066833D01*
X157073711Y-104304321D01*
X157275679Y-104506289D01*
X157367511Y-104567649D01*
X157350000Y-104567581D01*
X157251983Y-104577235D01*
X157157733Y-104605825D01*
X157070871Y-104652254D01*
X156994736Y-104714736D01*
X156932254Y-104790871D01*
X156885825Y-104877733D01*
X156857235Y-104971983D01*
X156847581Y-105070000D01*
X156850000Y-105695000D01*
X156975000Y-105820000D01*
X158100000Y-105820000D01*
X158100000Y-105800000D01*
X158300000Y-105800000D01*
X158300000Y-105820000D01*
X158320000Y-105820000D01*
X158320000Y-106020000D01*
X158300000Y-106020000D01*
X158300000Y-107145000D01*
X158425000Y-107270000D01*
X159050000Y-107272419D01*
X159148017Y-107262765D01*
X159242267Y-107234175D01*
X159329129Y-107187746D01*
X159375000Y-107150101D01*
X159375000Y-107375000D01*
X141625000Y-107375000D01*
X141625000Y-107124812D01*
X141683683Y-107196317D01*
X141775045Y-107271296D01*
X141879279Y-107327010D01*
X141992379Y-107361318D01*
X142110000Y-107372903D01*
X143810000Y-107372903D01*
X143927621Y-107361318D01*
X144040721Y-107327010D01*
X144144955Y-107271296D01*
X144236317Y-107196317D01*
X144311296Y-107104955D01*
X144367010Y-107000721D01*
X144401318Y-106887621D01*
X144412903Y-106770000D01*
X156847581Y-106770000D01*
X156857235Y-106868017D01*
X156885825Y-106962267D01*
X156932254Y-107049129D01*
X156994736Y-107125264D01*
X157070871Y-107187746D01*
X157157733Y-107234175D01*
X157251983Y-107262765D01*
X157350000Y-107272419D01*
X157975000Y-107270000D01*
X158100000Y-107145000D01*
X158100000Y-106020000D01*
X156975000Y-106020000D01*
X156850000Y-106145000D01*
X156847581Y-106770000D01*
X144412903Y-106770000D01*
X144412903Y-105492401D01*
X145887477Y-104017828D01*
X145915132Y-103995132D01*
X146005731Y-103884737D01*
X146073053Y-103758788D01*
X146114509Y-103622125D01*
X146125000Y-103515607D01*
X146125000Y-103515598D01*
X146128506Y-103480001D01*
X146125000Y-103444404D01*
X146125000Y-96124176D01*
X146138429Y-96191689D01*
X146213811Y-96373678D01*
X146323249Y-96537463D01*
X146462537Y-96676751D01*
X146626322Y-96786189D01*
X146808311Y-96861571D01*
X147001509Y-96900000D01*
X147198491Y-96900000D01*
X147391689Y-96861571D01*
X147573678Y-96786189D01*
X147737463Y-96676751D01*
X147789214Y-96625000D01*
X149910786Y-96625000D01*
X149962537Y-96676751D01*
X150126322Y-96786189D01*
X150308311Y-96861571D01*
X150501509Y-96900000D01*
X150698491Y-96900000D01*
X150891689Y-96861571D01*
X151073678Y-96786189D01*
X151237463Y-96676751D01*
X151376751Y-96537463D01*
X151486189Y-96373678D01*
X151561571Y-96191689D01*
X151600000Y-95998491D01*
X151600000Y-95801509D01*
X151561571Y-95608311D01*
X151486189Y-95426322D01*
X151376751Y-95262537D01*
X151237463Y-95123249D01*
X151073678Y-95013811D01*
X150891689Y-94938429D01*
X150698491Y-94900000D01*
X150501509Y-94900000D01*
X150308311Y-94938429D01*
X150126322Y-95013811D01*
X149962537Y-95123249D01*
X149910786Y-95175000D01*
X147789214Y-95175000D01*
X147737463Y-95123249D01*
X147573678Y-95013811D01*
X147391689Y-94938429D01*
X147198491Y-94900000D01*
X147025305Y-94900000D01*
X147187477Y-94737828D01*
X147215132Y-94715132D01*
X147305731Y-94604737D01*
X147373053Y-94478788D01*
X147414509Y-94342125D01*
X147425000Y-94235607D01*
X147425000Y-94235600D01*
X147428506Y-94200000D01*
X147425000Y-94164400D01*
X147425000Y-87300304D01*
X147943671Y-86781634D01*
X147913811Y-86826322D01*
X147838429Y-87008311D01*
X147800000Y-87201509D01*
X147800000Y-87398491D01*
X147838429Y-87591689D01*
X147913811Y-87773678D01*
X148023249Y-87937463D01*
X148162537Y-88076751D01*
X148326322Y-88186189D01*
X148508311Y-88261571D01*
X148701509Y-88300000D01*
X148898491Y-88300000D01*
X149091689Y-88261571D01*
X149273678Y-88186189D01*
X149437463Y-88076751D01*
X149489214Y-88025000D01*
X154210786Y-88025000D01*
X154262537Y-88076751D01*
X154426322Y-88186189D01*
X154608311Y-88261571D01*
X154801509Y-88300000D01*
X154998491Y-88300000D01*
X155191689Y-88261571D01*
X155373678Y-88186189D01*
X155537463Y-88076751D01*
X155676751Y-87937463D01*
X155786189Y-87773678D01*
X155861571Y-87591689D01*
X155900000Y-87398491D01*
X155900000Y-87201509D01*
X155861571Y-87008311D01*
X155786189Y-86826322D01*
X155676751Y-86662537D01*
X155537463Y-86523249D01*
X155373678Y-86413811D01*
X155191689Y-86338429D01*
X154998491Y-86300000D01*
X154801509Y-86300000D01*
X154608311Y-86338429D01*
X154426322Y-86413811D01*
X154262537Y-86523249D01*
X154210786Y-86575000D01*
X149489214Y-86575000D01*
X149437463Y-86523249D01*
X149273678Y-86413811D01*
X149091689Y-86338429D01*
X148898491Y-86300000D01*
X148701509Y-86300000D01*
X148508311Y-86338429D01*
X148326322Y-86413811D01*
X148281634Y-86443670D01*
X148527477Y-86197828D01*
X148555132Y-86175132D01*
X148645731Y-86064737D01*
X148713053Y-85938788D01*
X148754509Y-85802125D01*
X148765000Y-85695607D01*
X148765000Y-85695598D01*
X148768506Y-85660001D01*
X148765000Y-85624404D01*
X148765000Y-76699471D01*
X148964321Y-76566289D01*
X149166289Y-76364321D01*
X149310000Y-76149242D01*
X149453711Y-76364321D01*
X149655679Y-76566289D01*
X149893167Y-76724973D01*
X150157051Y-76834277D01*
X150437187Y-76890000D01*
X150722813Y-76890000D01*
X151002949Y-76834277D01*
X151266833Y-76724973D01*
X151504321Y-76566289D01*
X151706289Y-76364321D01*
X151850000Y-76149242D01*
X151993711Y-76364321D01*
X152195679Y-76566289D01*
X152433167Y-76724973D01*
X152697051Y-76834277D01*
X152977187Y-76890000D01*
X153262813Y-76890000D01*
X153542949Y-76834277D01*
X153806833Y-76724973D01*
X154044321Y-76566289D01*
X154246289Y-76364321D01*
X154404973Y-76126833D01*
X154446737Y-76026005D01*
X154564345Y-76228701D01*
X154739266Y-76427298D01*
X154949570Y-76587954D01*
X155187175Y-76704494D01*
X155350625Y-76754072D01*
X155560000Y-76660912D01*
X155560000Y-75540000D01*
X155760000Y-75540000D01*
X155760000Y-76660912D01*
X155969375Y-76754072D01*
X156132825Y-76704494D01*
X156370430Y-76587954D01*
X156580734Y-76427298D01*
X156755655Y-76228701D01*
X156888470Y-75999795D01*
X156974076Y-75749376D01*
X156881295Y-75540000D01*
X155760000Y-75540000D01*
X155560000Y-75540000D01*
X155540000Y-75540000D01*
X155540000Y-75340000D01*
X155560000Y-75340000D01*
X155560000Y-75320000D01*
X155760000Y-75320000D01*
X155760000Y-75340000D01*
X156881295Y-75340000D01*
X156974076Y-75130624D01*
X156888470Y-74880205D01*
X156755655Y-74651299D01*
X156580734Y-74452702D01*
X156370430Y-74292046D01*
X156132825Y-74175506D01*
X155969375Y-74125928D01*
X155760002Y-74219087D01*
X155760002Y-74100000D01*
X159375000Y-74100000D01*
X159375000Y-77128581D01*
G37*
X159375000Y-77128581D02*
X159326289Y-77055679D01*
X159124321Y-76853711D01*
X158886833Y-76695027D01*
X158622949Y-76585723D01*
X158342813Y-76530000D01*
X158057187Y-76530000D01*
X157777051Y-76585723D01*
X157513167Y-76695027D01*
X157275679Y-76853711D01*
X157073711Y-77055679D01*
X156915027Y-77293167D01*
X156805723Y-77557051D01*
X156750000Y-77837187D01*
X156750000Y-78122813D01*
X156805723Y-78402949D01*
X156915027Y-78666833D01*
X157073711Y-78904321D01*
X157275679Y-79106289D01*
X157490758Y-79250000D01*
X157275679Y-79393711D01*
X157073711Y-79595679D01*
X156915027Y-79833167D01*
X156805723Y-80097051D01*
X156750000Y-80377187D01*
X156750000Y-80662813D01*
X156805723Y-80942949D01*
X156915027Y-81206833D01*
X157073711Y-81444321D01*
X157275679Y-81646289D01*
X157490758Y-81790000D01*
X157275679Y-81933711D01*
X157073711Y-82135679D01*
X156915027Y-82373167D01*
X156805723Y-82637051D01*
X156750000Y-82917187D01*
X156750000Y-83202813D01*
X156805723Y-83482949D01*
X156915027Y-83746833D01*
X157073711Y-83984321D01*
X157275679Y-84186289D01*
X157490758Y-84330000D01*
X157275679Y-84473711D01*
X157073711Y-84675679D01*
X156915027Y-84913167D01*
X156805723Y-85177051D01*
X156750000Y-85457187D01*
X156750000Y-85742813D01*
X156805723Y-86022949D01*
X156915027Y-86286833D01*
X157073711Y-86524321D01*
X157275679Y-86726289D01*
X157490758Y-86870000D01*
X157275679Y-87013711D01*
X157073711Y-87215679D01*
X156915027Y-87453167D01*
X156805723Y-87717051D01*
X156750000Y-87997187D01*
X156750000Y-88282813D01*
X156805723Y-88562949D01*
X156915027Y-88826833D01*
X157073711Y-89064321D01*
X157275679Y-89266289D01*
X157490758Y-89410000D01*
X157275679Y-89553711D01*
X157073711Y-89755679D01*
X156915027Y-89993167D01*
X156805723Y-90257051D01*
X156750000Y-90537187D01*
X156750000Y-90822813D01*
X156805723Y-91102949D01*
X156915027Y-91366833D01*
X157073711Y-91604321D01*
X157275679Y-91806289D01*
X157490758Y-91950000D01*
X157275679Y-92093711D01*
X157073711Y-92295679D01*
X156915027Y-92533167D01*
X156805723Y-92797051D01*
X156750000Y-93077187D01*
X156750000Y-93362813D01*
X156805723Y-93642949D01*
X156915027Y-93906833D01*
X157073711Y-94144321D01*
X157275679Y-94346289D01*
X157490758Y-94490000D01*
X157275679Y-94633711D01*
X157073711Y-94835679D01*
X156915027Y-95073167D01*
X156805723Y-95337051D01*
X156750000Y-95617187D01*
X156750000Y-95902813D01*
X156805723Y-96182949D01*
X156915027Y-96446833D01*
X157073711Y-96684321D01*
X157275679Y-96886289D01*
X157490758Y-97030000D01*
X157275679Y-97173711D01*
X157073711Y-97375679D01*
X156915027Y-97613167D01*
X156805723Y-97877051D01*
X156750000Y-98157187D01*
X156750000Y-98442813D01*
X156805723Y-98722949D01*
X156915027Y-98986833D01*
X157073711Y-99224321D01*
X157275679Y-99426289D01*
X157490758Y-99570000D01*
X157275679Y-99713711D01*
X157073711Y-99915679D01*
X156915027Y-100153167D01*
X156805723Y-100417051D01*
X156750000Y-100697187D01*
X156750000Y-100982813D01*
X156805723Y-101262949D01*
X156915027Y-101526833D01*
X157073711Y-101764321D01*
X157275679Y-101966289D01*
X157490758Y-102110000D01*
X157275679Y-102253711D01*
X157073711Y-102455679D01*
X156915027Y-102693167D01*
X156805723Y-102957051D01*
X156750000Y-103237187D01*
X156750000Y-103522813D01*
X156805723Y-103802949D01*
X156915027Y-104066833D01*
X157073711Y-104304321D01*
X157275679Y-104506289D01*
X157367511Y-104567649D01*
X157350000Y-104567581D01*
X157251983Y-104577235D01*
X157157733Y-104605825D01*
X157070871Y-104652254D01*
X156994736Y-104714736D01*
X156932254Y-104790871D01*
X156885825Y-104877733D01*
X156857235Y-104971983D01*
X156847581Y-105070000D01*
X156850000Y-105695000D01*
X156975000Y-105820000D01*
X158100000Y-105820000D01*
X158100000Y-105800000D01*
X158300000Y-105800000D01*
X158300000Y-105820000D01*
X158320000Y-105820000D01*
X158320000Y-106020000D01*
X158300000Y-106020000D01*
X158300000Y-107145000D01*
X158425000Y-107270000D01*
X159050000Y-107272419D01*
X159148017Y-107262765D01*
X159242267Y-107234175D01*
X159329129Y-107187746D01*
X159375000Y-107150101D01*
X159375000Y-107375000D01*
X141625000Y-107375000D01*
X141625000Y-107124812D01*
X141683683Y-107196317D01*
X141775045Y-107271296D01*
X141879279Y-107327010D01*
X141992379Y-107361318D01*
X142110000Y-107372903D01*
X143810000Y-107372903D01*
X143927621Y-107361318D01*
X144040721Y-107327010D01*
X144144955Y-107271296D01*
X144236317Y-107196317D01*
X144311296Y-107104955D01*
X144367010Y-107000721D01*
X144401318Y-106887621D01*
X144412903Y-106770000D01*
X156847581Y-106770000D01*
X156857235Y-106868017D01*
X156885825Y-106962267D01*
X156932254Y-107049129D01*
X156994736Y-107125264D01*
X157070871Y-107187746D01*
X157157733Y-107234175D01*
X157251983Y-107262765D01*
X157350000Y-107272419D01*
X157975000Y-107270000D01*
X158100000Y-107145000D01*
X158100000Y-106020000D01*
X156975000Y-106020000D01*
X156850000Y-106145000D01*
X156847581Y-106770000D01*
X144412903Y-106770000D01*
X144412903Y-105492401D01*
X145887477Y-104017828D01*
X145915132Y-103995132D01*
X146005731Y-103884737D01*
X146073053Y-103758788D01*
X146114509Y-103622125D01*
X146125000Y-103515607D01*
X146125000Y-103515598D01*
X146128506Y-103480001D01*
X146125000Y-103444404D01*
X146125000Y-96124176D01*
X146138429Y-96191689D01*
X146213811Y-96373678D01*
X146323249Y-96537463D01*
X146462537Y-96676751D01*
X146626322Y-96786189D01*
X146808311Y-96861571D01*
X147001509Y-96900000D01*
X147198491Y-96900000D01*
X147391689Y-96861571D01*
X147573678Y-96786189D01*
X147737463Y-96676751D01*
X147789214Y-96625000D01*
X149910786Y-96625000D01*
X149962537Y-96676751D01*
X150126322Y-96786189D01*
X150308311Y-96861571D01*
X150501509Y-96900000D01*
X150698491Y-96900000D01*
X150891689Y-96861571D01*
X151073678Y-96786189D01*
X151237463Y-96676751D01*
X151376751Y-96537463D01*
X151486189Y-96373678D01*
X151561571Y-96191689D01*
X151600000Y-95998491D01*
X151600000Y-95801509D01*
X151561571Y-95608311D01*
X151486189Y-95426322D01*
X151376751Y-95262537D01*
X151237463Y-95123249D01*
X151073678Y-95013811D01*
X150891689Y-94938429D01*
X150698491Y-94900000D01*
X150501509Y-94900000D01*
X150308311Y-94938429D01*
X150126322Y-95013811D01*
X149962537Y-95123249D01*
X149910786Y-95175000D01*
X147789214Y-95175000D01*
X147737463Y-95123249D01*
X147573678Y-95013811D01*
X147391689Y-94938429D01*
X147198491Y-94900000D01*
X147025305Y-94900000D01*
X147187477Y-94737828D01*
X147215132Y-94715132D01*
X147305731Y-94604737D01*
X147373053Y-94478788D01*
X147414509Y-94342125D01*
X147425000Y-94235607D01*
X147425000Y-94235600D01*
X147428506Y-94200000D01*
X147425000Y-94164400D01*
X147425000Y-87300304D01*
X147943671Y-86781634D01*
X147913811Y-86826322D01*
X147838429Y-87008311D01*
X147800000Y-87201509D01*
X147800000Y-87398491D01*
X147838429Y-87591689D01*
X147913811Y-87773678D01*
X148023249Y-87937463D01*
X148162537Y-88076751D01*
X148326322Y-88186189D01*
X148508311Y-88261571D01*
X148701509Y-88300000D01*
X148898491Y-88300000D01*
X149091689Y-88261571D01*
X149273678Y-88186189D01*
X149437463Y-88076751D01*
X149489214Y-88025000D01*
X154210786Y-88025000D01*
X154262537Y-88076751D01*
X154426322Y-88186189D01*
X154608311Y-88261571D01*
X154801509Y-88300000D01*
X154998491Y-88300000D01*
X155191689Y-88261571D01*
X155373678Y-88186189D01*
X155537463Y-88076751D01*
X155676751Y-87937463D01*
X155786189Y-87773678D01*
X155861571Y-87591689D01*
X155900000Y-87398491D01*
X155900000Y-87201509D01*
X155861571Y-87008311D01*
X155786189Y-86826322D01*
X155676751Y-86662537D01*
X155537463Y-86523249D01*
X155373678Y-86413811D01*
X155191689Y-86338429D01*
X154998491Y-86300000D01*
X154801509Y-86300000D01*
X154608311Y-86338429D01*
X154426322Y-86413811D01*
X154262537Y-86523249D01*
X154210786Y-86575000D01*
X149489214Y-86575000D01*
X149437463Y-86523249D01*
X149273678Y-86413811D01*
X149091689Y-86338429D01*
X148898491Y-86300000D01*
X148701509Y-86300000D01*
X148508311Y-86338429D01*
X148326322Y-86413811D01*
X148281634Y-86443670D01*
X148527477Y-86197828D01*
X148555132Y-86175132D01*
X148645731Y-86064737D01*
X148713053Y-85938788D01*
X148754509Y-85802125D01*
X148765000Y-85695607D01*
X148765000Y-85695598D01*
X148768506Y-85660001D01*
X148765000Y-85624404D01*
X148765000Y-76699471D01*
X148964321Y-76566289D01*
X149166289Y-76364321D01*
X149310000Y-76149242D01*
X149453711Y-76364321D01*
X149655679Y-76566289D01*
X149893167Y-76724973D01*
X150157051Y-76834277D01*
X150437187Y-76890000D01*
X150722813Y-76890000D01*
X151002949Y-76834277D01*
X151266833Y-76724973D01*
X151504321Y-76566289D01*
X151706289Y-76364321D01*
X151850000Y-76149242D01*
X151993711Y-76364321D01*
X152195679Y-76566289D01*
X152433167Y-76724973D01*
X152697051Y-76834277D01*
X152977187Y-76890000D01*
X153262813Y-76890000D01*
X153542949Y-76834277D01*
X153806833Y-76724973D01*
X154044321Y-76566289D01*
X154246289Y-76364321D01*
X154404973Y-76126833D01*
X154446737Y-76026005D01*
X154564345Y-76228701D01*
X154739266Y-76427298D01*
X154949570Y-76587954D01*
X155187175Y-76704494D01*
X155350625Y-76754072D01*
X155560000Y-76660912D01*
X155560000Y-75540000D01*
X155760000Y-75540000D01*
X155760000Y-76660912D01*
X155969375Y-76754072D01*
X156132825Y-76704494D01*
X156370430Y-76587954D01*
X156580734Y-76427298D01*
X156755655Y-76228701D01*
X156888470Y-75999795D01*
X156974076Y-75749376D01*
X156881295Y-75540000D01*
X155760000Y-75540000D01*
X155560000Y-75540000D01*
X155540000Y-75540000D01*
X155540000Y-75340000D01*
X155560000Y-75340000D01*
X155560000Y-75320000D01*
X155760000Y-75320000D01*
X155760000Y-75340000D01*
X156881295Y-75340000D01*
X156974076Y-75130624D01*
X156888470Y-74880205D01*
X156755655Y-74651299D01*
X156580734Y-74452702D01*
X156370430Y-74292046D01*
X156132825Y-74175506D01*
X155969375Y-74125928D01*
X155760002Y-74219087D01*
X155760002Y-74100000D01*
X159375000Y-74100000D01*
X159375000Y-77128581D01*
G36*
X143975174Y-75927477D02*
G01*
X143997870Y-75955132D01*
X144025525Y-75977828D01*
X144025527Y-75977830D01*
X144034103Y-75984868D01*
X144047097Y-75995532D01*
X144047097Y-76290000D01*
X144058682Y-76407621D01*
X144092990Y-76520721D01*
X144148704Y-76624955D01*
X144223683Y-76716317D01*
X144315045Y-76791296D01*
X144419279Y-76847010D01*
X144532379Y-76881318D01*
X144650000Y-76892903D01*
X144887944Y-76892903D01*
X144894269Y-76904736D01*
X144962170Y-76987474D01*
X144962173Y-76987477D01*
X144984869Y-77015132D01*
X145012523Y-77037827D01*
X146275000Y-78300305D01*
X146275001Y-84699694D01*
X145012524Y-85962172D01*
X144984868Y-85984869D01*
X144894269Y-86095264D01*
X144826947Y-86221213D01*
X144785491Y-86357876D01*
X144775000Y-86464394D01*
X144775000Y-86464403D01*
X144771494Y-86500000D01*
X144775000Y-86535597D01*
X144775001Y-92919694D01*
X144410000Y-93284695D01*
X144410000Y-93077187D01*
X144354277Y-92797051D01*
X144244973Y-92533167D01*
X144086289Y-92295679D01*
X143884321Y-92093711D01*
X143646833Y-91935027D01*
X143546005Y-91893263D01*
X143748701Y-91775655D01*
X143947298Y-91600734D01*
X144107954Y-91390430D01*
X144224494Y-91152825D01*
X144274072Y-90989375D01*
X144180912Y-90780000D01*
X143060000Y-90780000D01*
X143060000Y-90800000D01*
X142860000Y-90800000D01*
X142860000Y-90780000D01*
X142840000Y-90780000D01*
X142840000Y-90580000D01*
X142860000Y-90580000D01*
X142860000Y-90560000D01*
X143060000Y-90560000D01*
X143060000Y-90580000D01*
X144180912Y-90580000D01*
X144274072Y-90370625D01*
X144224494Y-90207175D01*
X144107954Y-89969570D01*
X143947298Y-89759266D01*
X143748701Y-89584345D01*
X143546005Y-89466737D01*
X143646833Y-89424973D01*
X143884321Y-89266289D01*
X144086289Y-89064321D01*
X144244973Y-88826833D01*
X144354277Y-88562949D01*
X144410000Y-88282813D01*
X144410000Y-87997187D01*
X144354277Y-87717051D01*
X144244973Y-87453167D01*
X144086289Y-87215679D01*
X143884321Y-87013711D01*
X143669242Y-86870000D01*
X143884321Y-86726289D01*
X144086289Y-86524321D01*
X144244973Y-86286833D01*
X144354277Y-86022949D01*
X144410000Y-85742813D01*
X144410000Y-85457187D01*
X144354277Y-85177051D01*
X144244973Y-84913167D01*
X144086289Y-84675679D01*
X143884321Y-84473711D01*
X143669242Y-84330000D01*
X143884321Y-84186289D01*
X144086289Y-83984321D01*
X144244973Y-83746833D01*
X144354277Y-83482949D01*
X144410000Y-83202813D01*
X144410000Y-82917187D01*
X144354277Y-82637051D01*
X144244973Y-82373167D01*
X144086289Y-82135679D01*
X143884321Y-81933711D01*
X143669242Y-81790000D01*
X143884321Y-81646289D01*
X144086289Y-81444321D01*
X144244973Y-81206833D01*
X144354277Y-80942949D01*
X144410000Y-80662813D01*
X144410000Y-80377187D01*
X144354277Y-80097051D01*
X144244973Y-79833167D01*
X144086289Y-79595679D01*
X143884321Y-79393711D01*
X143669242Y-79250000D01*
X143884321Y-79106289D01*
X144086289Y-78904321D01*
X144244973Y-78666833D01*
X144354277Y-78402949D01*
X144410000Y-78122813D01*
X144410000Y-77837187D01*
X144354277Y-77557051D01*
X144244973Y-77293167D01*
X144086289Y-77055679D01*
X143884321Y-76853711D01*
X143646833Y-76695027D01*
X143382949Y-76585723D01*
X143102813Y-76530000D01*
X142817187Y-76530000D01*
X142537051Y-76585723D01*
X142273167Y-76695027D01*
X142035679Y-76853711D01*
X141833711Y-77055679D01*
X141675027Y-77293167D01*
X141625000Y-77413943D01*
X141625000Y-77030704D01*
X141628024Y-77000000D01*
X141615957Y-76877479D01*
X141580219Y-76759666D01*
X141522183Y-76651089D01*
X141444080Y-76555920D01*
X141348911Y-76477817D01*
X141240334Y-76419781D01*
X141122521Y-76384043D01*
X141100000Y-76381825D01*
X141100000Y-74430316D01*
X141155326Y-74374990D01*
X142422688Y-74374990D01*
X143975174Y-75927477D01*
G37*
X143975174Y-75927477D02*
X143997870Y-75955132D01*
X144025525Y-75977828D01*
X144025527Y-75977830D01*
X144034103Y-75984868D01*
X144047097Y-75995532D01*
X144047097Y-76290000D01*
X144058682Y-76407621D01*
X144092990Y-76520721D01*
X144148704Y-76624955D01*
X144223683Y-76716317D01*
X144315045Y-76791296D01*
X144419279Y-76847010D01*
X144532379Y-76881318D01*
X144650000Y-76892903D01*
X144887944Y-76892903D01*
X144894269Y-76904736D01*
X144962170Y-76987474D01*
X144962173Y-76987477D01*
X144984869Y-77015132D01*
X145012523Y-77037827D01*
X146275000Y-78300305D01*
X146275001Y-84699694D01*
X145012524Y-85962172D01*
X144984868Y-85984869D01*
X144894269Y-86095264D01*
X144826947Y-86221213D01*
X144785491Y-86357876D01*
X144775000Y-86464394D01*
X144775000Y-86464403D01*
X144771494Y-86500000D01*
X144775000Y-86535597D01*
X144775001Y-92919694D01*
X144410000Y-93284695D01*
X144410000Y-93077187D01*
X144354277Y-92797051D01*
X144244973Y-92533167D01*
X144086289Y-92295679D01*
X143884321Y-92093711D01*
X143646833Y-91935027D01*
X143546005Y-91893263D01*
X143748701Y-91775655D01*
X143947298Y-91600734D01*
X144107954Y-91390430D01*
X144224494Y-91152825D01*
X144274072Y-90989375D01*
X144180912Y-90780000D01*
X143060000Y-90780000D01*
X143060000Y-90800000D01*
X142860000Y-90800000D01*
X142860000Y-90780000D01*
X142840000Y-90780000D01*
X142840000Y-90580000D01*
X142860000Y-90580000D01*
X142860000Y-90560000D01*
X143060000Y-90560000D01*
X143060000Y-90580000D01*
X144180912Y-90580000D01*
X144274072Y-90370625D01*
X144224494Y-90207175D01*
X144107954Y-89969570D01*
X143947298Y-89759266D01*
X143748701Y-89584345D01*
X143546005Y-89466737D01*
X143646833Y-89424973D01*
X143884321Y-89266289D01*
X144086289Y-89064321D01*
X144244973Y-88826833D01*
X144354277Y-88562949D01*
X144410000Y-88282813D01*
X144410000Y-87997187D01*
X144354277Y-87717051D01*
X144244973Y-87453167D01*
X144086289Y-87215679D01*
X143884321Y-87013711D01*
X143669242Y-86870000D01*
X143884321Y-86726289D01*
X144086289Y-86524321D01*
X144244973Y-86286833D01*
X144354277Y-86022949D01*
X144410000Y-85742813D01*
X144410000Y-85457187D01*
X144354277Y-85177051D01*
X144244973Y-84913167D01*
X144086289Y-84675679D01*
X143884321Y-84473711D01*
X143669242Y-84330000D01*
X143884321Y-84186289D01*
X144086289Y-83984321D01*
X144244973Y-83746833D01*
X144354277Y-83482949D01*
X144410000Y-83202813D01*
X144410000Y-82917187D01*
X144354277Y-82637051D01*
X144244973Y-82373167D01*
X144086289Y-82135679D01*
X143884321Y-81933711D01*
X143669242Y-81790000D01*
X143884321Y-81646289D01*
X144086289Y-81444321D01*
X144244973Y-81206833D01*
X144354277Y-80942949D01*
X144410000Y-80662813D01*
X144410000Y-80377187D01*
X144354277Y-80097051D01*
X144244973Y-79833167D01*
X144086289Y-79595679D01*
X143884321Y-79393711D01*
X143669242Y-79250000D01*
X143884321Y-79106289D01*
X144086289Y-78904321D01*
X144244973Y-78666833D01*
X144354277Y-78402949D01*
X144410000Y-78122813D01*
X144410000Y-77837187D01*
X144354277Y-77557051D01*
X144244973Y-77293167D01*
X144086289Y-77055679D01*
X143884321Y-76853711D01*
X143646833Y-76695027D01*
X143382949Y-76585723D01*
X143102813Y-76530000D01*
X142817187Y-76530000D01*
X142537051Y-76585723D01*
X142273167Y-76695027D01*
X142035679Y-76853711D01*
X141833711Y-77055679D01*
X141675027Y-77293167D01*
X141625000Y-77413943D01*
X141625000Y-77030704D01*
X141628024Y-77000000D01*
X141615957Y-76877479D01*
X141580219Y-76759666D01*
X141522183Y-76651089D01*
X141444080Y-76555920D01*
X141348911Y-76477817D01*
X141240334Y-76419781D01*
X141122521Y-76384043D01*
X141100000Y-76381825D01*
X141100000Y-74430316D01*
X141155326Y-74374990D01*
X142422688Y-74374990D01*
X143975174Y-75927477D01*
%TD*%
M02*
