%TF.GenerationSoftware,KiCad,Pcbnew,(5.1.6)-1*%
%TF.CreationDate,2021-03-30T00:51:02+09:00*%
%TF.ProjectId,CubBELMonitor,43756242-454c-44d6-9f6e-69746f722e6b,rev?*%
%TF.SameCoordinates,Original*%
%TF.FileFunction,Copper,L2,Bot*%
%TF.FilePolarity,Positive*%
%FSLAX46Y46*%
G04 Gerber Fmt 4.6, Leading zero omitted, Abs format (unit mm)*
G04 Created by KiCad (PCBNEW (5.1.6)-1) date 2021-03-30 00:51:02*
%MOMM*%
%LPD*%
G01*
G04 APERTURE LIST*
%TA.AperFunction,ComponentPad*%
%ADD10O,1.950000X1.700000*%
%TD*%
%TA.AperFunction,ComponentPad*%
%ADD11O,2.000000X1.700000*%
%TD*%
%TA.AperFunction,SMDPad,CuDef*%
%ADD12R,1.200000X4.000000*%
%TD*%
%TA.AperFunction,SMDPad,CuDef*%
%ADD13R,0.800000X0.900000*%
%TD*%
%TA.AperFunction,ComponentPad*%
%ADD14R,1.700000X1.700000*%
%TD*%
%TA.AperFunction,ComponentPad*%
%ADD15O,1.700000X1.700000*%
%TD*%
%TA.AperFunction,ComponentPad*%
%ADD16O,1.700000X1.950000*%
%TD*%
%TA.AperFunction,ComponentPad*%
%ADD17O,1.700000X2.000000*%
%TD*%
%TA.AperFunction,SMDPad,CuDef*%
%ADD18R,0.500000X1.600000*%
%TD*%
%TA.AperFunction,ViaPad*%
%ADD19C,4.000000*%
%TD*%
%TA.AperFunction,ViaPad*%
%ADD20C,0.800000*%
%TD*%
%TA.AperFunction,ViaPad*%
%ADD21C,1.000000*%
%TD*%
%TA.AperFunction,Conductor*%
%ADD22C,0.750000*%
%TD*%
%TA.AperFunction,Conductor*%
%ADD23C,0.250000*%
%TD*%
%TA.AperFunction,Conductor*%
%ADD24C,0.200000*%
%TD*%
G04 APERTURE END LIST*
D10*
%TO.P,P2,4*%
%TO.N,/shift_4*%
X70000000Y-77500000D03*
%TO.P,P2,3*%
%TO.N,/shift_3*%
X70000000Y-75000000D03*
%TO.P,P2,2*%
%TO.N,/shift_2*%
X70000000Y-72500000D03*
%TO.P,P2,1*%
%TO.N,/shift_1*%
%TA.AperFunction,ComponentPad*%
G36*
G01*
X69275000Y-69150000D02*
X70725000Y-69150000D01*
G75*
G02*
X70975000Y-69400000I0J-250000D01*
G01*
X70975000Y-70600000D01*
G75*
G02*
X70725000Y-70850000I-250000J0D01*
G01*
X69275000Y-70850000D01*
G75*
G02*
X69025000Y-70600000I0J250000D01*
G01*
X69025000Y-69400000D01*
G75*
G02*
X69275000Y-69150000I250000J0D01*
G01*
G37*
%TD.AperFunction*%
%TD*%
D11*
%TO.P,P6,2*%
%TO.N,N/C*%
X136000000Y-78500000D03*
%TO.P,P6,1*%
%TO.N,Net-(P6-Pad1)*%
%TA.AperFunction,ComponentPad*%
G36*
G01*
X136750000Y-81850000D02*
X135250000Y-81850000D01*
G75*
G02*
X135000000Y-81600000I0J250000D01*
G01*
X135000000Y-80400000D01*
G75*
G02*
X135250000Y-80150000I250000J0D01*
G01*
X136750000Y-80150000D01*
G75*
G02*
X137000000Y-80400000I0J-250000D01*
G01*
X137000000Y-81600000D01*
G75*
G02*
X136750000Y-81850000I-250000J0D01*
G01*
G37*
%TD.AperFunction*%
%TD*%
D12*
%TO.P,P21,1*%
%TO.N,Net-(P21-Pad1)*%
X125645000Y-43088000D03*
%TO.P,P21,2*%
%TO.N,Net-(P21-Pad2)*%
X123105000Y-43088000D03*
%TD*%
%TO.P,R34,1*%
%TO.N,/DTR*%
%TA.AperFunction,SMDPad,CuDef*%
G36*
G01*
X152341500Y-96475000D02*
X151866500Y-96475000D01*
G75*
G02*
X151629000Y-96237500I0J237500D01*
G01*
X151629000Y-95662500D01*
G75*
G02*
X151866500Y-95425000I237500J0D01*
G01*
X152341500Y-95425000D01*
G75*
G02*
X152579000Y-95662500I0J-237500D01*
G01*
X152579000Y-96237500D01*
G75*
G02*
X152341500Y-96475000I-237500J0D01*
G01*
G37*
%TD.AperFunction*%
%TO.P,R34,2*%
%TO.N,Net-(Q32-Pad1)*%
%TA.AperFunction,SMDPad,CuDef*%
G36*
G01*
X152341500Y-94725000D02*
X151866500Y-94725000D01*
G75*
G02*
X151629000Y-94487500I0J237500D01*
G01*
X151629000Y-93912500D01*
G75*
G02*
X151866500Y-93675000I237500J0D01*
G01*
X152341500Y-93675000D01*
G75*
G02*
X152579000Y-93912500I0J-237500D01*
G01*
X152579000Y-94487500D01*
G75*
G02*
X152341500Y-94725000I-237500J0D01*
G01*
G37*
%TD.AperFunction*%
%TD*%
%TO.P,R33,1*%
%TO.N,Net-(Q31-Pad1)*%
%TA.AperFunction,SMDPad,CuDef*%
G36*
G01*
X148762500Y-93700000D02*
X149237500Y-93700000D01*
G75*
G02*
X149475000Y-93937500I0J-237500D01*
G01*
X149475000Y-94512500D01*
G75*
G02*
X149237500Y-94750000I-237500J0D01*
G01*
X148762500Y-94750000D01*
G75*
G02*
X148525000Y-94512500I0J237500D01*
G01*
X148525000Y-93937500D01*
G75*
G02*
X148762500Y-93700000I237500J0D01*
G01*
G37*
%TD.AperFunction*%
%TO.P,R33,2*%
%TO.N,/RTS*%
%TA.AperFunction,SMDPad,CuDef*%
G36*
G01*
X148762500Y-95450000D02*
X149237500Y-95450000D01*
G75*
G02*
X149475000Y-95687500I0J-237500D01*
G01*
X149475000Y-96262500D01*
G75*
G02*
X149237500Y-96500000I-237500J0D01*
G01*
X148762500Y-96500000D01*
G75*
G02*
X148525000Y-96262500I0J237500D01*
G01*
X148525000Y-95687500D01*
G75*
G02*
X148762500Y-95450000I237500J0D01*
G01*
G37*
%TD.AperFunction*%
%TD*%
%TO.P,R32,1*%
%TO.N,VCC*%
%TA.AperFunction,SMDPad,CuDef*%
G36*
G01*
X148305000Y-86167500D02*
X148305000Y-85692500D01*
G75*
G02*
X148542500Y-85455000I237500J0D01*
G01*
X149117500Y-85455000D01*
G75*
G02*
X149355000Y-85692500I0J-237500D01*
G01*
X149355000Y-86167500D01*
G75*
G02*
X149117500Y-86405000I-237500J0D01*
G01*
X148542500Y-86405000D01*
G75*
G02*
X148305000Y-86167500I0J237500D01*
G01*
G37*
%TD.AperFunction*%
%TO.P,R32,2*%
%TO.N,/IO0*%
%TA.AperFunction,SMDPad,CuDef*%
G36*
G01*
X150055000Y-86167500D02*
X150055000Y-85692500D01*
G75*
G02*
X150292500Y-85455000I237500J0D01*
G01*
X150867500Y-85455000D01*
G75*
G02*
X151105000Y-85692500I0J-237500D01*
G01*
X151105000Y-86167500D01*
G75*
G02*
X150867500Y-86405000I-237500J0D01*
G01*
X150292500Y-86405000D01*
G75*
G02*
X150055000Y-86167500I0J237500D01*
G01*
G37*
%TD.AperFunction*%
%TD*%
%TO.P,R31,1*%
%TO.N,VCC*%
%TA.AperFunction,SMDPad,CuDef*%
G36*
G01*
X155395000Y-85692500D02*
X155395000Y-86167500D01*
G75*
G02*
X155157500Y-86405000I-237500J0D01*
G01*
X154582500Y-86405000D01*
G75*
G02*
X154345000Y-86167500I0J237500D01*
G01*
X154345000Y-85692500D01*
G75*
G02*
X154582500Y-85455000I237500J0D01*
G01*
X155157500Y-85455000D01*
G75*
G02*
X155395000Y-85692500I0J-237500D01*
G01*
G37*
%TD.AperFunction*%
%TO.P,R31,2*%
%TO.N,/EN*%
%TA.AperFunction,SMDPad,CuDef*%
G36*
G01*
X153645000Y-85692500D02*
X153645000Y-86167500D01*
G75*
G02*
X153407500Y-86405000I-237500J0D01*
G01*
X152832500Y-86405000D01*
G75*
G02*
X152595000Y-86167500I0J237500D01*
G01*
X152595000Y-85692500D01*
G75*
G02*
X152832500Y-85455000I237500J0D01*
G01*
X153407500Y-85455000D01*
G75*
G02*
X153645000Y-85692500I0J-237500D01*
G01*
G37*
%TD.AperFunction*%
%TD*%
%TO.P,R22,1*%
%TO.N,Net-(D10-Pad3)*%
%TA.AperFunction,SMDPad,CuDef*%
G36*
G01*
X123375500Y-37384000D02*
X123850500Y-37384000D01*
G75*
G02*
X124088000Y-37621500I0J-237500D01*
G01*
X124088000Y-38196500D01*
G75*
G02*
X123850500Y-38434000I-237500J0D01*
G01*
X123375500Y-38434000D01*
G75*
G02*
X123138000Y-38196500I0J237500D01*
G01*
X123138000Y-37621500D01*
G75*
G02*
X123375500Y-37384000I237500J0D01*
G01*
G37*
%TD.AperFunction*%
%TO.P,R22,2*%
%TO.N,Net-(P21-Pad2)*%
%TA.AperFunction,SMDPad,CuDef*%
G36*
G01*
X123375500Y-39134000D02*
X123850500Y-39134000D01*
G75*
G02*
X124088000Y-39371500I0J-237500D01*
G01*
X124088000Y-39946500D01*
G75*
G02*
X123850500Y-40184000I-237500J0D01*
G01*
X123375500Y-40184000D01*
G75*
G02*
X123138000Y-39946500I0J237500D01*
G01*
X123138000Y-39371500D01*
G75*
G02*
X123375500Y-39134000I237500J0D01*
G01*
G37*
%TD.AperFunction*%
%TD*%
%TO.P,R21,1*%
%TO.N,Net-(D10-Pad2)*%
%TA.AperFunction,SMDPad,CuDef*%
G36*
G01*
X124772500Y-37384000D02*
X125247500Y-37384000D01*
G75*
G02*
X125485000Y-37621500I0J-237500D01*
G01*
X125485000Y-38196500D01*
G75*
G02*
X125247500Y-38434000I-237500J0D01*
G01*
X124772500Y-38434000D01*
G75*
G02*
X124535000Y-38196500I0J237500D01*
G01*
X124535000Y-37621500D01*
G75*
G02*
X124772500Y-37384000I237500J0D01*
G01*
G37*
%TD.AperFunction*%
%TO.P,R21,2*%
%TO.N,Net-(P20-Pad2)*%
%TA.AperFunction,SMDPad,CuDef*%
G36*
G01*
X124772500Y-39134000D02*
X125247500Y-39134000D01*
G75*
G02*
X125485000Y-39371500I0J-237500D01*
G01*
X125485000Y-39946500D01*
G75*
G02*
X125247500Y-40184000I-237500J0D01*
G01*
X124772500Y-40184000D01*
G75*
G02*
X124535000Y-39946500I0J237500D01*
G01*
X124535000Y-39371500D01*
G75*
G02*
X124772500Y-39134000I237500J0D01*
G01*
G37*
%TD.AperFunction*%
%TD*%
%TO.P,R20,1*%
%TO.N,Net-(D10-Pad1)*%
%TA.AperFunction,SMDPad,CuDef*%
G36*
G01*
X126169500Y-37356000D02*
X126644500Y-37356000D01*
G75*
G02*
X126882000Y-37593500I0J-237500D01*
G01*
X126882000Y-38168500D01*
G75*
G02*
X126644500Y-38406000I-237500J0D01*
G01*
X126169500Y-38406000D01*
G75*
G02*
X125932000Y-38168500I0J237500D01*
G01*
X125932000Y-37593500D01*
G75*
G02*
X126169500Y-37356000I237500J0D01*
G01*
G37*
%TD.AperFunction*%
%TO.P,R20,2*%
%TO.N,Net-(P21-Pad1)*%
%TA.AperFunction,SMDPad,CuDef*%
G36*
G01*
X126169500Y-39106000D02*
X126644500Y-39106000D01*
G75*
G02*
X126882000Y-39343500I0J-237500D01*
G01*
X126882000Y-39918500D01*
G75*
G02*
X126644500Y-40156000I-237500J0D01*
G01*
X126169500Y-40156000D01*
G75*
G02*
X125932000Y-39918500I0J237500D01*
G01*
X125932000Y-39343500D01*
G75*
G02*
X126169500Y-39106000I237500J0D01*
G01*
G37*
%TD.AperFunction*%
%TD*%
D13*
%TO.P,Q32,1*%
%TO.N,Net-(Q32-Pad1)*%
X154070000Y-91378000D03*
%TO.P,Q32,2*%
%TO.N,/RTS*%
X152170000Y-91378000D03*
%TO.P,Q32,3*%
%TO.N,/EN*%
X153120000Y-88978000D03*
%TD*%
%TO.P,Q31,1*%
%TO.N,Net-(Q31-Pad1)*%
X148990000Y-91378000D03*
%TO.P,Q31,2*%
%TO.N,/DTR*%
X147090000Y-91378000D03*
%TO.P,Q31,3*%
%TO.N,/IO0*%
X148040000Y-88978000D03*
%TD*%
D14*
%TO.P,P30,1*%
%TO.N,/ESP32->PC*%
X145500000Y-75440000D03*
D15*
%TO.P,P30,2*%
%TO.N,/ESP32<-PC*%
X148040000Y-75440000D03*
%TO.P,P30,3*%
%TO.N,/IO0*%
X150580000Y-75440000D03*
%TO.P,P30,4*%
%TO.N,/EN*%
X153120000Y-75440000D03*
%TO.P,P30,5*%
%TO.N,GND*%
X155660000Y-75440000D03*
%TD*%
%TO.P,P5,5*%
%TO.N,GND*%
X138000000Y-71250000D03*
%TO.P,P5,4*%
%TO.N,/EN*%
X135460000Y-71250000D03*
%TO.P,P5,3*%
%TO.N,/IO0*%
X132920000Y-71250000D03*
%TO.P,P5,2*%
%TO.N,/ESP32<-PC*%
X130380000Y-71250000D03*
D14*
%TO.P,P5,1*%
%TO.N,/ESP32->PC*%
X127840000Y-71250000D03*
%TD*%
D16*
%TO.P,P4,4*%
%TO.N,Net-(P21-Pad2)*%
X121500000Y-60000000D03*
%TO.P,P4,3*%
%TO.N,Net-(P21-Pad1)*%
X124000000Y-60000000D03*
%TO.P,P4,2*%
%TO.N,Net-(P20-Pad2)*%
X126500000Y-60000000D03*
%TO.P,P4,1*%
%TO.N,Net-(D10-Pad4)*%
%TA.AperFunction,ComponentPad*%
G36*
G01*
X129850000Y-59275000D02*
X129850000Y-60725000D01*
G75*
G02*
X129600000Y-60975000I-250000J0D01*
G01*
X128400000Y-60975000D01*
G75*
G02*
X128150000Y-60725000I0J250000D01*
G01*
X128150000Y-59275000D01*
G75*
G02*
X128400000Y-59025000I250000J0D01*
G01*
X129600000Y-59025000D01*
G75*
G02*
X129850000Y-59275000I0J-250000D01*
G01*
G37*
%TD.AperFunction*%
%TD*%
%TO.P,P3,1*%
%TO.N,Net-(P3-Pad1)*%
%TA.AperFunction,ComponentPad*%
G36*
G01*
X71850000Y-59275000D02*
X71850000Y-60725000D01*
G75*
G02*
X71600000Y-60975000I-250000J0D01*
G01*
X70400000Y-60975000D01*
G75*
G02*
X70150000Y-60725000I0J250000D01*
G01*
X70150000Y-59275000D01*
G75*
G02*
X70400000Y-59025000I250000J0D01*
G01*
X71600000Y-59025000D01*
G75*
G02*
X71850000Y-59275000I0J-250000D01*
G01*
G37*
%TD.AperFunction*%
%TO.P,P3,2*%
%TO.N,GND*%
X68500000Y-60000000D03*
%TO.P,P3,3*%
%TO.N,/ESP32->GNSS*%
X66000000Y-60000000D03*
%TO.P,P3,4*%
%TO.N,/ESP32<-GNSS*%
X63500000Y-60000000D03*
%TD*%
D17*
%TO.P,P1,2*%
%TO.N,GND*%
X134500000Y-60000000D03*
%TO.P,P1,1*%
%TO.N,Net-(P1-Pad1)*%
%TA.AperFunction,ComponentPad*%
G36*
G01*
X137850000Y-59250000D02*
X137850000Y-60750000D01*
G75*
G02*
X137600000Y-61000000I-250000J0D01*
G01*
X136400000Y-61000000D01*
G75*
G02*
X136150000Y-60750000I0J250000D01*
G01*
X136150000Y-59250000D01*
G75*
G02*
X136400000Y-59000000I250000J0D01*
G01*
X137600000Y-59000000D01*
G75*
G02*
X137850000Y-59250000I0J-250000D01*
G01*
G37*
%TD.AperFunction*%
%TD*%
D14*
%TO.P,J2,1*%
%TO.N,GND*%
X158200000Y-105920000D03*
D15*
%TO.P,J2,2*%
%TO.N,N/C*%
X158200000Y-103380000D03*
%TO.P,J2,3*%
X158200000Y-100840000D03*
%TO.P,J2,4*%
X158200000Y-98300000D03*
%TO.P,J2,5*%
X158200000Y-95760000D03*
%TO.P,J2,6*%
X158200000Y-93220000D03*
%TO.P,J2,7*%
X158200000Y-90680000D03*
%TO.P,J2,8*%
X158200000Y-88140000D03*
%TO.P,J2,9*%
X158200000Y-85600000D03*
%TO.P,J2,10*%
X158200000Y-83060000D03*
%TO.P,J2,11*%
X158200000Y-80520000D03*
%TO.P,J2,12*%
X158200000Y-77980000D03*
%TD*%
D14*
%TO.P,J1,1*%
%TO.N,/ESP32<-PC*%
X142960000Y-105920000D03*
D15*
%TO.P,J1,2*%
%TO.N,/DTR*%
X142960000Y-103380000D03*
%TO.P,J1,3*%
%TO.N,/RTS*%
X142960000Y-100840000D03*
%TO.P,J1,4*%
%TO.N,VCC*%
X142960000Y-98300000D03*
%TO.P,J1,5*%
%TO.N,/ESP32->PC*%
X142960000Y-95760000D03*
%TO.P,J1,6*%
%TO.N,N/C*%
X142960000Y-93220000D03*
%TO.P,J1,7*%
%TO.N,GND*%
X142960000Y-90680000D03*
%TO.P,J1,8*%
%TO.N,N/C*%
X142960000Y-88140000D03*
%TO.P,J1,9*%
X142960000Y-85600000D03*
%TO.P,J1,10*%
X142960000Y-83060000D03*
%TO.P,J1,11*%
X142960000Y-80520000D03*
%TO.P,J1,12*%
X142960000Y-77980000D03*
%TD*%
D18*
%TO.P,D10,6*%
%TO.N,Net-(D10-Pad4)*%
X125910000Y-32899000D03*
%TO.P,D10,5*%
X125010000Y-32899000D03*
%TO.P,D10,4*%
X124110000Y-32899000D03*
%TO.P,D10,3*%
%TO.N,Net-(D10-Pad3)*%
X124110000Y-35849000D03*
%TO.P,D10,2*%
%TO.N,Net-(D10-Pad2)*%
X125010000Y-35849000D03*
%TO.P,D10,1*%
%TO.N,Net-(D10-Pad1)*%
X125910000Y-35849000D03*
%TD*%
%TO.P,C31,1*%
%TO.N,/EN*%
%TA.AperFunction,SMDPad,CuDef*%
G36*
G01*
X152545000Y-79954001D02*
X152545000Y-79053999D01*
G75*
G02*
X152794999Y-78804000I249999J0D01*
G01*
X153445001Y-78804000D01*
G75*
G02*
X153695000Y-79053999I0J-249999D01*
G01*
X153695000Y-79954001D01*
G75*
G02*
X153445001Y-80204000I-249999J0D01*
G01*
X152794999Y-80204000D01*
G75*
G02*
X152545000Y-79954001I0J249999D01*
G01*
G37*
%TD.AperFunction*%
%TO.P,C31,2*%
%TO.N,GND*%
%TA.AperFunction,SMDPad,CuDef*%
G36*
G01*
X154595000Y-79954001D02*
X154595000Y-79053999D01*
G75*
G02*
X154844999Y-78804000I249999J0D01*
G01*
X155495001Y-78804000D01*
G75*
G02*
X155745000Y-79053999I0J-249999D01*
G01*
X155745000Y-79954001D01*
G75*
G02*
X155495001Y-80204000I-249999J0D01*
G01*
X154844999Y-80204000D01*
G75*
G02*
X154595000Y-79954001I0J249999D01*
G01*
G37*
%TD.AperFunction*%
%TD*%
D19*
%TO.N,GND*%
X92000000Y-71900000D03*
D20*
X62000000Y-83000000D03*
X71000000Y-83000000D03*
X62500000Y-77500000D03*
X62500000Y-75000000D03*
X62500000Y-80000000D03*
X63000000Y-70000000D03*
X65500000Y-72500000D03*
X64500000Y-77500000D03*
X67000000Y-74000000D03*
X64500000Y-80000000D03*
X66500000Y-80000000D03*
X66500000Y-77500000D03*
X68500000Y-80000000D03*
X68500000Y-78500000D03*
X71000000Y-80000000D03*
X71500000Y-73500000D03*
X64000000Y-67500000D03*
X67000000Y-70000000D03*
X68500000Y-67500000D03*
X64500000Y-63500000D03*
X71500000Y-67000000D03*
X66500000Y-62000000D03*
X71500000Y-62000000D03*
X61500000Y-51500000D03*
X61500000Y-53000000D03*
X62500000Y-51500000D03*
X68500000Y-54000000D03*
X69500000Y-54000000D03*
X84000000Y-83500000D03*
X83500000Y-58500000D03*
X84500000Y-58500000D03*
X100000000Y-82000000D03*
X102500000Y-80500000D03*
X105500000Y-77500000D03*
X104000000Y-66000000D03*
X106500000Y-68000000D03*
X111000000Y-74000000D03*
X114000000Y-74000000D03*
X109000000Y-68500000D03*
X121500000Y-74000000D03*
X118000000Y-74000000D03*
X121500000Y-69000000D03*
X124000000Y-69000000D03*
X117000000Y-69000000D03*
X145500000Y-106500000D03*
X145500000Y-105000000D03*
X142500000Y-75500000D03*
X143500000Y-75500000D03*
X149500000Y-78000000D03*
X149500000Y-84000000D03*
X138000000Y-52000000D03*
X136000000Y-52000000D03*
X138000000Y-54000000D03*
X111000000Y-55000000D03*
X108500000Y-55000000D03*
X119500000Y-58500000D03*
X106500000Y-63500000D03*
X108000000Y-65000000D03*
X125000000Y-62000000D03*
X127000000Y-62000000D03*
X116500000Y-84000000D03*
X116500000Y-77000000D03*
X116500000Y-82500000D03*
X117500000Y-76000000D03*
X119000000Y-76000000D03*
X120500000Y-76000000D03*
X122000000Y-76000000D03*
X123500000Y-76000000D03*
X125000000Y-76000000D03*
X126500000Y-76000000D03*
X130500000Y-76000000D03*
X132000000Y-76000000D03*
X133500000Y-76000000D03*
X135000000Y-76000000D03*
X136500000Y-76000000D03*
X138000000Y-76000000D03*
X139000000Y-75000000D03*
D21*
X132000000Y-83000000D03*
D20*
X125000000Y-74000000D03*
X128500000Y-74000000D03*
X129500000Y-75000000D03*
X104500000Y-55000000D03*
X105500000Y-54000000D03*
X80500000Y-51000000D03*
X125200000Y-57000000D03*
X122800000Y-55200000D03*
X145000000Y-79000000D03*
X145000000Y-84000000D03*
X127000000Y-51400000D03*
X127000000Y-54400000D03*
X120200000Y-51400000D03*
X120200000Y-54400000D03*
X120200000Y-55600000D03*
X124000000Y-52200000D03*
X124000000Y-50800000D03*
X122800000Y-58400000D03*
%TO.N,Net-(D10-Pad4)*%
X126900000Y-44600000D03*
X126900000Y-43100000D03*
X125010000Y-31625000D03*
X126900000Y-41000000D03*
%TO.N,VCC*%
X154900000Y-87300000D03*
X148800000Y-87300000D03*
%TO.N,/DTR*%
X150600000Y-95900000D03*
X147100000Y-95900000D03*
%TO.N,/shift_4*%
X85700000Y-54900000D03*
%TO.N,/shift_3*%
X87000000Y-55700000D03*
%TO.N,/ESP32->GNSS*%
X93200000Y-57325010D03*
%TO.N,/ESP32<-GNSS*%
X94100000Y-56800000D03*
D21*
%TO.N,Net-(P3-Pad1)*%
X71000000Y-53900000D03*
X76500000Y-53200000D03*
D20*
%TO.N,/EN*%
X87100000Y-81900000D03*
%TO.N,/IO0*%
X101500000Y-58100000D03*
%TO.N,/ESP32<-PC*%
X89700000Y-59000000D03*
%TO.N,/ESP32->PC*%
X88300000Y-60200000D03*
%TO.N,Net-(P20-Pad2)*%
X124400000Y-44600000D03*
X124400000Y-41000000D03*
X124375000Y-43088000D03*
%TO.N,/RPM*%
X94700000Y-60700000D03*
X116400000Y-81000000D03*
%TO.N,/LED_R*%
X96000000Y-82000000D03*
X104500000Y-60750000D03*
%TO.N,/LED_G*%
X97250000Y-82000000D03*
X105750000Y-60750000D03*
%TO.N,/LED_B*%
X98500000Y-82000000D03*
X105750000Y-62000000D03*
%TO.N,Net-(P21-Pad1)*%
X125600000Y-44600000D03*
X125645000Y-43088000D03*
X125645000Y-41545000D03*
%TO.N,Net-(P21-Pad2)*%
X123100000Y-44600000D03*
X123105000Y-43088000D03*
X123105000Y-41605000D03*
%TO.N,Net-(R18-Pad2)*%
X106900000Y-72300000D03*
X118100000Y-72300000D03*
%TD*%
D22*
%TO.N,GND*%
X132000000Y-83000000D02*
X132000000Y-76000000D01*
D23*
%TO.N,/EN*%
X153120000Y-75440000D02*
X153120000Y-79504000D01*
X153120000Y-79504000D02*
X153120000Y-85930000D01*
X153120000Y-85930000D02*
X153120000Y-88978000D01*
%TO.N,Net-(D10-Pad1)*%
X125910000Y-37384000D02*
X126407000Y-37881000D01*
X125910000Y-35849000D02*
X125910000Y-37384000D01*
%TO.N,Net-(D10-Pad2)*%
X125010000Y-35849000D02*
X125010000Y-37909000D01*
%TO.N,Net-(D10-Pad3)*%
X124110000Y-37412000D02*
X123613000Y-37909000D01*
X124110000Y-35849000D02*
X124110000Y-37412000D01*
%TO.N,Net-(D10-Pad4)*%
X124110000Y-32899000D02*
X124110000Y-31690000D01*
X124110000Y-31690000D02*
X124400000Y-31400000D01*
X125010000Y-31410000D02*
X125000000Y-31400000D01*
X125010000Y-32899000D02*
X125010000Y-31410000D01*
X124400000Y-31400000D02*
X125000000Y-31400000D01*
X125910000Y-32899000D02*
X125910000Y-31610000D01*
X125700000Y-31400000D02*
X125000000Y-31400000D01*
X125910000Y-31610000D02*
X125700000Y-31400000D01*
X125000000Y-31400000D02*
X125000000Y-31615000D01*
X125000000Y-31615000D02*
X125010000Y-31625000D01*
%TO.N,VCC*%
X154870000Y-85930000D02*
X154870000Y-87270000D01*
X154870000Y-87270000D02*
X154900000Y-87300000D01*
X148800000Y-85960000D02*
X148830000Y-85930000D01*
X148800000Y-87300000D02*
X148800000Y-85960000D01*
X148234315Y-87300000D02*
X145300000Y-90234315D01*
X148800000Y-87300000D02*
X148234315Y-87300000D01*
X145300000Y-95960000D02*
X142960000Y-98300000D01*
X145300000Y-90234315D02*
X145300000Y-95960000D01*
%TO.N,/RTS*%
X142960000Y-100840000D02*
X145860000Y-100840000D01*
X149000000Y-97700000D02*
X149000000Y-95975000D01*
X145860000Y-100840000D02*
X149000000Y-97700000D01*
X149000000Y-95975000D02*
X150500000Y-94475000D01*
X150500000Y-93048000D02*
X152170000Y-91378000D01*
X150500000Y-94475000D02*
X150500000Y-93048000D01*
%TO.N,/DTR*%
X152104000Y-95950000D02*
X152104000Y-99596000D01*
X148320000Y-103380000D02*
X142960000Y-103380000D01*
X152104000Y-99596000D02*
X148320000Y-103380000D01*
X152104000Y-95950000D02*
X150650000Y-95950000D01*
X150650000Y-95950000D02*
X150600000Y-95900000D01*
X147100000Y-91388000D02*
X147090000Y-91378000D01*
X147100000Y-95900000D02*
X147100000Y-91388000D01*
%TO.N,/shift_4*%
X68775000Y-77500000D02*
X70000000Y-77500000D01*
X61800000Y-70525000D02*
X68775000Y-77500000D01*
X61800000Y-58300000D02*
X61800000Y-70525000D01*
X65200000Y-54900000D02*
X61800000Y-58300000D01*
X65200000Y-54900000D02*
X85700000Y-54900000D01*
%TO.N,/shift_3*%
X62300000Y-67300000D02*
X70000000Y-75000000D01*
X84200000Y-55700000D02*
X83900000Y-55400000D01*
X83900000Y-55400000D02*
X65500000Y-55400000D01*
X65500000Y-55400000D02*
X62300000Y-58600000D01*
X87000000Y-55700000D02*
X84200000Y-55700000D01*
X62300000Y-58600000D02*
X62300000Y-67300000D01*
%TO.N,/ESP32->GNSS*%
X66000000Y-58775000D02*
X67475000Y-57300000D01*
X83825010Y-57325010D02*
X93200000Y-57325010D01*
X67475000Y-57300000D02*
X67500000Y-57300000D01*
X68125010Y-56674990D02*
X83174990Y-56674990D01*
X83174990Y-56674990D02*
X83825010Y-57325010D01*
X66000000Y-60000000D02*
X66000000Y-58775000D01*
X67500000Y-57300000D02*
X68125010Y-56674990D01*
%TO.N,/ESP32<-GNSS*%
X67000000Y-56500000D02*
X63500000Y-60000000D01*
X83724979Y-56224979D02*
X84100000Y-56600000D01*
X93900000Y-56600000D02*
X94100000Y-56800000D01*
X84100000Y-56600000D02*
X93900000Y-56600000D01*
X67275021Y-56224979D02*
X67000000Y-56500000D01*
X83724979Y-56224979D02*
X67275021Y-56224979D01*
D22*
%TO.N,Net-(P3-Pad1)*%
X71000000Y-53900000D02*
X75800000Y-53900000D01*
X75800000Y-53900000D02*
X76500000Y-53200000D01*
D23*
%TO.N,Net-(D10-Pad4)*%
X126649990Y-48649990D02*
X126649990Y-44850010D01*
X129000000Y-60000000D02*
X129000000Y-50350010D01*
X129000000Y-50350010D02*
X128855022Y-50350010D01*
X127494988Y-49494988D02*
X126649990Y-48649990D01*
X126649990Y-44850010D02*
X126900000Y-44600000D01*
X128855022Y-50350010D02*
X128000000Y-49494988D01*
X128000000Y-49494988D02*
X127494988Y-49494988D01*
%TO.N,/EN*%
X135460000Y-71250000D02*
X132510000Y-68300000D01*
X132510000Y-68300000D02*
X128013285Y-68300000D01*
X128013285Y-68300000D02*
X127300000Y-68300000D01*
X127300000Y-68300000D02*
X116300000Y-57300000D01*
X116300000Y-57300000D02*
X101100000Y-57300000D01*
X101100000Y-57300000D02*
X100300000Y-58100000D01*
X100300000Y-58100000D02*
X89300000Y-58100000D01*
X89300000Y-58100000D02*
X87100000Y-60300000D01*
X87100000Y-60300000D02*
X87100000Y-81900000D01*
%TO.N,/IO0*%
X101500000Y-58100000D02*
X116300000Y-58100000D01*
X116300000Y-58100000D02*
X127100000Y-68900000D01*
X130570000Y-68900000D02*
X132920000Y-71250000D01*
X127100000Y-68900000D02*
X130570000Y-68900000D01*
%TO.N,/ESP32<-PC*%
X89700000Y-59000000D02*
X116400000Y-59000000D01*
X116400000Y-59000000D02*
X126800000Y-69400000D01*
X128530000Y-69400000D02*
X130380000Y-71250000D01*
X126800000Y-69400000D02*
X128530000Y-69400000D01*
%TO.N,/ESP32->PC*%
X88691226Y-59808774D02*
X88300000Y-60200000D01*
X89835489Y-59808774D02*
X88691226Y-59808774D01*
X116390000Y-59800000D02*
X89844263Y-59800000D01*
X127840000Y-71250000D02*
X116390000Y-59800000D01*
X89844263Y-59800000D02*
X89835489Y-59808774D01*
%TO.N,Net-(P20-Pad2)*%
X125010000Y-40390000D02*
X124400000Y-41000000D01*
X125010000Y-39659000D02*
X125010000Y-40390000D01*
%TO.N,/IO0*%
X150580000Y-75440000D02*
X150580000Y-85930000D01*
X148040000Y-88978000D02*
X149322000Y-88978000D01*
X150580000Y-87720000D02*
X150580000Y-85930000D01*
X149322000Y-88978000D02*
X150580000Y-87720000D01*
%TO.N,Net-(Q31-Pad1)*%
X149000000Y-91388000D02*
X148990000Y-91378000D01*
X149000000Y-94225000D02*
X149000000Y-91388000D01*
%TO.N,Net-(Q32-Pad1)*%
X154070000Y-91378000D02*
X154070000Y-92930000D01*
X152800000Y-94200000D02*
X152104000Y-94200000D01*
X154070000Y-92930000D02*
X152800000Y-94200000D01*
%TO.N,/RPM*%
X94700000Y-60700000D02*
X94700000Y-82200000D01*
X94700000Y-82200000D02*
X95600000Y-83100000D01*
X95600000Y-83100000D02*
X114300000Y-83100000D01*
X114300000Y-83100000D02*
X116400000Y-81000000D01*
%TO.N,/LED_R*%
X96000000Y-69250000D02*
X104500000Y-60750000D01*
X96000000Y-82000000D02*
X96000000Y-69250000D01*
%TO.N,/LED_G*%
X97250000Y-82000000D02*
X97250000Y-69250000D01*
X97250000Y-69250000D02*
X105750000Y-60750000D01*
%TO.N,/LED_B*%
X98500000Y-69250000D02*
X105750000Y-62000000D01*
X98500000Y-82000000D02*
X98500000Y-69250000D01*
%TO.N,Net-(P21-Pad1)*%
X125645000Y-40393000D02*
X126407000Y-39631000D01*
X125645000Y-43088000D02*
X125645000Y-43088000D01*
X125645000Y-43088000D02*
X125645000Y-41545000D01*
X125645000Y-41545000D02*
X125645000Y-40393000D01*
X124000000Y-56073002D02*
X125000000Y-55073002D01*
X124000000Y-60000000D02*
X124000000Y-56073002D01*
X125000000Y-55073002D02*
X125000000Y-48000000D01*
X125645000Y-43088000D02*
X125645000Y-47355000D01*
X125645000Y-47355000D02*
X125000000Y-48000000D01*
%TO.N,Net-(P21-Pad2)*%
X123105000Y-40167000D02*
X123613000Y-39659000D01*
X123105000Y-43088000D02*
X123105000Y-43088000D01*
X123105000Y-43088000D02*
X123105000Y-41605000D01*
X123105000Y-41605000D02*
X123105000Y-40167000D01*
X121500000Y-49994988D02*
X121500000Y-60000000D01*
X123350010Y-48144978D02*
X121500000Y-49994988D01*
X123105000Y-45338000D02*
X123350010Y-45583010D01*
X123350010Y-45583010D02*
X123350010Y-48144978D01*
X123105000Y-43088000D02*
X123105000Y-45338000D01*
%TO.N,Net-(R18-Pad2)*%
X118100000Y-72300000D02*
X106900000Y-72300000D01*
%TD*%
D24*
%TO.N,GND*%
G36*
X139375001Y-70969286D02*
G01*
X139371976Y-71000000D01*
X139384043Y-71122521D01*
X139419781Y-71240334D01*
X139477817Y-71348911D01*
X139555920Y-71444080D01*
X139651089Y-71522183D01*
X139759666Y-71580219D01*
X139877479Y-71615957D01*
X139900000Y-71618175D01*
X139900000Y-76381825D01*
X139877479Y-76384043D01*
X139759666Y-76419781D01*
X139651089Y-76477817D01*
X139555920Y-76555920D01*
X139477817Y-76651089D01*
X139419781Y-76759666D01*
X139384043Y-76877479D01*
X139371976Y-77000000D01*
X139375001Y-77030714D01*
X139375000Y-84375000D01*
X83100000Y-84375000D01*
X83100000Y-57625305D01*
X83287182Y-57812487D01*
X83309878Y-57840142D01*
X83337533Y-57862838D01*
X83337535Y-57862840D01*
X83377043Y-57895263D01*
X83420273Y-57930741D01*
X83546222Y-57998063D01*
X83682885Y-58039519D01*
X83789403Y-58050010D01*
X83789412Y-58050010D01*
X83825009Y-58053516D01*
X83860606Y-58050010D01*
X88324685Y-58050010D01*
X86612524Y-59762172D01*
X86584868Y-59784869D01*
X86562172Y-59812524D01*
X86562170Y-59812526D01*
X86520082Y-59863811D01*
X86494269Y-59895264D01*
X86426947Y-60021213D01*
X86385491Y-60157876D01*
X86375000Y-60264394D01*
X86375000Y-60264403D01*
X86371494Y-60300000D01*
X86375000Y-60335597D01*
X86375001Y-81210785D01*
X86323249Y-81262537D01*
X86213811Y-81426322D01*
X86138429Y-81608311D01*
X86100000Y-81801509D01*
X86100000Y-81998491D01*
X86138429Y-82191689D01*
X86213811Y-82373678D01*
X86323249Y-82537463D01*
X86462537Y-82676751D01*
X86626322Y-82786189D01*
X86808311Y-82861571D01*
X87001509Y-82900000D01*
X87198491Y-82900000D01*
X87391689Y-82861571D01*
X87573678Y-82786189D01*
X87737463Y-82676751D01*
X87876751Y-82537463D01*
X87986189Y-82373678D01*
X88061571Y-82191689D01*
X88100000Y-81998491D01*
X88100000Y-81801509D01*
X88061571Y-81608311D01*
X87986189Y-81426322D01*
X87876751Y-81262537D01*
X87825000Y-81210786D01*
X87825000Y-61085306D01*
X87826322Y-61086189D01*
X88008311Y-61161571D01*
X88201509Y-61200000D01*
X88398491Y-61200000D01*
X88591689Y-61161571D01*
X88773678Y-61086189D01*
X88937463Y-60976751D01*
X89076751Y-60837463D01*
X89186189Y-60673678D01*
X89244139Y-60533774D01*
X89799892Y-60533774D01*
X89835489Y-60537280D01*
X89871086Y-60533774D01*
X89871096Y-60533774D01*
X89960181Y-60525000D01*
X93715218Y-60525000D01*
X93700000Y-60601509D01*
X93700000Y-60798491D01*
X93738429Y-60991689D01*
X93813811Y-61173678D01*
X93923249Y-61337463D01*
X93975000Y-61389214D01*
X93975001Y-82164393D01*
X93971494Y-82200000D01*
X93975001Y-82235607D01*
X93985492Y-82342125D01*
X93998067Y-82383580D01*
X94026947Y-82478787D01*
X94094269Y-82604736D01*
X94162170Y-82687474D01*
X94162173Y-82687477D01*
X94184869Y-82715132D01*
X94212523Y-82737827D01*
X95062172Y-83587477D01*
X95084868Y-83615132D01*
X95112523Y-83637828D01*
X95112525Y-83637830D01*
X95195263Y-83705731D01*
X95321212Y-83773053D01*
X95457875Y-83814509D01*
X95564393Y-83825000D01*
X95564402Y-83825000D01*
X95599999Y-83828506D01*
X95635596Y-83825000D01*
X114264403Y-83825000D01*
X114300000Y-83828506D01*
X114335597Y-83825000D01*
X114335607Y-83825000D01*
X114442125Y-83814509D01*
X114578788Y-83773053D01*
X114704737Y-83705731D01*
X114815132Y-83615132D01*
X114837832Y-83587472D01*
X116425305Y-82000000D01*
X116498491Y-82000000D01*
X116691689Y-81961571D01*
X116873678Y-81886189D01*
X117037463Y-81776751D01*
X117176751Y-81637463D01*
X117286189Y-81473678D01*
X117361571Y-81291689D01*
X117400000Y-81098491D01*
X117400000Y-80901509D01*
X117361571Y-80708311D01*
X117286189Y-80526322D01*
X117176751Y-80362537D01*
X117037463Y-80223249D01*
X116873678Y-80113811D01*
X116691689Y-80038429D01*
X116498491Y-80000000D01*
X116301509Y-80000000D01*
X116108311Y-80038429D01*
X115926322Y-80113811D01*
X115762537Y-80223249D01*
X115623249Y-80362537D01*
X115513811Y-80526322D01*
X115438429Y-80708311D01*
X115400000Y-80901509D01*
X115400000Y-80974695D01*
X113999696Y-82375000D01*
X99427063Y-82375000D01*
X99461571Y-82291689D01*
X99500000Y-82098491D01*
X99500000Y-81901509D01*
X99461571Y-81708311D01*
X99386189Y-81526322D01*
X99276751Y-81362537D01*
X99225000Y-81310786D01*
X99225000Y-78500000D01*
X134392985Y-78500000D01*
X134420981Y-78784250D01*
X134503894Y-79057576D01*
X134638536Y-79309474D01*
X134819735Y-79530265D01*
X134921032Y-79613397D01*
X134776152Y-79690837D01*
X134646907Y-79796907D01*
X134540837Y-79926152D01*
X134462020Y-80073608D01*
X134413485Y-80233607D01*
X134397097Y-80400000D01*
X134397097Y-81600000D01*
X134413485Y-81766393D01*
X134462020Y-81926392D01*
X134540837Y-82073848D01*
X134646907Y-82203093D01*
X134776152Y-82309163D01*
X134923608Y-82387980D01*
X135083607Y-82436515D01*
X135250000Y-82452903D01*
X136750000Y-82452903D01*
X136916393Y-82436515D01*
X137076392Y-82387980D01*
X137223848Y-82309163D01*
X137353093Y-82203093D01*
X137459163Y-82073848D01*
X137537980Y-81926392D01*
X137586515Y-81766393D01*
X137602903Y-81600000D01*
X137602903Y-80400000D01*
X137586515Y-80233607D01*
X137537980Y-80073608D01*
X137459163Y-79926152D01*
X137353093Y-79796907D01*
X137223848Y-79690837D01*
X137078968Y-79613397D01*
X137180265Y-79530265D01*
X137361464Y-79309474D01*
X137496106Y-79057576D01*
X137579019Y-78784250D01*
X137607015Y-78500000D01*
X137579019Y-78215750D01*
X137496106Y-77942424D01*
X137361464Y-77690526D01*
X137180265Y-77469735D01*
X136959474Y-77288536D01*
X136707576Y-77153894D01*
X136434250Y-77070981D01*
X136221225Y-77050000D01*
X135778775Y-77050000D01*
X135565750Y-77070981D01*
X135292424Y-77153894D01*
X135040526Y-77288536D01*
X134819735Y-77469735D01*
X134638536Y-77690526D01*
X134503894Y-77942424D01*
X134420981Y-78215750D01*
X134392985Y-78500000D01*
X99225000Y-78500000D01*
X99225000Y-72201509D01*
X105900000Y-72201509D01*
X105900000Y-72398491D01*
X105938429Y-72591689D01*
X106013811Y-72773678D01*
X106123249Y-72937463D01*
X106262537Y-73076751D01*
X106426322Y-73186189D01*
X106608311Y-73261571D01*
X106801509Y-73300000D01*
X106998491Y-73300000D01*
X107191689Y-73261571D01*
X107373678Y-73186189D01*
X107537463Y-73076751D01*
X107589214Y-73025000D01*
X117410786Y-73025000D01*
X117462537Y-73076751D01*
X117626322Y-73186189D01*
X117808311Y-73261571D01*
X118001509Y-73300000D01*
X118198491Y-73300000D01*
X118391689Y-73261571D01*
X118573678Y-73186189D01*
X118737463Y-73076751D01*
X118876751Y-72937463D01*
X118986189Y-72773678D01*
X119061571Y-72591689D01*
X119100000Y-72398491D01*
X119100000Y-72201509D01*
X119061571Y-72008311D01*
X118986189Y-71826322D01*
X118876751Y-71662537D01*
X118737463Y-71523249D01*
X118573678Y-71413811D01*
X118391689Y-71338429D01*
X118198491Y-71300000D01*
X118001509Y-71300000D01*
X117808311Y-71338429D01*
X117626322Y-71413811D01*
X117462537Y-71523249D01*
X117410786Y-71575000D01*
X107589214Y-71575000D01*
X107537463Y-71523249D01*
X107373678Y-71413811D01*
X107191689Y-71338429D01*
X106998491Y-71300000D01*
X106801509Y-71300000D01*
X106608311Y-71338429D01*
X106426322Y-71413811D01*
X106262537Y-71523249D01*
X106123249Y-71662537D01*
X106013811Y-71826322D01*
X105938429Y-72008311D01*
X105900000Y-72201509D01*
X99225000Y-72201509D01*
X99225000Y-69550304D01*
X105775305Y-63000000D01*
X105848491Y-63000000D01*
X106041689Y-62961571D01*
X106223678Y-62886189D01*
X106387463Y-62776751D01*
X106526751Y-62637463D01*
X106636189Y-62473678D01*
X106711571Y-62291689D01*
X106750000Y-62098491D01*
X106750000Y-61901509D01*
X106711571Y-61708311D01*
X106636189Y-61526322D01*
X106535079Y-61375000D01*
X106636189Y-61223678D01*
X106711571Y-61041689D01*
X106750000Y-60848491D01*
X106750000Y-60651509D01*
X106724836Y-60525000D01*
X116089696Y-60525000D01*
X126387097Y-70822402D01*
X126387097Y-72100000D01*
X126398682Y-72217621D01*
X126432990Y-72330721D01*
X126488704Y-72434955D01*
X126563683Y-72526317D01*
X126655045Y-72601296D01*
X126759279Y-72657010D01*
X126872379Y-72691318D01*
X126990000Y-72702903D01*
X128690000Y-72702903D01*
X128807621Y-72691318D01*
X128920721Y-72657010D01*
X129024955Y-72601296D01*
X129116317Y-72526317D01*
X129191296Y-72434955D01*
X129247010Y-72330721D01*
X129281318Y-72217621D01*
X129282725Y-72203335D01*
X129455679Y-72376289D01*
X129693167Y-72534973D01*
X129957051Y-72644277D01*
X130237187Y-72700000D01*
X130522813Y-72700000D01*
X130802949Y-72644277D01*
X131066833Y-72534973D01*
X131304321Y-72376289D01*
X131506289Y-72174321D01*
X131650000Y-71959242D01*
X131793711Y-72174321D01*
X131995679Y-72376289D01*
X132233167Y-72534973D01*
X132497051Y-72644277D01*
X132777187Y-72700000D01*
X133062813Y-72700000D01*
X133342949Y-72644277D01*
X133606833Y-72534973D01*
X133844321Y-72376289D01*
X134046289Y-72174321D01*
X134190000Y-71959242D01*
X134333711Y-72174321D01*
X134535679Y-72376289D01*
X134773167Y-72534973D01*
X135037051Y-72644277D01*
X135317187Y-72700000D01*
X135602813Y-72700000D01*
X135882949Y-72644277D01*
X136146833Y-72534973D01*
X136384321Y-72376289D01*
X136586289Y-72174321D01*
X136744973Y-71936833D01*
X136786737Y-71836005D01*
X136904345Y-72038701D01*
X137079266Y-72237298D01*
X137289570Y-72397954D01*
X137527175Y-72514494D01*
X137690625Y-72564072D01*
X137900000Y-72470912D01*
X137900000Y-71350000D01*
X138100000Y-71350000D01*
X138100000Y-72470912D01*
X138309375Y-72564072D01*
X138472825Y-72514494D01*
X138710430Y-72397954D01*
X138920734Y-72237298D01*
X139095655Y-72038701D01*
X139228470Y-71809795D01*
X139314076Y-71559376D01*
X139221295Y-71350000D01*
X138100000Y-71350000D01*
X137900000Y-71350000D01*
X137880000Y-71350000D01*
X137880000Y-71150000D01*
X137900000Y-71150000D01*
X137900000Y-70029088D01*
X138100000Y-70029088D01*
X138100000Y-71150000D01*
X139221295Y-71150000D01*
X139314076Y-70940624D01*
X139228470Y-70690205D01*
X139095655Y-70461299D01*
X138920734Y-70262702D01*
X138710430Y-70102046D01*
X138472825Y-69985506D01*
X138309375Y-69935928D01*
X138100000Y-70029088D01*
X137900000Y-70029088D01*
X137690625Y-69935928D01*
X137527175Y-69985506D01*
X137289570Y-70102046D01*
X137079266Y-70262702D01*
X136904345Y-70461299D01*
X136786737Y-70663995D01*
X136744973Y-70563167D01*
X136586289Y-70325679D01*
X136384321Y-70123711D01*
X136146833Y-69965027D01*
X135882949Y-69855723D01*
X135602813Y-69800000D01*
X135317187Y-69800000D01*
X135082072Y-69846768D01*
X133047832Y-67812528D01*
X133025132Y-67784868D01*
X132914737Y-67694269D01*
X132788788Y-67626947D01*
X132652125Y-67585491D01*
X132545607Y-67575000D01*
X132545597Y-67575000D01*
X132510000Y-67571494D01*
X132474403Y-67575000D01*
X127600305Y-67575000D01*
X121597697Y-61572393D01*
X121784249Y-61554019D01*
X122057575Y-61471106D01*
X122309473Y-61336464D01*
X122530264Y-61155265D01*
X122711464Y-60934474D01*
X122750000Y-60862378D01*
X122788536Y-60934473D01*
X122969735Y-61155264D01*
X123190526Y-61336464D01*
X123442424Y-61471106D01*
X123715750Y-61554019D01*
X124000000Y-61582015D01*
X124284249Y-61554019D01*
X124557575Y-61471106D01*
X124809473Y-61336464D01*
X125030264Y-61155265D01*
X125211464Y-60934474D01*
X125250000Y-60862378D01*
X125288536Y-60934473D01*
X125469735Y-61155264D01*
X125690526Y-61336464D01*
X125942424Y-61471106D01*
X126215750Y-61554019D01*
X126500000Y-61582015D01*
X126784249Y-61554019D01*
X127057575Y-61471106D01*
X127309473Y-61336464D01*
X127530264Y-61155265D01*
X127613397Y-61053968D01*
X127690837Y-61198848D01*
X127796907Y-61328093D01*
X127926152Y-61434163D01*
X128073608Y-61512980D01*
X128233607Y-61561515D01*
X128400000Y-61577903D01*
X129600000Y-61577903D01*
X129766393Y-61561515D01*
X129926392Y-61512980D01*
X130073848Y-61434163D01*
X130203093Y-61328093D01*
X130309163Y-61198848D01*
X130387980Y-61051392D01*
X130436515Y-60891393D01*
X130452903Y-60725000D01*
X130452903Y-60312091D01*
X133156973Y-60312091D01*
X133214401Y-60570988D01*
X133321234Y-60813707D01*
X133473366Y-61030920D01*
X133664951Y-61214280D01*
X133888627Y-61356740D01*
X134135798Y-61452826D01*
X134190625Y-61464072D01*
X134400000Y-61370912D01*
X134400000Y-60100000D01*
X133273151Y-60100000D01*
X133156973Y-60312091D01*
X130452903Y-60312091D01*
X130452903Y-59687909D01*
X133156973Y-59687909D01*
X133273151Y-59900000D01*
X134400000Y-59900000D01*
X134400000Y-58629088D01*
X134600000Y-58629088D01*
X134600000Y-59900000D01*
X134620000Y-59900000D01*
X134620000Y-60100000D01*
X134600000Y-60100000D01*
X134600000Y-61370912D01*
X134809375Y-61464072D01*
X134864202Y-61452826D01*
X135111373Y-61356740D01*
X135335049Y-61214280D01*
X135526634Y-61030920D01*
X135576590Y-60959594D01*
X135612020Y-61076392D01*
X135690837Y-61223848D01*
X135796907Y-61353093D01*
X135926152Y-61459163D01*
X136073608Y-61537980D01*
X136233607Y-61586515D01*
X136400000Y-61602903D01*
X137600000Y-61602903D01*
X137766393Y-61586515D01*
X137926392Y-61537980D01*
X138073848Y-61459163D01*
X138203093Y-61353093D01*
X138309163Y-61223848D01*
X138387980Y-61076392D01*
X138436515Y-60916393D01*
X138452903Y-60750000D01*
X138452903Y-59250000D01*
X138436515Y-59083607D01*
X138387980Y-58923608D01*
X138309163Y-58776152D01*
X138203093Y-58646907D01*
X138073848Y-58540837D01*
X137926392Y-58462020D01*
X137766393Y-58413485D01*
X137600000Y-58397097D01*
X136400000Y-58397097D01*
X136233607Y-58413485D01*
X136073608Y-58462020D01*
X135926152Y-58540837D01*
X135796907Y-58646907D01*
X135690837Y-58776152D01*
X135612020Y-58923608D01*
X135576590Y-59040406D01*
X135526634Y-58969080D01*
X135335049Y-58785720D01*
X135111373Y-58643260D01*
X134864202Y-58547174D01*
X134809375Y-58535928D01*
X134600000Y-58629088D01*
X134400000Y-58629088D01*
X134190625Y-58535928D01*
X134135798Y-58547174D01*
X133888627Y-58643260D01*
X133664951Y-58785720D01*
X133473366Y-58969080D01*
X133321234Y-59186293D01*
X133214401Y-59429012D01*
X133156973Y-59687909D01*
X130452903Y-59687909D01*
X130452903Y-59275000D01*
X130436515Y-59108607D01*
X130387980Y-58948608D01*
X130309163Y-58801152D01*
X130203093Y-58671907D01*
X130073848Y-58565837D01*
X129926392Y-58487020D01*
X129766393Y-58438485D01*
X129725000Y-58434408D01*
X129725000Y-50625000D01*
X139375000Y-50625000D01*
X139375001Y-70969286D01*
G37*
X139375001Y-70969286D02*
X139371976Y-71000000D01*
X139384043Y-71122521D01*
X139419781Y-71240334D01*
X139477817Y-71348911D01*
X139555920Y-71444080D01*
X139651089Y-71522183D01*
X139759666Y-71580219D01*
X139877479Y-71615957D01*
X139900000Y-71618175D01*
X139900000Y-76381825D01*
X139877479Y-76384043D01*
X139759666Y-76419781D01*
X139651089Y-76477817D01*
X139555920Y-76555920D01*
X139477817Y-76651089D01*
X139419781Y-76759666D01*
X139384043Y-76877479D01*
X139371976Y-77000000D01*
X139375001Y-77030714D01*
X139375000Y-84375000D01*
X83100000Y-84375000D01*
X83100000Y-57625305D01*
X83287182Y-57812487D01*
X83309878Y-57840142D01*
X83337533Y-57862838D01*
X83337535Y-57862840D01*
X83377043Y-57895263D01*
X83420273Y-57930741D01*
X83546222Y-57998063D01*
X83682885Y-58039519D01*
X83789403Y-58050010D01*
X83789412Y-58050010D01*
X83825009Y-58053516D01*
X83860606Y-58050010D01*
X88324685Y-58050010D01*
X86612524Y-59762172D01*
X86584868Y-59784869D01*
X86562172Y-59812524D01*
X86562170Y-59812526D01*
X86520082Y-59863811D01*
X86494269Y-59895264D01*
X86426947Y-60021213D01*
X86385491Y-60157876D01*
X86375000Y-60264394D01*
X86375000Y-60264403D01*
X86371494Y-60300000D01*
X86375000Y-60335597D01*
X86375001Y-81210785D01*
X86323249Y-81262537D01*
X86213811Y-81426322D01*
X86138429Y-81608311D01*
X86100000Y-81801509D01*
X86100000Y-81998491D01*
X86138429Y-82191689D01*
X86213811Y-82373678D01*
X86323249Y-82537463D01*
X86462537Y-82676751D01*
X86626322Y-82786189D01*
X86808311Y-82861571D01*
X87001509Y-82900000D01*
X87198491Y-82900000D01*
X87391689Y-82861571D01*
X87573678Y-82786189D01*
X87737463Y-82676751D01*
X87876751Y-82537463D01*
X87986189Y-82373678D01*
X88061571Y-82191689D01*
X88100000Y-81998491D01*
X88100000Y-81801509D01*
X88061571Y-81608311D01*
X87986189Y-81426322D01*
X87876751Y-81262537D01*
X87825000Y-81210786D01*
X87825000Y-61085306D01*
X87826322Y-61086189D01*
X88008311Y-61161571D01*
X88201509Y-61200000D01*
X88398491Y-61200000D01*
X88591689Y-61161571D01*
X88773678Y-61086189D01*
X88937463Y-60976751D01*
X89076751Y-60837463D01*
X89186189Y-60673678D01*
X89244139Y-60533774D01*
X89799892Y-60533774D01*
X89835489Y-60537280D01*
X89871086Y-60533774D01*
X89871096Y-60533774D01*
X89960181Y-60525000D01*
X93715218Y-60525000D01*
X93700000Y-60601509D01*
X93700000Y-60798491D01*
X93738429Y-60991689D01*
X93813811Y-61173678D01*
X93923249Y-61337463D01*
X93975000Y-61389214D01*
X93975001Y-82164393D01*
X93971494Y-82200000D01*
X93975001Y-82235607D01*
X93985492Y-82342125D01*
X93998067Y-82383580D01*
X94026947Y-82478787D01*
X94094269Y-82604736D01*
X94162170Y-82687474D01*
X94162173Y-82687477D01*
X94184869Y-82715132D01*
X94212523Y-82737827D01*
X95062172Y-83587477D01*
X95084868Y-83615132D01*
X95112523Y-83637828D01*
X95112525Y-83637830D01*
X95195263Y-83705731D01*
X95321212Y-83773053D01*
X95457875Y-83814509D01*
X95564393Y-83825000D01*
X95564402Y-83825000D01*
X95599999Y-83828506D01*
X95635596Y-83825000D01*
X114264403Y-83825000D01*
X114300000Y-83828506D01*
X114335597Y-83825000D01*
X114335607Y-83825000D01*
X114442125Y-83814509D01*
X114578788Y-83773053D01*
X114704737Y-83705731D01*
X114815132Y-83615132D01*
X114837832Y-83587472D01*
X116425305Y-82000000D01*
X116498491Y-82000000D01*
X116691689Y-81961571D01*
X116873678Y-81886189D01*
X117037463Y-81776751D01*
X117176751Y-81637463D01*
X117286189Y-81473678D01*
X117361571Y-81291689D01*
X117400000Y-81098491D01*
X117400000Y-80901509D01*
X117361571Y-80708311D01*
X117286189Y-80526322D01*
X117176751Y-80362537D01*
X117037463Y-80223249D01*
X116873678Y-80113811D01*
X116691689Y-80038429D01*
X116498491Y-80000000D01*
X116301509Y-80000000D01*
X116108311Y-80038429D01*
X115926322Y-80113811D01*
X115762537Y-80223249D01*
X115623249Y-80362537D01*
X115513811Y-80526322D01*
X115438429Y-80708311D01*
X115400000Y-80901509D01*
X115400000Y-80974695D01*
X113999696Y-82375000D01*
X99427063Y-82375000D01*
X99461571Y-82291689D01*
X99500000Y-82098491D01*
X99500000Y-81901509D01*
X99461571Y-81708311D01*
X99386189Y-81526322D01*
X99276751Y-81362537D01*
X99225000Y-81310786D01*
X99225000Y-78500000D01*
X134392985Y-78500000D01*
X134420981Y-78784250D01*
X134503894Y-79057576D01*
X134638536Y-79309474D01*
X134819735Y-79530265D01*
X134921032Y-79613397D01*
X134776152Y-79690837D01*
X134646907Y-79796907D01*
X134540837Y-79926152D01*
X134462020Y-80073608D01*
X134413485Y-80233607D01*
X134397097Y-80400000D01*
X134397097Y-81600000D01*
X134413485Y-81766393D01*
X134462020Y-81926392D01*
X134540837Y-82073848D01*
X134646907Y-82203093D01*
X134776152Y-82309163D01*
X134923608Y-82387980D01*
X135083607Y-82436515D01*
X135250000Y-82452903D01*
X136750000Y-82452903D01*
X136916393Y-82436515D01*
X137076392Y-82387980D01*
X137223848Y-82309163D01*
X137353093Y-82203093D01*
X137459163Y-82073848D01*
X137537980Y-81926392D01*
X137586515Y-81766393D01*
X137602903Y-81600000D01*
X137602903Y-80400000D01*
X137586515Y-80233607D01*
X137537980Y-80073608D01*
X137459163Y-79926152D01*
X137353093Y-79796907D01*
X137223848Y-79690837D01*
X137078968Y-79613397D01*
X137180265Y-79530265D01*
X137361464Y-79309474D01*
X137496106Y-79057576D01*
X137579019Y-78784250D01*
X137607015Y-78500000D01*
X137579019Y-78215750D01*
X137496106Y-77942424D01*
X137361464Y-77690526D01*
X137180265Y-77469735D01*
X136959474Y-77288536D01*
X136707576Y-77153894D01*
X136434250Y-77070981D01*
X136221225Y-77050000D01*
X135778775Y-77050000D01*
X135565750Y-77070981D01*
X135292424Y-77153894D01*
X135040526Y-77288536D01*
X134819735Y-77469735D01*
X134638536Y-77690526D01*
X134503894Y-77942424D01*
X134420981Y-78215750D01*
X134392985Y-78500000D01*
X99225000Y-78500000D01*
X99225000Y-72201509D01*
X105900000Y-72201509D01*
X105900000Y-72398491D01*
X105938429Y-72591689D01*
X106013811Y-72773678D01*
X106123249Y-72937463D01*
X106262537Y-73076751D01*
X106426322Y-73186189D01*
X106608311Y-73261571D01*
X106801509Y-73300000D01*
X106998491Y-73300000D01*
X107191689Y-73261571D01*
X107373678Y-73186189D01*
X107537463Y-73076751D01*
X107589214Y-73025000D01*
X117410786Y-73025000D01*
X117462537Y-73076751D01*
X117626322Y-73186189D01*
X117808311Y-73261571D01*
X118001509Y-73300000D01*
X118198491Y-73300000D01*
X118391689Y-73261571D01*
X118573678Y-73186189D01*
X118737463Y-73076751D01*
X118876751Y-72937463D01*
X118986189Y-72773678D01*
X119061571Y-72591689D01*
X119100000Y-72398491D01*
X119100000Y-72201509D01*
X119061571Y-72008311D01*
X118986189Y-71826322D01*
X118876751Y-71662537D01*
X118737463Y-71523249D01*
X118573678Y-71413811D01*
X118391689Y-71338429D01*
X118198491Y-71300000D01*
X118001509Y-71300000D01*
X117808311Y-71338429D01*
X117626322Y-71413811D01*
X117462537Y-71523249D01*
X117410786Y-71575000D01*
X107589214Y-71575000D01*
X107537463Y-71523249D01*
X107373678Y-71413811D01*
X107191689Y-71338429D01*
X106998491Y-71300000D01*
X106801509Y-71300000D01*
X106608311Y-71338429D01*
X106426322Y-71413811D01*
X106262537Y-71523249D01*
X106123249Y-71662537D01*
X106013811Y-71826322D01*
X105938429Y-72008311D01*
X105900000Y-72201509D01*
X99225000Y-72201509D01*
X99225000Y-69550304D01*
X105775305Y-63000000D01*
X105848491Y-63000000D01*
X106041689Y-62961571D01*
X106223678Y-62886189D01*
X106387463Y-62776751D01*
X106526751Y-62637463D01*
X106636189Y-62473678D01*
X106711571Y-62291689D01*
X106750000Y-62098491D01*
X106750000Y-61901509D01*
X106711571Y-61708311D01*
X106636189Y-61526322D01*
X106535079Y-61375000D01*
X106636189Y-61223678D01*
X106711571Y-61041689D01*
X106750000Y-60848491D01*
X106750000Y-60651509D01*
X106724836Y-60525000D01*
X116089696Y-60525000D01*
X126387097Y-70822402D01*
X126387097Y-72100000D01*
X126398682Y-72217621D01*
X126432990Y-72330721D01*
X126488704Y-72434955D01*
X126563683Y-72526317D01*
X126655045Y-72601296D01*
X126759279Y-72657010D01*
X126872379Y-72691318D01*
X126990000Y-72702903D01*
X128690000Y-72702903D01*
X128807621Y-72691318D01*
X128920721Y-72657010D01*
X129024955Y-72601296D01*
X129116317Y-72526317D01*
X129191296Y-72434955D01*
X129247010Y-72330721D01*
X129281318Y-72217621D01*
X129282725Y-72203335D01*
X129455679Y-72376289D01*
X129693167Y-72534973D01*
X129957051Y-72644277D01*
X130237187Y-72700000D01*
X130522813Y-72700000D01*
X130802949Y-72644277D01*
X131066833Y-72534973D01*
X131304321Y-72376289D01*
X131506289Y-72174321D01*
X131650000Y-71959242D01*
X131793711Y-72174321D01*
X131995679Y-72376289D01*
X132233167Y-72534973D01*
X132497051Y-72644277D01*
X132777187Y-72700000D01*
X133062813Y-72700000D01*
X133342949Y-72644277D01*
X133606833Y-72534973D01*
X133844321Y-72376289D01*
X134046289Y-72174321D01*
X134190000Y-71959242D01*
X134333711Y-72174321D01*
X134535679Y-72376289D01*
X134773167Y-72534973D01*
X135037051Y-72644277D01*
X135317187Y-72700000D01*
X135602813Y-72700000D01*
X135882949Y-72644277D01*
X136146833Y-72534973D01*
X136384321Y-72376289D01*
X136586289Y-72174321D01*
X136744973Y-71936833D01*
X136786737Y-71836005D01*
X136904345Y-72038701D01*
X137079266Y-72237298D01*
X137289570Y-72397954D01*
X137527175Y-72514494D01*
X137690625Y-72564072D01*
X137900000Y-72470912D01*
X137900000Y-71350000D01*
X138100000Y-71350000D01*
X138100000Y-72470912D01*
X138309375Y-72564072D01*
X138472825Y-72514494D01*
X138710430Y-72397954D01*
X138920734Y-72237298D01*
X139095655Y-72038701D01*
X139228470Y-71809795D01*
X139314076Y-71559376D01*
X139221295Y-71350000D01*
X138100000Y-71350000D01*
X137900000Y-71350000D01*
X137880000Y-71350000D01*
X137880000Y-71150000D01*
X137900000Y-71150000D01*
X137900000Y-70029088D01*
X138100000Y-70029088D01*
X138100000Y-71150000D01*
X139221295Y-71150000D01*
X139314076Y-70940624D01*
X139228470Y-70690205D01*
X139095655Y-70461299D01*
X138920734Y-70262702D01*
X138710430Y-70102046D01*
X138472825Y-69985506D01*
X138309375Y-69935928D01*
X138100000Y-70029088D01*
X137900000Y-70029088D01*
X137690625Y-69935928D01*
X137527175Y-69985506D01*
X137289570Y-70102046D01*
X137079266Y-70262702D01*
X136904345Y-70461299D01*
X136786737Y-70663995D01*
X136744973Y-70563167D01*
X136586289Y-70325679D01*
X136384321Y-70123711D01*
X136146833Y-69965027D01*
X135882949Y-69855723D01*
X135602813Y-69800000D01*
X135317187Y-69800000D01*
X135082072Y-69846768D01*
X133047832Y-67812528D01*
X133025132Y-67784868D01*
X132914737Y-67694269D01*
X132788788Y-67626947D01*
X132652125Y-67585491D01*
X132545607Y-67575000D01*
X132545597Y-67575000D01*
X132510000Y-67571494D01*
X132474403Y-67575000D01*
X127600305Y-67575000D01*
X121597697Y-61572393D01*
X121784249Y-61554019D01*
X122057575Y-61471106D01*
X122309473Y-61336464D01*
X122530264Y-61155265D01*
X122711464Y-60934474D01*
X122750000Y-60862378D01*
X122788536Y-60934473D01*
X122969735Y-61155264D01*
X123190526Y-61336464D01*
X123442424Y-61471106D01*
X123715750Y-61554019D01*
X124000000Y-61582015D01*
X124284249Y-61554019D01*
X124557575Y-61471106D01*
X124809473Y-61336464D01*
X125030264Y-61155265D01*
X125211464Y-60934474D01*
X125250000Y-60862378D01*
X125288536Y-60934473D01*
X125469735Y-61155264D01*
X125690526Y-61336464D01*
X125942424Y-61471106D01*
X126215750Y-61554019D01*
X126500000Y-61582015D01*
X126784249Y-61554019D01*
X127057575Y-61471106D01*
X127309473Y-61336464D01*
X127530264Y-61155265D01*
X127613397Y-61053968D01*
X127690837Y-61198848D01*
X127796907Y-61328093D01*
X127926152Y-61434163D01*
X128073608Y-61512980D01*
X128233607Y-61561515D01*
X128400000Y-61577903D01*
X129600000Y-61577903D01*
X129766393Y-61561515D01*
X129926392Y-61512980D01*
X130073848Y-61434163D01*
X130203093Y-61328093D01*
X130309163Y-61198848D01*
X130387980Y-61051392D01*
X130436515Y-60891393D01*
X130452903Y-60725000D01*
X130452903Y-60312091D01*
X133156973Y-60312091D01*
X133214401Y-60570988D01*
X133321234Y-60813707D01*
X133473366Y-61030920D01*
X133664951Y-61214280D01*
X133888627Y-61356740D01*
X134135798Y-61452826D01*
X134190625Y-61464072D01*
X134400000Y-61370912D01*
X134400000Y-60100000D01*
X133273151Y-60100000D01*
X133156973Y-60312091D01*
X130452903Y-60312091D01*
X130452903Y-59687909D01*
X133156973Y-59687909D01*
X133273151Y-59900000D01*
X134400000Y-59900000D01*
X134400000Y-58629088D01*
X134600000Y-58629088D01*
X134600000Y-59900000D01*
X134620000Y-59900000D01*
X134620000Y-60100000D01*
X134600000Y-60100000D01*
X134600000Y-61370912D01*
X134809375Y-61464072D01*
X134864202Y-61452826D01*
X135111373Y-61356740D01*
X135335049Y-61214280D01*
X135526634Y-61030920D01*
X135576590Y-60959594D01*
X135612020Y-61076392D01*
X135690837Y-61223848D01*
X135796907Y-61353093D01*
X135926152Y-61459163D01*
X136073608Y-61537980D01*
X136233607Y-61586515D01*
X136400000Y-61602903D01*
X137600000Y-61602903D01*
X137766393Y-61586515D01*
X137926392Y-61537980D01*
X138073848Y-61459163D01*
X138203093Y-61353093D01*
X138309163Y-61223848D01*
X138387980Y-61076392D01*
X138436515Y-60916393D01*
X138452903Y-60750000D01*
X138452903Y-59250000D01*
X138436515Y-59083607D01*
X138387980Y-58923608D01*
X138309163Y-58776152D01*
X138203093Y-58646907D01*
X138073848Y-58540837D01*
X137926392Y-58462020D01*
X137766393Y-58413485D01*
X137600000Y-58397097D01*
X136400000Y-58397097D01*
X136233607Y-58413485D01*
X136073608Y-58462020D01*
X135926152Y-58540837D01*
X135796907Y-58646907D01*
X135690837Y-58776152D01*
X135612020Y-58923608D01*
X135576590Y-59040406D01*
X135526634Y-58969080D01*
X135335049Y-58785720D01*
X135111373Y-58643260D01*
X134864202Y-58547174D01*
X134809375Y-58535928D01*
X134600000Y-58629088D01*
X134400000Y-58629088D01*
X134190625Y-58535928D01*
X134135798Y-58547174D01*
X133888627Y-58643260D01*
X133664951Y-58785720D01*
X133473366Y-58969080D01*
X133321234Y-59186293D01*
X133214401Y-59429012D01*
X133156973Y-59687909D01*
X130452903Y-59687909D01*
X130452903Y-59275000D01*
X130436515Y-59108607D01*
X130387980Y-58948608D01*
X130309163Y-58801152D01*
X130203093Y-58671907D01*
X130073848Y-58565837D01*
X129926392Y-58487020D01*
X129766393Y-58438485D01*
X129725000Y-58434408D01*
X129725000Y-50625000D01*
X139375000Y-50625000D01*
X139375001Y-70969286D01*
G36*
X120775001Y-58618384D02*
G01*
X120690527Y-58663536D01*
X120469736Y-58844735D01*
X120288536Y-59065526D01*
X120153894Y-59317424D01*
X120070981Y-59590750D01*
X120050000Y-59803775D01*
X120050000Y-60024696D01*
X116837830Y-56812526D01*
X116815132Y-56784868D01*
X116704737Y-56694269D01*
X116578788Y-56626947D01*
X116442125Y-56585491D01*
X116335607Y-56575000D01*
X116335597Y-56575000D01*
X116300000Y-56571494D01*
X116264403Y-56575000D01*
X101135597Y-56575000D01*
X101100000Y-56571494D01*
X101064403Y-56575000D01*
X101064393Y-56575000D01*
X100957875Y-56585491D01*
X100821212Y-56626947D01*
X100695263Y-56694269D01*
X100612525Y-56762170D01*
X100612523Y-56762172D01*
X100584868Y-56784868D01*
X100562172Y-56812523D01*
X99999696Y-57375000D01*
X94918488Y-57375000D01*
X94986189Y-57273678D01*
X95061571Y-57091689D01*
X95100000Y-56898491D01*
X95100000Y-56701509D01*
X95061571Y-56508311D01*
X94986189Y-56326322D01*
X94876751Y-56162537D01*
X94737463Y-56023249D01*
X94573678Y-55913811D01*
X94391689Y-55838429D01*
X94198491Y-55800000D01*
X94001509Y-55800000D01*
X93808311Y-55838429D01*
X93720020Y-55875000D01*
X87984782Y-55875000D01*
X88000000Y-55798491D01*
X88000000Y-55601509D01*
X87961571Y-55408311D01*
X87886189Y-55226322D01*
X87776751Y-55062537D01*
X87637463Y-54923249D01*
X87473678Y-54813811D01*
X87291689Y-54738429D01*
X87098491Y-54700000D01*
X86901509Y-54700000D01*
X86708311Y-54738429D01*
X86689040Y-54746411D01*
X86661571Y-54608311D01*
X86586189Y-54426322D01*
X86476751Y-54262537D01*
X86337463Y-54123249D01*
X86173678Y-54013811D01*
X85991689Y-53938429D01*
X85798491Y-53900000D01*
X85601509Y-53900000D01*
X85408311Y-53938429D01*
X85226322Y-54013811D01*
X85062537Y-54123249D01*
X85010786Y-54175000D01*
X77020579Y-54175000D01*
X77021045Y-54174807D01*
X77201209Y-54054425D01*
X77354425Y-53901209D01*
X77474807Y-53721045D01*
X77557727Y-53520858D01*
X77600000Y-53308341D01*
X77600000Y-53091659D01*
X77557727Y-52879142D01*
X77474807Y-52678955D01*
X77354425Y-52498791D01*
X77201209Y-52345575D01*
X77021045Y-52225193D01*
X76820858Y-52142273D01*
X76608341Y-52100000D01*
X76391659Y-52100000D01*
X76179142Y-52142273D01*
X75978955Y-52225193D01*
X75798791Y-52345575D01*
X75645575Y-52498791D01*
X75525193Y-52678955D01*
X75442466Y-52878677D01*
X75396143Y-52925000D01*
X71520579Y-52925000D01*
X71320858Y-52842273D01*
X71108341Y-52800000D01*
X70891659Y-52800000D01*
X70679142Y-52842273D01*
X70478955Y-52925193D01*
X70298791Y-53045575D01*
X70145575Y-53198791D01*
X70025193Y-53378955D01*
X69942273Y-53579142D01*
X69900000Y-53791659D01*
X69900000Y-54008341D01*
X69933151Y-54175000D01*
X65235596Y-54175000D01*
X65199999Y-54171494D01*
X65164402Y-54175000D01*
X65164393Y-54175000D01*
X65057875Y-54185491D01*
X64941285Y-54220858D01*
X64921212Y-54226947D01*
X64795263Y-54294269D01*
X64712525Y-54362170D01*
X64712523Y-54362172D01*
X64684868Y-54384868D01*
X64662172Y-54412523D01*
X61312524Y-57762172D01*
X61284868Y-57784869D01*
X61262172Y-57812524D01*
X61262170Y-57812526D01*
X61194270Y-57895263D01*
X61194269Y-57895264D01*
X61126947Y-58021213D01*
X61085491Y-58157876D01*
X61075000Y-58264394D01*
X61075000Y-58264403D01*
X61071494Y-58300000D01*
X61075000Y-58335597D01*
X61075001Y-70489393D01*
X61071494Y-70525000D01*
X61085492Y-70667124D01*
X61126947Y-70803787D01*
X61194269Y-70929736D01*
X61262170Y-71012474D01*
X61262173Y-71012477D01*
X61284869Y-71040132D01*
X61312523Y-71062827D01*
X68237172Y-77987477D01*
X68259868Y-78015132D01*
X68287523Y-78037828D01*
X68287525Y-78037830D01*
X68311586Y-78057576D01*
X68370263Y-78105731D01*
X68496212Y-78173053D01*
X68608887Y-78207232D01*
X68663536Y-78309474D01*
X68844735Y-78530265D01*
X69065526Y-78711464D01*
X69317424Y-78846106D01*
X69590750Y-78929019D01*
X69803775Y-78950000D01*
X70196225Y-78950000D01*
X70409250Y-78929019D01*
X70682576Y-78846106D01*
X70934474Y-78711464D01*
X71155265Y-78530265D01*
X71336464Y-78309474D01*
X71471106Y-78057576D01*
X71554019Y-77784250D01*
X71582015Y-77500000D01*
X71554019Y-77215750D01*
X71471106Y-76942424D01*
X71336464Y-76690526D01*
X71155265Y-76469735D01*
X70934474Y-76288536D01*
X70862378Y-76250000D01*
X70934474Y-76211464D01*
X71155265Y-76030265D01*
X71336464Y-75809474D01*
X71471106Y-75557576D01*
X71554019Y-75284250D01*
X71582015Y-75000000D01*
X71554019Y-74715750D01*
X71471106Y-74442424D01*
X71336464Y-74190526D01*
X71155265Y-73969735D01*
X70934474Y-73788536D01*
X70862378Y-73750000D01*
X70934474Y-73711464D01*
X71155265Y-73530265D01*
X71336464Y-73309474D01*
X71471106Y-73057576D01*
X71554019Y-72784250D01*
X71582015Y-72500000D01*
X71554019Y-72215750D01*
X71471106Y-71942424D01*
X71336464Y-71690526D01*
X71155265Y-71469735D01*
X71053968Y-71386603D01*
X71198848Y-71309163D01*
X71328093Y-71203093D01*
X71434163Y-71073848D01*
X71512980Y-70926392D01*
X71561515Y-70766393D01*
X71577903Y-70600000D01*
X71577903Y-69400000D01*
X71561515Y-69233607D01*
X71512980Y-69073608D01*
X71434163Y-68926152D01*
X71328093Y-68796907D01*
X71198848Y-68690837D01*
X71051392Y-68612020D01*
X70891393Y-68563485D01*
X70725000Y-68547097D01*
X69275000Y-68547097D01*
X69108607Y-68563485D01*
X68948608Y-68612020D01*
X68801152Y-68690837D01*
X68671907Y-68796907D01*
X68565837Y-68926152D01*
X68487020Y-69073608D01*
X68438485Y-69233607D01*
X68422097Y-69400000D01*
X68422097Y-70600000D01*
X68438485Y-70766393D01*
X68487020Y-70926392D01*
X68565837Y-71073848D01*
X68671907Y-71203093D01*
X68801152Y-71309163D01*
X68946032Y-71386603D01*
X68844735Y-71469735D01*
X68663536Y-71690526D01*
X68528894Y-71942424D01*
X68445981Y-72215750D01*
X68427607Y-72402303D01*
X63025000Y-66999696D01*
X63025000Y-61496155D01*
X63215750Y-61554019D01*
X63500000Y-61582015D01*
X63784249Y-61554019D01*
X64057575Y-61471106D01*
X64309473Y-61336464D01*
X64530264Y-61155265D01*
X64711464Y-60934474D01*
X64750000Y-60862378D01*
X64788536Y-60934473D01*
X64969735Y-61155264D01*
X65190526Y-61336464D01*
X65442424Y-61471106D01*
X65715750Y-61554019D01*
X66000000Y-61582015D01*
X66284249Y-61554019D01*
X66557575Y-61471106D01*
X66809473Y-61336464D01*
X67030264Y-61155265D01*
X67211464Y-60934474D01*
X67308720Y-60752520D01*
X67335085Y-60809540D01*
X67491016Y-61023650D01*
X67685721Y-61203226D01*
X67911719Y-61341366D01*
X68160324Y-61432762D01*
X68190625Y-61439072D01*
X68400000Y-61345912D01*
X68400000Y-60100000D01*
X68380000Y-60100000D01*
X68380000Y-59900000D01*
X68400000Y-59900000D01*
X68400000Y-58654088D01*
X68190625Y-58560928D01*
X68160324Y-58567238D01*
X67911719Y-58658634D01*
X67685721Y-58796774D01*
X67491016Y-58976350D01*
X67335085Y-59190460D01*
X67308720Y-59247480D01*
X67211464Y-59065526D01*
X67030265Y-58844735D01*
X66989239Y-58811066D01*
X67882904Y-57917401D01*
X67904737Y-57905731D01*
X68015132Y-57815132D01*
X68037832Y-57787472D01*
X68425315Y-57399990D01*
X71900000Y-57399990D01*
X71900000Y-58479014D01*
X71766393Y-58438485D01*
X71600000Y-58422097D01*
X70400000Y-58422097D01*
X70233607Y-58438485D01*
X70073608Y-58487020D01*
X69926152Y-58565837D01*
X69796907Y-58671907D01*
X69690837Y-58801152D01*
X69612020Y-58948608D01*
X69575782Y-59068070D01*
X69508984Y-58976350D01*
X69314279Y-58796774D01*
X69088281Y-58658634D01*
X68839676Y-58567238D01*
X68809375Y-58560928D01*
X68600000Y-58654088D01*
X68600000Y-59900000D01*
X68620000Y-59900000D01*
X68620000Y-60100000D01*
X68600000Y-60100000D01*
X68600000Y-61345912D01*
X68809375Y-61439072D01*
X68839676Y-61432762D01*
X69088281Y-61341366D01*
X69314279Y-61203226D01*
X69508984Y-61023650D01*
X69575782Y-60931930D01*
X69612020Y-61051392D01*
X69690837Y-61198848D01*
X69796907Y-61328093D01*
X69926152Y-61434163D01*
X70073608Y-61512980D01*
X70233607Y-61561515D01*
X70400000Y-61577903D01*
X71600000Y-61577903D01*
X71766393Y-61561515D01*
X71900000Y-61520986D01*
X71900000Y-84375000D01*
X60625000Y-84375000D01*
X60625000Y-50625000D01*
X120775000Y-50625000D01*
X120775001Y-58618384D01*
G37*
X120775001Y-58618384D02*
X120690527Y-58663536D01*
X120469736Y-58844735D01*
X120288536Y-59065526D01*
X120153894Y-59317424D01*
X120070981Y-59590750D01*
X120050000Y-59803775D01*
X120050000Y-60024696D01*
X116837830Y-56812526D01*
X116815132Y-56784868D01*
X116704737Y-56694269D01*
X116578788Y-56626947D01*
X116442125Y-56585491D01*
X116335607Y-56575000D01*
X116335597Y-56575000D01*
X116300000Y-56571494D01*
X116264403Y-56575000D01*
X101135597Y-56575000D01*
X101100000Y-56571494D01*
X101064403Y-56575000D01*
X101064393Y-56575000D01*
X100957875Y-56585491D01*
X100821212Y-56626947D01*
X100695263Y-56694269D01*
X100612525Y-56762170D01*
X100612523Y-56762172D01*
X100584868Y-56784868D01*
X100562172Y-56812523D01*
X99999696Y-57375000D01*
X94918488Y-57375000D01*
X94986189Y-57273678D01*
X95061571Y-57091689D01*
X95100000Y-56898491D01*
X95100000Y-56701509D01*
X95061571Y-56508311D01*
X94986189Y-56326322D01*
X94876751Y-56162537D01*
X94737463Y-56023249D01*
X94573678Y-55913811D01*
X94391689Y-55838429D01*
X94198491Y-55800000D01*
X94001509Y-55800000D01*
X93808311Y-55838429D01*
X93720020Y-55875000D01*
X87984782Y-55875000D01*
X88000000Y-55798491D01*
X88000000Y-55601509D01*
X87961571Y-55408311D01*
X87886189Y-55226322D01*
X87776751Y-55062537D01*
X87637463Y-54923249D01*
X87473678Y-54813811D01*
X87291689Y-54738429D01*
X87098491Y-54700000D01*
X86901509Y-54700000D01*
X86708311Y-54738429D01*
X86689040Y-54746411D01*
X86661571Y-54608311D01*
X86586189Y-54426322D01*
X86476751Y-54262537D01*
X86337463Y-54123249D01*
X86173678Y-54013811D01*
X85991689Y-53938429D01*
X85798491Y-53900000D01*
X85601509Y-53900000D01*
X85408311Y-53938429D01*
X85226322Y-54013811D01*
X85062537Y-54123249D01*
X85010786Y-54175000D01*
X77020579Y-54175000D01*
X77021045Y-54174807D01*
X77201209Y-54054425D01*
X77354425Y-53901209D01*
X77474807Y-53721045D01*
X77557727Y-53520858D01*
X77600000Y-53308341D01*
X77600000Y-53091659D01*
X77557727Y-52879142D01*
X77474807Y-52678955D01*
X77354425Y-52498791D01*
X77201209Y-52345575D01*
X77021045Y-52225193D01*
X76820858Y-52142273D01*
X76608341Y-52100000D01*
X76391659Y-52100000D01*
X76179142Y-52142273D01*
X75978955Y-52225193D01*
X75798791Y-52345575D01*
X75645575Y-52498791D01*
X75525193Y-52678955D01*
X75442466Y-52878677D01*
X75396143Y-52925000D01*
X71520579Y-52925000D01*
X71320858Y-52842273D01*
X71108341Y-52800000D01*
X70891659Y-52800000D01*
X70679142Y-52842273D01*
X70478955Y-52925193D01*
X70298791Y-53045575D01*
X70145575Y-53198791D01*
X70025193Y-53378955D01*
X69942273Y-53579142D01*
X69900000Y-53791659D01*
X69900000Y-54008341D01*
X69933151Y-54175000D01*
X65235596Y-54175000D01*
X65199999Y-54171494D01*
X65164402Y-54175000D01*
X65164393Y-54175000D01*
X65057875Y-54185491D01*
X64941285Y-54220858D01*
X64921212Y-54226947D01*
X64795263Y-54294269D01*
X64712525Y-54362170D01*
X64712523Y-54362172D01*
X64684868Y-54384868D01*
X64662172Y-54412523D01*
X61312524Y-57762172D01*
X61284868Y-57784869D01*
X61262172Y-57812524D01*
X61262170Y-57812526D01*
X61194270Y-57895263D01*
X61194269Y-57895264D01*
X61126947Y-58021213D01*
X61085491Y-58157876D01*
X61075000Y-58264394D01*
X61075000Y-58264403D01*
X61071494Y-58300000D01*
X61075000Y-58335597D01*
X61075001Y-70489393D01*
X61071494Y-70525000D01*
X61085492Y-70667124D01*
X61126947Y-70803787D01*
X61194269Y-70929736D01*
X61262170Y-71012474D01*
X61262173Y-71012477D01*
X61284869Y-71040132D01*
X61312523Y-71062827D01*
X68237172Y-77987477D01*
X68259868Y-78015132D01*
X68287523Y-78037828D01*
X68287525Y-78037830D01*
X68311586Y-78057576D01*
X68370263Y-78105731D01*
X68496212Y-78173053D01*
X68608887Y-78207232D01*
X68663536Y-78309474D01*
X68844735Y-78530265D01*
X69065526Y-78711464D01*
X69317424Y-78846106D01*
X69590750Y-78929019D01*
X69803775Y-78950000D01*
X70196225Y-78950000D01*
X70409250Y-78929019D01*
X70682576Y-78846106D01*
X70934474Y-78711464D01*
X71155265Y-78530265D01*
X71336464Y-78309474D01*
X71471106Y-78057576D01*
X71554019Y-77784250D01*
X71582015Y-77500000D01*
X71554019Y-77215750D01*
X71471106Y-76942424D01*
X71336464Y-76690526D01*
X71155265Y-76469735D01*
X70934474Y-76288536D01*
X70862378Y-76250000D01*
X70934474Y-76211464D01*
X71155265Y-76030265D01*
X71336464Y-75809474D01*
X71471106Y-75557576D01*
X71554019Y-75284250D01*
X71582015Y-75000000D01*
X71554019Y-74715750D01*
X71471106Y-74442424D01*
X71336464Y-74190526D01*
X71155265Y-73969735D01*
X70934474Y-73788536D01*
X70862378Y-73750000D01*
X70934474Y-73711464D01*
X71155265Y-73530265D01*
X71336464Y-73309474D01*
X71471106Y-73057576D01*
X71554019Y-72784250D01*
X71582015Y-72500000D01*
X71554019Y-72215750D01*
X71471106Y-71942424D01*
X71336464Y-71690526D01*
X71155265Y-71469735D01*
X71053968Y-71386603D01*
X71198848Y-71309163D01*
X71328093Y-71203093D01*
X71434163Y-71073848D01*
X71512980Y-70926392D01*
X71561515Y-70766393D01*
X71577903Y-70600000D01*
X71577903Y-69400000D01*
X71561515Y-69233607D01*
X71512980Y-69073608D01*
X71434163Y-68926152D01*
X71328093Y-68796907D01*
X71198848Y-68690837D01*
X71051392Y-68612020D01*
X70891393Y-68563485D01*
X70725000Y-68547097D01*
X69275000Y-68547097D01*
X69108607Y-68563485D01*
X68948608Y-68612020D01*
X68801152Y-68690837D01*
X68671907Y-68796907D01*
X68565837Y-68926152D01*
X68487020Y-69073608D01*
X68438485Y-69233607D01*
X68422097Y-69400000D01*
X68422097Y-70600000D01*
X68438485Y-70766393D01*
X68487020Y-70926392D01*
X68565837Y-71073848D01*
X68671907Y-71203093D01*
X68801152Y-71309163D01*
X68946032Y-71386603D01*
X68844735Y-71469735D01*
X68663536Y-71690526D01*
X68528894Y-71942424D01*
X68445981Y-72215750D01*
X68427607Y-72402303D01*
X63025000Y-66999696D01*
X63025000Y-61496155D01*
X63215750Y-61554019D01*
X63500000Y-61582015D01*
X63784249Y-61554019D01*
X64057575Y-61471106D01*
X64309473Y-61336464D01*
X64530264Y-61155265D01*
X64711464Y-60934474D01*
X64750000Y-60862378D01*
X64788536Y-60934473D01*
X64969735Y-61155264D01*
X65190526Y-61336464D01*
X65442424Y-61471106D01*
X65715750Y-61554019D01*
X66000000Y-61582015D01*
X66284249Y-61554019D01*
X66557575Y-61471106D01*
X66809473Y-61336464D01*
X67030264Y-61155265D01*
X67211464Y-60934474D01*
X67308720Y-60752520D01*
X67335085Y-60809540D01*
X67491016Y-61023650D01*
X67685721Y-61203226D01*
X67911719Y-61341366D01*
X68160324Y-61432762D01*
X68190625Y-61439072D01*
X68400000Y-61345912D01*
X68400000Y-60100000D01*
X68380000Y-60100000D01*
X68380000Y-59900000D01*
X68400000Y-59900000D01*
X68400000Y-58654088D01*
X68190625Y-58560928D01*
X68160324Y-58567238D01*
X67911719Y-58658634D01*
X67685721Y-58796774D01*
X67491016Y-58976350D01*
X67335085Y-59190460D01*
X67308720Y-59247480D01*
X67211464Y-59065526D01*
X67030265Y-58844735D01*
X66989239Y-58811066D01*
X67882904Y-57917401D01*
X67904737Y-57905731D01*
X68015132Y-57815132D01*
X68037832Y-57787472D01*
X68425315Y-57399990D01*
X71900000Y-57399990D01*
X71900000Y-58479014D01*
X71766393Y-58438485D01*
X71600000Y-58422097D01*
X70400000Y-58422097D01*
X70233607Y-58438485D01*
X70073608Y-58487020D01*
X69926152Y-58565837D01*
X69796907Y-58671907D01*
X69690837Y-58801152D01*
X69612020Y-58948608D01*
X69575782Y-59068070D01*
X69508984Y-58976350D01*
X69314279Y-58796774D01*
X69088281Y-58658634D01*
X68839676Y-58567238D01*
X68809375Y-58560928D01*
X68600000Y-58654088D01*
X68600000Y-59900000D01*
X68620000Y-59900000D01*
X68620000Y-60100000D01*
X68600000Y-60100000D01*
X68600000Y-61345912D01*
X68809375Y-61439072D01*
X68839676Y-61432762D01*
X69088281Y-61341366D01*
X69314279Y-61203226D01*
X69508984Y-61023650D01*
X69575782Y-60931930D01*
X69612020Y-61051392D01*
X69690837Y-61198848D01*
X69796907Y-61328093D01*
X69926152Y-61434163D01*
X70073608Y-61512980D01*
X70233607Y-61561515D01*
X70400000Y-61577903D01*
X71600000Y-61577903D01*
X71766393Y-61561515D01*
X71900000Y-61520986D01*
X71900000Y-84375000D01*
X60625000Y-84375000D01*
X60625000Y-50625000D01*
X120775000Y-50625000D01*
X120775001Y-58618384D01*
G36*
X68502879Y-74528184D02*
G01*
X68445981Y-74715750D01*
X68417985Y-75000000D01*
X68445981Y-75284250D01*
X68528894Y-75557576D01*
X68663536Y-75809474D01*
X68844735Y-76030265D01*
X69065526Y-76211464D01*
X69137622Y-76250000D01*
X69065526Y-76288536D01*
X68844735Y-76469735D01*
X68811066Y-76510761D01*
X62525000Y-70224696D01*
X62525000Y-68550304D01*
X68502879Y-74528184D01*
G37*
X68502879Y-74528184D02*
X68445981Y-74715750D01*
X68417985Y-75000000D01*
X68445981Y-75284250D01*
X68528894Y-75557576D01*
X68663536Y-75809474D01*
X68844735Y-76030265D01*
X69065526Y-76211464D01*
X69137622Y-76250000D01*
X69065526Y-76288536D01*
X68844735Y-76469735D01*
X68811066Y-76510761D01*
X62525000Y-70224696D01*
X62525000Y-68550304D01*
X68502879Y-74528184D01*
G36*
X127090251Y-50100719D02*
G01*
X127216200Y-50168041D01*
X127352863Y-50209497D01*
X127459381Y-50219988D01*
X127459388Y-50219988D01*
X127494988Y-50223494D01*
X127530588Y-50219988D01*
X127699696Y-50219988D01*
X128275001Y-50795294D01*
X128275000Y-58434408D01*
X128233607Y-58438485D01*
X128073608Y-58487020D01*
X127926152Y-58565837D01*
X127796907Y-58671907D01*
X127690837Y-58801152D01*
X127613397Y-58946032D01*
X127530265Y-58844735D01*
X127309474Y-58663536D01*
X127057576Y-58528894D01*
X126784250Y-58445981D01*
X126500000Y-58417985D01*
X126215751Y-58445981D01*
X125942425Y-58528894D01*
X125690527Y-58663536D01*
X125469736Y-58844735D01*
X125288536Y-59065526D01*
X125250000Y-59137622D01*
X125211464Y-59065526D01*
X125030265Y-58844735D01*
X124809474Y-58663536D01*
X124725000Y-58618384D01*
X124725000Y-56373306D01*
X125487482Y-55610825D01*
X125515131Y-55588134D01*
X125537823Y-55560484D01*
X125537830Y-55560477D01*
X125605732Y-55477739D01*
X125673053Y-55351790D01*
X125701541Y-55257876D01*
X125714509Y-55215127D01*
X125725000Y-55108609D01*
X125725000Y-55108602D01*
X125728506Y-55073002D01*
X125725000Y-55037402D01*
X125725000Y-50100000D01*
X127089375Y-50100000D01*
X127090251Y-50100719D01*
G37*
X127090251Y-50100719D02*
X127216200Y-50168041D01*
X127352863Y-50209497D01*
X127459381Y-50219988D01*
X127459388Y-50219988D01*
X127494988Y-50223494D01*
X127530588Y-50219988D01*
X127699696Y-50219988D01*
X128275001Y-50795294D01*
X128275000Y-58434408D01*
X128233607Y-58438485D01*
X128073608Y-58487020D01*
X127926152Y-58565837D01*
X127796907Y-58671907D01*
X127690837Y-58801152D01*
X127613397Y-58946032D01*
X127530265Y-58844735D01*
X127309474Y-58663536D01*
X127057576Y-58528894D01*
X126784250Y-58445981D01*
X126500000Y-58417985D01*
X126215751Y-58445981D01*
X125942425Y-58528894D01*
X125690527Y-58663536D01*
X125469736Y-58844735D01*
X125288536Y-59065526D01*
X125250000Y-59137622D01*
X125211464Y-59065526D01*
X125030265Y-58844735D01*
X124809474Y-58663536D01*
X124725000Y-58618384D01*
X124725000Y-56373306D01*
X125487482Y-55610825D01*
X125515131Y-55588134D01*
X125537823Y-55560484D01*
X125537830Y-55560477D01*
X125605732Y-55477739D01*
X125673053Y-55351790D01*
X125701541Y-55257876D01*
X125714509Y-55215127D01*
X125725000Y-55108609D01*
X125725000Y-55108602D01*
X125728506Y-55073002D01*
X125725000Y-55037402D01*
X125725000Y-50100000D01*
X127089375Y-50100000D01*
X127090251Y-50100719D01*
G36*
X124275000Y-54772697D02*
G01*
X123512523Y-55535175D01*
X123484869Y-55557870D01*
X123462173Y-55585525D01*
X123462170Y-55585528D01*
X123394269Y-55668266D01*
X123326947Y-55794215D01*
X123302442Y-55875000D01*
X123285492Y-55930877D01*
X123278493Y-56001937D01*
X123271494Y-56073002D01*
X123275001Y-56108609D01*
X123275000Y-58618384D01*
X123190527Y-58663536D01*
X122969736Y-58844735D01*
X122788536Y-59065526D01*
X122750000Y-59137622D01*
X122711464Y-59065526D01*
X122530265Y-58844735D01*
X122309474Y-58663536D01*
X122225000Y-58618384D01*
X122225000Y-50295292D01*
X122420292Y-50100000D01*
X124275001Y-50100000D01*
X124275000Y-54772697D01*
G37*
X124275000Y-54772697D02*
X123512523Y-55535175D01*
X123484869Y-55557870D01*
X123462173Y-55585525D01*
X123462170Y-55585528D01*
X123394269Y-55668266D01*
X123326947Y-55794215D01*
X123302442Y-55875000D01*
X123285492Y-55930877D01*
X123278493Y-56001937D01*
X123271494Y-56073002D01*
X123275001Y-56108609D01*
X123275000Y-58618384D01*
X123190527Y-58663536D01*
X122969736Y-58844735D01*
X122788536Y-59065526D01*
X122750000Y-59137622D01*
X122711464Y-59065526D01*
X122530265Y-58844735D01*
X122309474Y-58663536D01*
X122225000Y-58618384D01*
X122225000Y-50295292D01*
X122420292Y-50100000D01*
X124275001Y-50100000D01*
X124275000Y-54772697D01*
G36*
X159375000Y-77128581D02*
G01*
X159326289Y-77055679D01*
X159124321Y-76853711D01*
X158886833Y-76695027D01*
X158622949Y-76585723D01*
X158342813Y-76530000D01*
X158057187Y-76530000D01*
X157777051Y-76585723D01*
X157513167Y-76695027D01*
X157275679Y-76853711D01*
X157073711Y-77055679D01*
X156915027Y-77293167D01*
X156805723Y-77557051D01*
X156750000Y-77837187D01*
X156750000Y-78122813D01*
X156805723Y-78402949D01*
X156915027Y-78666833D01*
X157073711Y-78904321D01*
X157275679Y-79106289D01*
X157490758Y-79250000D01*
X157275679Y-79393711D01*
X157073711Y-79595679D01*
X156915027Y-79833167D01*
X156805723Y-80097051D01*
X156750000Y-80377187D01*
X156750000Y-80662813D01*
X156805723Y-80942949D01*
X156915027Y-81206833D01*
X157073711Y-81444321D01*
X157275679Y-81646289D01*
X157490758Y-81790000D01*
X157275679Y-81933711D01*
X157073711Y-82135679D01*
X156915027Y-82373167D01*
X156805723Y-82637051D01*
X156750000Y-82917187D01*
X156750000Y-83202813D01*
X156805723Y-83482949D01*
X156915027Y-83746833D01*
X157073711Y-83984321D01*
X157275679Y-84186289D01*
X157490758Y-84330000D01*
X157275679Y-84473711D01*
X157073711Y-84675679D01*
X156915027Y-84913167D01*
X156805723Y-85177051D01*
X156750000Y-85457187D01*
X156750000Y-85742813D01*
X156805723Y-86022949D01*
X156915027Y-86286833D01*
X157073711Y-86524321D01*
X157275679Y-86726289D01*
X157490758Y-86870000D01*
X157275679Y-87013711D01*
X157073711Y-87215679D01*
X156915027Y-87453167D01*
X156805723Y-87717051D01*
X156750000Y-87997187D01*
X156750000Y-88282813D01*
X156805723Y-88562949D01*
X156915027Y-88826833D01*
X157073711Y-89064321D01*
X157275679Y-89266289D01*
X157490758Y-89410000D01*
X157275679Y-89553711D01*
X157073711Y-89755679D01*
X156915027Y-89993167D01*
X156805723Y-90257051D01*
X156750000Y-90537187D01*
X156750000Y-90822813D01*
X156805723Y-91102949D01*
X156915027Y-91366833D01*
X157073711Y-91604321D01*
X157275679Y-91806289D01*
X157490758Y-91950000D01*
X157275679Y-92093711D01*
X157073711Y-92295679D01*
X156915027Y-92533167D01*
X156805723Y-92797051D01*
X156750000Y-93077187D01*
X156750000Y-93362813D01*
X156805723Y-93642949D01*
X156915027Y-93906833D01*
X157073711Y-94144321D01*
X157275679Y-94346289D01*
X157490758Y-94490000D01*
X157275679Y-94633711D01*
X157073711Y-94835679D01*
X156915027Y-95073167D01*
X156805723Y-95337051D01*
X156750000Y-95617187D01*
X156750000Y-95902813D01*
X156805723Y-96182949D01*
X156915027Y-96446833D01*
X157073711Y-96684321D01*
X157275679Y-96886289D01*
X157490758Y-97030000D01*
X157275679Y-97173711D01*
X157073711Y-97375679D01*
X156915027Y-97613167D01*
X156805723Y-97877051D01*
X156750000Y-98157187D01*
X156750000Y-98442813D01*
X156805723Y-98722949D01*
X156915027Y-98986833D01*
X157073711Y-99224321D01*
X157275679Y-99426289D01*
X157490758Y-99570000D01*
X157275679Y-99713711D01*
X157073711Y-99915679D01*
X156915027Y-100153167D01*
X156805723Y-100417051D01*
X156750000Y-100697187D01*
X156750000Y-100982813D01*
X156805723Y-101262949D01*
X156915027Y-101526833D01*
X157073711Y-101764321D01*
X157275679Y-101966289D01*
X157490758Y-102110000D01*
X157275679Y-102253711D01*
X157073711Y-102455679D01*
X156915027Y-102693167D01*
X156805723Y-102957051D01*
X156750000Y-103237187D01*
X156750000Y-103522813D01*
X156805723Y-103802949D01*
X156915027Y-104066833D01*
X157073711Y-104304321D01*
X157275679Y-104506289D01*
X157367511Y-104567649D01*
X157350000Y-104567581D01*
X157251983Y-104577235D01*
X157157733Y-104605825D01*
X157070871Y-104652254D01*
X156994736Y-104714736D01*
X156932254Y-104790871D01*
X156885825Y-104877733D01*
X156857235Y-104971983D01*
X156847581Y-105070000D01*
X156850000Y-105695000D01*
X156975000Y-105820000D01*
X158100000Y-105820000D01*
X158100000Y-105800000D01*
X158300000Y-105800000D01*
X158300000Y-105820000D01*
X158320000Y-105820000D01*
X158320000Y-106020000D01*
X158300000Y-106020000D01*
X158300000Y-107145000D01*
X158425000Y-107270000D01*
X159050000Y-107272419D01*
X159148017Y-107262765D01*
X159242267Y-107234175D01*
X159329129Y-107187746D01*
X159375000Y-107150101D01*
X159375000Y-107375000D01*
X141625000Y-107375000D01*
X141625000Y-107124812D01*
X141683683Y-107196317D01*
X141775045Y-107271296D01*
X141879279Y-107327010D01*
X141992379Y-107361318D01*
X142110000Y-107372903D01*
X143810000Y-107372903D01*
X143927621Y-107361318D01*
X144040721Y-107327010D01*
X144144955Y-107271296D01*
X144236317Y-107196317D01*
X144311296Y-107104955D01*
X144367010Y-107000721D01*
X144401318Y-106887621D01*
X144412903Y-106770000D01*
X156847581Y-106770000D01*
X156857235Y-106868017D01*
X156885825Y-106962267D01*
X156932254Y-107049129D01*
X156994736Y-107125264D01*
X157070871Y-107187746D01*
X157157733Y-107234175D01*
X157251983Y-107262765D01*
X157350000Y-107272419D01*
X157975000Y-107270000D01*
X158100000Y-107145000D01*
X158100000Y-106020000D01*
X156975000Y-106020000D01*
X156850000Y-106145000D01*
X156847581Y-106770000D01*
X144412903Y-106770000D01*
X144412903Y-105070000D01*
X144401318Y-104952379D01*
X144367010Y-104839279D01*
X144311296Y-104735045D01*
X144236317Y-104643683D01*
X144144955Y-104568704D01*
X144040721Y-104512990D01*
X143927621Y-104478682D01*
X143913335Y-104477275D01*
X144086289Y-104304321D01*
X144219471Y-104105000D01*
X148284403Y-104105000D01*
X148320000Y-104108506D01*
X148355597Y-104105000D01*
X148355607Y-104105000D01*
X148462125Y-104094509D01*
X148598788Y-104053053D01*
X148724737Y-103985731D01*
X148835132Y-103895132D01*
X148857832Y-103867472D01*
X152591477Y-100133828D01*
X152619132Y-100111132D01*
X152709731Y-100000737D01*
X152777053Y-99874788D01*
X152818509Y-99738125D01*
X152829000Y-99631607D01*
X152829000Y-99631598D01*
X152832506Y-99596001D01*
X152829000Y-99560404D01*
X152829000Y-96919366D01*
X152935755Y-96831755D01*
X153040270Y-96704403D01*
X153117931Y-96559108D01*
X153165755Y-96401454D01*
X153181903Y-96237500D01*
X153181903Y-95662500D01*
X153165755Y-95498546D01*
X153117931Y-95340892D01*
X153040270Y-95195597D01*
X152941299Y-95075000D01*
X153040270Y-94954403D01*
X153085738Y-94869338D01*
X153204737Y-94805731D01*
X153315132Y-94715132D01*
X153337832Y-94687472D01*
X154557477Y-93467828D01*
X154585132Y-93445132D01*
X154675731Y-93334737D01*
X154743053Y-93208788D01*
X154784509Y-93072125D01*
X154795000Y-92965607D01*
X154795000Y-92965598D01*
X154798506Y-92930001D01*
X154795000Y-92894404D01*
X154795000Y-92334617D01*
X154804955Y-92329296D01*
X154896317Y-92254317D01*
X154971296Y-92162955D01*
X155027010Y-92058721D01*
X155061318Y-91945621D01*
X155072903Y-91828000D01*
X155072903Y-90928000D01*
X155061318Y-90810379D01*
X155027010Y-90697279D01*
X154971296Y-90593045D01*
X154896317Y-90501683D01*
X154804955Y-90426704D01*
X154700721Y-90370990D01*
X154587621Y-90336682D01*
X154470000Y-90325097D01*
X153670000Y-90325097D01*
X153552379Y-90336682D01*
X153439279Y-90370990D01*
X153335045Y-90426704D01*
X153243683Y-90501683D01*
X153168704Y-90593045D01*
X153120000Y-90684164D01*
X153071296Y-90593045D01*
X152996317Y-90501683D01*
X152904955Y-90426704D01*
X152800721Y-90370990D01*
X152687621Y-90336682D01*
X152570000Y-90325097D01*
X151770000Y-90325097D01*
X151652379Y-90336682D01*
X151539279Y-90370990D01*
X151435045Y-90426704D01*
X151343683Y-90501683D01*
X151268704Y-90593045D01*
X151212990Y-90697279D01*
X151178682Y-90810379D01*
X151167097Y-90928000D01*
X151167097Y-91355598D01*
X150012523Y-92510173D01*
X149984869Y-92532868D01*
X149962173Y-92560523D01*
X149962170Y-92560526D01*
X149894269Y-92643264D01*
X149826947Y-92769213D01*
X149785492Y-92905876D01*
X149771494Y-93048000D01*
X149775001Y-93083607D01*
X149775001Y-93296668D01*
X149725000Y-93255634D01*
X149725000Y-92329259D01*
X149816317Y-92254317D01*
X149891296Y-92162955D01*
X149947010Y-92058721D01*
X149981318Y-91945621D01*
X149992903Y-91828000D01*
X149992903Y-90928000D01*
X149981318Y-90810379D01*
X149947010Y-90697279D01*
X149891296Y-90593045D01*
X149816317Y-90501683D01*
X149724955Y-90426704D01*
X149620721Y-90370990D01*
X149507621Y-90336682D01*
X149390000Y-90325097D01*
X148590000Y-90325097D01*
X148472379Y-90336682D01*
X148359279Y-90370990D01*
X148255045Y-90426704D01*
X148163683Y-90501683D01*
X148088704Y-90593045D01*
X148040000Y-90684164D01*
X147991296Y-90593045D01*
X147916317Y-90501683D01*
X147824955Y-90426704D01*
X147720721Y-90370990D01*
X147607621Y-90336682D01*
X147490000Y-90325097D01*
X146690000Y-90325097D01*
X146572379Y-90336682D01*
X146459279Y-90370990D01*
X146355045Y-90426704D01*
X146263683Y-90501683D01*
X146188704Y-90593045D01*
X146132990Y-90697279D01*
X146098682Y-90810379D01*
X146087097Y-90928000D01*
X146087097Y-91828000D01*
X146098682Y-91945621D01*
X146132990Y-92058721D01*
X146188704Y-92162955D01*
X146263683Y-92254317D01*
X146355045Y-92329296D01*
X146375001Y-92339963D01*
X146375000Y-95210786D01*
X146323249Y-95262537D01*
X146213811Y-95426322D01*
X146138429Y-95608311D01*
X146100000Y-95801509D01*
X146100000Y-95998491D01*
X146138429Y-96191689D01*
X146213811Y-96373678D01*
X146323249Y-96537463D01*
X146462537Y-96676751D01*
X146626322Y-96786189D01*
X146808311Y-96861571D01*
X147001509Y-96900000D01*
X147198491Y-96900000D01*
X147391689Y-96861571D01*
X147573678Y-96786189D01*
X147737463Y-96676751D01*
X147876751Y-96537463D01*
X147942204Y-96439506D01*
X147986069Y-96584108D01*
X148063730Y-96729403D01*
X148168245Y-96856755D01*
X148275000Y-96944367D01*
X148275000Y-97399695D01*
X145559696Y-100115000D01*
X144219471Y-100115000D01*
X144086289Y-99915679D01*
X143884321Y-99713711D01*
X143669242Y-99570000D01*
X143884321Y-99426289D01*
X144086289Y-99224321D01*
X144244973Y-98986833D01*
X144354277Y-98722949D01*
X144410000Y-98442813D01*
X144410000Y-98157187D01*
X144363232Y-97922072D01*
X145787477Y-96497828D01*
X145815132Y-96475132D01*
X145838357Y-96446833D01*
X145905731Y-96364737D01*
X145973053Y-96238788D01*
X145989991Y-96182949D01*
X146014509Y-96102125D01*
X146025000Y-95995607D01*
X146025000Y-95995597D01*
X146028506Y-95960000D01*
X146025000Y-95924403D01*
X146025000Y-90534619D01*
X147045572Y-89514047D01*
X147048682Y-89545621D01*
X147082990Y-89658721D01*
X147138704Y-89762955D01*
X147213683Y-89854317D01*
X147305045Y-89929296D01*
X147409279Y-89985010D01*
X147522379Y-90019318D01*
X147640000Y-90030903D01*
X148440000Y-90030903D01*
X148557621Y-90019318D01*
X148670721Y-89985010D01*
X148774955Y-89929296D01*
X148866317Y-89854317D01*
X148941296Y-89762955D01*
X148973342Y-89703000D01*
X149286403Y-89703000D01*
X149322000Y-89706506D01*
X149357597Y-89703000D01*
X149357607Y-89703000D01*
X149464125Y-89692509D01*
X149600788Y-89651053D01*
X149726737Y-89583731D01*
X149837132Y-89493132D01*
X149859832Y-89465472D01*
X151067482Y-88257823D01*
X151095131Y-88235132D01*
X151117823Y-88207482D01*
X151117830Y-88207475D01*
X151185731Y-88124737D01*
X151253053Y-87998788D01*
X151269960Y-87943053D01*
X151294509Y-87862125D01*
X151305000Y-87755607D01*
X151305000Y-87755600D01*
X151308506Y-87720000D01*
X151305000Y-87684400D01*
X151305000Y-86881986D01*
X151334403Y-86866270D01*
X151461755Y-86761755D01*
X151566270Y-86634403D01*
X151643931Y-86489108D01*
X151691755Y-86331454D01*
X151707903Y-86167500D01*
X151707903Y-85692500D01*
X151691755Y-85528546D01*
X151643931Y-85370892D01*
X151566270Y-85225597D01*
X151461755Y-85098245D01*
X151334403Y-84993730D01*
X151305000Y-84978014D01*
X151305000Y-76699471D01*
X151504321Y-76566289D01*
X151706289Y-76364321D01*
X151850000Y-76149242D01*
X151993711Y-76364321D01*
X152195679Y-76566289D01*
X152395000Y-76699471D01*
X152395001Y-78305364D01*
X152321152Y-78344837D01*
X152191906Y-78450906D01*
X152085837Y-78580152D01*
X152007020Y-78727608D01*
X151958485Y-78887606D01*
X151942097Y-79053999D01*
X151942097Y-79954001D01*
X151958485Y-80120394D01*
X152007020Y-80280392D01*
X152085837Y-80427848D01*
X152191906Y-80557094D01*
X152321152Y-80663163D01*
X152395000Y-80702636D01*
X152395001Y-84978013D01*
X152365597Y-84993730D01*
X152238245Y-85098245D01*
X152133730Y-85225597D01*
X152056069Y-85370892D01*
X152008245Y-85528546D01*
X151992097Y-85692500D01*
X151992097Y-86167500D01*
X152008245Y-86331454D01*
X152056069Y-86489108D01*
X152133730Y-86634403D01*
X152238245Y-86761755D01*
X152365597Y-86866270D01*
X152395000Y-86881986D01*
X152395001Y-88021383D01*
X152385045Y-88026704D01*
X152293683Y-88101683D01*
X152218704Y-88193045D01*
X152162990Y-88297279D01*
X152128682Y-88410379D01*
X152117097Y-88528000D01*
X152117097Y-89428000D01*
X152128682Y-89545621D01*
X152162990Y-89658721D01*
X152218704Y-89762955D01*
X152293683Y-89854317D01*
X152385045Y-89929296D01*
X152489279Y-89985010D01*
X152602379Y-90019318D01*
X152720000Y-90030903D01*
X153520000Y-90030903D01*
X153637621Y-90019318D01*
X153750721Y-89985010D01*
X153854955Y-89929296D01*
X153946317Y-89854317D01*
X154021296Y-89762955D01*
X154077010Y-89658721D01*
X154111318Y-89545621D01*
X154122903Y-89428000D01*
X154122903Y-88528000D01*
X154111318Y-88410379D01*
X154077010Y-88297279D01*
X154021296Y-88193045D01*
X153946317Y-88101683D01*
X153854955Y-88026704D01*
X153845000Y-88021383D01*
X153845000Y-86881986D01*
X153874403Y-86866270D01*
X153995000Y-86767299D01*
X154032620Y-86798173D01*
X154013811Y-86826322D01*
X153938429Y-87008311D01*
X153900000Y-87201509D01*
X153900000Y-87398491D01*
X153938429Y-87591689D01*
X154013811Y-87773678D01*
X154123249Y-87937463D01*
X154262537Y-88076751D01*
X154426322Y-88186189D01*
X154608311Y-88261571D01*
X154801509Y-88300000D01*
X154998491Y-88300000D01*
X155191689Y-88261571D01*
X155373678Y-88186189D01*
X155537463Y-88076751D01*
X155676751Y-87937463D01*
X155786189Y-87773678D01*
X155861571Y-87591689D01*
X155900000Y-87398491D01*
X155900000Y-87201509D01*
X155861571Y-87008311D01*
X155786189Y-86826322D01*
X155746131Y-86766371D01*
X155751755Y-86761755D01*
X155856270Y-86634403D01*
X155933931Y-86489108D01*
X155981755Y-86331454D01*
X155997903Y-86167500D01*
X155997903Y-85692500D01*
X155981755Y-85528546D01*
X155933931Y-85370892D01*
X155856270Y-85225597D01*
X155751755Y-85098245D01*
X155624403Y-84993730D01*
X155479108Y-84916069D01*
X155321454Y-84868245D01*
X155157500Y-84852097D01*
X154582500Y-84852097D01*
X154418546Y-84868245D01*
X154260892Y-84916069D01*
X154115597Y-84993730D01*
X153995000Y-85092701D01*
X153874403Y-84993730D01*
X153845000Y-84978014D01*
X153845000Y-80702636D01*
X153918848Y-80663163D01*
X154048094Y-80557094D01*
X154150252Y-80432613D01*
X154177254Y-80483129D01*
X154239736Y-80559264D01*
X154315871Y-80621746D01*
X154402733Y-80668175D01*
X154496983Y-80696765D01*
X154595000Y-80706419D01*
X154945000Y-80704000D01*
X155070000Y-80579000D01*
X155070000Y-79604000D01*
X155270000Y-79604000D01*
X155270000Y-80579000D01*
X155395000Y-80704000D01*
X155745000Y-80706419D01*
X155843017Y-80696765D01*
X155937267Y-80668175D01*
X156024129Y-80621746D01*
X156100264Y-80559264D01*
X156162746Y-80483129D01*
X156209175Y-80396267D01*
X156237765Y-80302017D01*
X156247419Y-80204000D01*
X156245000Y-79729000D01*
X156120000Y-79604000D01*
X155270000Y-79604000D01*
X155070000Y-79604000D01*
X155050000Y-79604000D01*
X155050000Y-79404000D01*
X155070000Y-79404000D01*
X155070000Y-78429000D01*
X155270000Y-78429000D01*
X155270000Y-79404000D01*
X156120000Y-79404000D01*
X156245000Y-79279000D01*
X156247419Y-78804000D01*
X156237765Y-78705983D01*
X156209175Y-78611733D01*
X156162746Y-78524871D01*
X156100264Y-78448736D01*
X156024129Y-78386254D01*
X155937267Y-78339825D01*
X155843017Y-78311235D01*
X155745000Y-78301581D01*
X155395000Y-78304000D01*
X155270000Y-78429000D01*
X155070000Y-78429000D01*
X154945000Y-78304000D01*
X154595000Y-78301581D01*
X154496983Y-78311235D01*
X154402733Y-78339825D01*
X154315871Y-78386254D01*
X154239736Y-78448736D01*
X154177254Y-78524871D01*
X154150252Y-78575387D01*
X154048094Y-78450906D01*
X153918848Y-78344837D01*
X153845000Y-78305364D01*
X153845000Y-76699471D01*
X154044321Y-76566289D01*
X154246289Y-76364321D01*
X154404973Y-76126833D01*
X154446737Y-76026005D01*
X154564345Y-76228701D01*
X154739266Y-76427298D01*
X154949570Y-76587954D01*
X155187175Y-76704494D01*
X155350625Y-76754072D01*
X155560000Y-76660912D01*
X155560000Y-75540000D01*
X155760000Y-75540000D01*
X155760000Y-76660912D01*
X155969375Y-76754072D01*
X156132825Y-76704494D01*
X156370430Y-76587954D01*
X156580734Y-76427298D01*
X156755655Y-76228701D01*
X156888470Y-75999795D01*
X156974076Y-75749376D01*
X156881295Y-75540000D01*
X155760000Y-75540000D01*
X155560000Y-75540000D01*
X155540000Y-75540000D01*
X155540000Y-75340000D01*
X155560000Y-75340000D01*
X155560000Y-75320000D01*
X155760000Y-75320000D01*
X155760000Y-75340000D01*
X156881295Y-75340000D01*
X156974076Y-75130624D01*
X156888470Y-74880205D01*
X156755655Y-74651299D01*
X156580734Y-74452702D01*
X156370430Y-74292046D01*
X156132825Y-74175506D01*
X155969375Y-74125928D01*
X155760002Y-74219087D01*
X155760002Y-74100000D01*
X159375000Y-74100000D01*
X159375000Y-77128581D01*
G37*
X159375000Y-77128581D02*
X159326289Y-77055679D01*
X159124321Y-76853711D01*
X158886833Y-76695027D01*
X158622949Y-76585723D01*
X158342813Y-76530000D01*
X158057187Y-76530000D01*
X157777051Y-76585723D01*
X157513167Y-76695027D01*
X157275679Y-76853711D01*
X157073711Y-77055679D01*
X156915027Y-77293167D01*
X156805723Y-77557051D01*
X156750000Y-77837187D01*
X156750000Y-78122813D01*
X156805723Y-78402949D01*
X156915027Y-78666833D01*
X157073711Y-78904321D01*
X157275679Y-79106289D01*
X157490758Y-79250000D01*
X157275679Y-79393711D01*
X157073711Y-79595679D01*
X156915027Y-79833167D01*
X156805723Y-80097051D01*
X156750000Y-80377187D01*
X156750000Y-80662813D01*
X156805723Y-80942949D01*
X156915027Y-81206833D01*
X157073711Y-81444321D01*
X157275679Y-81646289D01*
X157490758Y-81790000D01*
X157275679Y-81933711D01*
X157073711Y-82135679D01*
X156915027Y-82373167D01*
X156805723Y-82637051D01*
X156750000Y-82917187D01*
X156750000Y-83202813D01*
X156805723Y-83482949D01*
X156915027Y-83746833D01*
X157073711Y-83984321D01*
X157275679Y-84186289D01*
X157490758Y-84330000D01*
X157275679Y-84473711D01*
X157073711Y-84675679D01*
X156915027Y-84913167D01*
X156805723Y-85177051D01*
X156750000Y-85457187D01*
X156750000Y-85742813D01*
X156805723Y-86022949D01*
X156915027Y-86286833D01*
X157073711Y-86524321D01*
X157275679Y-86726289D01*
X157490758Y-86870000D01*
X157275679Y-87013711D01*
X157073711Y-87215679D01*
X156915027Y-87453167D01*
X156805723Y-87717051D01*
X156750000Y-87997187D01*
X156750000Y-88282813D01*
X156805723Y-88562949D01*
X156915027Y-88826833D01*
X157073711Y-89064321D01*
X157275679Y-89266289D01*
X157490758Y-89410000D01*
X157275679Y-89553711D01*
X157073711Y-89755679D01*
X156915027Y-89993167D01*
X156805723Y-90257051D01*
X156750000Y-90537187D01*
X156750000Y-90822813D01*
X156805723Y-91102949D01*
X156915027Y-91366833D01*
X157073711Y-91604321D01*
X157275679Y-91806289D01*
X157490758Y-91950000D01*
X157275679Y-92093711D01*
X157073711Y-92295679D01*
X156915027Y-92533167D01*
X156805723Y-92797051D01*
X156750000Y-93077187D01*
X156750000Y-93362813D01*
X156805723Y-93642949D01*
X156915027Y-93906833D01*
X157073711Y-94144321D01*
X157275679Y-94346289D01*
X157490758Y-94490000D01*
X157275679Y-94633711D01*
X157073711Y-94835679D01*
X156915027Y-95073167D01*
X156805723Y-95337051D01*
X156750000Y-95617187D01*
X156750000Y-95902813D01*
X156805723Y-96182949D01*
X156915027Y-96446833D01*
X157073711Y-96684321D01*
X157275679Y-96886289D01*
X157490758Y-97030000D01*
X157275679Y-97173711D01*
X157073711Y-97375679D01*
X156915027Y-97613167D01*
X156805723Y-97877051D01*
X156750000Y-98157187D01*
X156750000Y-98442813D01*
X156805723Y-98722949D01*
X156915027Y-98986833D01*
X157073711Y-99224321D01*
X157275679Y-99426289D01*
X157490758Y-99570000D01*
X157275679Y-99713711D01*
X157073711Y-99915679D01*
X156915027Y-100153167D01*
X156805723Y-100417051D01*
X156750000Y-100697187D01*
X156750000Y-100982813D01*
X156805723Y-101262949D01*
X156915027Y-101526833D01*
X157073711Y-101764321D01*
X157275679Y-101966289D01*
X157490758Y-102110000D01*
X157275679Y-102253711D01*
X157073711Y-102455679D01*
X156915027Y-102693167D01*
X156805723Y-102957051D01*
X156750000Y-103237187D01*
X156750000Y-103522813D01*
X156805723Y-103802949D01*
X156915027Y-104066833D01*
X157073711Y-104304321D01*
X157275679Y-104506289D01*
X157367511Y-104567649D01*
X157350000Y-104567581D01*
X157251983Y-104577235D01*
X157157733Y-104605825D01*
X157070871Y-104652254D01*
X156994736Y-104714736D01*
X156932254Y-104790871D01*
X156885825Y-104877733D01*
X156857235Y-104971983D01*
X156847581Y-105070000D01*
X156850000Y-105695000D01*
X156975000Y-105820000D01*
X158100000Y-105820000D01*
X158100000Y-105800000D01*
X158300000Y-105800000D01*
X158300000Y-105820000D01*
X158320000Y-105820000D01*
X158320000Y-106020000D01*
X158300000Y-106020000D01*
X158300000Y-107145000D01*
X158425000Y-107270000D01*
X159050000Y-107272419D01*
X159148017Y-107262765D01*
X159242267Y-107234175D01*
X159329129Y-107187746D01*
X159375000Y-107150101D01*
X159375000Y-107375000D01*
X141625000Y-107375000D01*
X141625000Y-107124812D01*
X141683683Y-107196317D01*
X141775045Y-107271296D01*
X141879279Y-107327010D01*
X141992379Y-107361318D01*
X142110000Y-107372903D01*
X143810000Y-107372903D01*
X143927621Y-107361318D01*
X144040721Y-107327010D01*
X144144955Y-107271296D01*
X144236317Y-107196317D01*
X144311296Y-107104955D01*
X144367010Y-107000721D01*
X144401318Y-106887621D01*
X144412903Y-106770000D01*
X156847581Y-106770000D01*
X156857235Y-106868017D01*
X156885825Y-106962267D01*
X156932254Y-107049129D01*
X156994736Y-107125264D01*
X157070871Y-107187746D01*
X157157733Y-107234175D01*
X157251983Y-107262765D01*
X157350000Y-107272419D01*
X157975000Y-107270000D01*
X158100000Y-107145000D01*
X158100000Y-106020000D01*
X156975000Y-106020000D01*
X156850000Y-106145000D01*
X156847581Y-106770000D01*
X144412903Y-106770000D01*
X144412903Y-105070000D01*
X144401318Y-104952379D01*
X144367010Y-104839279D01*
X144311296Y-104735045D01*
X144236317Y-104643683D01*
X144144955Y-104568704D01*
X144040721Y-104512990D01*
X143927621Y-104478682D01*
X143913335Y-104477275D01*
X144086289Y-104304321D01*
X144219471Y-104105000D01*
X148284403Y-104105000D01*
X148320000Y-104108506D01*
X148355597Y-104105000D01*
X148355607Y-104105000D01*
X148462125Y-104094509D01*
X148598788Y-104053053D01*
X148724737Y-103985731D01*
X148835132Y-103895132D01*
X148857832Y-103867472D01*
X152591477Y-100133828D01*
X152619132Y-100111132D01*
X152709731Y-100000737D01*
X152777053Y-99874788D01*
X152818509Y-99738125D01*
X152829000Y-99631607D01*
X152829000Y-99631598D01*
X152832506Y-99596001D01*
X152829000Y-99560404D01*
X152829000Y-96919366D01*
X152935755Y-96831755D01*
X153040270Y-96704403D01*
X153117931Y-96559108D01*
X153165755Y-96401454D01*
X153181903Y-96237500D01*
X153181903Y-95662500D01*
X153165755Y-95498546D01*
X153117931Y-95340892D01*
X153040270Y-95195597D01*
X152941299Y-95075000D01*
X153040270Y-94954403D01*
X153085738Y-94869338D01*
X153204737Y-94805731D01*
X153315132Y-94715132D01*
X153337832Y-94687472D01*
X154557477Y-93467828D01*
X154585132Y-93445132D01*
X154675731Y-93334737D01*
X154743053Y-93208788D01*
X154784509Y-93072125D01*
X154795000Y-92965607D01*
X154795000Y-92965598D01*
X154798506Y-92930001D01*
X154795000Y-92894404D01*
X154795000Y-92334617D01*
X154804955Y-92329296D01*
X154896317Y-92254317D01*
X154971296Y-92162955D01*
X155027010Y-92058721D01*
X155061318Y-91945621D01*
X155072903Y-91828000D01*
X155072903Y-90928000D01*
X155061318Y-90810379D01*
X155027010Y-90697279D01*
X154971296Y-90593045D01*
X154896317Y-90501683D01*
X154804955Y-90426704D01*
X154700721Y-90370990D01*
X154587621Y-90336682D01*
X154470000Y-90325097D01*
X153670000Y-90325097D01*
X153552379Y-90336682D01*
X153439279Y-90370990D01*
X153335045Y-90426704D01*
X153243683Y-90501683D01*
X153168704Y-90593045D01*
X153120000Y-90684164D01*
X153071296Y-90593045D01*
X152996317Y-90501683D01*
X152904955Y-90426704D01*
X152800721Y-90370990D01*
X152687621Y-90336682D01*
X152570000Y-90325097D01*
X151770000Y-90325097D01*
X151652379Y-90336682D01*
X151539279Y-90370990D01*
X151435045Y-90426704D01*
X151343683Y-90501683D01*
X151268704Y-90593045D01*
X151212990Y-90697279D01*
X151178682Y-90810379D01*
X151167097Y-90928000D01*
X151167097Y-91355598D01*
X150012523Y-92510173D01*
X149984869Y-92532868D01*
X149962173Y-92560523D01*
X149962170Y-92560526D01*
X149894269Y-92643264D01*
X149826947Y-92769213D01*
X149785492Y-92905876D01*
X149771494Y-93048000D01*
X149775001Y-93083607D01*
X149775001Y-93296668D01*
X149725000Y-93255634D01*
X149725000Y-92329259D01*
X149816317Y-92254317D01*
X149891296Y-92162955D01*
X149947010Y-92058721D01*
X149981318Y-91945621D01*
X149992903Y-91828000D01*
X149992903Y-90928000D01*
X149981318Y-90810379D01*
X149947010Y-90697279D01*
X149891296Y-90593045D01*
X149816317Y-90501683D01*
X149724955Y-90426704D01*
X149620721Y-90370990D01*
X149507621Y-90336682D01*
X149390000Y-90325097D01*
X148590000Y-90325097D01*
X148472379Y-90336682D01*
X148359279Y-90370990D01*
X148255045Y-90426704D01*
X148163683Y-90501683D01*
X148088704Y-90593045D01*
X148040000Y-90684164D01*
X147991296Y-90593045D01*
X147916317Y-90501683D01*
X147824955Y-90426704D01*
X147720721Y-90370990D01*
X147607621Y-90336682D01*
X147490000Y-90325097D01*
X146690000Y-90325097D01*
X146572379Y-90336682D01*
X146459279Y-90370990D01*
X146355045Y-90426704D01*
X146263683Y-90501683D01*
X146188704Y-90593045D01*
X146132990Y-90697279D01*
X146098682Y-90810379D01*
X146087097Y-90928000D01*
X146087097Y-91828000D01*
X146098682Y-91945621D01*
X146132990Y-92058721D01*
X146188704Y-92162955D01*
X146263683Y-92254317D01*
X146355045Y-92329296D01*
X146375001Y-92339963D01*
X146375000Y-95210786D01*
X146323249Y-95262537D01*
X146213811Y-95426322D01*
X146138429Y-95608311D01*
X146100000Y-95801509D01*
X146100000Y-95998491D01*
X146138429Y-96191689D01*
X146213811Y-96373678D01*
X146323249Y-96537463D01*
X146462537Y-96676751D01*
X146626322Y-96786189D01*
X146808311Y-96861571D01*
X147001509Y-96900000D01*
X147198491Y-96900000D01*
X147391689Y-96861571D01*
X147573678Y-96786189D01*
X147737463Y-96676751D01*
X147876751Y-96537463D01*
X147942204Y-96439506D01*
X147986069Y-96584108D01*
X148063730Y-96729403D01*
X148168245Y-96856755D01*
X148275000Y-96944367D01*
X148275000Y-97399695D01*
X145559696Y-100115000D01*
X144219471Y-100115000D01*
X144086289Y-99915679D01*
X143884321Y-99713711D01*
X143669242Y-99570000D01*
X143884321Y-99426289D01*
X144086289Y-99224321D01*
X144244973Y-98986833D01*
X144354277Y-98722949D01*
X144410000Y-98442813D01*
X144410000Y-98157187D01*
X144363232Y-97922072D01*
X145787477Y-96497828D01*
X145815132Y-96475132D01*
X145838357Y-96446833D01*
X145905731Y-96364737D01*
X145973053Y-96238788D01*
X145989991Y-96182949D01*
X146014509Y-96102125D01*
X146025000Y-95995607D01*
X146025000Y-95995597D01*
X146028506Y-95960000D01*
X146025000Y-95924403D01*
X146025000Y-90534619D01*
X147045572Y-89514047D01*
X147048682Y-89545621D01*
X147082990Y-89658721D01*
X147138704Y-89762955D01*
X147213683Y-89854317D01*
X147305045Y-89929296D01*
X147409279Y-89985010D01*
X147522379Y-90019318D01*
X147640000Y-90030903D01*
X148440000Y-90030903D01*
X148557621Y-90019318D01*
X148670721Y-89985010D01*
X148774955Y-89929296D01*
X148866317Y-89854317D01*
X148941296Y-89762955D01*
X148973342Y-89703000D01*
X149286403Y-89703000D01*
X149322000Y-89706506D01*
X149357597Y-89703000D01*
X149357607Y-89703000D01*
X149464125Y-89692509D01*
X149600788Y-89651053D01*
X149726737Y-89583731D01*
X149837132Y-89493132D01*
X149859832Y-89465472D01*
X151067482Y-88257823D01*
X151095131Y-88235132D01*
X151117823Y-88207482D01*
X151117830Y-88207475D01*
X151185731Y-88124737D01*
X151253053Y-87998788D01*
X151269960Y-87943053D01*
X151294509Y-87862125D01*
X151305000Y-87755607D01*
X151305000Y-87755600D01*
X151308506Y-87720000D01*
X151305000Y-87684400D01*
X151305000Y-86881986D01*
X151334403Y-86866270D01*
X151461755Y-86761755D01*
X151566270Y-86634403D01*
X151643931Y-86489108D01*
X151691755Y-86331454D01*
X151707903Y-86167500D01*
X151707903Y-85692500D01*
X151691755Y-85528546D01*
X151643931Y-85370892D01*
X151566270Y-85225597D01*
X151461755Y-85098245D01*
X151334403Y-84993730D01*
X151305000Y-84978014D01*
X151305000Y-76699471D01*
X151504321Y-76566289D01*
X151706289Y-76364321D01*
X151850000Y-76149242D01*
X151993711Y-76364321D01*
X152195679Y-76566289D01*
X152395000Y-76699471D01*
X152395001Y-78305364D01*
X152321152Y-78344837D01*
X152191906Y-78450906D01*
X152085837Y-78580152D01*
X152007020Y-78727608D01*
X151958485Y-78887606D01*
X151942097Y-79053999D01*
X151942097Y-79954001D01*
X151958485Y-80120394D01*
X152007020Y-80280392D01*
X152085837Y-80427848D01*
X152191906Y-80557094D01*
X152321152Y-80663163D01*
X152395000Y-80702636D01*
X152395001Y-84978013D01*
X152365597Y-84993730D01*
X152238245Y-85098245D01*
X152133730Y-85225597D01*
X152056069Y-85370892D01*
X152008245Y-85528546D01*
X151992097Y-85692500D01*
X151992097Y-86167500D01*
X152008245Y-86331454D01*
X152056069Y-86489108D01*
X152133730Y-86634403D01*
X152238245Y-86761755D01*
X152365597Y-86866270D01*
X152395000Y-86881986D01*
X152395001Y-88021383D01*
X152385045Y-88026704D01*
X152293683Y-88101683D01*
X152218704Y-88193045D01*
X152162990Y-88297279D01*
X152128682Y-88410379D01*
X152117097Y-88528000D01*
X152117097Y-89428000D01*
X152128682Y-89545621D01*
X152162990Y-89658721D01*
X152218704Y-89762955D01*
X152293683Y-89854317D01*
X152385045Y-89929296D01*
X152489279Y-89985010D01*
X152602379Y-90019318D01*
X152720000Y-90030903D01*
X153520000Y-90030903D01*
X153637621Y-90019318D01*
X153750721Y-89985010D01*
X153854955Y-89929296D01*
X153946317Y-89854317D01*
X154021296Y-89762955D01*
X154077010Y-89658721D01*
X154111318Y-89545621D01*
X154122903Y-89428000D01*
X154122903Y-88528000D01*
X154111318Y-88410379D01*
X154077010Y-88297279D01*
X154021296Y-88193045D01*
X153946317Y-88101683D01*
X153854955Y-88026704D01*
X153845000Y-88021383D01*
X153845000Y-86881986D01*
X153874403Y-86866270D01*
X153995000Y-86767299D01*
X154032620Y-86798173D01*
X154013811Y-86826322D01*
X153938429Y-87008311D01*
X153900000Y-87201509D01*
X153900000Y-87398491D01*
X153938429Y-87591689D01*
X154013811Y-87773678D01*
X154123249Y-87937463D01*
X154262537Y-88076751D01*
X154426322Y-88186189D01*
X154608311Y-88261571D01*
X154801509Y-88300000D01*
X154998491Y-88300000D01*
X155191689Y-88261571D01*
X155373678Y-88186189D01*
X155537463Y-88076751D01*
X155676751Y-87937463D01*
X155786189Y-87773678D01*
X155861571Y-87591689D01*
X155900000Y-87398491D01*
X155900000Y-87201509D01*
X155861571Y-87008311D01*
X155786189Y-86826322D01*
X155746131Y-86766371D01*
X155751755Y-86761755D01*
X155856270Y-86634403D01*
X155933931Y-86489108D01*
X155981755Y-86331454D01*
X155997903Y-86167500D01*
X155997903Y-85692500D01*
X155981755Y-85528546D01*
X155933931Y-85370892D01*
X155856270Y-85225597D01*
X155751755Y-85098245D01*
X155624403Y-84993730D01*
X155479108Y-84916069D01*
X155321454Y-84868245D01*
X155157500Y-84852097D01*
X154582500Y-84852097D01*
X154418546Y-84868245D01*
X154260892Y-84916069D01*
X154115597Y-84993730D01*
X153995000Y-85092701D01*
X153874403Y-84993730D01*
X153845000Y-84978014D01*
X153845000Y-80702636D01*
X153918848Y-80663163D01*
X154048094Y-80557094D01*
X154150252Y-80432613D01*
X154177254Y-80483129D01*
X154239736Y-80559264D01*
X154315871Y-80621746D01*
X154402733Y-80668175D01*
X154496983Y-80696765D01*
X154595000Y-80706419D01*
X154945000Y-80704000D01*
X155070000Y-80579000D01*
X155070000Y-79604000D01*
X155270000Y-79604000D01*
X155270000Y-80579000D01*
X155395000Y-80704000D01*
X155745000Y-80706419D01*
X155843017Y-80696765D01*
X155937267Y-80668175D01*
X156024129Y-80621746D01*
X156100264Y-80559264D01*
X156162746Y-80483129D01*
X156209175Y-80396267D01*
X156237765Y-80302017D01*
X156247419Y-80204000D01*
X156245000Y-79729000D01*
X156120000Y-79604000D01*
X155270000Y-79604000D01*
X155070000Y-79604000D01*
X155050000Y-79604000D01*
X155050000Y-79404000D01*
X155070000Y-79404000D01*
X155070000Y-78429000D01*
X155270000Y-78429000D01*
X155270000Y-79404000D01*
X156120000Y-79404000D01*
X156245000Y-79279000D01*
X156247419Y-78804000D01*
X156237765Y-78705983D01*
X156209175Y-78611733D01*
X156162746Y-78524871D01*
X156100264Y-78448736D01*
X156024129Y-78386254D01*
X155937267Y-78339825D01*
X155843017Y-78311235D01*
X155745000Y-78301581D01*
X155395000Y-78304000D01*
X155270000Y-78429000D01*
X155070000Y-78429000D01*
X154945000Y-78304000D01*
X154595000Y-78301581D01*
X154496983Y-78311235D01*
X154402733Y-78339825D01*
X154315871Y-78386254D01*
X154239736Y-78448736D01*
X154177254Y-78524871D01*
X154150252Y-78575387D01*
X154048094Y-78450906D01*
X153918848Y-78344837D01*
X153845000Y-78305364D01*
X153845000Y-76699471D01*
X154044321Y-76566289D01*
X154246289Y-76364321D01*
X154404973Y-76126833D01*
X154446737Y-76026005D01*
X154564345Y-76228701D01*
X154739266Y-76427298D01*
X154949570Y-76587954D01*
X155187175Y-76704494D01*
X155350625Y-76754072D01*
X155560000Y-76660912D01*
X155560000Y-75540000D01*
X155760000Y-75540000D01*
X155760000Y-76660912D01*
X155969375Y-76754072D01*
X156132825Y-76704494D01*
X156370430Y-76587954D01*
X156580734Y-76427298D01*
X156755655Y-76228701D01*
X156888470Y-75999795D01*
X156974076Y-75749376D01*
X156881295Y-75540000D01*
X155760000Y-75540000D01*
X155560000Y-75540000D01*
X155540000Y-75540000D01*
X155540000Y-75340000D01*
X155560000Y-75340000D01*
X155560000Y-75320000D01*
X155760000Y-75320000D01*
X155760000Y-75340000D01*
X156881295Y-75340000D01*
X156974076Y-75130624D01*
X156888470Y-74880205D01*
X156755655Y-74651299D01*
X156580734Y-74452702D01*
X156370430Y-74292046D01*
X156132825Y-74175506D01*
X155969375Y-74125928D01*
X155760002Y-74219087D01*
X155760002Y-74100000D01*
X159375000Y-74100000D01*
X159375000Y-77128581D01*
G36*
X144223683Y-74163683D02*
G01*
X144148704Y-74255045D01*
X144092990Y-74359279D01*
X144058682Y-74472379D01*
X144047097Y-74590000D01*
X144047097Y-76290000D01*
X144058682Y-76407621D01*
X144092990Y-76520721D01*
X144148704Y-76624955D01*
X144223683Y-76716317D01*
X144315045Y-76791296D01*
X144419279Y-76847010D01*
X144532379Y-76881318D01*
X144650000Y-76892903D01*
X146350000Y-76892903D01*
X146467621Y-76881318D01*
X146580721Y-76847010D01*
X146684955Y-76791296D01*
X146776317Y-76716317D01*
X146851296Y-76624955D01*
X146907010Y-76520721D01*
X146941318Y-76407621D01*
X146942725Y-76393335D01*
X147115679Y-76566289D01*
X147353167Y-76724973D01*
X147617051Y-76834277D01*
X147897187Y-76890000D01*
X148182813Y-76890000D01*
X148462949Y-76834277D01*
X148726833Y-76724973D01*
X148964321Y-76566289D01*
X149166289Y-76364321D01*
X149310000Y-76149242D01*
X149453711Y-76364321D01*
X149655679Y-76566289D01*
X149855000Y-76699471D01*
X149855001Y-84978013D01*
X149825597Y-84993730D01*
X149705000Y-85092701D01*
X149584403Y-84993730D01*
X149439108Y-84916069D01*
X149281454Y-84868245D01*
X149117500Y-84852097D01*
X148542500Y-84852097D01*
X148378546Y-84868245D01*
X148220892Y-84916069D01*
X148075597Y-84993730D01*
X147948245Y-85098245D01*
X147843730Y-85225597D01*
X147766069Y-85370892D01*
X147718245Y-85528546D01*
X147702097Y-85692500D01*
X147702097Y-86167500D01*
X147718245Y-86331454D01*
X147766069Y-86489108D01*
X147843730Y-86634403D01*
X147873565Y-86670757D01*
X147829578Y-86694269D01*
X147746840Y-86762170D01*
X147746838Y-86762172D01*
X147719183Y-86784868D01*
X147696487Y-86812523D01*
X144812524Y-89696487D01*
X144784868Y-89719184D01*
X144694269Y-89829579D01*
X144626947Y-89955528D01*
X144585491Y-90092191D01*
X144575000Y-90198709D01*
X144575000Y-90198718D01*
X144571494Y-90234315D01*
X144575000Y-90269912D01*
X144575001Y-95659694D01*
X144410000Y-95824695D01*
X144410000Y-95617187D01*
X144354277Y-95337051D01*
X144244973Y-95073167D01*
X144086289Y-94835679D01*
X143884321Y-94633711D01*
X143669242Y-94490000D01*
X143884321Y-94346289D01*
X144086289Y-94144321D01*
X144244973Y-93906833D01*
X144354277Y-93642949D01*
X144410000Y-93362813D01*
X144410000Y-93077187D01*
X144354277Y-92797051D01*
X144244973Y-92533167D01*
X144086289Y-92295679D01*
X143884321Y-92093711D01*
X143646833Y-91935027D01*
X143546005Y-91893263D01*
X143748701Y-91775655D01*
X143947298Y-91600734D01*
X144107954Y-91390430D01*
X144224494Y-91152825D01*
X144274072Y-90989375D01*
X144180912Y-90780000D01*
X143060000Y-90780000D01*
X143060000Y-90800000D01*
X142860000Y-90800000D01*
X142860000Y-90780000D01*
X142840000Y-90780000D01*
X142840000Y-90580000D01*
X142860000Y-90580000D01*
X142860000Y-90560000D01*
X143060000Y-90560000D01*
X143060000Y-90580000D01*
X144180912Y-90580000D01*
X144274072Y-90370625D01*
X144224494Y-90207175D01*
X144107954Y-89969570D01*
X143947298Y-89759266D01*
X143748701Y-89584345D01*
X143546005Y-89466737D01*
X143646833Y-89424973D01*
X143884321Y-89266289D01*
X144086289Y-89064321D01*
X144244973Y-88826833D01*
X144354277Y-88562949D01*
X144410000Y-88282813D01*
X144410000Y-87997187D01*
X144354277Y-87717051D01*
X144244973Y-87453167D01*
X144086289Y-87215679D01*
X143884321Y-87013711D01*
X143669242Y-86870000D01*
X143884321Y-86726289D01*
X144086289Y-86524321D01*
X144244973Y-86286833D01*
X144354277Y-86022949D01*
X144410000Y-85742813D01*
X144410000Y-85457187D01*
X144354277Y-85177051D01*
X144244973Y-84913167D01*
X144086289Y-84675679D01*
X143884321Y-84473711D01*
X143669242Y-84330000D01*
X143884321Y-84186289D01*
X144086289Y-83984321D01*
X144244973Y-83746833D01*
X144354277Y-83482949D01*
X144410000Y-83202813D01*
X144410000Y-82917187D01*
X144354277Y-82637051D01*
X144244973Y-82373167D01*
X144086289Y-82135679D01*
X143884321Y-81933711D01*
X143669242Y-81790000D01*
X143884321Y-81646289D01*
X144086289Y-81444321D01*
X144244973Y-81206833D01*
X144354277Y-80942949D01*
X144410000Y-80662813D01*
X144410000Y-80377187D01*
X144354277Y-80097051D01*
X144244973Y-79833167D01*
X144086289Y-79595679D01*
X143884321Y-79393711D01*
X143669242Y-79250000D01*
X143884321Y-79106289D01*
X144086289Y-78904321D01*
X144244973Y-78666833D01*
X144354277Y-78402949D01*
X144410000Y-78122813D01*
X144410000Y-77837187D01*
X144354277Y-77557051D01*
X144244973Y-77293167D01*
X144086289Y-77055679D01*
X143884321Y-76853711D01*
X143646833Y-76695027D01*
X143382949Y-76585723D01*
X143102813Y-76530000D01*
X142817187Y-76530000D01*
X142537051Y-76585723D01*
X142273167Y-76695027D01*
X142035679Y-76853711D01*
X141833711Y-77055679D01*
X141675027Y-77293167D01*
X141625000Y-77413943D01*
X141625000Y-77030704D01*
X141628024Y-77000000D01*
X141615957Y-76877479D01*
X141580219Y-76759666D01*
X141522183Y-76651089D01*
X141444080Y-76555920D01*
X141348911Y-76477817D01*
X141240334Y-76419781D01*
X141122521Y-76384043D01*
X141100000Y-76381825D01*
X141100000Y-74100000D01*
X144301281Y-74100000D01*
X144223683Y-74163683D01*
G37*
X144223683Y-74163683D02*
X144148704Y-74255045D01*
X144092990Y-74359279D01*
X144058682Y-74472379D01*
X144047097Y-74590000D01*
X144047097Y-76290000D01*
X144058682Y-76407621D01*
X144092990Y-76520721D01*
X144148704Y-76624955D01*
X144223683Y-76716317D01*
X144315045Y-76791296D01*
X144419279Y-76847010D01*
X144532379Y-76881318D01*
X144650000Y-76892903D01*
X146350000Y-76892903D01*
X146467621Y-76881318D01*
X146580721Y-76847010D01*
X146684955Y-76791296D01*
X146776317Y-76716317D01*
X146851296Y-76624955D01*
X146907010Y-76520721D01*
X146941318Y-76407621D01*
X146942725Y-76393335D01*
X147115679Y-76566289D01*
X147353167Y-76724973D01*
X147617051Y-76834277D01*
X147897187Y-76890000D01*
X148182813Y-76890000D01*
X148462949Y-76834277D01*
X148726833Y-76724973D01*
X148964321Y-76566289D01*
X149166289Y-76364321D01*
X149310000Y-76149242D01*
X149453711Y-76364321D01*
X149655679Y-76566289D01*
X149855000Y-76699471D01*
X149855001Y-84978013D01*
X149825597Y-84993730D01*
X149705000Y-85092701D01*
X149584403Y-84993730D01*
X149439108Y-84916069D01*
X149281454Y-84868245D01*
X149117500Y-84852097D01*
X148542500Y-84852097D01*
X148378546Y-84868245D01*
X148220892Y-84916069D01*
X148075597Y-84993730D01*
X147948245Y-85098245D01*
X147843730Y-85225597D01*
X147766069Y-85370892D01*
X147718245Y-85528546D01*
X147702097Y-85692500D01*
X147702097Y-86167500D01*
X147718245Y-86331454D01*
X147766069Y-86489108D01*
X147843730Y-86634403D01*
X147873565Y-86670757D01*
X147829578Y-86694269D01*
X147746840Y-86762170D01*
X147746838Y-86762172D01*
X147719183Y-86784868D01*
X147696487Y-86812523D01*
X144812524Y-89696487D01*
X144784868Y-89719184D01*
X144694269Y-89829579D01*
X144626947Y-89955528D01*
X144585491Y-90092191D01*
X144575000Y-90198709D01*
X144575000Y-90198718D01*
X144571494Y-90234315D01*
X144575000Y-90269912D01*
X144575001Y-95659694D01*
X144410000Y-95824695D01*
X144410000Y-95617187D01*
X144354277Y-95337051D01*
X144244973Y-95073167D01*
X144086289Y-94835679D01*
X143884321Y-94633711D01*
X143669242Y-94490000D01*
X143884321Y-94346289D01*
X144086289Y-94144321D01*
X144244973Y-93906833D01*
X144354277Y-93642949D01*
X144410000Y-93362813D01*
X144410000Y-93077187D01*
X144354277Y-92797051D01*
X144244973Y-92533167D01*
X144086289Y-92295679D01*
X143884321Y-92093711D01*
X143646833Y-91935027D01*
X143546005Y-91893263D01*
X143748701Y-91775655D01*
X143947298Y-91600734D01*
X144107954Y-91390430D01*
X144224494Y-91152825D01*
X144274072Y-90989375D01*
X144180912Y-90780000D01*
X143060000Y-90780000D01*
X143060000Y-90800000D01*
X142860000Y-90800000D01*
X142860000Y-90780000D01*
X142840000Y-90780000D01*
X142840000Y-90580000D01*
X142860000Y-90580000D01*
X142860000Y-90560000D01*
X143060000Y-90560000D01*
X143060000Y-90580000D01*
X144180912Y-90580000D01*
X144274072Y-90370625D01*
X144224494Y-90207175D01*
X144107954Y-89969570D01*
X143947298Y-89759266D01*
X143748701Y-89584345D01*
X143546005Y-89466737D01*
X143646833Y-89424973D01*
X143884321Y-89266289D01*
X144086289Y-89064321D01*
X144244973Y-88826833D01*
X144354277Y-88562949D01*
X144410000Y-88282813D01*
X144410000Y-87997187D01*
X144354277Y-87717051D01*
X144244973Y-87453167D01*
X144086289Y-87215679D01*
X143884321Y-87013711D01*
X143669242Y-86870000D01*
X143884321Y-86726289D01*
X144086289Y-86524321D01*
X144244973Y-86286833D01*
X144354277Y-86022949D01*
X144410000Y-85742813D01*
X144410000Y-85457187D01*
X144354277Y-85177051D01*
X144244973Y-84913167D01*
X144086289Y-84675679D01*
X143884321Y-84473711D01*
X143669242Y-84330000D01*
X143884321Y-84186289D01*
X144086289Y-83984321D01*
X144244973Y-83746833D01*
X144354277Y-83482949D01*
X144410000Y-83202813D01*
X144410000Y-82917187D01*
X144354277Y-82637051D01*
X144244973Y-82373167D01*
X144086289Y-82135679D01*
X143884321Y-81933711D01*
X143669242Y-81790000D01*
X143884321Y-81646289D01*
X144086289Y-81444321D01*
X144244973Y-81206833D01*
X144354277Y-80942949D01*
X144410000Y-80662813D01*
X144410000Y-80377187D01*
X144354277Y-80097051D01*
X144244973Y-79833167D01*
X144086289Y-79595679D01*
X143884321Y-79393711D01*
X143669242Y-79250000D01*
X143884321Y-79106289D01*
X144086289Y-78904321D01*
X144244973Y-78666833D01*
X144354277Y-78402949D01*
X144410000Y-78122813D01*
X144410000Y-77837187D01*
X144354277Y-77557051D01*
X144244973Y-77293167D01*
X144086289Y-77055679D01*
X143884321Y-76853711D01*
X143646833Y-76695027D01*
X143382949Y-76585723D01*
X143102813Y-76530000D01*
X142817187Y-76530000D01*
X142537051Y-76585723D01*
X142273167Y-76695027D01*
X142035679Y-76853711D01*
X141833711Y-77055679D01*
X141675027Y-77293167D01*
X141625000Y-77413943D01*
X141625000Y-77030704D01*
X141628024Y-77000000D01*
X141615957Y-76877479D01*
X141580219Y-76759666D01*
X141522183Y-76651089D01*
X141444080Y-76555920D01*
X141348911Y-76477817D01*
X141240334Y-76419781D01*
X141122521Y-76384043D01*
X141100000Y-76381825D01*
X141100000Y-74100000D01*
X144301281Y-74100000D01*
X144223683Y-74163683D01*
%TD*%
M02*
