M48
; DRILL file {KiCad (5.1.6)-1} date 03/30/21 00:51:10
; FORMAT={-:-/ absolute / metric / decimal}
; #@! TF.CreationDate,2021-03-30T00:51:10+09:00
; #@! TF.GenerationSoftware,Kicad,Pcbnew,(5.1.6)-1
FMAT,2
METRIC
T1C0.400
T2C0.500
T3C0.950
T4C1.000
T5C2.500
%
G90
G05
T1
X61.5Y-51.5
X61.5Y-53.0
X62.0Y-83.0
X62.5Y-51.5
X62.5Y-75.0
X62.5Y-77.5
X62.5Y-80.0
X63.0Y-70.0
X64.0Y-67.5
X64.5Y-63.5
X64.5Y-77.5
X64.5Y-80.0
X65.5Y-72.5
X66.5Y-62.0
X66.5Y-77.5
X66.5Y-80.0
X67.0Y-70.0
X67.0Y-74.0
X68.5Y-54.0
X68.5Y-67.5
X68.5Y-78.5
X68.5Y-80.0
X69.5Y-54.0
X71.0Y-80.0
X71.0Y-83.0
X71.5Y-62.0
X71.5Y-67.0
X71.5Y-73.5
X80.5Y-51.0
X83.5Y-58.5
X84.0Y-83.5
X84.5Y-58.5
X85.7Y-54.9
X87.0Y-55.7
X87.1Y-81.9
X88.3Y-60.2
X89.7Y-59.0
X93.2Y-57.325
X94.1Y-56.8
X94.7Y-60.7
X96.0Y-82.0
X97.25Y-82.0
X98.5Y-82.0
X100.0Y-82.0
X101.5Y-58.1
X102.5Y-80.5
X104.0Y-66.0
X104.5Y-55.0
X104.5Y-60.75
X105.5Y-54.0
X105.5Y-77.5
X105.75Y-60.75
X105.75Y-62.0
X106.5Y-63.5
X106.5Y-68.0
X106.9Y-72.3
X108.0Y-65.0
X108.5Y-55.0
X109.0Y-68.5
X111.0Y-55.0
X111.0Y-74.0
X114.0Y-74.0
X116.4Y-81.0
X116.5Y-77.0
X116.5Y-82.5
X116.5Y-84.0
X117.0Y-69.0
X117.5Y-76.0
X118.0Y-74.0
X118.1Y-72.3
X119.0Y-76.0
X119.5Y-58.5
X120.2Y-51.4
X120.2Y-54.4
X120.2Y-55.6
X120.5Y-76.0
X121.5Y-69.0
X121.5Y-74.0
X122.0Y-76.0
X122.8Y-55.2
X122.8Y-58.4
X123.1Y-44.6
X123.105Y-41.605
X123.105Y-43.088
X123.5Y-76.0
X124.0Y-50.8
X124.0Y-52.2
X124.0Y-69.0
X124.375Y-43.088
X124.4Y-41.0
X124.4Y-44.6
X125.0Y-62.0
X125.0Y-74.0
X125.0Y-76.0
X125.01Y-31.625
X125.2Y-57.0
X125.6Y-44.6
X125.645Y-41.545
X125.645Y-43.088
X126.5Y-76.0
X126.9Y-41.0
X126.9Y-43.1
X126.9Y-44.6
X127.0Y-51.4
X127.0Y-54.4
X127.0Y-62.0
X128.5Y-74.0
X129.5Y-75.0
X130.5Y-76.0
X132.0Y-76.0
X133.5Y-76.0
X135.0Y-76.0
X136.0Y-52.0
X136.5Y-76.0
X138.0Y-52.0
X138.0Y-54.0
X138.0Y-76.0
X139.0Y-75.0
X142.5Y-75.5
X143.5Y-75.5
X145.0Y-79.0
X145.0Y-84.0
X145.5Y-105.0
X145.5Y-106.5
X147.1Y-95.9
X148.8Y-87.3
X149.5Y-78.0
X149.5Y-84.0
X150.6Y-95.9
X154.9Y-87.3
T2
X71.0Y-53.9
X76.5Y-53.2
X132.0Y-83.0
T3
X124.0Y-60.0
X126.5Y-60.0
X70.0Y-70.0
X70.0Y-72.5
X70.0Y-75.0
X70.0Y-77.5
X63.5Y-60.0
X66.0Y-60.0
X68.5Y-60.0
X71.0Y-60.0
X121.5Y-60.0
X129.0Y-60.0
T4
X145.5Y-75.44
X148.04Y-75.44
X150.58Y-75.44
X153.12Y-75.44
X155.66Y-75.44
X134.5Y-60.0
X137.0Y-60.0
X127.84Y-71.25
X130.38Y-71.25
X132.92Y-71.25
X135.46Y-71.25
X138.0Y-71.25
X136.0Y-78.5
X136.0Y-81.0
X142.96Y-77.98
X142.96Y-80.52
X142.96Y-83.06
X142.96Y-85.6
X142.96Y-88.14
X142.96Y-90.68
X142.96Y-93.22
X142.96Y-95.76
X142.96Y-98.3
X142.96Y-100.84
X142.96Y-103.38
X142.96Y-105.92
X158.2Y-77.98
X158.2Y-80.52
X158.2Y-83.06
X158.2Y-85.6
X158.2Y-88.14
X158.2Y-90.68
X158.2Y-93.22
X158.2Y-95.76
X158.2Y-98.3
X158.2Y-100.84
X158.2Y-103.38
X158.2Y-105.92
T5
X92.0Y-71.9
T0
M30
