%TF.GenerationSoftware,KiCad,Pcbnew,(5.1.6)-1*%
%TF.CreationDate,2021-03-30T00:51:02+09:00*%
%TF.ProjectId,CubBELMonitor,43756242-454c-44d6-9f6e-69746f722e6b,rev?*%
%TF.SameCoordinates,Original*%
%TF.FileFunction,Soldermask,Bot*%
%TF.FilePolarity,Negative*%
%FSLAX46Y46*%
G04 Gerber Fmt 4.6, Leading zero omitted, Abs format (unit mm)*
G04 Created by KiCad (PCBNEW (5.1.6)-1) date 2021-03-30 00:51:02*
%MOMM*%
%LPD*%
G01*
G04 APERTURE LIST*
%ADD10O,1.950000X1.700000*%
%ADD11O,2.000000X1.700000*%
%ADD12R,1.200000X4.000000*%
%ADD13R,0.800000X0.900000*%
%ADD14R,1.700000X1.700000*%
%ADD15O,1.700000X1.700000*%
%ADD16O,1.700000X1.950000*%
%ADD17O,1.700000X2.000000*%
%ADD18R,0.500000X1.600000*%
G04 APERTURE END LIST*
D10*
%TO.C,P2*%
X70000000Y-77500000D03*
X70000000Y-75000000D03*
X70000000Y-72500000D03*
G36*
G01*
X69275000Y-69150000D02*
X70725000Y-69150000D01*
G75*
G02*
X70975000Y-69400000I0J-250000D01*
G01*
X70975000Y-70600000D01*
G75*
G02*
X70725000Y-70850000I-250000J0D01*
G01*
X69275000Y-70850000D01*
G75*
G02*
X69025000Y-70600000I0J250000D01*
G01*
X69025000Y-69400000D01*
G75*
G02*
X69275000Y-69150000I250000J0D01*
G01*
G37*
%TD*%
D11*
%TO.C,P6*%
X136000000Y-78500000D03*
G36*
G01*
X136750000Y-81850000D02*
X135250000Y-81850000D01*
G75*
G02*
X135000000Y-81600000I0J250000D01*
G01*
X135000000Y-80400000D01*
G75*
G02*
X135250000Y-80150000I250000J0D01*
G01*
X136750000Y-80150000D01*
G75*
G02*
X137000000Y-80400000I0J-250000D01*
G01*
X137000000Y-81600000D01*
G75*
G02*
X136750000Y-81850000I-250000J0D01*
G01*
G37*
%TD*%
D12*
%TO.C,P21*%
X125645000Y-43088000D03*
X123105000Y-43088000D03*
%TD*%
%TO.C,R34*%
G36*
G01*
X152341500Y-96475000D02*
X151866500Y-96475000D01*
G75*
G02*
X151629000Y-96237500I0J237500D01*
G01*
X151629000Y-95662500D01*
G75*
G02*
X151866500Y-95425000I237500J0D01*
G01*
X152341500Y-95425000D01*
G75*
G02*
X152579000Y-95662500I0J-237500D01*
G01*
X152579000Y-96237500D01*
G75*
G02*
X152341500Y-96475000I-237500J0D01*
G01*
G37*
G36*
G01*
X152341500Y-94725000D02*
X151866500Y-94725000D01*
G75*
G02*
X151629000Y-94487500I0J237500D01*
G01*
X151629000Y-93912500D01*
G75*
G02*
X151866500Y-93675000I237500J0D01*
G01*
X152341500Y-93675000D01*
G75*
G02*
X152579000Y-93912500I0J-237500D01*
G01*
X152579000Y-94487500D01*
G75*
G02*
X152341500Y-94725000I-237500J0D01*
G01*
G37*
%TD*%
%TO.C,R33*%
G36*
G01*
X148762500Y-93700000D02*
X149237500Y-93700000D01*
G75*
G02*
X149475000Y-93937500I0J-237500D01*
G01*
X149475000Y-94512500D01*
G75*
G02*
X149237500Y-94750000I-237500J0D01*
G01*
X148762500Y-94750000D01*
G75*
G02*
X148525000Y-94512500I0J237500D01*
G01*
X148525000Y-93937500D01*
G75*
G02*
X148762500Y-93700000I237500J0D01*
G01*
G37*
G36*
G01*
X148762500Y-95450000D02*
X149237500Y-95450000D01*
G75*
G02*
X149475000Y-95687500I0J-237500D01*
G01*
X149475000Y-96262500D01*
G75*
G02*
X149237500Y-96500000I-237500J0D01*
G01*
X148762500Y-96500000D01*
G75*
G02*
X148525000Y-96262500I0J237500D01*
G01*
X148525000Y-95687500D01*
G75*
G02*
X148762500Y-95450000I237500J0D01*
G01*
G37*
%TD*%
%TO.C,R32*%
G36*
G01*
X148305000Y-86167500D02*
X148305000Y-85692500D01*
G75*
G02*
X148542500Y-85455000I237500J0D01*
G01*
X149117500Y-85455000D01*
G75*
G02*
X149355000Y-85692500I0J-237500D01*
G01*
X149355000Y-86167500D01*
G75*
G02*
X149117500Y-86405000I-237500J0D01*
G01*
X148542500Y-86405000D01*
G75*
G02*
X148305000Y-86167500I0J237500D01*
G01*
G37*
G36*
G01*
X150055000Y-86167500D02*
X150055000Y-85692500D01*
G75*
G02*
X150292500Y-85455000I237500J0D01*
G01*
X150867500Y-85455000D01*
G75*
G02*
X151105000Y-85692500I0J-237500D01*
G01*
X151105000Y-86167500D01*
G75*
G02*
X150867500Y-86405000I-237500J0D01*
G01*
X150292500Y-86405000D01*
G75*
G02*
X150055000Y-86167500I0J237500D01*
G01*
G37*
%TD*%
%TO.C,R31*%
G36*
G01*
X155395000Y-85692500D02*
X155395000Y-86167500D01*
G75*
G02*
X155157500Y-86405000I-237500J0D01*
G01*
X154582500Y-86405000D01*
G75*
G02*
X154345000Y-86167500I0J237500D01*
G01*
X154345000Y-85692500D01*
G75*
G02*
X154582500Y-85455000I237500J0D01*
G01*
X155157500Y-85455000D01*
G75*
G02*
X155395000Y-85692500I0J-237500D01*
G01*
G37*
G36*
G01*
X153645000Y-85692500D02*
X153645000Y-86167500D01*
G75*
G02*
X153407500Y-86405000I-237500J0D01*
G01*
X152832500Y-86405000D01*
G75*
G02*
X152595000Y-86167500I0J237500D01*
G01*
X152595000Y-85692500D01*
G75*
G02*
X152832500Y-85455000I237500J0D01*
G01*
X153407500Y-85455000D01*
G75*
G02*
X153645000Y-85692500I0J-237500D01*
G01*
G37*
%TD*%
%TO.C,R22*%
G36*
G01*
X123375500Y-37384000D02*
X123850500Y-37384000D01*
G75*
G02*
X124088000Y-37621500I0J-237500D01*
G01*
X124088000Y-38196500D01*
G75*
G02*
X123850500Y-38434000I-237500J0D01*
G01*
X123375500Y-38434000D01*
G75*
G02*
X123138000Y-38196500I0J237500D01*
G01*
X123138000Y-37621500D01*
G75*
G02*
X123375500Y-37384000I237500J0D01*
G01*
G37*
G36*
G01*
X123375500Y-39134000D02*
X123850500Y-39134000D01*
G75*
G02*
X124088000Y-39371500I0J-237500D01*
G01*
X124088000Y-39946500D01*
G75*
G02*
X123850500Y-40184000I-237500J0D01*
G01*
X123375500Y-40184000D01*
G75*
G02*
X123138000Y-39946500I0J237500D01*
G01*
X123138000Y-39371500D01*
G75*
G02*
X123375500Y-39134000I237500J0D01*
G01*
G37*
%TD*%
%TO.C,R21*%
G36*
G01*
X124772500Y-37384000D02*
X125247500Y-37384000D01*
G75*
G02*
X125485000Y-37621500I0J-237500D01*
G01*
X125485000Y-38196500D01*
G75*
G02*
X125247500Y-38434000I-237500J0D01*
G01*
X124772500Y-38434000D01*
G75*
G02*
X124535000Y-38196500I0J237500D01*
G01*
X124535000Y-37621500D01*
G75*
G02*
X124772500Y-37384000I237500J0D01*
G01*
G37*
G36*
G01*
X124772500Y-39134000D02*
X125247500Y-39134000D01*
G75*
G02*
X125485000Y-39371500I0J-237500D01*
G01*
X125485000Y-39946500D01*
G75*
G02*
X125247500Y-40184000I-237500J0D01*
G01*
X124772500Y-40184000D01*
G75*
G02*
X124535000Y-39946500I0J237500D01*
G01*
X124535000Y-39371500D01*
G75*
G02*
X124772500Y-39134000I237500J0D01*
G01*
G37*
%TD*%
%TO.C,R20*%
G36*
G01*
X126169500Y-37356000D02*
X126644500Y-37356000D01*
G75*
G02*
X126882000Y-37593500I0J-237500D01*
G01*
X126882000Y-38168500D01*
G75*
G02*
X126644500Y-38406000I-237500J0D01*
G01*
X126169500Y-38406000D01*
G75*
G02*
X125932000Y-38168500I0J237500D01*
G01*
X125932000Y-37593500D01*
G75*
G02*
X126169500Y-37356000I237500J0D01*
G01*
G37*
G36*
G01*
X126169500Y-39106000D02*
X126644500Y-39106000D01*
G75*
G02*
X126882000Y-39343500I0J-237500D01*
G01*
X126882000Y-39918500D01*
G75*
G02*
X126644500Y-40156000I-237500J0D01*
G01*
X126169500Y-40156000D01*
G75*
G02*
X125932000Y-39918500I0J237500D01*
G01*
X125932000Y-39343500D01*
G75*
G02*
X126169500Y-39106000I237500J0D01*
G01*
G37*
%TD*%
D13*
%TO.C,Q32*%
X154070000Y-91378000D03*
X152170000Y-91378000D03*
X153120000Y-88978000D03*
%TD*%
%TO.C,Q31*%
X148990000Y-91378000D03*
X147090000Y-91378000D03*
X148040000Y-88978000D03*
%TD*%
D14*
%TO.C,P30*%
X145500000Y-75440000D03*
D15*
X148040000Y-75440000D03*
X150580000Y-75440000D03*
X153120000Y-75440000D03*
X155660000Y-75440000D03*
%TD*%
%TO.C,P5*%
X138000000Y-71250000D03*
X135460000Y-71250000D03*
X132920000Y-71250000D03*
X130380000Y-71250000D03*
D14*
X127840000Y-71250000D03*
%TD*%
D16*
%TO.C,P4*%
X121500000Y-60000000D03*
X124000000Y-60000000D03*
X126500000Y-60000000D03*
G36*
G01*
X129850000Y-59275000D02*
X129850000Y-60725000D01*
G75*
G02*
X129600000Y-60975000I-250000J0D01*
G01*
X128400000Y-60975000D01*
G75*
G02*
X128150000Y-60725000I0J250000D01*
G01*
X128150000Y-59275000D01*
G75*
G02*
X128400000Y-59025000I250000J0D01*
G01*
X129600000Y-59025000D01*
G75*
G02*
X129850000Y-59275000I0J-250000D01*
G01*
G37*
%TD*%
%TO.C,P3*%
G36*
G01*
X71850000Y-59275000D02*
X71850000Y-60725000D01*
G75*
G02*
X71600000Y-60975000I-250000J0D01*
G01*
X70400000Y-60975000D01*
G75*
G02*
X70150000Y-60725000I0J250000D01*
G01*
X70150000Y-59275000D01*
G75*
G02*
X70400000Y-59025000I250000J0D01*
G01*
X71600000Y-59025000D01*
G75*
G02*
X71850000Y-59275000I0J-250000D01*
G01*
G37*
X68500000Y-60000000D03*
X66000000Y-60000000D03*
X63500000Y-60000000D03*
%TD*%
D17*
%TO.C,P1*%
X134500000Y-60000000D03*
G36*
G01*
X137850000Y-59250000D02*
X137850000Y-60750000D01*
G75*
G02*
X137600000Y-61000000I-250000J0D01*
G01*
X136400000Y-61000000D01*
G75*
G02*
X136150000Y-60750000I0J250000D01*
G01*
X136150000Y-59250000D01*
G75*
G02*
X136400000Y-59000000I250000J0D01*
G01*
X137600000Y-59000000D01*
G75*
G02*
X137850000Y-59250000I0J-250000D01*
G01*
G37*
%TD*%
D14*
%TO.C,J2*%
X158200000Y-105920000D03*
D15*
X158200000Y-103380000D03*
X158200000Y-100840000D03*
X158200000Y-98300000D03*
X158200000Y-95760000D03*
X158200000Y-93220000D03*
X158200000Y-90680000D03*
X158200000Y-88140000D03*
X158200000Y-85600000D03*
X158200000Y-83060000D03*
X158200000Y-80520000D03*
X158200000Y-77980000D03*
%TD*%
D14*
%TO.C,J1*%
X142960000Y-105920000D03*
D15*
X142960000Y-103380000D03*
X142960000Y-100840000D03*
X142960000Y-98300000D03*
X142960000Y-95760000D03*
X142960000Y-93220000D03*
X142960000Y-90680000D03*
X142960000Y-88140000D03*
X142960000Y-85600000D03*
X142960000Y-83060000D03*
X142960000Y-80520000D03*
X142960000Y-77980000D03*
%TD*%
D18*
%TO.C,D10*%
X125910000Y-32899000D03*
X125010000Y-32899000D03*
X124110000Y-32899000D03*
X124110000Y-35849000D03*
X125010000Y-35849000D03*
X125910000Y-35849000D03*
%TD*%
%TO.C,C31*%
G36*
G01*
X152545000Y-79954001D02*
X152545000Y-79053999D01*
G75*
G02*
X152794999Y-78804000I249999J0D01*
G01*
X153445001Y-78804000D01*
G75*
G02*
X153695000Y-79053999I0J-249999D01*
G01*
X153695000Y-79954001D01*
G75*
G02*
X153445001Y-80204000I-249999J0D01*
G01*
X152794999Y-80204000D01*
G75*
G02*
X152545000Y-79954001I0J249999D01*
G01*
G37*
G36*
G01*
X154595000Y-79954001D02*
X154595000Y-79053999D01*
G75*
G02*
X154844999Y-78804000I249999J0D01*
G01*
X155495001Y-78804000D01*
G75*
G02*
X155745000Y-79053999I0J-249999D01*
G01*
X155745000Y-79954001D01*
G75*
G02*
X155495001Y-80204000I-249999J0D01*
G01*
X154844999Y-80204000D01*
G75*
G02*
X154595000Y-79954001I0J249999D01*
G01*
G37*
%TD*%
M02*
