%TF.GenerationSoftware,KiCad,Pcbnew,(5.1.6)-1*%
%TF.CreationDate,2021-03-30T00:51:02+09:00*%
%TF.ProjectId,CubBELMonitor,43756242-454c-44d6-9f6e-69746f722e6b,rev?*%
%TF.SameCoordinates,Original*%
%TF.FileFunction,Legend,Top*%
%TF.FilePolarity,Positive*%
%FSLAX46Y46*%
G04 Gerber Fmt 4.6, Leading zero omitted, Abs format (unit mm)*
G04 Created by KiCad (PCBNEW (5.1.6)-1) date 2021-03-30 00:51:02*
%MOMM*%
%LPD*%
G01*
G04 APERTURE LIST*
%ADD10C,0.120000*%
%ADD11C,0.100000*%
%ADD12C,0.150000*%
%ADD13R,0.900000X2.000000*%
%ADD14R,2.000000X0.900000*%
%ADD15R,5.000000X5.000000*%
%ADD16O,1.950000X1.700000*%
%ADD17O,2.000000X1.700000*%
%ADD18R,1.200000X4.000000*%
%ADD19R,1.500000X2.000000*%
%ADD20R,3.800000X2.000000*%
%ADD21R,0.900000X0.800000*%
%ADD22R,1.700000X1.700000*%
%ADD23O,1.700000X1.700000*%
%ADD24O,1.700000X1.950000*%
%ADD25O,1.700000X2.000000*%
%ADD26R,0.900000X1.200000*%
G04 APERTURE END LIST*
D10*
X90500000Y-81750000D02*
X90500000Y-82000000D01*
X94750000Y-81750000D02*
X90500000Y-81750000D01*
X94750000Y-84250000D02*
X94750000Y-81750000D01*
X90500000Y-84250000D02*
X94750000Y-84250000D01*
X90500000Y-82000000D02*
X90500000Y-84250000D01*
X94500000Y-82000000D02*
X90750000Y-82000000D01*
X94500000Y-84000000D02*
X94500000Y-82000000D01*
X90750000Y-84000000D02*
X94500000Y-84000000D01*
X90750000Y-82000000D02*
X90750000Y-84000000D01*
D11*
X71333333Y-63665000D02*
X71333333Y-64098333D01*
X71066666Y-63865000D01*
X71066666Y-63965000D01*
X71033333Y-64031666D01*
X71000000Y-64065000D01*
X70933333Y-64098333D01*
X70766666Y-64098333D01*
X70700000Y-64065000D01*
X70666666Y-64031666D01*
X70633333Y-63965000D01*
X70633333Y-63765000D01*
X70666666Y-63698333D01*
X70700000Y-63665000D01*
X70700000Y-64398333D02*
X70666666Y-64431666D01*
X70633333Y-64398333D01*
X70666666Y-64365000D01*
X70700000Y-64398333D01*
X70633333Y-64398333D01*
X71333333Y-64665000D02*
X71333333Y-65098333D01*
X71066666Y-64865000D01*
X71066666Y-64965000D01*
X71033333Y-65031666D01*
X71000000Y-65065000D01*
X70933333Y-65098333D01*
X70766666Y-65098333D01*
X70700000Y-65065000D01*
X70666666Y-65031666D01*
X70633333Y-64965000D01*
X70633333Y-64765000D01*
X70666666Y-64698333D01*
X70700000Y-64665000D01*
X71333333Y-65298333D02*
X70633333Y-65531666D01*
X71333333Y-65765000D01*
X69000000Y-64098333D02*
X69033333Y-64031666D01*
X69033333Y-63931666D01*
X69000000Y-63831666D01*
X68933333Y-63765000D01*
X68866666Y-63731666D01*
X68733333Y-63698333D01*
X68633333Y-63698333D01*
X68500000Y-63731666D01*
X68433333Y-63765000D01*
X68366666Y-63831666D01*
X68333333Y-63931666D01*
X68333333Y-63998333D01*
X68366666Y-64098333D01*
X68400000Y-64131666D01*
X68633333Y-64131666D01*
X68633333Y-63998333D01*
X68333333Y-64431666D02*
X69033333Y-64431666D01*
X68333333Y-64831666D01*
X69033333Y-64831666D01*
X68333333Y-65165000D02*
X69033333Y-65165000D01*
X69033333Y-65331666D01*
X69000000Y-65431666D01*
X68933333Y-65498333D01*
X68866666Y-65531666D01*
X68733333Y-65565000D01*
X68633333Y-65565000D01*
X68500000Y-65531666D01*
X68433333Y-65498333D01*
X68366666Y-65431666D01*
X68333333Y-65331666D01*
X68333333Y-65165000D01*
X66733333Y-63631666D02*
X66733333Y-64031666D01*
X66033333Y-63831666D02*
X66733333Y-63831666D01*
X66033333Y-64198333D02*
X66500000Y-64565000D01*
X66500000Y-64198333D02*
X66033333Y-64565000D01*
X63733333Y-64131666D02*
X64066666Y-63898333D01*
X63733333Y-63731666D02*
X64433333Y-63731666D01*
X64433333Y-63998333D01*
X64400000Y-64065000D01*
X64366666Y-64098333D01*
X64300000Y-64131666D01*
X64200000Y-64131666D01*
X64133333Y-64098333D01*
X64100000Y-64065000D01*
X64066666Y-63998333D01*
X64066666Y-63731666D01*
X63733333Y-64365000D02*
X64200000Y-64731666D01*
X64200000Y-64365000D02*
X63733333Y-64731666D01*
D12*
X66285714Y-62000000D02*
X66190476Y-61952380D01*
X66047619Y-61952380D01*
X65904761Y-62000000D01*
X65809523Y-62095238D01*
X65761904Y-62190476D01*
X65714285Y-62380952D01*
X65714285Y-62523809D01*
X65761904Y-62714285D01*
X65809523Y-62809523D01*
X65904761Y-62904761D01*
X66047619Y-62952380D01*
X66142857Y-62952380D01*
X66285714Y-62904761D01*
X66333333Y-62857142D01*
X66333333Y-62523809D01*
X66142857Y-62523809D01*
X66761904Y-62952380D02*
X66761904Y-61952380D01*
X67333333Y-62952380D01*
X67333333Y-61952380D01*
X67761904Y-62904761D02*
X67904761Y-62952380D01*
X68142857Y-62952380D01*
X68238095Y-62904761D01*
X68285714Y-62857142D01*
X68333333Y-62761904D01*
X68333333Y-62666666D01*
X68285714Y-62571428D01*
X68238095Y-62523809D01*
X68142857Y-62476190D01*
X67952380Y-62428571D01*
X67857142Y-62380952D01*
X67809523Y-62333333D01*
X67761904Y-62238095D01*
X67761904Y-62142857D01*
X67809523Y-62047619D01*
X67857142Y-62000000D01*
X67952380Y-61952380D01*
X68190476Y-61952380D01*
X68333333Y-62000000D01*
X68714285Y-62904761D02*
X68857142Y-62952380D01*
X69095238Y-62952380D01*
X69190476Y-62904761D01*
X69238095Y-62857142D01*
X69285714Y-62761904D01*
X69285714Y-62666666D01*
X69238095Y-62571428D01*
X69190476Y-62523809D01*
X69095238Y-62476190D01*
X68904761Y-62428571D01*
X68809523Y-62380952D01*
X68761904Y-62333333D01*
X68714285Y-62238095D01*
X68714285Y-62142857D01*
X68761904Y-62047619D01*
X68809523Y-62000000D01*
X68904761Y-61952380D01*
X69142857Y-61952380D01*
X69285714Y-62000000D01*
X137571428Y-62892857D02*
X136428571Y-62892857D01*
X137000000Y-62321428D02*
X137000000Y-63464285D01*
X134571428Y-62892857D02*
X133428571Y-62892857D01*
X124357142Y-62452380D02*
X123880952Y-62452380D01*
X123880952Y-61452380D01*
X124690476Y-61928571D02*
X125023809Y-61928571D01*
X125166666Y-62452380D02*
X124690476Y-62452380D01*
X124690476Y-61452380D01*
X125166666Y-61452380D01*
X125595238Y-62452380D02*
X125595238Y-61452380D01*
X125833333Y-61452380D01*
X125976190Y-61500000D01*
X126071428Y-61595238D01*
X126119047Y-61690476D01*
X126166666Y-61880952D01*
X126166666Y-62023809D01*
X126119047Y-62214285D01*
X126071428Y-62309523D01*
X125976190Y-62404761D01*
X125833333Y-62452380D01*
X125595238Y-62452380D01*
D10*
%TO.C,R18*%
X107260000Y-75171267D02*
X107260000Y-74828733D01*
X106240000Y-75171267D02*
X106240000Y-74828733D01*
%TO.C,U1*%
X101855000Y-80120000D02*
X102635000Y-80120000D01*
X102635000Y-80120000D02*
X102635000Y-79120000D01*
X101855000Y-61880000D02*
X102635000Y-61880000D01*
X102635000Y-61880000D02*
X102635000Y-62880000D01*
X76890000Y-80120000D02*
X76890000Y-61880000D01*
X76890000Y-61880000D02*
X83310000Y-61880000D01*
X76890000Y-80120000D02*
X83310000Y-80120000D01*
X83310000Y-80120000D02*
X83310000Y-80500000D01*
%TO.C,C3*%
X123703733Y-79510000D02*
X124046267Y-79510000D01*
X123703733Y-78490000D02*
X124046267Y-78490000D01*
%TO.C,P2*%
X60690000Y-73750000D02*
X60690000Y-67440000D01*
X60690000Y-67440000D02*
X72410000Y-67440000D01*
X72410000Y-67440000D02*
X72410000Y-68860000D01*
X72410000Y-68860000D02*
X67910000Y-68860000D01*
X67910000Y-68860000D02*
X67910000Y-73750000D01*
X60690000Y-73750000D02*
X60690000Y-80060000D01*
X60690000Y-80060000D02*
X72410000Y-80060000D01*
X72410000Y-80060000D02*
X72410000Y-78640000D01*
X72410000Y-78640000D02*
X67910000Y-78640000D01*
X67910000Y-78640000D02*
X67910000Y-73750000D01*
X66800000Y-69750000D02*
X61300000Y-69750000D01*
X61300000Y-69750000D02*
X61300000Y-70250000D01*
X61300000Y-70250000D02*
X66800000Y-70250000D01*
X66800000Y-70250000D02*
X66800000Y-69750000D01*
X66800000Y-72250000D02*
X61300000Y-72250000D01*
X61300000Y-72250000D02*
X61300000Y-72750000D01*
X61300000Y-72750000D02*
X66800000Y-72750000D01*
X66800000Y-72750000D02*
X66800000Y-72250000D01*
X66800000Y-74750000D02*
X61300000Y-74750000D01*
X61300000Y-74750000D02*
X61300000Y-75250000D01*
X61300000Y-75250000D02*
X66800000Y-75250000D01*
X66800000Y-75250000D02*
X66800000Y-74750000D01*
X66800000Y-77250000D02*
X61300000Y-77250000D01*
X61300000Y-77250000D02*
X61300000Y-77750000D01*
X61300000Y-77750000D02*
X66800000Y-77750000D01*
X66800000Y-77750000D02*
X66800000Y-77250000D01*
X71500000Y-70000000D02*
X72100000Y-69700000D01*
X72100000Y-69700000D02*
X72100000Y-70300000D01*
X72100000Y-70300000D02*
X71500000Y-70000000D01*
%TO.C,U2*%
X109290000Y-75060000D02*
X110550000Y-75060000D01*
X116110000Y-75060000D02*
X114850000Y-75060000D01*
X109290000Y-71300000D02*
X109290000Y-75060000D01*
X116110000Y-69050000D02*
X116110000Y-75060000D01*
%TO.C,TH4*%
X80010436Y-51840000D02*
X81214564Y-51840000D01*
X80010436Y-54560000D02*
X81214564Y-54560000D01*
%TO.C,TH3*%
X133388748Y-64290000D02*
X136161252Y-64290000D01*
X133388748Y-67710000D02*
X136161252Y-67710000D01*
%TO.C,TH2*%
X128610000Y-64660436D02*
X128610000Y-65864564D01*
X125890000Y-64660436D02*
X125890000Y-65864564D01*
%TO.C,TH1*%
X92503733Y-82490000D02*
X92846267Y-82490000D01*
X92503733Y-83510000D02*
X92846267Y-83510000D01*
%TO.C,R17*%
X115046267Y-61510000D02*
X114703733Y-61510000D01*
X115046267Y-60490000D02*
X114703733Y-60490000D01*
%TO.C,R16*%
X115046267Y-57510000D02*
X114703733Y-57510000D01*
X115046267Y-56490000D02*
X114703733Y-56490000D01*
%TO.C,R15*%
X115046267Y-53510000D02*
X114703733Y-53510000D01*
X115046267Y-52490000D02*
X114703733Y-52490000D01*
%TO.C,R14*%
X107760000Y-60828733D02*
X107760000Y-61171267D01*
X106740000Y-60828733D02*
X106740000Y-61171267D01*
%TO.C,R13*%
X107760000Y-56828733D02*
X107760000Y-57171267D01*
X106740000Y-56828733D02*
X106740000Y-57171267D01*
%TO.C,R12*%
X107760000Y-52828733D02*
X107760000Y-53171267D01*
X106740000Y-52828733D02*
X106740000Y-53171267D01*
%TO.C,R11*%
X68990000Y-82246267D02*
X68990000Y-81903733D01*
X70010000Y-82246267D02*
X70010000Y-81903733D01*
%TO.C,R10*%
X66990000Y-82246267D02*
X66990000Y-81903733D01*
X68010000Y-82246267D02*
X68010000Y-81903733D01*
%TO.C,R9*%
X64990000Y-82246267D02*
X64990000Y-81903733D01*
X66010000Y-82246267D02*
X66010000Y-81903733D01*
%TO.C,R8*%
X62990000Y-82246267D02*
X62990000Y-81903733D01*
X64010000Y-82246267D02*
X64010000Y-81903733D01*
%TO.C,R7*%
X88753733Y-82490000D02*
X89096267Y-82490000D01*
X88753733Y-83510000D02*
X89096267Y-83510000D01*
%TO.C,R6*%
X119240000Y-72953733D02*
X119240000Y-73296267D01*
X120260000Y-72953733D02*
X120260000Y-73296267D01*
%TO.C,R5*%
X120260000Y-68953733D02*
X120260000Y-69296267D01*
X119240000Y-68953733D02*
X119240000Y-69296267D01*
%TO.C,R4*%
X119296267Y-81510000D02*
X118953733Y-81510000D01*
X119296267Y-80490000D02*
X118953733Y-80490000D01*
%TO.C,R3*%
X119296267Y-83510000D02*
X118953733Y-83510000D01*
X119296267Y-82490000D02*
X118953733Y-82490000D01*
%TO.C,R2*%
X124046267Y-81510000D02*
X123703733Y-81510000D01*
X124046267Y-80490000D02*
X123703733Y-80490000D01*
%TO.C,R1*%
X128046267Y-81510000D02*
X127703733Y-81510000D01*
X128046267Y-80490000D02*
X127703733Y-80490000D01*
%TO.C,Q3*%
X109350000Y-59350000D02*
X111750000Y-59350000D01*
X111750000Y-59350000D02*
X111750000Y-60400000D01*
X109950000Y-62650000D02*
X111750000Y-62650000D01*
X111750000Y-62650000D02*
X111750000Y-61600000D01*
%TO.C,Q2*%
X109350000Y-55350000D02*
X111750000Y-55350000D01*
X111750000Y-55350000D02*
X111750000Y-56400000D01*
X109950000Y-58650000D02*
X111750000Y-58650000D01*
X111750000Y-58650000D02*
X111750000Y-57600000D01*
%TO.C,Q1*%
X109350000Y-51350000D02*
X111750000Y-51350000D01*
X111750000Y-51350000D02*
X111750000Y-52400000D01*
X109950000Y-54650000D02*
X111750000Y-54650000D01*
X111750000Y-54650000D02*
X111750000Y-53600000D01*
%TO.C,P5*%
X129110000Y-72580000D02*
X129110000Y-69920000D01*
X129110000Y-72580000D02*
X139330000Y-72580000D01*
X139330000Y-72580000D02*
X139330000Y-69920000D01*
X129110000Y-69920000D02*
X139330000Y-69920000D01*
X126510000Y-69920000D02*
X127840000Y-69920000D01*
X126510000Y-71250000D02*
X126510000Y-69920000D01*
%TO.C,P4*%
X125250000Y-50690000D02*
X131560000Y-50690000D01*
X131560000Y-50690000D02*
X131560000Y-62410000D01*
X131560000Y-62410000D02*
X130140000Y-62410000D01*
X130140000Y-62410000D02*
X130140000Y-57910000D01*
X130140000Y-57910000D02*
X125250000Y-57910000D01*
X125250000Y-50690000D02*
X118940000Y-50690000D01*
X118940000Y-50690000D02*
X118940000Y-62410000D01*
X118940000Y-62410000D02*
X120360000Y-62410000D01*
X120360000Y-62410000D02*
X120360000Y-57910000D01*
X120360000Y-57910000D02*
X125250000Y-57910000D01*
X129250000Y-56800000D02*
X129250000Y-51300000D01*
X129250000Y-51300000D02*
X128750000Y-51300000D01*
X128750000Y-51300000D02*
X128750000Y-56800000D01*
X128750000Y-56800000D02*
X129250000Y-56800000D01*
X126750000Y-56800000D02*
X126750000Y-51300000D01*
X126750000Y-51300000D02*
X126250000Y-51300000D01*
X126250000Y-51300000D02*
X126250000Y-56800000D01*
X126250000Y-56800000D02*
X126750000Y-56800000D01*
X124250000Y-56800000D02*
X124250000Y-51300000D01*
X124250000Y-51300000D02*
X123750000Y-51300000D01*
X123750000Y-51300000D02*
X123750000Y-56800000D01*
X123750000Y-56800000D02*
X124250000Y-56800000D01*
X121750000Y-56800000D02*
X121750000Y-51300000D01*
X121750000Y-51300000D02*
X121250000Y-51300000D01*
X121250000Y-51300000D02*
X121250000Y-56800000D01*
X121250000Y-56800000D02*
X121750000Y-56800000D01*
X129000000Y-61500000D02*
X129300000Y-62100000D01*
X129300000Y-62100000D02*
X128700000Y-62100000D01*
X128700000Y-62100000D02*
X129000000Y-61500000D01*
%TO.C,P3*%
X70700000Y-62100000D02*
X71000000Y-61500000D01*
X71300000Y-62100000D02*
X70700000Y-62100000D01*
X71000000Y-61500000D02*
X71300000Y-62100000D01*
X63250000Y-56800000D02*
X63750000Y-56800000D01*
X63250000Y-51300000D02*
X63250000Y-56800000D01*
X63750000Y-51300000D02*
X63250000Y-51300000D01*
X63750000Y-56800000D02*
X63750000Y-51300000D01*
X65750000Y-56800000D02*
X66250000Y-56800000D01*
X65750000Y-51300000D02*
X65750000Y-56800000D01*
X66250000Y-51300000D02*
X65750000Y-51300000D01*
X66250000Y-56800000D02*
X66250000Y-51300000D01*
X68250000Y-56800000D02*
X68750000Y-56800000D01*
X68250000Y-51300000D02*
X68250000Y-56800000D01*
X68750000Y-51300000D02*
X68250000Y-51300000D01*
X68750000Y-56800000D02*
X68750000Y-51300000D01*
X70750000Y-56800000D02*
X71250000Y-56800000D01*
X70750000Y-51300000D02*
X70750000Y-56800000D01*
X71250000Y-51300000D02*
X70750000Y-51300000D01*
X71250000Y-56800000D02*
X71250000Y-51300000D01*
X62360000Y-57910000D02*
X67250000Y-57910000D01*
X62360000Y-62410000D02*
X62360000Y-57910000D01*
X60940000Y-62410000D02*
X62360000Y-62410000D01*
X60940000Y-50690000D02*
X60940000Y-62410000D01*
X67250000Y-50690000D02*
X60940000Y-50690000D01*
X72140000Y-57910000D02*
X67250000Y-57910000D01*
X72140000Y-62410000D02*
X72140000Y-57910000D01*
X73560000Y-62410000D02*
X72140000Y-62410000D01*
X73560000Y-50690000D02*
X73560000Y-62410000D01*
X67250000Y-50690000D02*
X73560000Y-50690000D01*
%TO.C,P1*%
X135750000Y-50690000D02*
X139560000Y-50690000D01*
X139560000Y-50690000D02*
X139560000Y-62410000D01*
X139560000Y-62410000D02*
X138140000Y-62410000D01*
X138140000Y-62410000D02*
X138140000Y-57910000D01*
X138140000Y-57910000D02*
X135750000Y-57910000D01*
X135750000Y-50690000D02*
X131940000Y-50690000D01*
X131940000Y-50690000D02*
X131940000Y-62410000D01*
X131940000Y-62410000D02*
X133360000Y-62410000D01*
X133360000Y-62410000D02*
X133360000Y-57910000D01*
X133360000Y-57910000D02*
X135750000Y-57910000D01*
X137250000Y-56800000D02*
X137250000Y-51300000D01*
X137250000Y-51300000D02*
X136750000Y-51300000D01*
X136750000Y-51300000D02*
X136750000Y-56800000D01*
X136750000Y-56800000D02*
X137250000Y-56800000D01*
X134750000Y-56800000D02*
X134750000Y-51300000D01*
X134750000Y-51300000D02*
X134250000Y-51300000D01*
X134250000Y-51300000D02*
X134250000Y-56800000D01*
X134250000Y-56800000D02*
X134750000Y-56800000D01*
X137000000Y-61500000D02*
X137300000Y-62100000D01*
X137300000Y-62100000D02*
X136700000Y-62100000D01*
X136700000Y-62100000D02*
X137000000Y-61500000D01*
%TO.C,D3*%
X116100000Y-78000000D02*
X116100000Y-80000000D01*
X116100000Y-80000000D02*
X120000000Y-80000000D01*
X116100000Y-78000000D02*
X120000000Y-78000000D01*
%TO.C,D2*%
X126400000Y-82000000D02*
X126400000Y-84000000D01*
X126400000Y-84000000D02*
X130300000Y-84000000D01*
X126400000Y-82000000D02*
X130300000Y-82000000D01*
%TO.C,D1*%
X130900000Y-80000000D02*
X130900000Y-78000000D01*
X130900000Y-78000000D02*
X127000000Y-78000000D01*
X130900000Y-80000000D02*
X127000000Y-80000000D01*
%TO.C,C2*%
X109690000Y-66236252D02*
X109690000Y-65713748D01*
X111110000Y-66236252D02*
X111110000Y-65713748D01*
%TO.C,C1*%
X114490000Y-66046267D02*
X114490000Y-65703733D01*
X115510000Y-66046267D02*
X115510000Y-65703733D01*
%TO.C,R18*%
D12*
X105772380Y-75642857D02*
X105296190Y-75976190D01*
X105772380Y-76214285D02*
X104772380Y-76214285D01*
X104772380Y-75833333D01*
X104820000Y-75738095D01*
X104867619Y-75690476D01*
X104962857Y-75642857D01*
X105105714Y-75642857D01*
X105200952Y-75690476D01*
X105248571Y-75738095D01*
X105296190Y-75833333D01*
X105296190Y-76214285D01*
X105772380Y-74690476D02*
X105772380Y-75261904D01*
X105772380Y-74976190D02*
X104772380Y-74976190D01*
X104915238Y-75071428D01*
X105010476Y-75166666D01*
X105058095Y-75261904D01*
X105200952Y-74119047D02*
X105153333Y-74214285D01*
X105105714Y-74261904D01*
X105010476Y-74309523D01*
X104962857Y-74309523D01*
X104867619Y-74261904D01*
X104820000Y-74214285D01*
X104772380Y-74119047D01*
X104772380Y-73928571D01*
X104820000Y-73833333D01*
X104867619Y-73785714D01*
X104962857Y-73738095D01*
X105010476Y-73738095D01*
X105105714Y-73785714D01*
X105153333Y-73833333D01*
X105200952Y-73928571D01*
X105200952Y-74119047D01*
X105248571Y-74214285D01*
X105296190Y-74261904D01*
X105391428Y-74309523D01*
X105581904Y-74309523D01*
X105677142Y-74261904D01*
X105724761Y-74214285D01*
X105772380Y-74119047D01*
X105772380Y-73928571D01*
X105724761Y-73833333D01*
X105677142Y-73785714D01*
X105581904Y-73738095D01*
X105391428Y-73738095D01*
X105296190Y-73785714D01*
X105248571Y-73833333D01*
X105200952Y-73928571D01*
%TO.C,U1*%
X103452380Y-79761904D02*
X104261904Y-79761904D01*
X104357142Y-79714285D01*
X104404761Y-79666666D01*
X104452380Y-79571428D01*
X104452380Y-79380952D01*
X104404761Y-79285714D01*
X104357142Y-79238095D01*
X104261904Y-79190476D01*
X103452380Y-79190476D01*
X104452380Y-78190476D02*
X104452380Y-78761904D01*
X104452380Y-78476190D02*
X103452380Y-78476190D01*
X103595238Y-78571428D01*
X103690476Y-78666666D01*
X103738095Y-78761904D01*
%TO.C,C3*%
X123708333Y-77857142D02*
X123660714Y-77904761D01*
X123517857Y-77952380D01*
X123422619Y-77952380D01*
X123279761Y-77904761D01*
X123184523Y-77809523D01*
X123136904Y-77714285D01*
X123089285Y-77523809D01*
X123089285Y-77380952D01*
X123136904Y-77190476D01*
X123184523Y-77095238D01*
X123279761Y-77000000D01*
X123422619Y-76952380D01*
X123517857Y-76952380D01*
X123660714Y-77000000D01*
X123708333Y-77047619D01*
X124041666Y-76952380D02*
X124660714Y-76952380D01*
X124327380Y-77333333D01*
X124470238Y-77333333D01*
X124565476Y-77380952D01*
X124613095Y-77428571D01*
X124660714Y-77523809D01*
X124660714Y-77761904D01*
X124613095Y-77857142D01*
X124565476Y-77904761D01*
X124470238Y-77952380D01*
X124184523Y-77952380D01*
X124089285Y-77904761D01*
X124041666Y-77857142D01*
%TO.C,P2*%
X73952380Y-69238095D02*
X72952380Y-69238095D01*
X72952380Y-68857142D01*
X73000000Y-68761904D01*
X73047619Y-68714285D01*
X73142857Y-68666666D01*
X73285714Y-68666666D01*
X73380952Y-68714285D01*
X73428571Y-68761904D01*
X73476190Y-68857142D01*
X73476190Y-69238095D01*
X73047619Y-68285714D02*
X73000000Y-68238095D01*
X72952380Y-68142857D01*
X72952380Y-67904761D01*
X73000000Y-67809523D01*
X73047619Y-67761904D01*
X73142857Y-67714285D01*
X73238095Y-67714285D01*
X73380952Y-67761904D01*
X73952380Y-68333333D01*
X73952380Y-67714285D01*
%TO.C,P20*%
X128285714Y-43452380D02*
X128285714Y-42452380D01*
X128666666Y-42452380D01*
X128761904Y-42500000D01*
X128809523Y-42547619D01*
X128857142Y-42642857D01*
X128857142Y-42785714D01*
X128809523Y-42880952D01*
X128761904Y-42928571D01*
X128666666Y-42976190D01*
X128285714Y-42976190D01*
X129238095Y-42547619D02*
X129285714Y-42500000D01*
X129380952Y-42452380D01*
X129619047Y-42452380D01*
X129714285Y-42500000D01*
X129761904Y-42547619D01*
X129809523Y-42642857D01*
X129809523Y-42738095D01*
X129761904Y-42880952D01*
X129190476Y-43452380D01*
X129809523Y-43452380D01*
X130428571Y-42452380D02*
X130523809Y-42452380D01*
X130619047Y-42500000D01*
X130666666Y-42547619D01*
X130714285Y-42642857D01*
X130761904Y-42833333D01*
X130761904Y-43071428D01*
X130714285Y-43261904D01*
X130666666Y-43357142D01*
X130619047Y-43404761D01*
X130523809Y-43452380D01*
X130428571Y-43452380D01*
X130333333Y-43404761D01*
X130285714Y-43357142D01*
X130238095Y-43261904D01*
X130190476Y-43071428D01*
X130190476Y-42833333D01*
X130238095Y-42642857D01*
X130285714Y-42547619D01*
X130333333Y-42500000D01*
X130428571Y-42452380D01*
%TO.C,U2*%
X108238095Y-75452380D02*
X108238095Y-76261904D01*
X108285714Y-76357142D01*
X108333333Y-76404761D01*
X108428571Y-76452380D01*
X108619047Y-76452380D01*
X108714285Y-76404761D01*
X108761904Y-76357142D01*
X108809523Y-76261904D01*
X108809523Y-75452380D01*
X109238095Y-75547619D02*
X109285714Y-75500000D01*
X109380952Y-75452380D01*
X109619047Y-75452380D01*
X109714285Y-75500000D01*
X109761904Y-75547619D01*
X109809523Y-75642857D01*
X109809523Y-75738095D01*
X109761904Y-75880952D01*
X109190476Y-76452380D01*
X109809523Y-76452380D01*
%TO.C,TH4*%
X79214285Y-54952380D02*
X79785714Y-54952380D01*
X79500000Y-55952380D02*
X79500000Y-54952380D01*
X80119047Y-55952380D02*
X80119047Y-54952380D01*
X80119047Y-55428571D02*
X80690476Y-55428571D01*
X80690476Y-55952380D02*
X80690476Y-54952380D01*
X81595238Y-55285714D02*
X81595238Y-55952380D01*
X81357142Y-54904761D02*
X81119047Y-55619047D01*
X81738095Y-55619047D01*
%TO.C,TH3*%
X133489285Y-67952380D02*
X134060714Y-67952380D01*
X133775000Y-68952380D02*
X133775000Y-67952380D01*
X134394047Y-68952380D02*
X134394047Y-67952380D01*
X134394047Y-68428571D02*
X134965476Y-68428571D01*
X134965476Y-68952380D02*
X134965476Y-67952380D01*
X135346428Y-67952380D02*
X135965476Y-67952380D01*
X135632142Y-68333333D01*
X135775000Y-68333333D01*
X135870238Y-68380952D01*
X135917857Y-68428571D01*
X135965476Y-68523809D01*
X135965476Y-68761904D01*
X135917857Y-68857142D01*
X135870238Y-68904761D01*
X135775000Y-68952380D01*
X135489285Y-68952380D01*
X135394047Y-68904761D01*
X135346428Y-68857142D01*
%TO.C,TH2*%
X124452380Y-66548214D02*
X124452380Y-65976785D01*
X125452380Y-66262500D02*
X124452380Y-66262500D01*
X125452380Y-65643452D02*
X124452380Y-65643452D01*
X124928571Y-65643452D02*
X124928571Y-65072023D01*
X125452380Y-65072023D02*
X124452380Y-65072023D01*
X124547619Y-64643452D02*
X124500000Y-64595833D01*
X124452380Y-64500595D01*
X124452380Y-64262500D01*
X124500000Y-64167261D01*
X124547619Y-64119642D01*
X124642857Y-64072023D01*
X124738095Y-64072023D01*
X124880952Y-64119642D01*
X125452380Y-64691071D01*
X125452380Y-64072023D01*
%TO.C,TH1*%
X94964285Y-82452380D02*
X95535714Y-82452380D01*
X95250000Y-83452380D02*
X95250000Y-82452380D01*
X95869047Y-83452380D02*
X95869047Y-82452380D01*
X95869047Y-82928571D02*
X96440476Y-82928571D01*
X96440476Y-83452380D02*
X96440476Y-82452380D01*
X97440476Y-83452380D02*
X96869047Y-83452380D01*
X97154761Y-83452380D02*
X97154761Y-82452380D01*
X97059523Y-82595238D01*
X96964285Y-82690476D01*
X96869047Y-82738095D01*
%TO.C,R17*%
X115857142Y-62952380D02*
X115523809Y-62476190D01*
X115285714Y-62952380D02*
X115285714Y-61952380D01*
X115666666Y-61952380D01*
X115761904Y-62000000D01*
X115809523Y-62047619D01*
X115857142Y-62142857D01*
X115857142Y-62285714D01*
X115809523Y-62380952D01*
X115761904Y-62428571D01*
X115666666Y-62476190D01*
X115285714Y-62476190D01*
X116809523Y-62952380D02*
X116238095Y-62952380D01*
X116523809Y-62952380D02*
X116523809Y-61952380D01*
X116428571Y-62095238D01*
X116333333Y-62190476D01*
X116238095Y-62238095D01*
X117142857Y-61952380D02*
X117809523Y-61952380D01*
X117380952Y-62952380D01*
%TO.C,R16*%
X115857142Y-58952380D02*
X115523809Y-58476190D01*
X115285714Y-58952380D02*
X115285714Y-57952380D01*
X115666666Y-57952380D01*
X115761904Y-58000000D01*
X115809523Y-58047619D01*
X115857142Y-58142857D01*
X115857142Y-58285714D01*
X115809523Y-58380952D01*
X115761904Y-58428571D01*
X115666666Y-58476190D01*
X115285714Y-58476190D01*
X116809523Y-58952380D02*
X116238095Y-58952380D01*
X116523809Y-58952380D02*
X116523809Y-57952380D01*
X116428571Y-58095238D01*
X116333333Y-58190476D01*
X116238095Y-58238095D01*
X117666666Y-57952380D02*
X117476190Y-57952380D01*
X117380952Y-58000000D01*
X117333333Y-58047619D01*
X117238095Y-58190476D01*
X117190476Y-58380952D01*
X117190476Y-58761904D01*
X117238095Y-58857142D01*
X117285714Y-58904761D01*
X117380952Y-58952380D01*
X117571428Y-58952380D01*
X117666666Y-58904761D01*
X117714285Y-58857142D01*
X117761904Y-58761904D01*
X117761904Y-58523809D01*
X117714285Y-58428571D01*
X117666666Y-58380952D01*
X117571428Y-58333333D01*
X117380952Y-58333333D01*
X117285714Y-58380952D01*
X117238095Y-58428571D01*
X117190476Y-58523809D01*
%TO.C,R15*%
X115857142Y-54952380D02*
X115523809Y-54476190D01*
X115285714Y-54952380D02*
X115285714Y-53952380D01*
X115666666Y-53952380D01*
X115761904Y-54000000D01*
X115809523Y-54047619D01*
X115857142Y-54142857D01*
X115857142Y-54285714D01*
X115809523Y-54380952D01*
X115761904Y-54428571D01*
X115666666Y-54476190D01*
X115285714Y-54476190D01*
X116809523Y-54952380D02*
X116238095Y-54952380D01*
X116523809Y-54952380D02*
X116523809Y-53952380D01*
X116428571Y-54095238D01*
X116333333Y-54190476D01*
X116238095Y-54238095D01*
X117714285Y-53952380D02*
X117238095Y-53952380D01*
X117190476Y-54428571D01*
X117238095Y-54380952D01*
X117333333Y-54333333D01*
X117571428Y-54333333D01*
X117666666Y-54380952D01*
X117714285Y-54428571D01*
X117761904Y-54523809D01*
X117761904Y-54761904D01*
X117714285Y-54857142D01*
X117666666Y-54904761D01*
X117571428Y-54952380D01*
X117333333Y-54952380D01*
X117238095Y-54904761D01*
X117190476Y-54857142D01*
%TO.C,R14*%
X106452380Y-61642857D02*
X105976190Y-61976190D01*
X106452380Y-62214285D02*
X105452380Y-62214285D01*
X105452380Y-61833333D01*
X105500000Y-61738095D01*
X105547619Y-61690476D01*
X105642857Y-61642857D01*
X105785714Y-61642857D01*
X105880952Y-61690476D01*
X105928571Y-61738095D01*
X105976190Y-61833333D01*
X105976190Y-62214285D01*
X106452380Y-60690476D02*
X106452380Y-61261904D01*
X106452380Y-60976190D02*
X105452380Y-60976190D01*
X105595238Y-61071428D01*
X105690476Y-61166666D01*
X105738095Y-61261904D01*
X105785714Y-59833333D02*
X106452380Y-59833333D01*
X105404761Y-60071428D02*
X106119047Y-60309523D01*
X106119047Y-59690476D01*
%TO.C,R13*%
X106452380Y-57642857D02*
X105976190Y-57976190D01*
X106452380Y-58214285D02*
X105452380Y-58214285D01*
X105452380Y-57833333D01*
X105500000Y-57738095D01*
X105547619Y-57690476D01*
X105642857Y-57642857D01*
X105785714Y-57642857D01*
X105880952Y-57690476D01*
X105928571Y-57738095D01*
X105976190Y-57833333D01*
X105976190Y-58214285D01*
X106452380Y-56690476D02*
X106452380Y-57261904D01*
X106452380Y-56976190D02*
X105452380Y-56976190D01*
X105595238Y-57071428D01*
X105690476Y-57166666D01*
X105738095Y-57261904D01*
X105452380Y-56357142D02*
X105452380Y-55738095D01*
X105833333Y-56071428D01*
X105833333Y-55928571D01*
X105880952Y-55833333D01*
X105928571Y-55785714D01*
X106023809Y-55738095D01*
X106261904Y-55738095D01*
X106357142Y-55785714D01*
X106404761Y-55833333D01*
X106452380Y-55928571D01*
X106452380Y-56214285D01*
X106404761Y-56309523D01*
X106357142Y-56357142D01*
%TO.C,R12*%
X106452380Y-53642857D02*
X105976190Y-53976190D01*
X106452380Y-54214285D02*
X105452380Y-54214285D01*
X105452380Y-53833333D01*
X105500000Y-53738095D01*
X105547619Y-53690476D01*
X105642857Y-53642857D01*
X105785714Y-53642857D01*
X105880952Y-53690476D01*
X105928571Y-53738095D01*
X105976190Y-53833333D01*
X105976190Y-54214285D01*
X106452380Y-52690476D02*
X106452380Y-53261904D01*
X106452380Y-52976190D02*
X105452380Y-52976190D01*
X105595238Y-53071428D01*
X105690476Y-53166666D01*
X105738095Y-53261904D01*
X105547619Y-52309523D02*
X105500000Y-52261904D01*
X105452380Y-52166666D01*
X105452380Y-51928571D01*
X105500000Y-51833333D01*
X105547619Y-51785714D01*
X105642857Y-51738095D01*
X105738095Y-51738095D01*
X105880952Y-51785714D01*
X106452380Y-52357142D01*
X106452380Y-51738095D01*
%TO.C,R11*%
X75952380Y-82642857D02*
X75476190Y-82976190D01*
X75952380Y-83214285D02*
X74952380Y-83214285D01*
X74952380Y-82833333D01*
X75000000Y-82738095D01*
X75047619Y-82690476D01*
X75142857Y-82642857D01*
X75285714Y-82642857D01*
X75380952Y-82690476D01*
X75428571Y-82738095D01*
X75476190Y-82833333D01*
X75476190Y-83214285D01*
X75952380Y-81690476D02*
X75952380Y-82261904D01*
X75952380Y-81976190D02*
X74952380Y-81976190D01*
X75095238Y-82071428D01*
X75190476Y-82166666D01*
X75238095Y-82261904D01*
X75952380Y-80738095D02*
X75952380Y-81309523D01*
X75952380Y-81023809D02*
X74952380Y-81023809D01*
X75095238Y-81119047D01*
X75190476Y-81214285D01*
X75238095Y-81309523D01*
%TO.C,R10*%
X74452380Y-82642857D02*
X73976190Y-82976190D01*
X74452380Y-83214285D02*
X73452380Y-83214285D01*
X73452380Y-82833333D01*
X73500000Y-82738095D01*
X73547619Y-82690476D01*
X73642857Y-82642857D01*
X73785714Y-82642857D01*
X73880952Y-82690476D01*
X73928571Y-82738095D01*
X73976190Y-82833333D01*
X73976190Y-83214285D01*
X74452380Y-81690476D02*
X74452380Y-82261904D01*
X74452380Y-81976190D02*
X73452380Y-81976190D01*
X73595238Y-82071428D01*
X73690476Y-82166666D01*
X73738095Y-82261904D01*
X73452380Y-81071428D02*
X73452380Y-80976190D01*
X73500000Y-80880952D01*
X73547619Y-80833333D01*
X73642857Y-80785714D01*
X73833333Y-80738095D01*
X74071428Y-80738095D01*
X74261904Y-80785714D01*
X74357142Y-80833333D01*
X74404761Y-80880952D01*
X74452380Y-80976190D01*
X74452380Y-81071428D01*
X74404761Y-81166666D01*
X74357142Y-81214285D01*
X74261904Y-81261904D01*
X74071428Y-81309523D01*
X73833333Y-81309523D01*
X73642857Y-81261904D01*
X73547619Y-81214285D01*
X73500000Y-81166666D01*
X73452380Y-81071428D01*
%TO.C,R9*%
X72952380Y-82166666D02*
X72476190Y-82500000D01*
X72952380Y-82738095D02*
X71952380Y-82738095D01*
X71952380Y-82357142D01*
X72000000Y-82261904D01*
X72047619Y-82214285D01*
X72142857Y-82166666D01*
X72285714Y-82166666D01*
X72380952Y-82214285D01*
X72428571Y-82261904D01*
X72476190Y-82357142D01*
X72476190Y-82738095D01*
X72952380Y-81690476D02*
X72952380Y-81500000D01*
X72904761Y-81404761D01*
X72857142Y-81357142D01*
X72714285Y-81261904D01*
X72523809Y-81214285D01*
X72142857Y-81214285D01*
X72047619Y-81261904D01*
X72000000Y-81309523D01*
X71952380Y-81404761D01*
X71952380Y-81595238D01*
X72000000Y-81690476D01*
X72047619Y-81738095D01*
X72142857Y-81785714D01*
X72380952Y-81785714D01*
X72476190Y-81738095D01*
X72523809Y-81690476D01*
X72571428Y-81595238D01*
X72571428Y-81404761D01*
X72523809Y-81309523D01*
X72476190Y-81261904D01*
X72380952Y-81214285D01*
%TO.C,R8*%
X71452380Y-82166666D02*
X70976190Y-82500000D01*
X71452380Y-82738095D02*
X70452380Y-82738095D01*
X70452380Y-82357142D01*
X70500000Y-82261904D01*
X70547619Y-82214285D01*
X70642857Y-82166666D01*
X70785714Y-82166666D01*
X70880952Y-82214285D01*
X70928571Y-82261904D01*
X70976190Y-82357142D01*
X70976190Y-82738095D01*
X70880952Y-81595238D02*
X70833333Y-81690476D01*
X70785714Y-81738095D01*
X70690476Y-81785714D01*
X70642857Y-81785714D01*
X70547619Y-81738095D01*
X70500000Y-81690476D01*
X70452380Y-81595238D01*
X70452380Y-81404761D01*
X70500000Y-81309523D01*
X70547619Y-81261904D01*
X70642857Y-81214285D01*
X70690476Y-81214285D01*
X70785714Y-81261904D01*
X70833333Y-81309523D01*
X70880952Y-81404761D01*
X70880952Y-81595238D01*
X70928571Y-81690476D01*
X70976190Y-81738095D01*
X71071428Y-81785714D01*
X71261904Y-81785714D01*
X71357142Y-81738095D01*
X71404761Y-81690476D01*
X71452380Y-81595238D01*
X71452380Y-81404761D01*
X71404761Y-81309523D01*
X71357142Y-81261904D01*
X71261904Y-81214285D01*
X71071428Y-81214285D01*
X70976190Y-81261904D01*
X70928571Y-81309523D01*
X70880952Y-81404761D01*
%TO.C,R7*%
X85833333Y-83452380D02*
X85500000Y-82976190D01*
X85261904Y-83452380D02*
X85261904Y-82452380D01*
X85642857Y-82452380D01*
X85738095Y-82500000D01*
X85785714Y-82547619D01*
X85833333Y-82642857D01*
X85833333Y-82785714D01*
X85785714Y-82880952D01*
X85738095Y-82928571D01*
X85642857Y-82976190D01*
X85261904Y-82976190D01*
X86166666Y-82452380D02*
X86833333Y-82452380D01*
X86404761Y-83452380D01*
%TO.C,R6*%
X121952380Y-73291666D02*
X121476190Y-73625000D01*
X121952380Y-73863095D02*
X120952380Y-73863095D01*
X120952380Y-73482142D01*
X121000000Y-73386904D01*
X121047619Y-73339285D01*
X121142857Y-73291666D01*
X121285714Y-73291666D01*
X121380952Y-73339285D01*
X121428571Y-73386904D01*
X121476190Y-73482142D01*
X121476190Y-73863095D01*
X120952380Y-72434523D02*
X120952380Y-72625000D01*
X121000000Y-72720238D01*
X121047619Y-72767857D01*
X121190476Y-72863095D01*
X121380952Y-72910714D01*
X121761904Y-72910714D01*
X121857142Y-72863095D01*
X121904761Y-72815476D01*
X121952380Y-72720238D01*
X121952380Y-72529761D01*
X121904761Y-72434523D01*
X121857142Y-72386904D01*
X121761904Y-72339285D01*
X121523809Y-72339285D01*
X121428571Y-72386904D01*
X121380952Y-72434523D01*
X121333333Y-72529761D01*
X121333333Y-72720238D01*
X121380952Y-72815476D01*
X121428571Y-72863095D01*
X121523809Y-72910714D01*
%TO.C,R5*%
X121952380Y-69291666D02*
X121476190Y-69625000D01*
X121952380Y-69863095D02*
X120952380Y-69863095D01*
X120952380Y-69482142D01*
X121000000Y-69386904D01*
X121047619Y-69339285D01*
X121142857Y-69291666D01*
X121285714Y-69291666D01*
X121380952Y-69339285D01*
X121428571Y-69386904D01*
X121476190Y-69482142D01*
X121476190Y-69863095D01*
X120952380Y-68386904D02*
X120952380Y-68863095D01*
X121428571Y-68910714D01*
X121380952Y-68863095D01*
X121333333Y-68767857D01*
X121333333Y-68529761D01*
X121380952Y-68434523D01*
X121428571Y-68386904D01*
X121523809Y-68339285D01*
X121761904Y-68339285D01*
X121857142Y-68386904D01*
X121904761Y-68434523D01*
X121952380Y-68529761D01*
X121952380Y-68767857D01*
X121904761Y-68863095D01*
X121857142Y-68910714D01*
%TO.C,R4*%
X116333333Y-81452380D02*
X116000000Y-80976190D01*
X115761904Y-81452380D02*
X115761904Y-80452380D01*
X116142857Y-80452380D01*
X116238095Y-80500000D01*
X116285714Y-80547619D01*
X116333333Y-80642857D01*
X116333333Y-80785714D01*
X116285714Y-80880952D01*
X116238095Y-80928571D01*
X116142857Y-80976190D01*
X115761904Y-80976190D01*
X117190476Y-80785714D02*
X117190476Y-81452380D01*
X116952380Y-80404761D02*
X116714285Y-81119047D01*
X117333333Y-81119047D01*
%TO.C,R3*%
X116333333Y-83452380D02*
X116000000Y-82976190D01*
X115761904Y-83452380D02*
X115761904Y-82452380D01*
X116142857Y-82452380D01*
X116238095Y-82500000D01*
X116285714Y-82547619D01*
X116333333Y-82642857D01*
X116333333Y-82785714D01*
X116285714Y-82880952D01*
X116238095Y-82928571D01*
X116142857Y-82976190D01*
X115761904Y-82976190D01*
X116666666Y-82452380D02*
X117285714Y-82452380D01*
X116952380Y-82833333D01*
X117095238Y-82833333D01*
X117190476Y-82880952D01*
X117238095Y-82928571D01*
X117285714Y-83023809D01*
X117285714Y-83261904D01*
X117238095Y-83357142D01*
X117190476Y-83404761D01*
X117095238Y-83452380D01*
X116809523Y-83452380D01*
X116714285Y-83404761D01*
X116666666Y-83357142D01*
%TO.C,R2*%
X123708333Y-82952380D02*
X123375000Y-82476190D01*
X123136904Y-82952380D02*
X123136904Y-81952380D01*
X123517857Y-81952380D01*
X123613095Y-82000000D01*
X123660714Y-82047619D01*
X123708333Y-82142857D01*
X123708333Y-82285714D01*
X123660714Y-82380952D01*
X123613095Y-82428571D01*
X123517857Y-82476190D01*
X123136904Y-82476190D01*
X124089285Y-82047619D02*
X124136904Y-82000000D01*
X124232142Y-81952380D01*
X124470238Y-81952380D01*
X124565476Y-82000000D01*
X124613095Y-82047619D01*
X124660714Y-82142857D01*
X124660714Y-82238095D01*
X124613095Y-82380952D01*
X124041666Y-82952380D01*
X124660714Y-82952380D01*
%TO.C,R1*%
X133333333Y-81452380D02*
X133000000Y-80976190D01*
X132761904Y-81452380D02*
X132761904Y-80452380D01*
X133142857Y-80452380D01*
X133238095Y-80500000D01*
X133285714Y-80547619D01*
X133333333Y-80642857D01*
X133333333Y-80785714D01*
X133285714Y-80880952D01*
X133238095Y-80928571D01*
X133142857Y-80976190D01*
X132761904Y-80976190D01*
X134285714Y-81452380D02*
X133714285Y-81452380D01*
X134000000Y-81452380D02*
X134000000Y-80452380D01*
X133904761Y-80595238D01*
X133809523Y-80690476D01*
X133714285Y-80738095D01*
%TO.C,Q3*%
X113047619Y-63095238D02*
X113000000Y-63190476D01*
X112904761Y-63285714D01*
X112761904Y-63428571D01*
X112714285Y-63523809D01*
X112714285Y-63619047D01*
X112952380Y-63571428D02*
X112904761Y-63666666D01*
X112809523Y-63761904D01*
X112619047Y-63809523D01*
X112285714Y-63809523D01*
X112095238Y-63761904D01*
X112000000Y-63666666D01*
X111952380Y-63571428D01*
X111952380Y-63380952D01*
X112000000Y-63285714D01*
X112095238Y-63190476D01*
X112285714Y-63142857D01*
X112619047Y-63142857D01*
X112809523Y-63190476D01*
X112904761Y-63285714D01*
X112952380Y-63380952D01*
X112952380Y-63571428D01*
X111952380Y-62809523D02*
X111952380Y-62190476D01*
X112333333Y-62523809D01*
X112333333Y-62380952D01*
X112380952Y-62285714D01*
X112428571Y-62238095D01*
X112523809Y-62190476D01*
X112761904Y-62190476D01*
X112857142Y-62238095D01*
X112904761Y-62285714D01*
X112952380Y-62380952D01*
X112952380Y-62666666D01*
X112904761Y-62761904D01*
X112857142Y-62809523D01*
%TO.C,Q2*%
X113047619Y-58595238D02*
X113000000Y-58690476D01*
X112904761Y-58785714D01*
X112761904Y-58928571D01*
X112714285Y-59023809D01*
X112714285Y-59119047D01*
X112952380Y-59071428D02*
X112904761Y-59166666D01*
X112809523Y-59261904D01*
X112619047Y-59309523D01*
X112285714Y-59309523D01*
X112095238Y-59261904D01*
X112000000Y-59166666D01*
X111952380Y-59071428D01*
X111952380Y-58880952D01*
X112000000Y-58785714D01*
X112095238Y-58690476D01*
X112285714Y-58642857D01*
X112619047Y-58642857D01*
X112809523Y-58690476D01*
X112904761Y-58785714D01*
X112952380Y-58880952D01*
X112952380Y-59071428D01*
X112047619Y-58261904D02*
X112000000Y-58214285D01*
X111952380Y-58119047D01*
X111952380Y-57880952D01*
X112000000Y-57785714D01*
X112047619Y-57738095D01*
X112142857Y-57690476D01*
X112238095Y-57690476D01*
X112380952Y-57738095D01*
X112952380Y-58309523D01*
X112952380Y-57690476D01*
%TO.C,Q1*%
X113047619Y-54595238D02*
X113000000Y-54690476D01*
X112904761Y-54785714D01*
X112761904Y-54928571D01*
X112714285Y-55023809D01*
X112714285Y-55119047D01*
X112952380Y-55071428D02*
X112904761Y-55166666D01*
X112809523Y-55261904D01*
X112619047Y-55309523D01*
X112285714Y-55309523D01*
X112095238Y-55261904D01*
X112000000Y-55166666D01*
X111952380Y-55071428D01*
X111952380Y-54880952D01*
X112000000Y-54785714D01*
X112095238Y-54690476D01*
X112285714Y-54642857D01*
X112619047Y-54642857D01*
X112809523Y-54690476D01*
X112904761Y-54785714D01*
X112952380Y-54880952D01*
X112952380Y-55071428D01*
X112952380Y-53690476D02*
X112952380Y-54261904D01*
X112952380Y-53976190D02*
X111952380Y-53976190D01*
X112095238Y-54071428D01*
X112190476Y-54166666D01*
X112238095Y-54261904D01*
%TO.C,P5*%
X125952380Y-71988095D02*
X124952380Y-71988095D01*
X124952380Y-71607142D01*
X125000000Y-71511904D01*
X125047619Y-71464285D01*
X125142857Y-71416666D01*
X125285714Y-71416666D01*
X125380952Y-71464285D01*
X125428571Y-71511904D01*
X125476190Y-71607142D01*
X125476190Y-71988095D01*
X124952380Y-70511904D02*
X124952380Y-70988095D01*
X125428571Y-71035714D01*
X125380952Y-70988095D01*
X125333333Y-70892857D01*
X125333333Y-70654761D01*
X125380952Y-70559523D01*
X125428571Y-70511904D01*
X125523809Y-70464285D01*
X125761904Y-70464285D01*
X125857142Y-70511904D01*
X125904761Y-70559523D01*
X125952380Y-70654761D01*
X125952380Y-70892857D01*
X125904761Y-70988095D01*
X125857142Y-71035714D01*
%TO.C,P4*%
X130261904Y-63952380D02*
X130261904Y-62952380D01*
X130642857Y-62952380D01*
X130738095Y-63000000D01*
X130785714Y-63047619D01*
X130833333Y-63142857D01*
X130833333Y-63285714D01*
X130785714Y-63380952D01*
X130738095Y-63428571D01*
X130642857Y-63476190D01*
X130261904Y-63476190D01*
X131690476Y-63285714D02*
X131690476Y-63952380D01*
X131452380Y-62904761D02*
X131214285Y-63619047D01*
X131833333Y-63619047D01*
%TO.C,P3*%
X71761904Y-63952380D02*
X71761904Y-62952380D01*
X72142857Y-62952380D01*
X72238095Y-63000000D01*
X72285714Y-63047619D01*
X72333333Y-63142857D01*
X72333333Y-63285714D01*
X72285714Y-63380952D01*
X72238095Y-63428571D01*
X72142857Y-63476190D01*
X71761904Y-63476190D01*
X72666666Y-62952380D02*
X73285714Y-62952380D01*
X72952380Y-63333333D01*
X73095238Y-63333333D01*
X73190476Y-63380952D01*
X73238095Y-63428571D01*
X73285714Y-63523809D01*
X73285714Y-63761904D01*
X73238095Y-63857142D01*
X73190476Y-63904761D01*
X73095238Y-63952380D01*
X72809523Y-63952380D01*
X72714285Y-63904761D01*
X72666666Y-63857142D01*
%TO.C,P1*%
X138261904Y-63952380D02*
X138261904Y-62952380D01*
X138642857Y-62952380D01*
X138738095Y-63000000D01*
X138785714Y-63047619D01*
X138833333Y-63142857D01*
X138833333Y-63285714D01*
X138785714Y-63380952D01*
X138738095Y-63428571D01*
X138642857Y-63476190D01*
X138261904Y-63476190D01*
X139785714Y-63952380D02*
X139214285Y-63952380D01*
X139500000Y-63952380D02*
X139500000Y-62952380D01*
X139404761Y-63095238D01*
X139309523Y-63190476D01*
X139214285Y-63238095D01*
%TO.C,D3*%
X117611904Y-77452380D02*
X117611904Y-76452380D01*
X117850000Y-76452380D01*
X117992857Y-76500000D01*
X118088095Y-76595238D01*
X118135714Y-76690476D01*
X118183333Y-76880952D01*
X118183333Y-77023809D01*
X118135714Y-77214285D01*
X118088095Y-77309523D01*
X117992857Y-77404761D01*
X117850000Y-77452380D01*
X117611904Y-77452380D01*
X118516666Y-76452380D02*
X119135714Y-76452380D01*
X118802380Y-76833333D01*
X118945238Y-76833333D01*
X119040476Y-76880952D01*
X119088095Y-76928571D01*
X119135714Y-77023809D01*
X119135714Y-77261904D01*
X119088095Y-77357142D01*
X119040476Y-77404761D01*
X118945238Y-77452380D01*
X118659523Y-77452380D01*
X118564285Y-77404761D01*
X118516666Y-77357142D01*
%TO.C,D2*%
X132761904Y-83452380D02*
X132761904Y-82452380D01*
X133000000Y-82452380D01*
X133142857Y-82500000D01*
X133238095Y-82595238D01*
X133285714Y-82690476D01*
X133333333Y-82880952D01*
X133333333Y-83023809D01*
X133285714Y-83214285D01*
X133238095Y-83309523D01*
X133142857Y-83404761D01*
X133000000Y-83452380D01*
X132761904Y-83452380D01*
X133714285Y-82547619D02*
X133761904Y-82500000D01*
X133857142Y-82452380D01*
X134095238Y-82452380D01*
X134190476Y-82500000D01*
X134238095Y-82547619D01*
X134285714Y-82642857D01*
X134285714Y-82738095D01*
X134238095Y-82880952D01*
X133666666Y-83452380D01*
X134285714Y-83452380D01*
%TO.C,D1*%
X132761904Y-79452380D02*
X132761904Y-78452380D01*
X133000000Y-78452380D01*
X133142857Y-78500000D01*
X133238095Y-78595238D01*
X133285714Y-78690476D01*
X133333333Y-78880952D01*
X133333333Y-79023809D01*
X133285714Y-79214285D01*
X133238095Y-79309523D01*
X133142857Y-79404761D01*
X133000000Y-79452380D01*
X132761904Y-79452380D01*
X134285714Y-79452380D02*
X133714285Y-79452380D01*
X134000000Y-79452380D02*
X134000000Y-78452380D01*
X133904761Y-78595238D01*
X133809523Y-78690476D01*
X133714285Y-78738095D01*
%TO.C,C2*%
X108857142Y-66166666D02*
X108904761Y-66214285D01*
X108952380Y-66357142D01*
X108952380Y-66452380D01*
X108904761Y-66595238D01*
X108809523Y-66690476D01*
X108714285Y-66738095D01*
X108523809Y-66785714D01*
X108380952Y-66785714D01*
X108190476Y-66738095D01*
X108095238Y-66690476D01*
X108000000Y-66595238D01*
X107952380Y-66452380D01*
X107952380Y-66357142D01*
X108000000Y-66214285D01*
X108047619Y-66166666D01*
X108047619Y-65785714D02*
X108000000Y-65738095D01*
X107952380Y-65642857D01*
X107952380Y-65404761D01*
X108000000Y-65309523D01*
X108047619Y-65261904D01*
X108142857Y-65214285D01*
X108238095Y-65214285D01*
X108380952Y-65261904D01*
X108952380Y-65833333D01*
X108952380Y-65214285D01*
%TO.C,C1*%
X113357142Y-66041666D02*
X113404761Y-66089285D01*
X113452380Y-66232142D01*
X113452380Y-66327380D01*
X113404761Y-66470238D01*
X113309523Y-66565476D01*
X113214285Y-66613095D01*
X113023809Y-66660714D01*
X112880952Y-66660714D01*
X112690476Y-66613095D01*
X112595238Y-66565476D01*
X112500000Y-66470238D01*
X112452380Y-66327380D01*
X112452380Y-66232142D01*
X112500000Y-66089285D01*
X112547619Y-66041666D01*
X113452380Y-65089285D02*
X113452380Y-65660714D01*
X113452380Y-65375000D02*
X112452380Y-65375000D01*
X112595238Y-65470238D01*
X112690476Y-65565476D01*
X112738095Y-65660714D01*
%TD*%
%LPC*%
%TO.C,R18*%
G36*
G01*
X106987500Y-76400000D02*
X106512500Y-76400000D01*
G75*
G02*
X106275000Y-76162500I0J237500D01*
G01*
X106275000Y-75587500D01*
G75*
G02*
X106512500Y-75350000I237500J0D01*
G01*
X106987500Y-75350000D01*
G75*
G02*
X107225000Y-75587500I0J-237500D01*
G01*
X107225000Y-76162500D01*
G75*
G02*
X106987500Y-76400000I-237500J0D01*
G01*
G37*
G36*
G01*
X106987500Y-74650000D02*
X106512500Y-74650000D01*
G75*
G02*
X106275000Y-74412500I0J237500D01*
G01*
X106275000Y-73837500D01*
G75*
G02*
X106512500Y-73600000I237500J0D01*
G01*
X106987500Y-73600000D01*
G75*
G02*
X107225000Y-73837500I0J-237500D01*
G01*
X107225000Y-74412500D01*
G75*
G02*
X106987500Y-74650000I-237500J0D01*
G01*
G37*
%TD*%
D13*
%TO.C,U1*%
X84500000Y-62500000D03*
X85770000Y-62500000D03*
X87040000Y-62500000D03*
X88310000Y-62500000D03*
X89580000Y-62500000D03*
X90850000Y-62500000D03*
X92120000Y-62500000D03*
X93390000Y-62500000D03*
X94660000Y-62500000D03*
X95930000Y-62500000D03*
X97200000Y-62500000D03*
X98470000Y-62500000D03*
X99740000Y-62500000D03*
X101010000Y-62500000D03*
D14*
X102010000Y-65285000D03*
X102010000Y-66555000D03*
X102010000Y-67825000D03*
X102010000Y-69095000D03*
X102010000Y-70365000D03*
X102010000Y-71635000D03*
X102010000Y-72905000D03*
X102010000Y-74175000D03*
X102010000Y-75445000D03*
X102010000Y-76715000D03*
D13*
X101010000Y-79500000D03*
X99740000Y-79500000D03*
X98470000Y-79500000D03*
X97200000Y-79500000D03*
X95930000Y-79500000D03*
X94660000Y-79500000D03*
X93390000Y-79500000D03*
X92120000Y-79500000D03*
X90850000Y-79500000D03*
X89580000Y-79500000D03*
X88310000Y-79500000D03*
X87040000Y-79500000D03*
X85770000Y-79500000D03*
X84500000Y-79500000D03*
D15*
X92000000Y-72000000D03*
%TD*%
%TO.C,C3*%
G36*
G01*
X124225000Y-79237500D02*
X124225000Y-78762500D01*
G75*
G02*
X124462500Y-78525000I237500J0D01*
G01*
X125037500Y-78525000D01*
G75*
G02*
X125275000Y-78762500I0J-237500D01*
G01*
X125275000Y-79237500D01*
G75*
G02*
X125037500Y-79475000I-237500J0D01*
G01*
X124462500Y-79475000D01*
G75*
G02*
X124225000Y-79237500I0J237500D01*
G01*
G37*
G36*
G01*
X122475000Y-79237500D02*
X122475000Y-78762500D01*
G75*
G02*
X122712500Y-78525000I237500J0D01*
G01*
X123287500Y-78525000D01*
G75*
G02*
X123525000Y-78762500I0J-237500D01*
G01*
X123525000Y-79237500D01*
G75*
G02*
X123287500Y-79475000I-237500J0D01*
G01*
X122712500Y-79475000D01*
G75*
G02*
X122475000Y-79237500I0J237500D01*
G01*
G37*
%TD*%
D16*
%TO.C,P2*%
X70000000Y-77500000D03*
X70000000Y-75000000D03*
X70000000Y-72500000D03*
G36*
G01*
X69275000Y-69150000D02*
X70725000Y-69150000D01*
G75*
G02*
X70975000Y-69400000I0J-250000D01*
G01*
X70975000Y-70600000D01*
G75*
G02*
X70725000Y-70850000I-250000J0D01*
G01*
X69275000Y-70850000D01*
G75*
G02*
X69025000Y-70600000I0J250000D01*
G01*
X69025000Y-69400000D01*
G75*
G02*
X69275000Y-69150000I250000J0D01*
G01*
G37*
%TD*%
D17*
%TO.C,P6*%
X136000000Y-78500000D03*
G36*
G01*
X136750000Y-81850000D02*
X135250000Y-81850000D01*
G75*
G02*
X135000000Y-81600000I0J250000D01*
G01*
X135000000Y-80400000D01*
G75*
G02*
X135250000Y-80150000I250000J0D01*
G01*
X136750000Y-80150000D01*
G75*
G02*
X137000000Y-80400000I0J-250000D01*
G01*
X137000000Y-81600000D01*
G75*
G02*
X136750000Y-81850000I-250000J0D01*
G01*
G37*
%TD*%
D18*
%TO.C,P20*%
X126915000Y-43088000D03*
X124375000Y-43088000D03*
%TD*%
D19*
%TO.C,U2*%
X115000000Y-70000000D03*
X110400000Y-70000000D03*
X112700000Y-70000000D03*
D20*
X112700000Y-76300000D03*
%TD*%
%TO.C,TH4*%
G36*
G01*
X81387500Y-54275000D02*
X81387500Y-52125000D01*
G75*
G02*
X81637500Y-51875000I250000J0D01*
G01*
X82562500Y-51875000D01*
G75*
G02*
X82812500Y-52125000I0J-250000D01*
G01*
X82812500Y-54275000D01*
G75*
G02*
X82562500Y-54525000I-250000J0D01*
G01*
X81637500Y-54525000D01*
G75*
G02*
X81387500Y-54275000I0J250000D01*
G01*
G37*
G36*
G01*
X78412500Y-54275000D02*
X78412500Y-52125000D01*
G75*
G02*
X78662500Y-51875000I250000J0D01*
G01*
X79587500Y-51875000D01*
G75*
G02*
X79837500Y-52125000I0J-250000D01*
G01*
X79837500Y-54275000D01*
G75*
G02*
X79587500Y-54525000I-250000J0D01*
G01*
X78662500Y-54525000D01*
G75*
G02*
X78412500Y-54275000I0J250000D01*
G01*
G37*
%TD*%
%TO.C,TH3*%
G36*
G01*
X136350000Y-67450000D02*
X136350000Y-64550000D01*
G75*
G02*
X136600000Y-64300000I250000J0D01*
G01*
X137400000Y-64300000D01*
G75*
G02*
X137650000Y-64550000I0J-250000D01*
G01*
X137650000Y-67450000D01*
G75*
G02*
X137400000Y-67700000I-250000J0D01*
G01*
X136600000Y-67700000D01*
G75*
G02*
X136350000Y-67450000I0J250000D01*
G01*
G37*
G36*
G01*
X131900000Y-67450000D02*
X131900000Y-64550000D01*
G75*
G02*
X132150000Y-64300000I250000J0D01*
G01*
X132950000Y-64300000D01*
G75*
G02*
X133200000Y-64550000I0J-250000D01*
G01*
X133200000Y-67450000D01*
G75*
G02*
X132950000Y-67700000I-250000J0D01*
G01*
X132150000Y-67700000D01*
G75*
G02*
X131900000Y-67450000I0J250000D01*
G01*
G37*
%TD*%
%TO.C,TH2*%
G36*
G01*
X126175000Y-66037500D02*
X128325000Y-66037500D01*
G75*
G02*
X128575000Y-66287500I0J-250000D01*
G01*
X128575000Y-67212500D01*
G75*
G02*
X128325000Y-67462500I-250000J0D01*
G01*
X126175000Y-67462500D01*
G75*
G02*
X125925000Y-67212500I0J250000D01*
G01*
X125925000Y-66287500D01*
G75*
G02*
X126175000Y-66037500I250000J0D01*
G01*
G37*
G36*
G01*
X126175000Y-63062500D02*
X128325000Y-63062500D01*
G75*
G02*
X128575000Y-63312500I0J-250000D01*
G01*
X128575000Y-64237500D01*
G75*
G02*
X128325000Y-64487500I-250000J0D01*
G01*
X126175000Y-64487500D01*
G75*
G02*
X125925000Y-64237500I0J250000D01*
G01*
X125925000Y-63312500D01*
G75*
G02*
X126175000Y-63062500I250000J0D01*
G01*
G37*
%TD*%
%TO.C,TH1*%
G36*
G01*
X93025000Y-83237500D02*
X93025000Y-82762500D01*
G75*
G02*
X93262500Y-82525000I237500J0D01*
G01*
X93837500Y-82525000D01*
G75*
G02*
X94075000Y-82762500I0J-237500D01*
G01*
X94075000Y-83237500D01*
G75*
G02*
X93837500Y-83475000I-237500J0D01*
G01*
X93262500Y-83475000D01*
G75*
G02*
X93025000Y-83237500I0J237500D01*
G01*
G37*
G36*
G01*
X91275000Y-83237500D02*
X91275000Y-82762500D01*
G75*
G02*
X91512500Y-82525000I237500J0D01*
G01*
X92087500Y-82525000D01*
G75*
G02*
X92325000Y-82762500I0J-237500D01*
G01*
X92325000Y-83237500D01*
G75*
G02*
X92087500Y-83475000I-237500J0D01*
G01*
X91512500Y-83475000D01*
G75*
G02*
X91275000Y-83237500I0J237500D01*
G01*
G37*
%TD*%
%TO.C,R17*%
G36*
G01*
X114525000Y-60762500D02*
X114525000Y-61237500D01*
G75*
G02*
X114287500Y-61475000I-237500J0D01*
G01*
X113712500Y-61475000D01*
G75*
G02*
X113475000Y-61237500I0J237500D01*
G01*
X113475000Y-60762500D01*
G75*
G02*
X113712500Y-60525000I237500J0D01*
G01*
X114287500Y-60525000D01*
G75*
G02*
X114525000Y-60762500I0J-237500D01*
G01*
G37*
G36*
G01*
X116275000Y-60762500D02*
X116275000Y-61237500D01*
G75*
G02*
X116037500Y-61475000I-237500J0D01*
G01*
X115462500Y-61475000D01*
G75*
G02*
X115225000Y-61237500I0J237500D01*
G01*
X115225000Y-60762500D01*
G75*
G02*
X115462500Y-60525000I237500J0D01*
G01*
X116037500Y-60525000D01*
G75*
G02*
X116275000Y-60762500I0J-237500D01*
G01*
G37*
%TD*%
%TO.C,R16*%
G36*
G01*
X114525000Y-56762500D02*
X114525000Y-57237500D01*
G75*
G02*
X114287500Y-57475000I-237500J0D01*
G01*
X113712500Y-57475000D01*
G75*
G02*
X113475000Y-57237500I0J237500D01*
G01*
X113475000Y-56762500D01*
G75*
G02*
X113712500Y-56525000I237500J0D01*
G01*
X114287500Y-56525000D01*
G75*
G02*
X114525000Y-56762500I0J-237500D01*
G01*
G37*
G36*
G01*
X116275000Y-56762500D02*
X116275000Y-57237500D01*
G75*
G02*
X116037500Y-57475000I-237500J0D01*
G01*
X115462500Y-57475000D01*
G75*
G02*
X115225000Y-57237500I0J237500D01*
G01*
X115225000Y-56762500D01*
G75*
G02*
X115462500Y-56525000I237500J0D01*
G01*
X116037500Y-56525000D01*
G75*
G02*
X116275000Y-56762500I0J-237500D01*
G01*
G37*
%TD*%
%TO.C,R15*%
G36*
G01*
X114525000Y-52762500D02*
X114525000Y-53237500D01*
G75*
G02*
X114287500Y-53475000I-237500J0D01*
G01*
X113712500Y-53475000D01*
G75*
G02*
X113475000Y-53237500I0J237500D01*
G01*
X113475000Y-52762500D01*
G75*
G02*
X113712500Y-52525000I237500J0D01*
G01*
X114287500Y-52525000D01*
G75*
G02*
X114525000Y-52762500I0J-237500D01*
G01*
G37*
G36*
G01*
X116275000Y-52762500D02*
X116275000Y-53237500D01*
G75*
G02*
X116037500Y-53475000I-237500J0D01*
G01*
X115462500Y-53475000D01*
G75*
G02*
X115225000Y-53237500I0J237500D01*
G01*
X115225000Y-52762500D01*
G75*
G02*
X115462500Y-52525000I237500J0D01*
G01*
X116037500Y-52525000D01*
G75*
G02*
X116275000Y-52762500I0J-237500D01*
G01*
G37*
%TD*%
%TO.C,R14*%
G36*
G01*
X107012500Y-61350000D02*
X107487500Y-61350000D01*
G75*
G02*
X107725000Y-61587500I0J-237500D01*
G01*
X107725000Y-62162500D01*
G75*
G02*
X107487500Y-62400000I-237500J0D01*
G01*
X107012500Y-62400000D01*
G75*
G02*
X106775000Y-62162500I0J237500D01*
G01*
X106775000Y-61587500D01*
G75*
G02*
X107012500Y-61350000I237500J0D01*
G01*
G37*
G36*
G01*
X107012500Y-59600000D02*
X107487500Y-59600000D01*
G75*
G02*
X107725000Y-59837500I0J-237500D01*
G01*
X107725000Y-60412500D01*
G75*
G02*
X107487500Y-60650000I-237500J0D01*
G01*
X107012500Y-60650000D01*
G75*
G02*
X106775000Y-60412500I0J237500D01*
G01*
X106775000Y-59837500D01*
G75*
G02*
X107012500Y-59600000I237500J0D01*
G01*
G37*
%TD*%
%TO.C,R13*%
G36*
G01*
X107012500Y-57350000D02*
X107487500Y-57350000D01*
G75*
G02*
X107725000Y-57587500I0J-237500D01*
G01*
X107725000Y-58162500D01*
G75*
G02*
X107487500Y-58400000I-237500J0D01*
G01*
X107012500Y-58400000D01*
G75*
G02*
X106775000Y-58162500I0J237500D01*
G01*
X106775000Y-57587500D01*
G75*
G02*
X107012500Y-57350000I237500J0D01*
G01*
G37*
G36*
G01*
X107012500Y-55600000D02*
X107487500Y-55600000D01*
G75*
G02*
X107725000Y-55837500I0J-237500D01*
G01*
X107725000Y-56412500D01*
G75*
G02*
X107487500Y-56650000I-237500J0D01*
G01*
X107012500Y-56650000D01*
G75*
G02*
X106775000Y-56412500I0J237500D01*
G01*
X106775000Y-55837500D01*
G75*
G02*
X107012500Y-55600000I237500J0D01*
G01*
G37*
%TD*%
%TO.C,R12*%
G36*
G01*
X107012500Y-53350000D02*
X107487500Y-53350000D01*
G75*
G02*
X107725000Y-53587500I0J-237500D01*
G01*
X107725000Y-54162500D01*
G75*
G02*
X107487500Y-54400000I-237500J0D01*
G01*
X107012500Y-54400000D01*
G75*
G02*
X106775000Y-54162500I0J237500D01*
G01*
X106775000Y-53587500D01*
G75*
G02*
X107012500Y-53350000I237500J0D01*
G01*
G37*
G36*
G01*
X107012500Y-51600000D02*
X107487500Y-51600000D01*
G75*
G02*
X107725000Y-51837500I0J-237500D01*
G01*
X107725000Y-52412500D01*
G75*
G02*
X107487500Y-52650000I-237500J0D01*
G01*
X107012500Y-52650000D01*
G75*
G02*
X106775000Y-52412500I0J237500D01*
G01*
X106775000Y-51837500D01*
G75*
G02*
X107012500Y-51600000I237500J0D01*
G01*
G37*
%TD*%
%TO.C,R11*%
G36*
G01*
X69737500Y-81725000D02*
X69262500Y-81725000D01*
G75*
G02*
X69025000Y-81487500I0J237500D01*
G01*
X69025000Y-80912500D01*
G75*
G02*
X69262500Y-80675000I237500J0D01*
G01*
X69737500Y-80675000D01*
G75*
G02*
X69975000Y-80912500I0J-237500D01*
G01*
X69975000Y-81487500D01*
G75*
G02*
X69737500Y-81725000I-237500J0D01*
G01*
G37*
G36*
G01*
X69737500Y-83475000D02*
X69262500Y-83475000D01*
G75*
G02*
X69025000Y-83237500I0J237500D01*
G01*
X69025000Y-82662500D01*
G75*
G02*
X69262500Y-82425000I237500J0D01*
G01*
X69737500Y-82425000D01*
G75*
G02*
X69975000Y-82662500I0J-237500D01*
G01*
X69975000Y-83237500D01*
G75*
G02*
X69737500Y-83475000I-237500J0D01*
G01*
G37*
%TD*%
%TO.C,R10*%
G36*
G01*
X67737500Y-81725000D02*
X67262500Y-81725000D01*
G75*
G02*
X67025000Y-81487500I0J237500D01*
G01*
X67025000Y-80912500D01*
G75*
G02*
X67262500Y-80675000I237500J0D01*
G01*
X67737500Y-80675000D01*
G75*
G02*
X67975000Y-80912500I0J-237500D01*
G01*
X67975000Y-81487500D01*
G75*
G02*
X67737500Y-81725000I-237500J0D01*
G01*
G37*
G36*
G01*
X67737500Y-83475000D02*
X67262500Y-83475000D01*
G75*
G02*
X67025000Y-83237500I0J237500D01*
G01*
X67025000Y-82662500D01*
G75*
G02*
X67262500Y-82425000I237500J0D01*
G01*
X67737500Y-82425000D01*
G75*
G02*
X67975000Y-82662500I0J-237500D01*
G01*
X67975000Y-83237500D01*
G75*
G02*
X67737500Y-83475000I-237500J0D01*
G01*
G37*
%TD*%
%TO.C,R9*%
G36*
G01*
X65737500Y-81725000D02*
X65262500Y-81725000D01*
G75*
G02*
X65025000Y-81487500I0J237500D01*
G01*
X65025000Y-80912500D01*
G75*
G02*
X65262500Y-80675000I237500J0D01*
G01*
X65737500Y-80675000D01*
G75*
G02*
X65975000Y-80912500I0J-237500D01*
G01*
X65975000Y-81487500D01*
G75*
G02*
X65737500Y-81725000I-237500J0D01*
G01*
G37*
G36*
G01*
X65737500Y-83475000D02*
X65262500Y-83475000D01*
G75*
G02*
X65025000Y-83237500I0J237500D01*
G01*
X65025000Y-82662500D01*
G75*
G02*
X65262500Y-82425000I237500J0D01*
G01*
X65737500Y-82425000D01*
G75*
G02*
X65975000Y-82662500I0J-237500D01*
G01*
X65975000Y-83237500D01*
G75*
G02*
X65737500Y-83475000I-237500J0D01*
G01*
G37*
%TD*%
%TO.C,R8*%
G36*
G01*
X63737500Y-81725000D02*
X63262500Y-81725000D01*
G75*
G02*
X63025000Y-81487500I0J237500D01*
G01*
X63025000Y-80912500D01*
G75*
G02*
X63262500Y-80675000I237500J0D01*
G01*
X63737500Y-80675000D01*
G75*
G02*
X63975000Y-80912500I0J-237500D01*
G01*
X63975000Y-81487500D01*
G75*
G02*
X63737500Y-81725000I-237500J0D01*
G01*
G37*
G36*
G01*
X63737500Y-83475000D02*
X63262500Y-83475000D01*
G75*
G02*
X63025000Y-83237500I0J237500D01*
G01*
X63025000Y-82662500D01*
G75*
G02*
X63262500Y-82425000I237500J0D01*
G01*
X63737500Y-82425000D01*
G75*
G02*
X63975000Y-82662500I0J-237500D01*
G01*
X63975000Y-83237500D01*
G75*
G02*
X63737500Y-83475000I-237500J0D01*
G01*
G37*
%TD*%
%TO.C,R7*%
G36*
G01*
X89275000Y-83237500D02*
X89275000Y-82762500D01*
G75*
G02*
X89512500Y-82525000I237500J0D01*
G01*
X90087500Y-82525000D01*
G75*
G02*
X90325000Y-82762500I0J-237500D01*
G01*
X90325000Y-83237500D01*
G75*
G02*
X90087500Y-83475000I-237500J0D01*
G01*
X89512500Y-83475000D01*
G75*
G02*
X89275000Y-83237500I0J237500D01*
G01*
G37*
G36*
G01*
X87525000Y-83237500D02*
X87525000Y-82762500D01*
G75*
G02*
X87762500Y-82525000I237500J0D01*
G01*
X88337500Y-82525000D01*
G75*
G02*
X88575000Y-82762500I0J-237500D01*
G01*
X88575000Y-83237500D01*
G75*
G02*
X88337500Y-83475000I-237500J0D01*
G01*
X87762500Y-83475000D01*
G75*
G02*
X87525000Y-83237500I0J237500D01*
G01*
G37*
%TD*%
%TO.C,R6*%
G36*
G01*
X119512500Y-71725000D02*
X119987500Y-71725000D01*
G75*
G02*
X120225000Y-71962500I0J-237500D01*
G01*
X120225000Y-72537500D01*
G75*
G02*
X119987500Y-72775000I-237500J0D01*
G01*
X119512500Y-72775000D01*
G75*
G02*
X119275000Y-72537500I0J237500D01*
G01*
X119275000Y-71962500D01*
G75*
G02*
X119512500Y-71725000I237500J0D01*
G01*
G37*
G36*
G01*
X119512500Y-73475000D02*
X119987500Y-73475000D01*
G75*
G02*
X120225000Y-73712500I0J-237500D01*
G01*
X120225000Y-74287500D01*
G75*
G02*
X119987500Y-74525000I-237500J0D01*
G01*
X119512500Y-74525000D01*
G75*
G02*
X119275000Y-74287500I0J237500D01*
G01*
X119275000Y-73712500D01*
G75*
G02*
X119512500Y-73475000I237500J0D01*
G01*
G37*
%TD*%
%TO.C,R5*%
G36*
G01*
X119512500Y-69475000D02*
X119987500Y-69475000D01*
G75*
G02*
X120225000Y-69712500I0J-237500D01*
G01*
X120225000Y-70287500D01*
G75*
G02*
X119987500Y-70525000I-237500J0D01*
G01*
X119512500Y-70525000D01*
G75*
G02*
X119275000Y-70287500I0J237500D01*
G01*
X119275000Y-69712500D01*
G75*
G02*
X119512500Y-69475000I237500J0D01*
G01*
G37*
G36*
G01*
X119512500Y-67725000D02*
X119987500Y-67725000D01*
G75*
G02*
X120225000Y-67962500I0J-237500D01*
G01*
X120225000Y-68537500D01*
G75*
G02*
X119987500Y-68775000I-237500J0D01*
G01*
X119512500Y-68775000D01*
G75*
G02*
X119275000Y-68537500I0J237500D01*
G01*
X119275000Y-67962500D01*
G75*
G02*
X119512500Y-67725000I237500J0D01*
G01*
G37*
%TD*%
%TO.C,R4*%
G36*
G01*
X118775000Y-80762500D02*
X118775000Y-81237500D01*
G75*
G02*
X118537500Y-81475000I-237500J0D01*
G01*
X117962500Y-81475000D01*
G75*
G02*
X117725000Y-81237500I0J237500D01*
G01*
X117725000Y-80762500D01*
G75*
G02*
X117962500Y-80525000I237500J0D01*
G01*
X118537500Y-80525000D01*
G75*
G02*
X118775000Y-80762500I0J-237500D01*
G01*
G37*
G36*
G01*
X120525000Y-80762500D02*
X120525000Y-81237500D01*
G75*
G02*
X120287500Y-81475000I-237500J0D01*
G01*
X119712500Y-81475000D01*
G75*
G02*
X119475000Y-81237500I0J237500D01*
G01*
X119475000Y-80762500D01*
G75*
G02*
X119712500Y-80525000I237500J0D01*
G01*
X120287500Y-80525000D01*
G75*
G02*
X120525000Y-80762500I0J-237500D01*
G01*
G37*
%TD*%
%TO.C,R3*%
G36*
G01*
X118775000Y-82762500D02*
X118775000Y-83237500D01*
G75*
G02*
X118537500Y-83475000I-237500J0D01*
G01*
X117962500Y-83475000D01*
G75*
G02*
X117725000Y-83237500I0J237500D01*
G01*
X117725000Y-82762500D01*
G75*
G02*
X117962500Y-82525000I237500J0D01*
G01*
X118537500Y-82525000D01*
G75*
G02*
X118775000Y-82762500I0J-237500D01*
G01*
G37*
G36*
G01*
X120525000Y-82762500D02*
X120525000Y-83237500D01*
G75*
G02*
X120287500Y-83475000I-237500J0D01*
G01*
X119712500Y-83475000D01*
G75*
G02*
X119475000Y-83237500I0J237500D01*
G01*
X119475000Y-82762500D01*
G75*
G02*
X119712500Y-82525000I237500J0D01*
G01*
X120287500Y-82525000D01*
G75*
G02*
X120525000Y-82762500I0J-237500D01*
G01*
G37*
%TD*%
%TO.C,R2*%
G36*
G01*
X123525000Y-80762500D02*
X123525000Y-81237500D01*
G75*
G02*
X123287500Y-81475000I-237500J0D01*
G01*
X122712500Y-81475000D01*
G75*
G02*
X122475000Y-81237500I0J237500D01*
G01*
X122475000Y-80762500D01*
G75*
G02*
X122712500Y-80525000I237500J0D01*
G01*
X123287500Y-80525000D01*
G75*
G02*
X123525000Y-80762500I0J-237500D01*
G01*
G37*
G36*
G01*
X125275000Y-80762500D02*
X125275000Y-81237500D01*
G75*
G02*
X125037500Y-81475000I-237500J0D01*
G01*
X124462500Y-81475000D01*
G75*
G02*
X124225000Y-81237500I0J237500D01*
G01*
X124225000Y-80762500D01*
G75*
G02*
X124462500Y-80525000I237500J0D01*
G01*
X125037500Y-80525000D01*
G75*
G02*
X125275000Y-80762500I0J-237500D01*
G01*
G37*
%TD*%
%TO.C,R1*%
G36*
G01*
X127525000Y-80762500D02*
X127525000Y-81237500D01*
G75*
G02*
X127287500Y-81475000I-237500J0D01*
G01*
X126712500Y-81475000D01*
G75*
G02*
X126475000Y-81237500I0J237500D01*
G01*
X126475000Y-80762500D01*
G75*
G02*
X126712500Y-80525000I237500J0D01*
G01*
X127287500Y-80525000D01*
G75*
G02*
X127525000Y-80762500I0J-237500D01*
G01*
G37*
G36*
G01*
X129275000Y-80762500D02*
X129275000Y-81237500D01*
G75*
G02*
X129037500Y-81475000I-237500J0D01*
G01*
X128462500Y-81475000D01*
G75*
G02*
X128225000Y-81237500I0J237500D01*
G01*
X128225000Y-80762500D01*
G75*
G02*
X128462500Y-80525000I237500J0D01*
G01*
X129037500Y-80525000D01*
G75*
G02*
X129275000Y-80762500I0J-237500D01*
G01*
G37*
%TD*%
D21*
%TO.C,Q3*%
X112000000Y-61000000D03*
X109600000Y-61950000D03*
X109600000Y-60050000D03*
%TD*%
%TO.C,Q2*%
X112000000Y-57000000D03*
X109600000Y-57950000D03*
X109600000Y-56050000D03*
%TD*%
%TO.C,Q1*%
X112000000Y-53000000D03*
X109600000Y-53950000D03*
X109600000Y-52050000D03*
%TD*%
D22*
%TO.C,P30*%
X145500000Y-75440000D03*
D23*
X148040000Y-75440000D03*
X150580000Y-75440000D03*
X153120000Y-75440000D03*
X155660000Y-75440000D03*
%TD*%
%TO.C,P5*%
X138000000Y-71250000D03*
X135460000Y-71250000D03*
X132920000Y-71250000D03*
X130380000Y-71250000D03*
D22*
X127840000Y-71250000D03*
%TD*%
D24*
%TO.C,P4*%
X121500000Y-60000000D03*
X124000000Y-60000000D03*
X126500000Y-60000000D03*
G36*
G01*
X129850000Y-59275000D02*
X129850000Y-60725000D01*
G75*
G02*
X129600000Y-60975000I-250000J0D01*
G01*
X128400000Y-60975000D01*
G75*
G02*
X128150000Y-60725000I0J250000D01*
G01*
X128150000Y-59275000D01*
G75*
G02*
X128400000Y-59025000I250000J0D01*
G01*
X129600000Y-59025000D01*
G75*
G02*
X129850000Y-59275000I0J-250000D01*
G01*
G37*
%TD*%
%TO.C,P3*%
G36*
G01*
X71850000Y-59275000D02*
X71850000Y-60725000D01*
G75*
G02*
X71600000Y-60975000I-250000J0D01*
G01*
X70400000Y-60975000D01*
G75*
G02*
X70150000Y-60725000I0J250000D01*
G01*
X70150000Y-59275000D01*
G75*
G02*
X70400000Y-59025000I250000J0D01*
G01*
X71600000Y-59025000D01*
G75*
G02*
X71850000Y-59275000I0J-250000D01*
G01*
G37*
X68500000Y-60000000D03*
X66000000Y-60000000D03*
X63500000Y-60000000D03*
%TD*%
D25*
%TO.C,P1*%
X134500000Y-60000000D03*
G36*
G01*
X137850000Y-59250000D02*
X137850000Y-60750000D01*
G75*
G02*
X137600000Y-61000000I-250000J0D01*
G01*
X136400000Y-61000000D01*
G75*
G02*
X136150000Y-60750000I0J250000D01*
G01*
X136150000Y-59250000D01*
G75*
G02*
X136400000Y-59000000I250000J0D01*
G01*
X137600000Y-59000000D01*
G75*
G02*
X137850000Y-59250000I0J-250000D01*
G01*
G37*
%TD*%
D22*
%TO.C,J2*%
X158200000Y-105920000D03*
D23*
X158200000Y-103380000D03*
X158200000Y-100840000D03*
X158200000Y-98300000D03*
X158200000Y-95760000D03*
X158200000Y-93220000D03*
X158200000Y-90680000D03*
X158200000Y-88140000D03*
X158200000Y-85600000D03*
X158200000Y-83060000D03*
X158200000Y-80520000D03*
X158200000Y-77980000D03*
%TD*%
D22*
%TO.C,J1*%
X142960000Y-105920000D03*
D23*
X142960000Y-103380000D03*
X142960000Y-100840000D03*
X142960000Y-98300000D03*
X142960000Y-95760000D03*
X142960000Y-93220000D03*
X142960000Y-90680000D03*
X142960000Y-88140000D03*
X142960000Y-85600000D03*
X142960000Y-83060000D03*
X142960000Y-80520000D03*
X142960000Y-77980000D03*
%TD*%
D26*
%TO.C,D3*%
X120000000Y-79000000D03*
X116700000Y-79000000D03*
%TD*%
%TO.C,D2*%
X130300000Y-83000000D03*
X127000000Y-83000000D03*
%TD*%
%TO.C,D1*%
X127000000Y-79000000D03*
X130300000Y-79000000D03*
%TD*%
%TO.C,C2*%
G36*
G01*
X110850001Y-65525000D02*
X109949999Y-65525000D01*
G75*
G02*
X109700000Y-65275001I0J249999D01*
G01*
X109700000Y-64624999D01*
G75*
G02*
X109949999Y-64375000I249999J0D01*
G01*
X110850001Y-64375000D01*
G75*
G02*
X111100000Y-64624999I0J-249999D01*
G01*
X111100000Y-65275001D01*
G75*
G02*
X110850001Y-65525000I-249999J0D01*
G01*
G37*
G36*
G01*
X110850001Y-67575000D02*
X109949999Y-67575000D01*
G75*
G02*
X109700000Y-67325001I0J249999D01*
G01*
X109700000Y-66674999D01*
G75*
G02*
X109949999Y-66425000I249999J0D01*
G01*
X110850001Y-66425000D01*
G75*
G02*
X111100000Y-66674999I0J-249999D01*
G01*
X111100000Y-67325001D01*
G75*
G02*
X110850001Y-67575000I-249999J0D01*
G01*
G37*
%TD*%
%TO.C,C1*%
G36*
G01*
X115237500Y-65525000D02*
X114762500Y-65525000D01*
G75*
G02*
X114525000Y-65287500I0J237500D01*
G01*
X114525000Y-64712500D01*
G75*
G02*
X114762500Y-64475000I237500J0D01*
G01*
X115237500Y-64475000D01*
G75*
G02*
X115475000Y-64712500I0J-237500D01*
G01*
X115475000Y-65287500D01*
G75*
G02*
X115237500Y-65525000I-237500J0D01*
G01*
G37*
G36*
G01*
X115237500Y-67275000D02*
X114762500Y-67275000D01*
G75*
G02*
X114525000Y-67037500I0J237500D01*
G01*
X114525000Y-66462500D01*
G75*
G02*
X114762500Y-66225000I237500J0D01*
G01*
X115237500Y-66225000D01*
G75*
G02*
X115475000Y-66462500I0J-237500D01*
G01*
X115475000Y-67037500D01*
G75*
G02*
X115237500Y-67275000I-237500J0D01*
G01*
G37*
%TD*%
M02*
